<svg version="1.1" id="Layer_1" xmlns="http://www.w3.org/2000/svg" xmlns:xlink="http://www.w3.org/1999/xlink" x="0px" y="0px"
	 width="88px" height="82px" viewBox="0 0 88 82" enable-background="new 0 0 88 82" xml:space="preserve">
<g>
	<path fill="#494949" d="M42.131,42.638l-3.275-1.871l-0.467,2.34l-3.078,0.658c-2.104,0.451-3.734,2.117-4.141,4.229l-1.668,8.67
		l12.629,2.338l-1.403-9.35l1.87-2.805l-1.402-1.871L42.131,42.638z"/>
	<path fill="#494949" d="M53.476,51.526c-3.546,0-6.431-2.885-6.431-6.43c0-1.457,0.493-2.799,1.315-3.879l-2.486,1.42l0.936,2.338
		l-1.404,1.869l1.87,2.807l-1.401,9.352l12.629-2.34l-1.23-6.389C56.206,51.058,54.896,51.526,53.476,51.526"/>
	<path fill="#494949" d="M44.002,23.001c-5.684,0-10.29,1.152-10.29,2.571c0,0.683,1.067,1.304,2.806,1.765v4.889
		c0,4.434,2.922,8.299,7.086,9.375l0.398,0.102l0.919-0.297c3.905-1.26,6.563-4.996,6.563-9.223v-4.846
		c1.74-0.461,2.807-1.082,2.807-1.765C54.292,24.153,49.686,23.001,44.002,23.001 M40.728,28.146v-0.937h6.548v0.937h-1.87v0.934
		h-2.808v-0.934 M44.002,33.287c-3.592,0-6.548-1.267-6.548-2.804h6.548h6.547C50.55,32.021,47.594,33.287,44.002,33.287"/>
	<path fill="#C1272D" d="M48.845,45.097c0,2.557,2.074,4.629,4.631,4.629s4.631-2.072,4.631-4.629c0-2.555-2.074-4.629-4.631-4.629
		S48.845,42.542,48.845,45.097"/>
</g>
</svg>
