<?xml version="1.0" encoding="utf-8"?>
<!-- Generator: Adobe Illustrator 24.2.3, SVG Export Plug-In . SVG Version: 6.00 Build 0)  -->
<svg version="1.1" id="Layer_1" xmlns="http://www.w3.org/2000/svg" xmlns:xlink="http://www.w3.org/1999/xlink" x="0px" y="0px"
	 viewBox="0 0 88 82" style="enable-background:new 0 0 88 82;" xml:space="preserve">
<style type="text/css">
	.st0{fill:#C4747A;}
	.st1{fill:#666666;}
	.st2{fill:#999999;}
	.st3{fill:#C1272D;}
</style>
<g>
	<path class="st0" d="M44.3,30.8c1.4,3.2,0.4,6,4,9.7c4.1,4.2,7.2,2.3,11,4.8C58.9,37.3,52.3,31,44.3,30.8z"/>
	<path class="st1" d="M88,21.4c0-3.9-3.2-7.1-7.1-7.1H66.6l-2.1-7.5c-0.7-2.3-3.2-4.2-5.6-4.2H29.2c-2.4,0-4.9,1.9-5.6,4.2L23,8.6
		c4.2,4.6,1.3,7.8,5.9,12.5c3.5,3.5,6.2,2.8,9.2,3.9c1.8-0.5,3.8-0.8,5.8-0.8c12.1,0,22,9.9,22,22c0,2.7-0.5,5.2-1.4,7.6
		c0.4,1.9,0.9,3.8,3.1,6.1c4.8,4.8,8.2,1.5,13,6.4c3.9,3.9,2.5,6.9,4.4,10.4c1.7-1.3,2.9-3.3,2.9-5.7L88,21.4L88,21.4z"/>
	<path class="st2" d="M80.6,79.1c-0.1-0.4-0.2-0.7-0.3-1.1v-0.1C80.1,77.5,80,77,80,76.5c0-0.1,0-0.3-0.1-0.4c0-0.2-0.1-0.4-0.1-0.5
		c0-0.2-0.1-0.4-0.1-0.6s-0.1-0.3-0.1-0.5c-0.1-0.2-0.1-0.4-0.2-0.6c-0.1-0.1-0.1-0.3-0.2-0.5S79,73,78.9,72.8
		c-0.1-0.1-0.1-0.3-0.2-0.4c-0.1-0.2-0.3-0.5-0.5-0.7c-0.1-0.1-0.2-0.2-0.3-0.4c-0.3-0.4-0.6-0.8-1-1.2c-4.8-4.8-8.2-1.5-13-6.4
		c-0.3-0.3-0.6-0.7-0.9-1c-0.1-0.1-0.1-0.2-0.2-0.3c-0.2-0.2-0.4-0.5-0.5-0.7c-0.1-0.1-0.1-0.2-0.2-0.2c-0.1-0.2-0.3-0.5-0.4-0.7
		c0-0.1-0.1-0.1-0.1-0.2c-0.1-0.3-0.3-0.6-0.3-0.9l0,0c-1-3-0.4-5.6-3.8-9c-4.8-4.8-8.2-1.5-13-6.4c-4.8-4.8-1.5-8.1-6.4-13
		c-2.5-2.5-4.6-2.8-6.7-3.2c-0.2,0-0.4-0.1-0.6-0.1c-0.1,0-0.2,0-0.3-0.1c-0.2,0-0.3-0.1-0.5-0.1c-0.1,0-0.2-0.1-0.3-0.1
		c-0.1,0-0.3-0.1-0.4-0.1s-0.3-0.1-0.4-0.1c-0.1-0.1-0.3-0.1-0.4-0.1c-0.1-0.1-0.3-0.1-0.4-0.2s-0.2-0.1-0.4-0.2
		c-0.2-0.1-0.3-0.2-0.5-0.3c-0.1-0.1-0.2-0.1-0.3-0.2c-0.2-0.1-0.4-0.3-0.6-0.4C26.2,26,26.1,26,26,25.9c-0.3-0.2-0.6-0.5-0.9-0.8
		s-0.5-0.6-0.8-0.8c-0.1-0.1-0.1-0.2-0.2-0.2c-0.2-0.2-0.3-0.4-0.4-0.6c-0.1-0.1-0.1-0.2-0.2-0.3c-0.1-0.2-0.2-0.4-0.3-0.5
		c0-0.1-0.1-0.1-0.1-0.2c-0.1-0.2-0.2-0.4-0.3-0.6v-0.1c-1-2.5-0.7-4.7-2.2-7.3l0,0l0,0c-0.4-0.7-1-1.5-1.8-2.3L18,13
		c0.5,0.5,0.9,1,1.2,1.5H7.1c-3.9,0-7.1,3.2-7.1,7.1V71c0,3.9,3.2,7.1,7.1,7.1h72.1c0.1,0.5,0.2,1,0.4,1.5L80.6,79.1z M13.8,31.3
		c-2.4,0-4.4-2-4.4-4.4s2-4.4,4.4-4.4s4.4,2,4.4,4.4S16.2,31.3,13.8,31.3z M44,68.2c-12.1,0-22-9.9-22-22c0-6.9,3.2-13.1,8.3-17.1
		c0.4,0.1,0.7,0.1,1.1,0.2c2,0.4,3.7,0.7,5.9,2.9s2.5,3.9,2.9,5.9c0.4,2.1,0.8,4.4,3.5,7.1c2.7,2.7,5,3.1,7.1,3.5
		c2,0.4,3.7,0.7,5.9,2.9s2.5,3.9,2.9,5.9c0.2,1,0.4,2.1,0.9,3.3C56.4,65.3,50.5,68.2,44,68.2z"/>
	<path class="st3" d="M56.6,51.6c-2.2-2.2-3.9-2.5-5.9-2.9c-2.1-0.4-4.4-0.8-7.1-3.5c-2.7-2.7-3.1-5-3.5-7.1c-0.4-2-0.7-3.7-2.7-5.8
		c-5.2,2.5-8.8,7.7-8.8,13.8c0,8.5,6.9,15.4,15.4,15.4c6.1,0,11.3-3.6,13.8-8.7C57.5,52.5,57.1,52,56.6,51.6z"/>
</g>
</svg>
