<?xml version="1.0" encoding="utf-8"?>
<!-- Generator: Adobe Illustrator 15.0.0, SVG Export Plug-In . SVG Version: 6.00 Build 0)  -->
<!DOCTYPE svg PUBLIC "-//W3C//DTD SVG 1.1//EN" "http://www.w3.org/Graphics/SVG/1.1/DTD/svg11.dtd">
<svg version="1.1" id="Layer_1" xmlns="http://www.w3.org/2000/svg" xmlns:xlink="http://www.w3.org/1999/xlink" x="0px" y="0px"
	 width="88px" height="82px" viewBox="0 0 88 82" enable-background="new 0 0 88 82" xml:space="preserve">
<g>
	<polygon fill="#494949" points="45.677,50.045 34.989,50.045 37.239,45.545 43.427,45.545 	"/>
	<path fill="#494949" d="M35.613,57.223c0,0.826-0.668,1.494-1.493,1.494c-0.824,0-1.492-0.668-1.492-1.494
		c0-0.824,0.668-1.492,1.492-1.492C34.945,55.73,35.613,56.398,35.613,57.223"/>
	<path fill="#494949" d="M57.214,57.223c0,0.826-0.668,1.494-1.494,1.494c-0.822,0-1.492-0.668-1.492-1.494
		c0-0.824,0.67-1.492,1.492-1.492C56.546,55.73,57.214,56.398,57.214,57.223"/>
	<path fill="#494949" d="M25.999,51.043v6.201l3.644-0.035c0,0.006-0.001,0.012-0.001,0.018c0,2.473,2.006,4.477,4.479,4.477
		c2.468,0,4.466-1.994,4.477-4.457h12.646c0.011,2.463,2.011,4.457,4.478,4.457s4.467-1.994,4.478-4.457h1.802v-6.203H25.999
		L25.999,51.043z M34.12,60.803c-1.973,0-3.578-1.605-3.578-3.578c0-1.975,1.605-3.58,3.578-3.58s3.579,1.605,3.579,3.58
		C37.699,59.197,36.093,60.803,34.12,60.803z M55.72,60.803c-1.973,0-3.578-1.605-3.578-3.578c0-1.975,1.605-3.58,3.578-3.58
		c1.975,0,3.58,1.605,3.58,3.58C59.3,59.197,57.692,60.803,55.72,60.803z"/>
	<path fill="#494949" d="M55.827,36.545h-8.229l-0.102,13.5h14.502v-4.154L55.827,36.545z M52.999,49.145h-3.6v-0.898h3.6V49.145z
		 M51.198,47.346v-7.201h3.601l3.601,7.201H51.198z"/>
	<path fill="#494949" d="M42.7,44.645h-5.178l-9.855-12.952c-0.721-0.969-0.029-2.348,1.18-2.348h0.563
		c0.748,0,1.455,0.344,1.916,0.934L42.7,44.645z"/>
	<path fill="#C1272D" d="M28.67,45.236c0.016-0.045,0.029-0.092,0.029-0.143v-1.371c0.503-0.053,0.899-0.461,0.899-0.979v-1.602
		c0-0.515-0.396-0.927-0.899-0.979v-7.115l-0.9-1.183v8.298c-0.503,0.053-0.899,0.464-0.899,0.979v1.602
		c0,0.518,0.396,0.926,0.899,0.979v1.371c0,0.133,0.06,0.25,0.151,0.332c-0.039,0.066-0.068,0.139-0.068,0.223
		c-0.001,0.248,0.199,0.451,0.449,0.451c0.385,0.002,0.709,0.324,0.709,0.713c0,0.385-0.324,0.711-0.711,0.711
		c-0.385,0-0.711-0.326-0.711-0.711c0-0.248-0.201-0.451-0.449-0.451c-0.25,0-0.45,0.203-0.45,0.451c0,0.887,0.723,1.607,1.61,1.607
		c0.889,0,1.611-0.723,1.611-1.607C29.94,46.041,29.395,45.395,28.67,45.236z"/>
	<rect x="25.999" y="20.299" fill="none" width="36" height="41.404"/>
</g>
</svg>
