<?xml version="1.0" encoding="utf-8"?>
<!-- Generator: Adobe Illustrator 15.0.0, SVG Export Plug-In . SVG Version: 6.00 Build 0)  -->
<!DOCTYPE svg PUBLIC "-//W3C//DTD SVG 1.1//EN" "http://www.w3.org/Graphics/SVG/1.1/DTD/svg11.dtd">
<svg version="1.1" id="Layer_1" xmlns="http://www.w3.org/2000/svg" xmlns:xlink="http://www.w3.org/1999/xlink" x="0px" y="0px"
	 width="88px" height="82px" viewBox="0 0 88 82" enable-background="new 0 0 88 82" xml:space="preserve">
<g>
	<path fill="#494949" d="M46.643,46.861c0.396,0.363,0.732,0.783,1.002,1.25l8.551-8.433L46.643,46.861z"/>
	<path fill="#C1272D" d="M55.035,37.432c-0.108-0.104-0.219-0.207-0.329-0.308l2.696-2.955c0.135,0.124,0.27,0.25,0.402,0.376
		L55.035,37.432z"/>
	<path fill="#C1272D" d="M59.768,46.252c-0.096-0.547-0.222-1.096-0.375-1.633l3.847-1.102c0.19,0.672,0.35,1.36,0.47,2.047
		L59.768,46.252z"/>
	<path fill="#C1272D" d="M58.846,43.035c-0.209-0.514-0.447-1.025-0.711-1.52l3.529-1.884c0.328,0.617,0.627,1.256,0.889,1.901
		L58.846,43.035z"/>
	<path fill="#C1272D" d="M57.268,40.076c-0.311-0.459-0.649-0.91-1.012-1.34l3.064-2.571c0.449,0.536,0.875,1.1,1.262,1.674
		L57.268,40.076z"/>
	<path fill="#C1272D" d="M64.002,48.969h-4c0-0.15-0.004-0.301-0.007-0.453l3.999-0.094C63.998,48.605,64.002,48.787,64.002,48.969z
		"/>
	<path fill="#494949" d="M28.002,48.969h-4c0-11.028,8.972-19.999,20-19.999c4.35,0,8.497,1.395,11.992,4.035l-2.41,3.191
		c-2.795-2.111-6.109-3.227-9.582-3.227C35.18,32.97,28.002,40.147,28.002,48.969z"/>
	<path fill="#494949" d="M44.002,47.229c-1.604,0-2.904,1.299-2.904,2.902s1.301,2.902,2.904,2.902c1.604,0,2.902-1.299,2.902-2.902
		S45.605,47.229,44.002,47.229"/>
</g>
</svg>
