<svg version="1.1" id="Layer_1" xmlns="http://www.w3.org/2000/svg" xmlns:xlink="http://www.w3.org/1999/xlink" x="0px" y="0px"
	 width="88px" height="82px" viewBox="0 0 88 82" enable-background="new 0 0 88 82" xml:space="preserve">
<g>
	<polygon fill="#494949" points="47.747,56.074 58.868,44.217 60.561,45.795 49.438,57.652 	"/>
	<path fill="#494949" d="M53.452,43.355c-0.553-0.736-0.339-0.512-1.23-0.484c-1.512-1.264-1.436,0.553-5.97,2.096
		c-1.068,0.365-3.814,1.035-5.289,0.803c-0.744-0.113-1.583-0.262-2.39-0.654c-0.112-0.061,0.167,0.283-0.511-0.607l-1.233,0.9
		l-0.712-0.895l0.116-0.1l1.057-0.799l-5.296-7.059l-6.492,7.87l3.69,5.313l1.636-1.236l0.908,1.256l-0.762,0.697
		c0.152,0.285,0.762,1.451,0.875,1.941c0.131,0.559,0.425,2.264,1.854,4.07c0,0,0.501-0.068,0.596-0.082l-0.408,0.58
		c0.001,0.119,0.112,0.322,0.201,0.482c0.174,0.313,0.672,0.82,0.893,1.012c0.219,0.193,1.154,0.322,2.393-0.313
		c1.238-0.637,2.509-1.574,2.885-1.84c0.375-0.266,1.203-2.186,1.953-2.717c0.751-0.531,2.414-0.848,3.875-1.449
		c1.845-1.145,2.747-1.809,3.202-2.186c1.447-1.197,4.661-4.309,4.861-5.482C54.153,44.473,54.007,44.09,53.452,43.355z
		 M49.283,44.703c-1.286,1.031-3.302,2.289-5.808,2.654c-2.604,0.383-4.51,0.035-5.945-0.932l0.75-0.422c0,0,4,2.334,11.524-1.926
		C50.146,43.881,50.294,43.891,49.283,44.703z"/>
	<polygon fill="#494949" points="54.511,54.043 55.778,52.689 61.382,59.225 62.503,59.225 62.503,60.752 28.362,60.752 
		28.362,59.225 58.954,59.225 	"/>
	<g>
		<path fill="#C1272D" d="M61.825,37.713l-6.328,8.457c-0.083,0.129-0.129,0.104-0.102-0.047l1.193-6.381
			c0.027-0.152-0.067-0.274-0.212-0.274h-2.619c-0.144,0-0.231-0.125-0.192-0.271l2.605-7.184c0.039-0.149,0.191-0.266,0.334-0.261
			l5.025,0.179c0.145,0.004,0.207,0.121,0.139,0.258l-2.528,5.05c-0.067,0.138-0.005,0.247,0.139,0.247h2.437
			C61.86,37.485,61.909,37.59,61.825,37.713z"/>
	</g>
	<rect x="25.502" y="21.251" fill="none" width="37" height="39.5"/>
</g>
</svg>
