<?xml version="1.0" encoding="utf-8"?>
<!-- Generator: Adobe Illustrator 24.2.3, SVG Export Plug-In . SVG Version: 6.00 Build 0)  -->
<svg version="1.1" id="Layer_1" xmlns="http://www.w3.org/2000/svg" xmlns:xlink="http://www.w3.org/1999/xlink" x="0px" y="0px"
	 viewBox="0 0 88 82" style="enable-background:new 0 0 88 82;" xml:space="preserve">
<style type="text/css">
	.st0{opacity:0.2;fill:#4C4C4C;enable-background:new    ;}
	.st1{fill:#999999;}
	.st2{fill:#D60000;}
</style>
<g>
	<polygon class="st0" points="5.4,67.5 9.5,14.5 61.8,14.3 80.8,65.5 	"/>
	<g>
		<polygon class="st1" points="1.7,71.3 6.7,10.2 12.1,11.6 11,16 10.9,16 6.7,66.5 79.7,63.5 83.1,62.1 85.5,67.8 		"/>
	</g>
	<g>
		<g>
			<g>
				
					<rect x="13.1" y="13" transform="matrix(0.9978 -6.662948e-02 6.662948e-02 0.9978 -0.9102 1.0176)" class="st2" width="3.4" height="2.3"/>
			</g>
			<g>
				<path class="st2" d="M21.6,15.2v-2.3l7.5-0.1v2.3L21.6,15.2z M34.2,14.9v-2.3l7.5-0.1v2.3L34.2,14.9z M46.7,14.7v-2.3l7.5-0.1
					v2.3L46.7,14.7z"/>
			</g>
			<g>
				<polygon class="st2" points="62.8,16.7 62,14.3 59.4,14.5 59.2,12.2 63.5,11.9 65,15.9 				"/>
			</g>
			<g>
				<path class="st2" d="M77,55.4l-2.1-5.8l2.1-0.8l2.1,5.8L77,55.4z M73.4,45.8L71.3,40l2.1-0.8l2.1,5.8L73.4,45.8z M69.9,36.1
					l-2.1-5.8l2.1-0.8l2.1,5.8L69.9,36.1z M66.3,26.4l-2.1-5.8l2.1-0.8l2.1,5.8L66.3,26.4z"/>
			</g>
			<g>
				
					<rect x="79.1" y="59" transform="matrix(0.9417 -0.3364 0.3364 0.9417 -15.7386 30.5375)" class="st2" width="2.3" height="3.4"/>
			</g>
		</g>
	</g>
	<g>
		<path class="st1" d="M10.3,73.6H0V63.3h10.3V73.6z M1.1,72.4h8v-8h-8C1.1,64.4,1.1,72.4,1.1,72.4z"/>
	</g>
	<g>
		<path class="st1" d="M14.9,18.7H4.6V8.4h10.3V18.7z M5.7,17.6h8v-8h-8V17.6z"/>
	</g>
	<g>
		<path class="st1" d="M88,71.3H77.7V61H88V71.3z M78.9,70.1h8v-8h-8V70.1z"/>
	</g>
</g>
</svg>
