<?xml version="1.0" encoding="utf-8"?>
<!-- Generator: Adobe Illustrator 24.2.3, SVG Export Plug-In . SVG Version: 6.00 Build 0)  -->
<svg version="1.1" id="Layer_1" xmlns="http://www.w3.org/2000/svg" xmlns:xlink="http://www.w3.org/1999/xlink" x="0px" y="0px"
	 viewBox="0 0 88 82" style="enable-background:new 0 0 88 82;" xml:space="preserve">
<style type="text/css">
	.st0{fill:#999999;}
	.st1{fill:#C1272D;}
</style>
<g>
	<path class="st0" d="M82.5,63.1L82.5,63.1c-0.9,0-1.8-0.2-2.6-0.7l-14.3-7.9c-1.5-0.9-2.6-2.4-2.6-4.4V35.7c0-1.8,1.1-3.5,2.6-4.4
		l14.1-7.9c4.2-2,8.4,1.1,8.4,5.1v28.9c0,1.5-0.7,3.1-1.8,4.2C85.4,62.4,84,63.1,82.5,63.1z"/>
	<path class="st0" d="M11.7,68.4c0.4,0.2,1.1,0.2,1.8,0.2h39.3c4.6,0,8.4-3.8,8.4-8.4V27.1c0-2.2-0.9-4.2-2.2-5.7L11.7,68.4z"/>
	<path class="st0" d="M48.7,18.5H13.2c-4.6,0-8.4,3.8-8.4,8.4V60c0,0.7,0.2,1.3,0.2,2l44.4-43.5"/>
	<rect x="-10" y="38.8" transform="matrix(0.7074 -0.7068 0.7068 0.7074 -20.3472 32.8463)" class="st1" width="79" height="4.4"/>
</g>
</svg>
