<?xml version="1.0" encoding="utf-8"?>
<!-- Generator: Adobe Illustrator 24.2.3, SVG Export Plug-In . SVG Version: 6.00 Build 0)  -->
<svg version="1.1" id="Layer_1" xmlns="http://www.w3.org/2000/svg" xmlns:xlink="http://www.w3.org/1999/xlink" x="0px" y="0px"
	 viewBox="0 0 88 82" style="enable-background:new 0 0 88 82;" xml:space="preserve">
<style type="text/css">
	.st0{fill:#C1272D;}
</style>
<g>
	<path class="st0" d="M43.7,67.7c2,0,3.6,0.7,5,2.1s2.1,3.1,2.1,5.1c0,2-0.7,3.6-2.1,5c-1.4,1.4-3.1,2.1-5,2.1c-2,0-3.6-0.7-5-2.1
		c-1.4-1.4-2.1-3.1-2.1-5c0-2,0.7-3.7,2.1-5.1C40.1,68.4,41.7,67.7,43.7,67.7"/>
	<path class="st0" d="M44.3,60.5h-1.1l-5.5-43.9c-0.5-3.6-0.7-6.4-0.7-8.4c0-2.6,0.6-4.6,1.9-6C40.3,0.7,42.1,0,44.4,0
		c2.1,0,3.9,0.7,5.1,2.1c1.3,1.4,1.9,3.4,1.9,5.8c0,1.7-0.2,4.2-0.7,7.5L44.3,60.5z"/>
</g>
</svg>
