<?xml version="1.0" encoding="utf-8"?>
<!-- Generator: Adobe Illustrator 24.2.3, SVG Export Plug-In . SVG Version: 6.00 Build 0)  -->
<svg version="1.1" id="Layer_1" xmlns="http://www.w3.org/2000/svg" xmlns:xlink="http://www.w3.org/1999/xlink" x="0px" y="0px"
	 viewBox="0 0 88 82" style="enable-background:new 0 0 88 82;" xml:space="preserve">
<style type="text/css">
	.st0{fill:#C0272D;}
	.st1{fill:#999999;}
</style>
<g>
	<g>
		<rect x="7" y="57.1" class="st0" width="74.6" height="15.1"/>
	</g>
	<path class="st1" d="M84.9,17.4h-8.8c0-0.2,0-0.2,0-0.4v-5.3c0-2.4-2-4.4-4.4-4.4H58.8c-2.4,0-4.4,2-4.4,4.4V17c0,0.2,0,0.2,0,0.4
		H33.8c0-0.2,0-0.2,0-0.4v-5.3c0-2.4-2-4.4-4.4-4.4H16.5c-2.4,0-4.4,2-4.4,4.4V17c0,0.2,0,0.2,0,0.4H3.3C1.5,17.4,0,19,0,20.7v9.7
		c0,1.8,1.5,3.3,3.3,3.3v36.6c0,2.4,2,4.4,4.4,4.4h72.6c2.4,0,4.4-2,4.4-4.4V33.4c1.8,0,3.3-1.5,3.3-3.3v-9.7
		C88.2,18.7,86.7,17.4,84.9,17.4z M59,11.7h13V17H59V11.7z M16.7,11.7h12.9V17H16.7V11.7z M83.8,29h-3.3v4.4v36.4H7.9V33.4V29H4.8
		v-7.5h79V29z"/>
	<g>
		<rect x="60.1" y="39.8" class="st1" width="15.1" height="5.5"/>
	</g>
	<g>
		<rect x="20" y="39.8" class="st1" width="15.1" height="5.5"/>
	</g>
	<g>
		<rect x="24.8" y="35" class="st1" width="5.5" height="15.1"/>
	</g>
</g>
</svg>
