<svg version="1.1" id="Layer_1" xmlns="http://www.w3.org/2000/svg" xmlns:xlink="http://www.w3.org/1999/xlink" x="0px" y="0px"
	 width="88px" height="82px" viewBox="0 0 88 82" enable-background="new 0 0 88 82" xml:space="preserve">
<g>
	<circle fill="#494949" cx="44.003" cy="57.221" r="4.74"/>
	<path fill="#494949" d="M43.565,48.343c0.146-0.006,0.29-0.021,0.438-0.021c2.989,0,5.8,1.164,7.915,3.277l2.113-2.113
		c-2.313-2.313-5.285-3.723-8.492-4.066L43.565,48.343z"/>
	<path fill="#494949" d="M49.379,39.729l-1.78,2.64c3.228,0.671,6.304,2.247,8.805,4.746l2.113-2.114
		C55.894,42.378,52.728,40.633,49.379,39.729z"/>
	<path fill="#494949" d="M53.099,34.218l-1.737,2.575c3.552,1.146,6.81,3.122,9.527,5.838l2.114-2.112
		C60.153,37.669,56.779,35.54,53.099,34.218z"/>
	<g>
		
			<rect x="43.17" y="24.484" transform="matrix(0.8291 0.5591 -0.5591 0.8291 31.1457 -17.4807)" fill="#C1272D" width="1.993" height="35.443"/>
	</g>
	<path fill="#494949" d="M37.346,50.53l3.215-4.764c-2.473,0.609-4.74,1.872-6.586,3.719l2.113,2.113
		C36.483,51.204,36.908,50.855,37.346,50.53z"/>
	<path fill="#494949" d="M45.093,39.055c-5.615-0.301-11.326,1.67-15.604,5.946l2.113,2.114c3.184-3.183,7.297-4.857,11.473-5.074
		L45.093,39.055z"/>
	<path fill="#494949" d="M47.244,35.866l1.841-2.728c-1.658-0.32-3.355-0.493-5.083-0.493c-7.175,0-13.923,2.796-19,7.873
		l2.114,2.112c4.513-4.512,10.509-6.995,16.886-6.995C45.098,35.636,46.179,35.72,47.244,35.866z"/>
	<rect x="25.002" y="20.043" fill="none" width="38" height="41.917"/>
</g>
</svg>
