<?xml version="1.0" encoding="utf-8"?>
<!-- Generator: Adobe Illustrator 24.2.3, SVG Export Plug-In . SVG Version: 6.00 Build 0)  -->
<svg version="1.1" id="Layer_1" xmlns="http://www.w3.org/2000/svg" xmlns:xlink="http://www.w3.org/1999/xlink" x="0px" y="0px"
	 viewBox="0 0 88 82" style="enable-background:new 0 0 88 82;" xml:space="preserve">
<style type="text/css">
	.st0{fill:#999999;}
	.st1{fill:#F72F2F;}
	.st2{fill:#CECECE;}
</style>
<g>
	<path class="st0" d="M81.4,12.4h-66c-3.7,0-6.6,2.9-6.6,6.6v11H4.4C2,30,0,32,0,34.4v13.2C0,50,2,52,4.4,52h4.4v11
		c0,3.7,2.9,6.6,6.6,6.6h66c3.7,0,6.6-2.9,6.6-6.6V19C88,15.3,85.1,12.4,81.4,12.4z M83.6,60.8c0,2.4-2,4.4-4.4,4.4H17.6
		c-2.4,0-4.4-2-4.4-4.4V21.2c0-2.4,2-4.4,4.4-4.4h61.6c2.4,0,4.4,2,4.4,4.4V60.8z"/>
	<path class="st1" d="M77,21.2c1.3,0,2.2,1.1,2.2,2.2v35.2c0,1.3-0.9,2.2-2.2,2.2h-4.4c-1.1,0-2.2-0.9-2.2-2.2V23.4
		c0-1.1,1.1-2.2,2.2-2.2C72.6,21.2,77,21.2,77,21.2z"/>
	<path class="st1" d="M63.8,21.2c1.3,0,2.2,1.1,2.2,2.2v35.2c0,1.3-0.9,2.2-2.2,2.2h-4.4c-1.1,0-2.2-0.9-2.2-2.2V23.4
		c0-1.1,1.1-2.2,2.2-2.2C59.4,21.2,63.8,21.2,63.8,21.2z"/>
	<path class="st2" d="M50.6,21.2c1.3,0,2.2,1.1,2.2,2.2v35.2c0,1.3-0.9,2.2-2.2,2.2h-4.4c-1.1,0-2.2-0.9-2.2-2.2V23.4
		c0-1.1,1.1-2.2,2.2-2.2C46.2,21.2,50.6,21.2,50.6,21.2z"/>
	<path class="st2" d="M37.4,21.2c1.1,0,2.2,1.1,2.2,2.2v35.2c0,1.3-1.1,2.2-2.2,2.2H33c-1.1,0-2.2-0.9-2.2-2.2V23.4
		c0-1.1,1.1-2.2,2.2-2.2C33,21.2,37.4,21.2,37.4,21.2z"/>
	<path class="st2" d="M24.2,21.2c1.1,0,2.2,1.1,2.2,2.2v35.2c0,1.3-1.1,2.2-2.2,2.2h-4.4c-1.1,0-2.2-0.9-2.2-2.2V23.4
		c0-1.1,1.1-2.2,2.2-2.2C19.8,21.2,24.2,21.2,24.2,21.2z"/>
</g>
</svg>
