<svg version="1.1" id="Layer_1" xmlns="http://www.w3.org/2000/svg" xmlns:xlink="http://www.w3.org/1999/xlink" x="0px" y="0px"
	 width="88px" height="82px" viewBox="0 0 88 82" enable-background="new 0 0 88 82" xml:space="preserve">
<g>
	<path fill="#494949" d="M47.283,40.404c-1.034,0.356-2.135,0.553-3.281,0.553s-2.248-0.196-3.281-0.553
		c-3.001,6.7-5.999,13.399-9,20.098c8.188,0,16.375,0,24.562,0C53.281,53.803,50.283,47.104,47.283,40.404z M43.125,44.707
		c0.585,0,1.168,0,1.753,0c0.141,1.885,0.283,3.768,0.426,5.654c-0.868,0-1.737,0-2.605,0
		C42.841,48.475,42.982,46.592,43.125,44.707z M41.99,59.766c0.094-1.252,0.188-2.504,0.283-3.756c1.154,0,2.304,0,3.458,0
		c0.096,1.252,0.189,2.504,0.283,3.756C44.672,59.766,43.333,59.766,41.99,59.766z"/>
	<path fill="#C1272D" d="M44.002,39.643c-5.002,0-9.071-4.067-9.071-9.071c0-5.001,4.068-9.07,9.071-9.07
		c5.001,0,9.07,4.069,9.07,9.07C53.072,35.576,49.004,39.643,44.002,39.643z M44.002,21.779c-4.849,0-8.793,3.946-8.793,8.793
		c0,4.849,3.944,8.793,8.793,8.793c4.848,0,8.792-3.944,8.792-8.793C52.795,25.725,48.851,21.779,44.002,21.779z"/>
	<path d="M42.46,33.644h-1.193V29.15c-0.434,0.405-0.947,0.706-1.538,0.905V28.97c0.31-0.104,0.648-0.296,1.013-0.578
		c0.365-0.284,0.615-0.614,0.75-0.994h0.967V33.644z"/>
	<path d="M46.256,27.398c0.604,0,1.075,0.212,1.415,0.646c0.403,0.508,0.604,1.351,0.604,2.53c0,1.178-0.201,2.022-0.611,2.54
		c-0.334,0.424-0.805,0.637-1.408,0.637s-1.092-0.236-1.462-0.699c-0.371-0.465-0.557-1.297-0.557-2.489
		c0-1.171,0.205-2.014,0.61-2.53C45.185,27.609,45.655,27.398,46.256,27.398z M46.256,28.385c-0.143,0-0.271,0.046-0.385,0.138
		c-0.113,0.093-0.2,0.257-0.264,0.492c-0.082,0.31-0.123,0.83-0.123,1.559c0,0.73,0.037,1.234,0.111,1.506
		c0.074,0.272,0.165,0.456,0.277,0.545c0.111,0.088,0.24,0.138,0.383,0.138c0.146,0,0.274-0.05,0.388-0.141
		c0.113-0.089,0.2-0.257,0.264-0.493c0.081-0.307,0.122-0.824,0.122-1.555c0-0.729-0.037-1.229-0.111-1.501
		c-0.073-0.272-0.166-0.457-0.276-0.55C46.529,28.431,46.402,28.385,46.256,28.385z"/>
	<path fill="#C1272D" d="M44.002,22.474c-4.472,0-8.098,3.625-8.098,8.098s3.625,8.098,8.098,8.098s8.097-3.625,8.097-8.098
		S48.475,22.474,44.002,22.474z M44.002,36.711c-3.386,0-6.14-2.754-6.14-6.14s2.753-6.14,6.14-6.14s6.139,2.754,6.139,6.14
		S47.389,36.711,44.002,36.711z"/>
</g>
</svg>
