<svg version="1.1" id="Layer_1" xmlns="http://www.w3.org/2000/svg" xmlns:xlink="http://www.w3.org/1999/xlink" x="0px" y="0px"
	 width="88px" height="82px" viewBox="0 0 88 82" enable-background="new 0 0 88 82" xml:space="preserve">
<g>
	<path fill="#C4747A" d="M44.141,40.862c0.627,1.468,0.176,2.734,1.838,4.394c1.886,1.887,3.262,1.061,5.002,2.166
		C50.759,43.811,47.792,40.934,44.141,40.862z"/>
	<path fill="#8E8E8E" d="M64.003,36.577c0-1.779-1.438-3.223-3.211-3.223h-6.52l-0.971-3.396c-0.302-1.059-1.449-1.924-2.549-1.924
		h-13.5c-1.1,0-2.247,0.865-2.549,1.924l-0.229,0.801c1.894,2.084,0.571,3.564,2.699,5.693c1.588,1.588,2.813,1.254,4.2,1.766
		c0.839-0.23,1.718-0.363,2.629-0.363c5.514,0,10,4.486,10,10c0,1.213-0.229,2.373-0.626,3.449c0.167,0.865,0.388,1.738,1.413,2.766
		c2.203,2.201,3.709,0.697,5.91,2.896c1.79,1.791,1.128,3.121,2.004,4.742c0.784-0.588,1.299-1.518,1.299-2.574V36.577z"/>
	<path fill="#494949" d="M60.618,62.811c-0.055-0.166-0.098-0.328-0.136-0.49c-0.003-0.014-0.005-0.025-0.009-0.039
		c-0.049-0.211-0.088-0.422-0.128-0.631c-0.011-0.059-0.022-0.115-0.033-0.174c-0.016-0.08-0.034-0.16-0.052-0.24
		c-0.018-0.086-0.039-0.172-0.061-0.258c-0.018-0.07-0.039-0.143-0.06-0.213c-0.026-0.09-0.058-0.18-0.091-0.271
		c-0.024-0.068-0.051-0.137-0.08-0.207c-0.04-0.096-0.09-0.193-0.14-0.291c-0.034-0.066-0.066-0.131-0.106-0.199
		c-0.064-0.109-0.144-0.223-0.225-0.336c-0.041-0.057-0.074-0.113-0.121-0.172c-0.135-0.174-0.288-0.35-0.47-0.531
		c-2.201-2.201-3.707-0.695-5.909-2.898c-0.153-0.152-0.285-0.303-0.405-0.449c-0.033-0.041-0.06-0.08-0.091-0.121
		c-0.083-0.107-0.162-0.217-0.229-0.322c-0.024-0.039-0.046-0.076-0.069-0.113c-0.067-0.113-0.129-0.225-0.182-0.334
		c-0.012-0.025-0.023-0.049-0.034-0.074c-0.062-0.133-0.114-0.264-0.159-0.395l0,0c-0.463-1.346-0.18-2.553-1.729-4.102
		c-2.204-2.203-3.71-0.697-5.914-2.9c-2.198-2.199-0.692-3.705-2.894-5.906c-1.139-1.139-2.092-1.285-3.051-1.467
		c-0.095-0.018-0.19-0.037-0.286-0.057c-0.038-0.008-0.077-0.018-0.116-0.025c-0.076-0.018-0.152-0.033-0.229-0.053
		c-0.049-0.012-0.098-0.027-0.146-0.041c-0.066-0.02-0.134-0.037-0.201-0.059c-0.059-0.02-0.117-0.043-0.175-0.064
		c-0.06-0.023-0.12-0.043-0.181-0.068c-0.064-0.027-0.131-0.063-0.197-0.094c-0.056-0.027-0.111-0.051-0.167-0.082
		c-0.075-0.041-0.151-0.09-0.228-0.139c-0.049-0.029-0.098-0.057-0.146-0.09c-0.088-0.061-0.178-0.131-0.268-0.203
		c-0.041-0.031-0.08-0.057-0.119-0.09c-0.132-0.109-0.266-0.23-0.402-0.367c-0.128-0.129-0.242-0.256-0.346-0.379
		c-0.033-0.037-0.061-0.074-0.09-0.113c-0.069-0.086-0.136-0.172-0.195-0.258c-0.027-0.039-0.053-0.08-0.079-0.119
		c-0.055-0.084-0.106-0.168-0.151-0.25c-0.02-0.033-0.039-0.068-0.057-0.102c-0.051-0.098-0.098-0.195-0.139-0.291
		c-0.007-0.016-0.014-0.029-0.02-0.045c-0.471-1.135-0.32-2.152-1.018-3.33c0-0.002-0.001-0.002-0.002-0.004l0,0
		c-0.193-0.326-0.447-0.664-0.805-1.023l-0.354,0.354c0.233,0.234,0.416,0.455,0.568,0.67h-5.482c-1.773,0-3.211,1.443-3.211,3.223
		v22.556c0,1.779,1.438,3.221,3.211,3.221h32.764c0.05,0.217,0.107,0.439,0.188,0.668L60.618,62.811z M30.252,41.075
		c-1.105,0-2-0.895-2-2s0.895-2,2-2s2,0.895,2,2S31.358,41.075,30.252,41.075z M44.002,57.854c-5.514,0-10-4.486-10-10
		c0-3.146,1.477-5.936,3.758-7.765c0.165,0.035,0.328,0.068,0.486,0.098c0.912,0.172,1.701,0.318,2.693,1.311
		c0.99,0.992,1.139,1.779,1.31,2.693c0.176,0.939,0.376,2.004,1.584,3.213c1.211,1.211,2.277,1.41,3.218,1.588
		c0.913,0.172,1.702,0.32,2.695,1.313c0.99,0.992,1.139,1.779,1.311,2.693c0.086,0.461,0.18,0.953,0.396,1.479
		C49.624,56.537,46.972,57.854,44.002,57.854z"/>
	<path fill="#C1272D" d="M49.747,50.303c-0.993-0.992-1.782-1.141-2.695-1.313c-0.941-0.178-2.007-0.377-3.218-1.588
		c-1.208-1.209-1.408-2.273-1.584-3.213c-0.167-0.893-0.317-1.668-1.25-2.629c-2.354,1.129-3.997,3.514-3.997,6.293
		c0,3.859,3.141,7,7,7c2.758,0,5.127-1.615,6.266-3.939C50.126,50.717,49.959,50.516,49.747,50.303z"/>
	<rect x="24.002" y="18.981" fill="none" width="40" height="44.041"/>
</g>
</svg>
