<?xml version="1.0" encoding="utf-8"?>
<!-- Generator: Adobe Illustrator 24.2.3, SVG Export Plug-In . SVG Version: 6.00 Build 0)  -->
<svg version="1.1" id="Layer_1" xmlns="http://www.w3.org/2000/svg" xmlns:xlink="http://www.w3.org/1999/xlink" x="0px" y="0px"
	 viewBox="0 0 88 82" style="enable-background:new 0 0 88 82;" xml:space="preserve">
<style type="text/css">
	.st0{fill:#999999;}
	.st1{fill:#C0272D;}
</style>
<g>
	<path class="st0" d="M44,62.2c-11.4,0.2-21.1-9.5-21.1-20.9s9.2-20.9,20.5-21.1c11.9-0.2,21.3,9,21.6,20.9
		C65.3,52.3,55.6,62,44,62.2z M30.8,47.3c-0.4,0.9-0.4,1.3-0.7,1.5c-2,1.8-1.1,3.1,0.4,4.4c0.7,0.4,1.3,1.1,1.8,1.8
		c1.3,1.5,2.4,2,4.2,0.2c1.1-1.1,3.1-0.4,3.1,1.1c-0.2,3.1,1.5,3.3,3.7,3.1c0.9,0,1.8,0,2.6,0c1.8,0,2.6-0.4,2.6-2.4
		s1.8-2.9,3.3-1.5s2.6,1.1,3.7-0.2c0.9-0.9,1.5-1.8,2.4-2.4c1.3-1.3,1.5-2.2,0.2-3.7c-1.3-1.3-0.4-3.1,1.3-3.3c2,0,2.6-0.9,2.6-2.9
		c0-1.3,0-2.4,0-3.7c0.2-1.8-0.7-2.4-2.4-2.6c-2.2-0.2-2.9-1.8-1.5-3.3c1.3-1.3,1.1-2.4-0.2-3.5c-0.9-0.9-1.8-1.5-2.4-2.4
		c-1.3-1.3-2.4-1.8-4-0.2c-1.3,1.1-3.1,0.4-3.1-1.3c0-2.4-1.1-2.9-3.1-2.6c-1.3,0-2.4,0-3.7,0c-1.5,0-2.2,0.4-2.2,2.2
		c0,2.2-1.5,3.1-3.3,1.8c-1.3-1.1-2.4-1.1-3.5,0.2c-0.7,0.9-1.5,1.5-2.2,2.2c-1.5,1.3-2,2.4-0.2,4.2c1.1,1.3,0.4,3.1-1.3,3.1
		c-2.2,0-2.9,1.1-2.6,3.1c0,1.1,0,2.2,0,3.3c0,1.8,0.4,2.6,2.4,2.9C29.2,45.7,30.1,46.6,30.8,47.3z"/>
	<path class="st0" d="M60.5,58.7C70.6,44,70.6,38,60,22.8C71,27,80,33,88,40.9C82.5,47.7,67.5,57.4,60.5,58.7z"/>
	<path class="st0" d="M27,58.7C16.5,55.2,7.7,49,0,41.3C4.4,35.4,19.6,25.2,27.9,23c-5.1,5.3-7.7,11-7.9,17.8
		C20,47.7,22.6,53.4,27,58.7z"/>
	<path class="st0" d="M58.9,42.2c0-0.9,0-1.8-0.2-2.4c-4-0.7-5.5-4.6-3.3-8.6c-0.4-0.7-1.1-1.1-1.5-1.8c-3.7,2.4-7.7,0.9-8.8-3.3
		c-0.9,0-1.5,0-2.4,0c-0.9,4-5.1,5.7-8.6,3.3c-0.7,0.4-1.3,1.1-1.8,1.5c2.4,3.7,0.7,7.7-3.3,8.8c0,0.7,0,1.5,0,2.2
		c4,1.1,5.5,4.6,3.5,8.8c0.4,0.7,1.1,1.1,1.5,1.8c3.5-2.4,7.5-0.9,8.8,3.3c0.4,0,0.9,0,1.1,0c0.4,0,0.9,0,1.1-0.2
		c0.7-4,4.8-5.7,8.6-3.5c0.7-0.7,1.1-1.3,1.8-1.8C53.2,47.5,54.7,43.5,58.9,42.2z M44.4,50.3c-2.4,0-4.6-0.9-6.4-2.6
		c-1.5-1.8-2.4-4-2.4-6.6c0-4.6,4-8.6,8.6-8.6l0,0l0,0c2.4,0,4.8,0.9,6.4,2.6c1.5,1.8,2.6,4,2.4,6.4C53.2,46.6,49.5,50.3,44.4,50.3z
		"/>
	<g>
		<path class="st1" d="M44.2,37.1c2.6,0,4.6,1.8,4.6,4.4c0,2.4-1.8,4.4-4.4,4.4c-2.6,0-4.4-2-4.4-4.6C40,39.1,42,37.1,44.2,37.1z"/>
	</g>
</g>
</svg>
