<svg version="1.1" id="Layer_1" xmlns="http://www.w3.org/2000/svg" xmlns:xlink="http://www.w3.org/1999/xlink" x="0px" y="0px"
	 width="88px" height="82px" viewBox="0 0 88 82" enable-background="new 0 0 88 82" xml:space="preserve">
<g>
	<g>
		<polygon fill="#494949" points="31.102,52.482 29.102,52.482 29.107,52.107 31.106,52.158 		"/>
	</g>
	<path fill="#494949" d="M31.193,50.979l-1.984-0.246c0.033-0.268,0.073-0.53,0.12-0.793l1.969,0.354
		C31.257,50.52,31.222,50.748,31.193,50.979z"/>
	<path fill="#494949" d="M31.564,49.143l-1.924-0.547c0.074-0.259,0.154-0.514,0.242-0.767l1.89,0.653
		C31.697,48.701,31.627,48.921,31.564,49.143z"/>
	<path fill="#494949" d="M32.213,47.389l-1.816-0.839c0.112-0.243,0.231-0.483,0.356-0.719l1.767,0.938
		C32.413,46.973,32.31,47.178,32.213,47.389z"/>
	<path fill="#494949" d="M33.125,45.751l-1.668-1.104c0.149-0.225,0.304-0.444,0.465-0.658l1.599,1.201
		C33.384,45.372,33.252,45.561,33.125,45.751z"/>
	<g>
		<path fill="#494949" d="M34.28,44.271l-1.483-1.342c0.085-0.095,0.171-0.188,0.259-0.277l1.443,1.385L34.28,44.271z"/>
	</g>
	<g>
		<path fill="#C1272D" d="M60.624,53.15c-0.015-0.104-0.028-0.207-0.047-0.313l1.973-0.334c0.021,0.126,0.039,0.253,0.058,0.381
			L60.624,53.15z"/>
	</g>
	<path fill="#C1272D" d="M60.354,51.8c-0.053-0.198-0.109-0.396-0.174-0.591l1.899-0.625c0.075,0.232,0.146,0.467,0.208,0.702
		L60.354,51.8z"/>
	<path fill="#C1272D" d="M59.805,50.201c-0.08-0.192-0.166-0.383-0.257-0.572l1.808-0.859c0.103,0.217,0.201,0.438,0.293,0.658
		L59.805,50.201z"/>
	<path fill="#C1272D" d="M59.046,48.669c-0.104-0.183-0.211-0.362-0.321-0.54l1.692-1.064c0.127,0.203,0.25,0.408,0.369,0.619
		L59.046,48.669z"/>
	<path fill="#C1272D" d="M58.116,47.225c-0.125-0.173-0.252-0.343-0.382-0.509l1.574-1.231c0.146,0.186,0.287,0.375,0.428,0.568
		L58.116,47.225z"/>
	<path fill="#C1272D" d="M57.036,45.882c-0.146-0.161-0.29-0.315-0.437-0.468l1.441-1.387c0.161,0.166,0.322,0.34,0.482,0.519
		L57.036,45.882z"/>
	<path fill="#C1272D" d="M55.822,44.666c-0.159-0.143-0.318-0.277-0.477-0.405l1.26-1.555c0.182,0.147,0.363,0.304,0.549,0.468
		L55.822,44.666z"/>
	<g>
		<path fill="#C1272D" d="M54.492,43.634c-0.09-0.059-0.178-0.114-0.266-0.166l1.037-1.711c0.106,0.065,0.217,0.134,0.325,0.205
			L54.492,43.634z"/>
	</g>
	<path fill="#494949" d="M39.567,31.796v6.259h-1.729v-4.102c-0.281,0.213-0.552,0.385-0.813,0.516
		c-0.261,0.132-0.589,0.258-0.984,0.379v-1.402c0.582-0.188,1.034-0.412,1.356-0.676c0.322-0.263,0.574-0.587,0.756-0.974H39.567z"
		/>
	<path fill="#494949" d="M46.43,38.055h-5.128c0.059-0.506,0.237-0.984,0.535-1.431c0.297-0.445,0.856-0.972,1.678-1.58
		c0.5-0.371,0.819-0.654,0.96-0.847c0.139-0.193,0.208-0.376,0.208-0.551c0-0.188-0.067-0.347-0.208-0.479
		c-0.138-0.132-0.312-0.199-0.522-0.199c-0.219,0-0.396,0.068-0.535,0.206c-0.138,0.138-0.232,0.377-0.279,0.725l-1.712-0.14
		c0.067-0.479,0.188-0.855,0.369-1.126c0.179-0.27,0.431-0.476,0.757-0.621c0.326-0.145,0.777-0.216,1.354-0.216
		c0.6,0,1.068,0.069,1.402,0.206c0.336,0.137,0.599,0.348,0.791,0.631c0.189,0.283,0.287,0.603,0.287,0.957
		c0,0.373-0.111,0.731-0.33,1.072c-0.221,0.343-0.619,0.716-1.199,1.126c-0.344,0.238-0.573,0.403-0.69,0.499
		c-0.115,0.095-0.252,0.22-0.408,0.374h2.669V38.055z"/>
	<path fill="#494949" d="M47.159,34.952c0-1.169,0.211-1.989,0.632-2.456c0.421-0.465,1.063-0.7,1.925-0.7
		c0.413,0,0.755,0.051,1.021,0.153c0.267,0.103,0.481,0.234,0.65,0.398c0.168,0.165,0.301,0.336,0.396,0.517
		c0.096,0.181,0.173,0.391,0.232,0.633c0.112,0.458,0.172,0.936,0.172,1.434c0,1.118-0.189,1.934-0.566,2.452
		c-0.379,0.519-1.029,0.776-1.951,0.776c-0.52,0-0.938-0.083-1.256-0.247c-0.318-0.165-0.58-0.407-0.785-0.728
		c-0.148-0.226-0.264-0.536-0.346-0.929C47.199,35.863,47.159,35.429,47.159,34.952z M48.854,34.957
		c0,0.783,0.069,1.318,0.209,1.605c0.139,0.288,0.338,0.43,0.604,0.43c0.172,0,0.322-0.062,0.449-0.182
		c0.129-0.123,0.223-0.314,0.281-0.578c0.061-0.262,0.092-0.672,0.092-1.229c0-0.817-0.07-1.366-0.209-1.646
		c-0.139-0.281-0.346-0.423-0.623-0.423c-0.283,0-0.487,0.144-0.611,0.431C48.918,33.65,48.854,34.181,48.854,34.957z"/>
	<path fill="#C1272D" d="M44.115,45.979c-6.066,0-11-4.937-11-10.999c0-6.066,4.934-11.002,11-11.002c6.064,0,11,4.936,11,11.002
		C55.114,41.042,50.18,45.979,44.115,45.979z M44.115,25.589c-5.178,0-9.39,4.211-9.39,9.391c0,5.177,4.212,9.388,9.39,9.388
		c5.178,0,9.39-4.211,9.39-9.388C53.505,29.8,49.293,25.589,44.115,25.589z"/>
	<path fill="#494949" d="M31.376,37.548c-4.539,3.665-7.374,9.249-7.374,15.339h3.948c0-4.42,1.86-8.516,4.916-11.429
		C32.173,40.26,31.659,38.946,31.376,37.548z"/>
	<path fill="#C1272D" d="M56.816,37.705c-0.224,1.039-0.578,2.026-1.034,2.958c6.077,4.494,8.22,12.224,8.22,12.224
		C64.002,46.883,61.245,41.371,56.816,37.705z"/>
	<path fill="#C1272D" d="M44.055,43.846c-0.12,0-0.24-0.003-0.359-0.009l0.068-2.498c0.096,0.004,0.193,0.006,0.291,0.006
		l0.162-0.002l0.025,2.5L44.055,43.846z"/>
	<path fill="#C1272D" d="M44.793,43.813l-0.131-1.494c0.152-0.014,0.303-0.03,0.451-0.053l0.223,1.483
		C45.156,43.775,44.977,43.797,44.793,43.813z"/>
	<path fill="#C1272D" d="M43.153,43.798c-0.182-0.021-0.361-0.045-0.54-0.075l0.247-1.479c0.148,0.023,0.299,0.046,0.45,0.063
		L43.153,43.798z"/>
	<path fill="#C1272D" d="M45.878,43.648l-0.323-1.465c0.148-0.033,0.295-0.069,0.438-0.111l0.416,1.441
		C46.234,43.563,46.057,43.607,45.878,43.648z"/>
	<path fill="#C1272D" d="M42.071,43.611c-0.18-0.043-0.356-0.092-0.531-0.146l0.449-1.432c0.143,0.045,0.287,0.084,0.433,0.119
		L42.071,43.611z"/>
	<path fill="#C1272D" d="M46.93,43.346l-0.508-1.412c0.143-0.052,0.281-0.106,0.418-0.166l0.6,1.375
		C47.271,43.215,47.104,43.282,46.93,43.346z"/>
	<path fill="#C1272D" d="M41.024,43.287c-0.173-0.066-0.344-0.139-0.51-0.217l0.633-1.358c0.135,0.063,0.272,0.12,0.412,0.173
		L41.024,43.287z"/>
	<path fill="#C1272D" d="M47.934,42.907l-0.684-1.334c0.133-0.068,0.264-0.142,0.391-0.219l0.775,1.285
		C48.258,42.734,48.098,42.823,47.934,42.907z"/>
	<path fill="#C1272D" d="M40.028,42.829c-0.162-0.087-0.321-0.181-0.477-0.278l0.801-1.268c0.126,0.079,0.255,0.154,0.387,0.226
		L40.028,42.829z"/>
	<path fill="#C1272D" d="M48.873,42.346l-0.852-1.237c0.125-0.085,0.244-0.174,0.36-0.267l0.935,1.174
		C49.172,42.13,49.025,42.24,48.873,42.346z"/>
	<path fill="#C1272D" d="M39.098,42.246c-0.148-0.107-0.293-0.219-0.435-0.336l0.955-1.156c0.116,0.096,0.235,0.188,0.357,0.275
		L39.098,42.246z"/>
	<path fill="#C1272D" d="M49.734,41.661l-1.006-1.111c0.11-0.103,0.221-0.207,0.326-0.314l1.073,1.047
		C50.002,41.413,49.871,41.539,49.734,41.661z"/>
	<path fill="#C1272D" d="M38.252,41.549c-0.133-0.125-0.261-0.254-0.385-0.386l1.09-1.029c0.104,0.11,0.211,0.218,0.322,0.321
		L38.252,41.549z"/>
	<path fill="#C1272D" d="M50.497,40.879l-1.46-1.277c0.098-0.113,0.191-0.229,0.281-0.35l1.522,1.197
		C50.732,40.597,50.617,40.74,50.497,40.879z"/>
	<path fill="#C1272D" d="M37.503,40.748c-0.073-0.089-0.146-0.18-0.216-0.272l1.617-1.224c0.059,0.077,0.119,0.152,0.18,0.228
		L37.503,40.748z"/>
	<path fill="#494949" d="M43.333,51.085c0.523-0.067,1.056-0.053,1.579,0.041l-0.906-8.817L43.333,51.085z"/>
	<path fill="#494949" d="M41.926,53.311c-1.022,1.207-0.87,3.018,0.338,4.037c1.209,1.022,3.015,0.87,4.039-0.338
		c1.021-1.209,0.871-3.016-0.338-4.037C44.756,51.95,42.948,52.102,41.926,53.311"/>
</g>
</svg>
