<svg version="1.1" id="Layer_1" xmlns="http://www.w3.org/2000/svg" xmlns:xlink="http://www.w3.org/1999/xlink" x="0px" y="0px"
	 width="88px" height="82px" viewBox="0 0 88 82" enable-background="new 0 0 88 82" xml:space="preserve">
<g>
	<path fill="#494949" d="M61.058,56.271L61.058,56.271c-0.392,0-0.771-0.088-1.128-0.264l-6.351-3.57
		c-0.705-0.344-1.173-1.094-1.173-1.93v-6.363c0-0.824,0.48-1.594,1.224-1.957l6.25-3.517c1.868-0.928,3.73,0.461,3.73,2.252V53.73
		c0,0.699-0.277,1.348-0.779,1.828C62.351,56.018,61.72,56.271,61.058,56.271z M61.058,40.381c-0.084,0-0.168,0.02-0.248,0.059
		l-6.25,3.517c-0.114,0.059-0.153,0.119-0.153,0.188v6.363c0,0.068,0.04,0.129,0.104,0.16l6.35,3.57
		c0.029,0.014,0.113,0.033,0.197,0.033l0,0c0.144,0,0.285-0.059,0.391-0.158c0.074-0.07,0.162-0.195,0.162-0.383V40.922
		C61.61,40.588,61.323,40.381,61.058,40.381z"/>
	<path fill="#494949" d="M49.132,39.106c0.267,0.309,0.434,0.705,0.434,1.143v14.728c0,0.971-0.791,1.76-1.762,1.76H31.5
		l-1.926,1.926c0.24,0.049,0.487,0.074,0.741,0.074h17.488c2.074,0,3.762-1.688,3.762-3.76V40.249c0-0.99-0.393-1.885-1.02-2.557
		L49.132,39.106z"/>
	
		<rect x="36.499" y="28.947" transform="matrix(0.7071 0.7071 -0.7071 0.7071 43.8494 -12.9024)" fill="#C1272D" width="2" height="35.065"/>
	<path fill="#494949" d="M28.555,54.01V40.249c0-0.971,0.789-1.762,1.761-1.762h13.762l2-2H30.316c-2.073,0-3.761,1.688-3.761,3.762
		v14.728c0,0.314,0.05,0.617,0.124,0.908L28.555,54.01z"/>
	<rect x="24.395" y="22.418" fill="none" width="39.215" height="37.166"/>
</g>
</svg>
