
<svg version="1.1" id="Layer_1" xmlns="http://www.w3.org/2000/svg" xmlns:xlink="http://www.w3.org/1999/xlink" x="0px" y="0px"
	 width="88px" height="82px" viewBox="0 0 88 82" enable-background="new 0 0 88 82" xml:space="preserve">
<g>
	<g>
		<path fill="#494949" d="M49.713,43.619h-6.514c-0.552,0-1-0.447-1-1v-7.832c0-0.552,0.448-1,1-1s1,0.448,1,1v6.832h5.514
			c0.552,0,1,0.447,1,1S50.265,43.619,49.713,43.619z"/>
	</g>
	<g>
		<g>
			<path fill="#C1272D" d="M46.3,27.189c-0.285-0.048-0.574-0.086-0.865-0.116l0.406-3.979c0.377,0.039,0.75,0.088,1.119,0.15
				L46.3,27.189z"/>
		</g>
		<g>
			<path fill="#C1272D" d="M59.946,49.361l-3.541-1.859c0.256-0.486,0.484-0.992,0.68-1.506l3.736,1.429
				C60.569,48.084,60.275,48.736,59.946,49.361z M61.462,45.396l-3.881-0.973c0.135-0.534,0.237-1.08,0.307-1.623l3.968,0.507
				C61.767,44.008,61.634,44.71,61.462,45.396z M62.001,41.188l-4-0.035l0.001-0.151c-0.001-0.503-0.027-1.011-0.08-1.505
				l3.978-0.424c0.067,0.634,0.102,1.283,0.103,1.928L62.001,41.188z M57.651,37.87c-0.123-0.534-0.278-1.068-0.463-1.585
				l3.766-1.346c0.238,0.666,0.439,1.351,0.596,2.039L57.651,37.87z M56.542,34.769c-0.246-0.492-0.522-0.974-0.822-1.432
				l3.344-2.193c0.387,0.589,0.742,1.208,1.058,1.84L56.542,34.769z M54.735,32.012c-0.355-0.423-0.738-0.828-1.137-1.204
				l2.743-2.911c0.511,0.482,1.001,1,1.456,1.542L54.735,32.012z M52.332,29.748c-0.442-0.328-0.908-0.632-1.384-0.905l1.988-3.471
				c0.611,0.35,1.209,0.741,1.776,1.162L52.332,29.748z M49.47,28.109c-0.506-0.215-1.029-0.401-1.556-0.554l1.115-3.842
				c0.678,0.197,1.352,0.437,2.003,0.713L49.47,28.109z"/>
		</g>
		<g>
			<path fill="#C1272D" d="M58.185,52.088l-3.154-2.461c0.18-0.23,0.353-0.465,0.518-0.705l3.301,2.258
				C58.637,51.49,58.415,51.793,58.185,52.088z"/>
		</g>
	</g>
	<g>
		<path fill="#494949" d="M44.002,59.002c-9.925,0-18-8.074-18-18c0-9.925,8.075-18,18-18c0.536,0,1.067,0.023,1.58,0.068
			l-0.354,3.984c-0.404-0.036-0.813-0.053-1.227-0.053c-7.72,0-14,6.28-14,14s6.28,14,14,14c3.922,0,7.689-1.662,10.337-4.559
			l2.953,2.699C53.888,56.866,49.044,59.002,44.002,59.002z"/>
	</g>
</g>
</svg>
