<svg xmlns="http://www.w3.org/2000/svg" xmlns:xlink="http://www.w3.org/1999/xlink" viewBox="0 0 54 63"><defs><style>.cls-1{opacity:0.25;fill:url(#radial-gradient);}.cls-2{fill:#f2f2f2;}.cls-3{fill:#bc2c33;}</style><radialGradient id="radial-gradient" cx="26.68" cy="31.53" r="29.16" gradientTransform="translate(0.32 -0.36) scale(1 1.01)" gradientUnits="userSpaceOnUse"><stop offset="0.22"/><stop offset="0.3" stop-color="#060606"/><stop offset="0.39" stop-color="#171717"/><stop offset="0.5" stop-color="#333"/><stop offset="0.63" stop-color="#5b5b5b"/><stop offset="0.76" stop-color="#8d8d8d"/><stop offset="0.89" stop-color="#cacaca"/><stop offset="1" stop-color="#fff"/></radialGradient></defs><g id="Layer_2" data-name="Layer 2"><g id="Layer_1-2" data-name="Layer 1"><polygon class="cls-1" points="54 47.25 54 15.75 27 0 0 15.75 0 47.25 27 63 54 47.25"/><polygon class="cls-2" points="8.5 43.71 8.5 21.29 27 10.58 45.5 21.29 45.5 43.71 27 54.42 8.5 43.71"/><path class="cls-3" d="M27,11.16,45,21.58V43.42L27,53.84,9,43.42V21.58L27,11.16M27,10,8,21V44L27,55,46,44V21L27,10Z"/><polygon class="cls-3" points="27 61.34 31.64 53.22 22.36 53.22 27 61.34"/><circle class="cls-3" cx="45.5" cy="17.5" r="8.5"/></g></g></svg>