<svg xmlns="http://www.w3.org/2000/svg" viewBox="0 0 45.52 63.4"><defs><style>.cls-1{fill:#e6e6e6;}.cls-2{fill:#333;}</style></defs><g id="Layer_2" data-name="Layer 2"><g id="Layer_1-2" data-name="Layer 1"><path class="cls-1" d="M23.76,45.52A21.76,21.76,0,1,1,45.52,23.76,21.79,21.79,0,0,1,23.76,45.52Zm0-30.8a9,9,0,1,0,9,9A9,9,0,0,0,23.76,14.72Z" transform="translate(-1 -1)"/><path class="cls-2" d="M23.76,3A20.76,20.76,0,1,1,3,23.76,20.79,20.79,0,0,1,23.76,3m0,30.8a10,10,0,1,0-10-10,10.06,10.06,0,0,0,10,10m0-32.8A22.76,22.76,0,1,0,46.52,23.76,22.76,22.76,0,0,0,23.76,1Zm0,30.8a8,8,0,1,1,8-8,8,8,0,0,1-8,8Z" transform="translate(-1 -1)"/><path id="Path_26491" data-name="Path 26491" class="cls-2" d="M23.76,48.93a26,26,0,0,1-17.2-6.45L21.3,61.26l2.46,3.14,2.44-3.12L40.85,42.6A25.94,25.94,0,0,1,23.76,48.93Z" transform="translate(-1 -1)"/></g></g></svg>