<svg xmlns="http://www.w3.org/2000/svg" viewBox="0 0 35.66 50"><defs><style>.cls-1{fill:#d83642;}</style></defs><g id="Layer_2" data-name="Layer 2"><g id="Layer_1-2" data-name="Layer 1"><path class="cls-1" d="M28.8,36.7a19,19,0,0,1,3.44,1.53,7.48,7.48,0,0,1,3,2.94,3.62,3.62,0,0,1,.3,2.54,4.53,4.53,0,0,1-.46,1.16,7.05,7.05,0,0,1-.7.89,9.92,9.92,0,0,1-3.28,2.13,34.77,34.77,0,0,1-14,2.09,42.24,42.24,0,0,1-7-.77A24.51,24.51,0,0,1,3.39,47,7.9,7.9,0,0,1,.6,44.74l-.25-.39-.18-.44A3.19,3.19,0,0,1,0,43a2.9,2.9,0,0,1,.62-1.73,7.56,7.56,0,0,1,2.81-2.09A20.3,20.3,0,0,1,6.71,38a19.87,19.87,0,0,0-3.19,1.33A7.15,7.15,0,0,0,.93,41.47,2.46,2.46,0,0,0,.47,43a2.5,2.5,0,0,0,.19.76l.16.36.24.32a7.23,7.23,0,0,0,2.66,1.91,23.75,23.75,0,0,0,6.54,1.78,42,42,0,0,0,6.81.38,33.3,33.3,0,0,0,13.09-2.64,7.72,7.72,0,0,0,2.42-1.72,4.36,4.36,0,0,0,.34-.49,2.37,2.37,0,0,0,.15-.45,1.09,1.09,0,0,0-.17-.82,5,5,0,0,0-2-1.66,16.06,16.06,0,0,0-3-1.13Z"/><polygon class="cls-1" points="33.09 19 16.81 0 0.52 19 9.57 19 9.57 44.33 24.05 44.33 24.05 19 33.09 19"/></g></g></svg>