<svg xmlns="http://www.w3.org/2000/svg" viewBox="0 0 30 10"><defs><style>.cls-1{fill:#c0272d;}</style></defs><g id="Layer_2" data-name="Layer 2"><g id="Layer_1-2" data-name="Layer 1"><path class="cls-1" d="M28,1a1,1,0,0,1,1,1V8a1,1,0,0,1-1,1H2A1,1,0,0,1,1,8V2A1,1,0,0,1,2,1H28m0-1H2A2,2,0,0,0,0,2V8a2,2,0,0,0,2,2H28a2,2,0,0,0,2-2V2a2,2,0,0,0-2-2Z"/><path class="cls-1" d="M5.23,5.67a2.36,2.36,0,0,1-.11.61,1.48,1.48,0,0,1-.23.49,1.14,1.14,0,0,1-.37.32,1,1,0,0,1-.5.12.89.89,0,0,1-.52-.16,1.17,1.17,0,0,1-.39-.43,2.47,2.47,0,0,1-.26-.68,4,4,0,0,1-.09-.88V4.59a4.06,4.06,0,0,1,.09-.89A2.47,2.47,0,0,1,3.11,3a1.3,1.3,0,0,1,.41-.43.92.92,0,0,1,.53-.16,1,1,0,0,1,.49.12,1.05,1.05,0,0,1,.35.32,1.48,1.48,0,0,1,.23.49A2.44,2.44,0,0,1,5.23,4H4.81a2.66,2.66,0,0,0-.08-.44,1,1,0,0,0-.14-.33.58.58,0,0,0-.54-.28.61.61,0,0,0-.37.12.89.89,0,0,0-.27.33,1.87,1.87,0,0,0-.17.52,4.68,4.68,0,0,0-.05.67v.48a3.32,3.32,0,0,0,.05.64,1.87,1.87,0,0,0,.15.52,1,1,0,0,0,.26.36A.59.59,0,0,0,4,6.71a.86.86,0,0,0,.34-.07.66.66,0,0,0,.23-.21.94.94,0,0,0,.14-.32,2.66,2.66,0,0,0,.08-.44Z"/><path class="cls-1" d="M7.58,5.93H6.24l-.3,1.21H5.5L6.73,2.5H7.1L8.33,7.14H7.89Zm-1.21-.5H7.46L6.91,3.25Z"/><path class="cls-1" d="M11.23,7.14H10.8L9.18,3.56V7.14H8.76V2.5h.42L10.8,6.09V2.5h.43Z"/><path class="cls-1" d="M14.34,5.67a2.87,2.87,0,0,1-.11.61,1.72,1.72,0,0,1-.24.49,1.22,1.22,0,0,1-.36.32,1,1,0,0,1-.51.12.84.84,0,0,1-.51-.16,1.19,1.19,0,0,1-.4-.43A2.47,2.47,0,0,1,12,5.94a4,4,0,0,1-.09-.88V4.59A4.06,4.06,0,0,1,12,3.7,2.19,2.19,0,0,1,12.22,3a1.28,1.28,0,0,1,.4-.43.93.93,0,0,1,.54-.16,1,1,0,0,1,.48.12,1,1,0,0,1,.36.32,2,2,0,0,1,.23.49,3,3,0,0,1,.11.63h-.43a2.7,2.7,0,0,0-.07-.44,1,1,0,0,0-.14-.33A.63.63,0,0,0,13.48,3a.66.66,0,0,0-.32-.07.64.64,0,0,0-.38.12,1.14,1.14,0,0,0-.27.33,2.28,2.28,0,0,0-.16.52,3.55,3.55,0,0,0-.06.67v.48a4.37,4.37,0,0,0,.05.64,3,3,0,0,0,.15.52,1.11,1.11,0,0,0,.26.36.62.62,0,0,0,.37.13.82.82,0,0,0,.34-.07.69.69,0,0,0,.24-.21,1.19,1.19,0,0,0,.14-.32,2.7,2.7,0,0,0,.07-.44Z"/><path class="cls-1" d="M16.73,5H15.34V6.64H17v.5h-2V2.5h2V3h-1.6V4.49h1.39Z"/><path class="cls-1" d="M17.91,6.64h1.52v.5H17.48V2.5h.43Z"/><path class="cls-1" d="M20.34,6.64h1.52v.5H19.92V2.5h.42Z"/><path class="cls-1" d="M24.16,5H22.77V6.64h1.61v.5h-2V2.5h2V3H22.77V4.49h1.39Z"/><path class="cls-1" d="M24.91,7.14V2.5h.91a1.1,1.1,0,0,1,.57.15,1.26,1.26,0,0,1,.45.44,2.17,2.17,0,0,1,.29.69,3.62,3.62,0,0,1,.1.91V5a3.62,3.62,0,0,1-.1.91,2.43,2.43,0,0,1-.29.69,1.34,1.34,0,0,1-.46.43,1.21,1.21,0,0,1-.6.15ZM25.33,3V6.64h.45a.84.84,0,0,0,.45-.12.88.88,0,0,0,.32-.34,1.5,1.5,0,0,0,.2-.53A3.54,3.54,0,0,0,26.81,5V4.68A3.69,3.69,0,0,0,26.75,4a1.73,1.73,0,0,0-.2-.53,1,1,0,0,0-.31-.33A.82.82,0,0,0,25.82,3Z"/></g></g></svg>