<svg xmlns="http://www.w3.org/2000/svg" viewBox="0 0 59 59"><defs><style>.cls-1{fill:#4d4d4d;}</style></defs><g id="Layer_2" data-name="Layer 2"><g id="Layer_1-2" data-name="Layer 1"><path class="cls-1" d="M29.5,4A25.5,25.5,0,1,1,4,29.5,25.53,25.53,0,0,1,29.5,4m0-4A29.5,29.5,0,1,0,59,29.5,29.5,29.5,0,0,0,29.5,0Z"/><path class="cls-1" d="M36.08,36.52a11.4,11.4,0,0,1,2.06.92A4.47,4.47,0,0,1,40,39.2a2.17,2.17,0,0,1,.18,1.53,2.78,2.78,0,0,1-.28.69,3.72,3.72,0,0,1-.41.53,6.09,6.09,0,0,1-2,1.29A21.18,21.18,0,0,1,29,44.49,26.72,26.72,0,0,1,24.85,44a15.07,15.07,0,0,1-4-1.33,4.76,4.76,0,0,1-1.67-1.36L19,41.11l-.1-.26a1.59,1.59,0,0,1,.26-1.6A4.58,4.58,0,0,1,20.86,38a11.86,11.86,0,0,1,2-.7,11.12,11.12,0,0,0-1.92.8,4.41,4.41,0,0,0-1.55,1.28,1.52,1.52,0,0,0-.28.9,1.42,1.42,0,0,0,.12.46l.09.21.15.19A4.24,4.24,0,0,0,21,42.29,13.9,13.9,0,0,0,25,43.36a25.38,25.38,0,0,0,4.09.23A20,20,0,0,0,36.9,42a4.73,4.73,0,0,0,1.45-1,2.64,2.64,0,0,0,.21-.29,2,2,0,0,0,.08-.27.59.59,0,0,0-.1-.49,2.94,2.94,0,0,0-1.22-1,9.66,9.66,0,0,0-1.78-.68Z"/><polygon class="cls-1" points="38.66 25.9 28.89 14.5 19.12 25.9 24.55 25.9 24.55 41.1 33.23 41.1 33.23 25.9 38.66 25.9"/></g></g></svg>