<svg xmlns="http://www.w3.org/2000/svg" viewBox="0 0 59 59"><defs><style>.cls-1{fill:#4d4d4d;}</style></defs><g id="Layer_2" data-name="Layer 2"><g id="Layer_1-2" data-name="Layer 1"><path class="cls-1" d="M29.5,4A25.5,25.5,0,1,1,4,29.5,25.53,25.53,0,0,1,29.5,4m0-4A29.5,29.5,0,1,0,59,29.5,29.5,29.5,0,0,0,29.5,0Z"/><path class="cls-1" d="M41.52,22.85V41.5H16.39V22.85H41.52M44,20.42H14V43.93H44V20.42Z"/><path class="cls-1" d="M38.55,16.36l2.54,4.06H16.67l2-4.06H38.55m1.35-2.43H17.2L14,20.42v2.43H44V20.42L39.9,13.93Z"/><polygon class="cls-1" points="39.09 31.77 30.98 31.77 30.98 34.2 39.09 34.2 39.09 31.77 39.09 31.77"/><polygon class="cls-1" points="39.09 36.63 28.55 36.63 28.55 39.06 39.09 39.06 39.09 36.63 39.09 36.63"/></g></g></svg>