<svg xmlns="http://www.w3.org/2000/svg" viewBox="0 0 59 59"><defs><style>.cls-1{fill:#4d4d4d;}</style></defs><g id="Layer_2" data-name="Layer 2"><g id="Layer_1-2" data-name="Layer 1"><path class="cls-1" d="M29.5,4A25.5,25.5,0,1,1,4,29.5,25.53,25.53,0,0,1,29.5,4m0-4A29.5,29.5,0,1,0,59,29.5,29.5,29.5,0,0,0,29.5,0Z"/><path class="cls-1" d="M19.3,37.74c1.18-1.35,2.19-2.87,3.54-4.38a5,5,0,0,1,3.71-1.52h6.58a1.48,1.48,0,0,1,1.52,1.35,1.25,1.25,0,0,1-1.35,1.35h-3a1.2,1.2,0,0,0-1.35,1.18,1.34,1.34,0,0,0,1.35,1.35h7.08a1.21,1.21,0,0,0,1-.51,9.82,9.82,0,0,0,1.85-1.85,1.51,1.51,0,0,1,2.36-.17,1.44,1.44,0,0,1-.17,2.19l-3.2,3.2a1.83,1.83,0,0,1-1.52.68H27.06a2.61,2.61,0,0,0-2.7,1.51.17.17,0,0,1-.17.17h0A61.43,61.43,0,0,1,19.3,37.74Z"/><path class="cls-1" d="M21.49,47.35H12.73V41.28a.59.59,0,0,1,.17-.5c.33-.34.67-.85,1-1.18C16.27,42.29,18.8,44.82,21.49,47.35Z"/><path class="cls-1" d="M15.26,38.25c.16-.17.16-.34.33-.34a.63.63,0,0,1,1,0l6.75,6.74c.34.34.34.68,0,1.18-.17.17-.17.34-.34.34C20.48,43.47,17.79,40.94,15.26,38.25Z"/><path class="cls-1" d="M27.82,28.07a2,2,0,0,1-1.41-.59l-6.25-6.24A2,2,0,0,1,23,18.41l4.83,4.83L40,11a2,2,0,0,1,2.83,2.83L29.24,27.48A2,2,0,0,1,27.82,28.07Z"/></g></g></svg>