<svg xmlns="http://www.w3.org/2000/svg" viewBox="0 0 59 59"><defs><style>.cls-1{fill:#4d4d4d;}</style></defs><g id="Layer_2" data-name="Layer 2"><g id="Layer_1-2" data-name="Layer 1"><path class="cls-1" d="M29.5,4A25.5,25.5,0,1,1,4,29.5,25.53,25.53,0,0,1,29.5,4m0-4A29.5,29.5,0,1,0,59,29.5,29.5,29.5,0,0,0,29.5,0Z"/><path class="cls-1" d="M48.49,32.93a16.35,16.35,0,0,0-.16-2.1A1.65,1.65,0,0,0,47,29.33c-.4-.08-.8-.23-1.2-.33A2.62,2.62,0,0,1,44,27.48c-.41-.93-.87-1.84-1.34-2.74a3.3,3.3,0,0,0-3-1.91H37.77c-.42,0-.52-.09-.53-.51,0-.79,0-1.58,0-2.37a3.45,3.45,0,0,0-.15-1,1.72,1.72,0,0,0-1.83-1.1H26.38c-2.92,0-5.83,0-8.74,0a5.47,5.47,0,0,0-1.28.15,1.87,1.87,0,0,0-1.56,2v1.22c0,.63.16.78.79.78h9.66A1.68,1.68,0,0,1,27,23.45a3.64,3.64,0,0,1,0,.81,1.6,1.6,0,0,1-1.46,1.62c-.86.06-9.07.05-10.16.06-.43,0-.56.14-.58.58,0,.12,0,.24,0,.37a.51.51,0,0,0,.48.55c.16,0,4.58,0,6.63,0a2.68,2.68,0,0,1,.8.13A1.93,1.93,0,0,1,23.86,30a1.77,1.77,0,0,1-1.73,1.41c-2.14,0-4.29,0-6.44,0-.67,0-.89.23-.89.89,0,1.19,0,2.39,0,3.59a1.94,1.94,0,0,0,1.42,2.07,5.13,5.13,0,0,0,1.18.1c.65,0,.64,0,.71-.66a4.14,4.14,0,0,1,2.47-3.46,4.07,4.07,0,0,1,4.33.38,4.21,4.21,0,0,1,1.84,3.37c0,.25.07.38.36.38q4.09,0,8.18,0c.26,0,.35-.11.37-.35a6.85,6.85,0,0,1,.17-1.09,4.33,4.33,0,0,1,8.49,1.07c0,.29.11.38.4.37.55,0,1.11,0,1.66,0a1.94,1.94,0,0,0,2.11-2.12C48.5,34.9,48.51,33.91,48.49,32.93ZM42.64,29H37.82c-.54,0-.58,0-.58-.59,0-1.28,0-2.57,0-3.85,0-.3.07-.46.41-.44a15.56,15.56,0,0,1,2.05.12,2.47,2.47,0,0,1,1.78,1.31c.58,1.1,1.12,2.21,1.71,3.39A4.35,4.35,0,0,1,42.64,29Z"/><path class="cls-1" d="M19.45,25.07c-1.87,0-3.75,0-5.62,0-.41,0-.8-.05-1-.46a1.5,1.5,0,0,1,.07-1.38,1,1,0,0,1,1-.37H25.05c.39,0,.78,0,1,.44a1.49,1.49,0,0,1,0,1.35.86.86,0,0,1-.85.42Z"/><path class="cls-1" d="M25.75,37.81a3.3,3.3,0,0,1-3.36,3.31,3.26,3.26,0,0,1-3.3-3.35,3.33,3.33,0,0,1,3.36-3.3A3.36,3.36,0,0,1,25.75,37.81ZM22.4,39.23a1.42,1.42,0,0,0,1.46-1.4,1.45,1.45,0,0,0-1.44-1.47A1.44,1.44,0,0,0,21,37.81,1.41,1.41,0,0,0,22.4,39.23Z"/><path class="cls-1" d="M43.31,37.82A3.29,3.29,0,0,1,40,41.12a3.32,3.32,0,1,1,0-6.64A3.31,3.31,0,0,1,43.31,37.82ZM40,39.23a1.44,1.44,0,0,0,1.44-1.46A1.47,1.47,0,0,0,40,36.36a1.42,1.42,0,0,0-1.42,1.47A1.4,1.4,0,0,0,40,39.23Z"/><path class="cls-1" d="M22,28.32c.42,0,.82.09,1,.53a1.35,1.35,0,0,1-.18,1.42,1.1,1.1,0,0,1-.73.25c-3.45,0-6.89,0-10.33,0a1.14,1.14,0,0,1-1.05-1.75.9.9,0,0,1,.89-.47Z"/></g></g></svg>