<svg xmlns="http://www.w3.org/2000/svg" viewBox="0 0 25 21.3"><defs><style>.cls-1{fill:#fff;}.cls-2{fill:#fb8c00;}</style></defs><g id="Layer_2" data-name="Layer 2"><g id="Layer_1-2" data-name="Layer 1"><path class="cls-1" d="M23.14,4.24V21.3H19.33V21c0-4.43,0-8.86,0-13.28a.53.53,0,0,1,.2-.45q1.71-1.42,3.4-2.87Z"/><path class="cls-1" d="M7.46,21.3V7.08l.19.07,3.43,1.69a.27.27,0,0,1,.19.29v12a1.68,1.68,0,0,1,0,.2Z"/><path class="cls-1" d="M5.31,21.3H1.51V21c0-3.36,0-6.72,0-10.07a.39.39,0,0,1,.2-.38L5.11,8.4l.2-.12Z"/><path class="cls-1" d="M17.2,21.3H13.41V10l.25.11c.47.23.94.45,1.4.69a.29.29,0,0,0,.39-.05c.5-.44,1-.87,1.53-1.3l.22-.17Z"/><path class="cls-2" d="M23.09,1H19.72c-.38,0-.6-.19-.6-.5S19.33,0,19.7,0h4.72c.4,0,.58.2.58.6V5.31a.53.53,0,0,1-.49.59c-.31,0-.51-.23-.52-.59V1.66c-.12.1-.2.16-.27.23l-8,6.76a.67.67,0,0,1-.84.11L7.59,5.15a.39.39,0,0,0-.45,0l-6.23,4a1,1,0,0,1-.4.15A.44.44,0,0,1,0,9a.49.49,0,0,1,.11-.55,1.7,1.7,0,0,1,.22-.15L6.9,4.13a.71.71,0,0,1,.79,0L15,7.67c.13.06.22.11.37,0L23,1.14l.08-.06Z"/></g></g></svg>