<svg xmlns="http://www.w3.org/2000/svg" viewBox="0 0 22.69 25.1"><defs><style>.cls-1{fill:#fff;}.cls-2{fill:#fb8c00;}</style></defs><g id="Layer_2" data-name="Layer 2"><g id="Layer_1-2" data-name="Layer 1"><path class="cls-1" d="M11.34,4.1a9.66,9.66,0,1,1-9.66,9.66A9.67,9.67,0,0,1,11.34,4.1m0-1.68A11.34,11.34,0,1,0,22.69,13.76,11.34,11.34,0,0,0,11.34,2.42Z"/><path class="cls-1" d="M10.09,0h2.5a.95.95,0,0,1,.95.95V3.14a0,0,0,0,1,0,0H9.14a0,0,0,0,1,0,0V.95A.95.95,0,0,1,10.09,0Z"/><path class="cls-1" d="M17.74,3.21h2.12a.26.26,0,0,1,.26.26V5.64a0,0,0,0,1,0,0H17.48a0,0,0,0,1,0,0V3.47A.26.26,0,0,1,17.74,3.21Z" transform="translate(8.64 -12) rotate(45)"/><path class="cls-2" d="M10.93,6.93,9.57,13.46a1.35,1.35,0,0,0,1.32,1.62H11a1.34,1.34,0,0,0,1.32-1.62Z"/><path class="cls-2" d="M12.27,14.93l5.12-1.21L12.8,12.63l.17.83A1.34,1.34,0,0,1,12.27,14.93Z"/></g></g></svg>