<svg xmlns="http://www.w3.org/2000/svg" viewBox="0 0 23.52 25"><defs><style>.cls-1{fill:#fb8c00;}.cls-2{fill:#fff;}</style></defs><g id="Layer_2" data-name="Layer 2"><g id="Layer_1-2" data-name="Layer 1"><path class="cls-1" d="M19,16.23a11.34,11.34,0,0,1,2.26,1,5,5,0,0,1,2,1.93,2.42,2.42,0,0,1,.2,1.68,2.7,2.7,0,0,1-.31.76,3.4,3.4,0,0,1-.45.59,6.52,6.52,0,0,1-2.17,1.41A23,23,0,0,1,11.26,25a28.65,28.65,0,0,1-4.62-.51A16.21,16.21,0,0,1,2.23,23,5.15,5.15,0,0,1,.4,21.53l-.17-.26L.11,21A2.06,2.06,0,0,1,0,20.37a1.93,1.93,0,0,1,.41-1.14,4.89,4.89,0,0,1,1.85-1.38,13.25,13.25,0,0,1,2.16-.77,13.32,13.32,0,0,0-2.1.88A4.72,4.72,0,0,0,.61,19.37a1.72,1.72,0,0,0-.3,1,1.66,1.66,0,0,0,.12.5l.11.24.16.21a4.69,4.69,0,0,0,1.76,1.26,15.46,15.46,0,0,0,4.31,1.17,28.12,28.12,0,0,0,4.49.26,22,22,0,0,0,8.63-1.74,5,5,0,0,0,1.6-1.14,2.64,2.64,0,0,0,.22-.32,1.05,1.05,0,0,0,.1-.3A.68.68,0,0,0,21.7,20a3.2,3.2,0,0,0-1.35-1.09,10.52,10.52,0,0,0-2-.75Z"/><path class="cls-2" d="M17.71,2.61A8.9,8.9,0,0,0,5.12,15.19l6.29,6.3,6.3-6.3A8.9,8.9,0,0,0,17.71,2.61Zm-6.3,8.26a3.5,3.5,0,1,1,3.5-3.5A3.5,3.5,0,0,1,11.41,10.87Z"/></g></g></svg>