<svg xmlns="http://www.w3.org/2000/svg" viewBox="0 0 33.7 23.24"><defs><style>.cls-1{fill:#22b573;}</style></defs><g id="Layer_2" data-name="Layer 2"><g id="Layer_1-2" data-name="Layer 1"><path class="cls-1" d="M11,19.94a3.29,3.29,0,0,1-3.35,3.3,3.27,3.27,0,0,1-3.31-3.35,3.33,3.33,0,0,1,6.66.05ZM7.61,21.35A1.42,1.42,0,0,0,9.06,20a1.45,1.45,0,1,0-2.89,0A1.42,1.42,0,0,0,7.61,21.35Z"/><path class="cls-1" d="M28.51,19.94a3.28,3.28,0,0,1-3.32,3.3,3.32,3.32,0,1,1,0-6.64A3.31,3.31,0,0,1,28.51,19.94ZM25.2,21.35a1.43,1.43,0,0,0,1.44-1.46,1.47,1.47,0,0,0-1.46-1.41A1.43,1.43,0,0,0,23.75,20,1.4,1.4,0,0,0,25.2,21.35Z"/><path class="cls-1" d="M33.69,15.05a16.35,16.35,0,0,0-.16-2.1,1.62,1.62,0,0,0-1.32-1.49c-.41-.09-.8-.23-1.21-.34a2.59,2.59,0,0,1-1.82-1.51c-.42-.93-.88-1.84-1.35-2.75a3.27,3.27,0,0,0-3-1.9c-.62,0-1.23,0-1.85,0-.43,0-.53-.09-.53-.51,0-.79,0-1.58,0-2.37a3.12,3.12,0,0,0-.15-1A1.71,1.71,0,0,0,20.47,0H2.84A5.59,5.59,0,0,0,1.56.16,1.9,1.9,0,0,0,0,2.15V18A2,2,0,0,0,1.43,20a5.66,5.66,0,0,0,1.17.09c.65,0,.64,0,.72-.66A4.14,4.14,0,0,1,5.78,16a4.09,4.09,0,0,1,4.33.38A4.19,4.19,0,0,1,12,19.77c0,.24.07.37.36.37q4.09,0,8.19,0c.25,0,.34-.1.37-.35A6.54,6.54,0,0,1,21,18.71a4.34,4.34,0,0,1,8.5,1.06c0,.29.1.38.39.37.55,0,1.11,0,1.67,0A2,2,0,0,0,33.7,18C33.7,17,33.72,16,33.69,15.05ZM17.06,5.51,9.52,13.05a1.47,1.47,0,0,1-1.06.44,1.46,1.46,0,0,1-1.06-.44L3.94,9.6A1.5,1.5,0,0,1,6.06,7.48l2.4,2.39,6.48-6.48a1.5,1.5,0,1,1,2.12,2.12Zm10.78,5.64H23c-.55,0-.58,0-.58-.59,0-1.28,0-2.56,0-3.85,0-.3.07-.46.41-.44a15.36,15.36,0,0,1,2,.12,2.5,2.5,0,0,1,1.79,1.32c.57,1.09,1.11,2.2,1.7,3.38A4,4,0,0,1,27.84,11.15Z"/></g></g></svg>