<svg xmlns="http://www.w3.org/2000/svg" viewBox="0 0 30 30"><defs><style>.cls-1{fill:#c0272d;}</style></defs><g id="Layer_2" data-name="Layer 2"><g id="Layer_1-2" data-name="Layer 1"><path class="cls-1" d="M14,0a14,14,0,1,0,3.06,27.65A7.49,7.49,0,0,1,27.65,17.06,14,14,0,0,0,14,0Zm6,14H13V5h2v7h5Z"/><path class="cls-1" d="M22.5,16A6.5,6.5,0,1,1,16,22.5,6.51,6.51,0,0,1,22.5,16m0-1A7.5,7.5,0,1,0,30,22.5,7.5,7.5,0,0,0,22.5,15Z"/><rect class="cls-1" x="22" y="19" width="1" height="5"/><rect class="cls-1" x="22" y="25" width="1" height="1"/></g></g></svg>