<svg xmlns="http://www.w3.org/2000/svg" viewBox="0 0 30 30"><defs><style>.cls-1{fill:#c0272d;}</style></defs><g id="Layer_2" data-name="Layer 2"><g id="Layer_1-2" data-name="Layer 1"><path class="cls-1" d="M12.34,12.92l-.22-.17a29.63,29.63,0,0,0-4.94-3A7.34,7.34,0,0,1,6,9a1.16,1.16,0,0,1-.43-1.24A1.2,1.2,0,0,1,6.07,7a3,3,0,0,1,1.59-.53A4.6,4.6,0,0,1,10,7a13.75,13.75,0,0,1,3.42,2.39c.46.42.9.86,1.34,1.29A2.52,2.52,0,0,1,15,11l.77-.51a38.82,38.82,0,0,1,6.69-3.67l.63-.25a.31.31,0,0,1,.44.29.9.9,0,0,1-.44.91,44.79,44.79,0,0,0-6.36,4.78l-.16.15c0,.05.08.11.12.15a46.14,46.14,0,0,1,5.61,8.5c.43.87.8,1.77,1.19,2.66.14.32,0,.52-.36.52a.84.84,0,0,1-.82-.43,43.45,43.45,0,0,0-6.72-8.38c-.31-.3-.62-.58-.94-.87l-.14-.13-.48.51a31.75,31.75,0,0,0-4.43,6.08c-.38.69-.72,1.39-1.09,2.07a3.94,3.94,0,0,1-.57.77,1.15,1.15,0,0,1-1.18.35A1.2,1.2,0,0,1,6,23.93a3.13,3.13,0,0,1-.54-1.67,5.21,5.21,0,0,1,.7-2.61,15,15,0,0,1,2.34-3.2,33.39,33.39,0,0,1,3.58-3.35Z"/><path class="cls-1" d="M15,1.5A13.5,13.5,0,1,1,1.5,15,13.52,13.52,0,0,1,15,1.5M15,0A15,15,0,1,0,30,15,15,15,0,0,0,15,0Z"/></g></g></svg>