<svg xmlns="http://www.w3.org/2000/svg" viewBox="0 0 27 29"><defs><style>.cls-1{fill:#fff;}</style></defs><g id="Layer_2" data-name="Layer 2"><g id="Layer_1-2" data-name="Layer 1"><path class="cls-1" d="M6.5,17A5.5,5.5,0,1,1,1,22.5,5.51,5.51,0,0,1,6.5,17m0-1A6.5,6.5,0,1,0,13,22.5,6.5,6.5,0,0,0,6.5,16Z"/><path class="cls-1" d="M9,23H6V20a.5.5,0,0,1,1,0v2H9a.5.5,0,0,1,0,1Z"/><rect class="cls-1" x="20" width="2" height="5" rx="1"/><rect class="cls-1" x="11" width="2" height="5" rx="1"/><path class="cls-1" d="M24,2H23V4a2,2,0,0,1-4,0V2H14V4a2,2,0,0,1-4,0V2H9A3,3,0,0,0,6,5v9c.17,0,.33,0,.5,0A8.51,8.51,0,0,1,15,22.5c0,.17,0,.33,0,.5h9a3,3,0,0,0,3-3V5A3,3,0,0,0,24,2ZM12,10H9V7h3Zm6,6H15V13h3Zm0-6H15V7h3Zm6,11H22V19h2Zm0-5H21V13h3Zm0-6H21V7h3Z"/></g></g></svg>