<svg xmlns="http://www.w3.org/2000/svg" viewBox="0 0 30 30"><defs><style>.cls-1{fill:#009145;}</style></defs><g id="Layer_2" data-name="Layer 2"><g id="Layer_1-2" data-name="Layer 1"><path class="cls-1" d="M4,13.81l2.72-2.22,6.12,4.88A68.21,68.21,0,0,1,28.64,2.64c.14.33.28.64.41,1s.23.38.2.54-.26.29-.4.43a66,66,0,0,0-7.51,8.67,63.13,63.13,0,0,0-5,7.9c-.6,1.14-1.11,2.33-1.66,3.49l-.06.11Z"/><path class="cls-1" d="M20.13,2.49a13.49,13.49,0,0,0-10.58.16A13.2,13.2,0,0,0,3.31,8.22,13.51,13.51,0,0,0,20.56,27.31,13.29,13.29,0,0,0,27.11,21a13.46,13.46,0,0,0,1.06-9.07h1.07c.45,0,.45,0,.52.44a14.62,14.62,0,0,1-1.72,10,14.55,14.55,0,0,1-10.48,7.37,14.48,14.48,0,0,1-11.78-3A14.46,14.46,0,0,1,.19,17.33,15,15,0,0,1,19.9.83a.29.29,0,0,1,.24.33C20.12,1.59,20.13,2,20.13,2.49Z"/></g></g></svg>