<svg xmlns="http://www.w3.org/2000/svg" viewBox="0 0 38 23.24"><defs><style>.cls-1{fill:#fff;}</style></defs><g id="Layer_2" data-name="Layer 2"><g id="Layer_1-2" data-name="Layer 1"><path class="cls-1" d="M38,15.05a16.35,16.35,0,0,0-.16-2.1,1.63,1.63,0,0,0-1.33-1.49c-.4-.09-.8-.23-1.2-.34a2.63,2.63,0,0,1-1.83-1.51c-.41-.93-.87-1.84-1.34-2.75a3.29,3.29,0,0,0-3-1.9c-.61,0-1.23,0-1.85,0-.42,0-.52-.09-.53-.51,0-.79,0-1.58,0-2.37a3.45,3.45,0,0,0-.15-1A1.73,1.73,0,0,0,24.76,0H7.14A5.47,5.47,0,0,0,5.86.16a1.89,1.89,0,0,0-1.56,2V3.37c0,.63.16.78.79.78h9.66a1.68,1.68,0,0,1,1.73,1.42,3.64,3.64,0,0,1,0,.81A1.59,1.59,0,0,1,15,8c-.86.06-9.07.05-10.16.06-.43,0-.56.14-.58.58,0,.12,0,.25,0,.37a.51.51,0,0,0,.48.55c.16,0,4.58,0,6.63,0a2.68,2.68,0,0,1,.8.13,1.94,1.94,0,0,1,1.15,2.39,1.76,1.76,0,0,1-1.73,1.41c-2.14,0-4.29,0-6.44,0-.67,0-.89.23-.89.89,0,1.2,0,2.39,0,3.59A2,2,0,0,0,5.72,20a5.76,5.76,0,0,0,1.18.09c.65,0,.64,0,.71-.66A4.15,4.15,0,0,1,10.08,16a4.09,4.09,0,0,1,4.33.38,4.21,4.21,0,0,1,1.84,3.38c0,.24.07.37.36.37q4.09,0,8.18,0c.26,0,.35-.1.37-.35a6.56,6.56,0,0,1,.17-1.08,4.33,4.33,0,0,1,8.49,1.06c0,.29.11.38.4.37.55,0,1.11,0,1.66,0A1.94,1.94,0,0,0,38,18C38,17,38,16,38,15.05Zm-5.85-3.9H27.32c-.54,0-.58,0-.58-.59,0-1.28,0-2.56,0-3.85,0-.3.07-.46.41-.44a15.56,15.56,0,0,1,2.05.12A2.48,2.48,0,0,1,31,7.71c.58,1.09,1.12,2.2,1.71,3.38A4.35,4.35,0,0,1,32.14,11.15Z"/><path class="cls-1" d="M9,7.19H3.33c-.41,0-.8-.05-1-.46a1.48,1.48,0,0,1,.07-1.37,1,1,0,0,1,1-.38H14.55c.39,0,.78,0,1,.44a1.49,1.49,0,0,1,0,1.35.86.86,0,0,1-.85.42Z"/><path class="cls-1" d="M15.25,19.94A3.33,3.33,0,1,1,12,16.59,3.37,3.37,0,0,1,15.25,19.94ZM11.9,21.35A1.42,1.42,0,0,0,13.36,20a1.46,1.46,0,0,0-1.44-1.47,1.44,1.44,0,0,0-1.45,1.45A1.41,1.41,0,0,0,11.9,21.35Z"/><path class="cls-1" d="M32.81,19.94a3.28,3.28,0,0,1-3.32,3.3,3.32,3.32,0,1,1,0-6.64A3.31,3.31,0,0,1,32.81,19.94ZM29.5,21.35a1.44,1.44,0,0,0,1.44-1.46,1.47,1.47,0,0,0-1.47-1.41A1.42,1.42,0,0,0,28.05,20,1.39,1.39,0,0,0,29.5,21.35Z"/><path class="cls-1" d="M11.49,10.44c.42,0,.82.09,1,.53a1.35,1.35,0,0,1-.18,1.42,1.11,1.11,0,0,1-.73.26c-3.45,0-6.89,0-10.33,0a1.14,1.14,0,0,1-1-1.74.89.89,0,0,1,.89-.48Z"/></g></g></svg>