<svg xmlns="http://www.w3.org/2000/svg" viewBox="0 0 30 18.35"><defs><style>.cls-1{fill:#fff;}</style></defs><g id="Layer_2" data-name="Layer 2"><g id="Layer_1-2" data-name="Layer 1"><path class="cls-1" d="M2.63,5.68c-.33,0-.63,0-.76-.37a1.15,1.15,0,0,1,0-1.08.79.79,0,0,1,.77-.3h8.8a.75.75,0,0,1,.77.35,1.16,1.16,0,0,1,0,1.07.69.69,0,0,1-.67.33Z"/><path class="cls-1" d="M12,15.74a2.61,2.61,0,0,1-2.65,2.61,2.58,2.58,0,0,1-2.61-2.64A2.62,2.62,0,0,1,9.44,13.1,2.66,2.66,0,0,1,12,15.74ZM9.4,16.85a1.1,1.1,0,0,0,1.14-1.1,1.14,1.14,0,1,0-2.27,0A1.11,1.11,0,0,0,9.4,16.85Z"/><path class="cls-1" d="M25.9,15.74a2.6,2.6,0,0,1-2.62,2.61,2.54,2.54,0,0,1-2.62-2.65,2.58,2.58,0,0,1,2.65-2.6A2.62,2.62,0,0,1,25.9,15.74Zm-2.61,1.11a1.11,1.11,0,0,0,1.13-1.15,1.15,1.15,0,0,0-1.15-1.11,1.13,1.13,0,0,0-1.13,1.16A1.1,1.1,0,0,0,23.29,16.85Z"/><path class="cls-1" d="M9.07,8.25c.34,0,.65.06.76.41a1.06,1.06,0,0,1-.14,1.12.91.91,0,0,1-.58.2Q5,10,1,10A.9.9,0,0,1,.12,8.62a.7.7,0,0,1,.71-.37Z"/><path class="cls-1" d="M30,11.88a13.26,13.26,0,0,0-.13-1.66,1.26,1.26,0,0,0-1-1.17c-.32-.07-.63-.19-.95-.27a2.07,2.07,0,0,1-1.45-1.2c-.32-.73-.68-1.45-1.05-2.16A2.61,2.61,0,0,0,23,3.91c-.48,0-1,0-1.46,0s-.41-.07-.42-.4c0-.63,0-1.25,0-1.88A2.8,2.8,0,0,0,21,.87,1.35,1.35,0,0,0,19.55,0H5.64a4.23,4.23,0,0,0-1,.12A1.49,1.49,0,0,0,3.39,1.7v1a.77.77,0,0,0,.12.48h8a1.53,1.53,0,0,1,1.48.8,1.94,1.94,0,0,1,0,1.77,1.42,1.42,0,0,1-1.36.76H3.5a.52.52,0,0,0-.11.35v.29a.44.44,0,0,0,.17.35H9.08a1.4,1.4,0,0,1,1.5,1,1.8,1.8,0,0,1-.33,1.92,1.67,1.67,0,0,1-1.14.43l-5.31,0H3.57a.68.68,0,0,0-.18.55v2.84a1.56,1.56,0,0,0,1.13,1.64,4,4,0,0,0,.92.07c.52,0,.51,0,.57-.52a3.26,3.26,0,0,1,2-2.73,3.24,3.24,0,0,1,3.42.3,3.36,3.36,0,0,1,1.45,2.66c0,.2.05.3.28.3h6.46c.21,0,.28-.08.3-.27a5,5,0,0,1,.13-.86,3.42,3.42,0,0,1,6.7.84c0,.23.09.3.31.29h1.32A1.54,1.54,0,0,0,30,14.22C30,13.44,30,12.66,30,11.88ZM25.37,8.8h-3.8c-.43,0-.46,0-.46-.47,0-1,0-2,0-3,0-.24.06-.37.32-.35A12.47,12.47,0,0,1,23.05,5a2,2,0,0,1,1.41,1c.45.87.88,1.75,1.34,2.68A3.62,3.62,0,0,1,25.37,8.8Z"/></g></g></svg>