<svg xmlns="http://www.w3.org/2000/svg" viewBox="0 0 50 30.59"><defs><style>.cls-1{fill:#00a355;}</style></defs><g id="Layer_2" data-name="Layer 2"><g id="Layer_1-2" data-name="Layer 1"><path class="cls-1" d="M50,19.8A19.61,19.61,0,0,0,49.77,17a2.14,2.14,0,0,0-1.74-2c-.53-.12-1.05-.31-1.58-.45a3.44,3.44,0,0,1-2.41-2c-.54-1.22-1.15-2.42-1.76-3.61a4.33,4.33,0,0,0-4-2.51c-.81,0-1.62,0-2.43,0-.57,0-.7-.12-.7-.68,0-1,0-2.08,0-3.12A4.21,4.21,0,0,0,35,1.45,2.25,2.25,0,0,0,32.59,0H20.89c-3.83,0-7.66,0-11.5,0a7.35,7.35,0,0,0-1.68.2,2.47,2.47,0,0,0-2,2.62c0,.53,0,1.07,0,1.6,0,.83.21,1,1,1H19.41a2.19,2.19,0,0,1,2.27,1.87,6.23,6.23,0,0,1,0,1.06,2.11,2.11,0,0,1-1.93,2.14c-1.13.08-11.94.06-13.36.08-.58,0-.74.19-.77.76a4,4,0,0,0,0,.49.67.67,0,0,0,.63.72c.21,0,6,0,8.72,0a3.4,3.4,0,0,1,1,.18,2.54,2.54,0,0,1,1.52,3.14,2.33,2.33,0,0,1-2.27,1.86c-2.83,0-5.65,0-8.48,0-.88,0-1.17.3-1.17,1.17,0,1.57,0,3.15,0,4.72a2.56,2.56,0,0,0,1.87,2.73,6.59,6.59,0,0,0,1.54.13c.86,0,.85,0,.95-.87a5.46,5.46,0,0,1,3.24-4.56,5.4,5.4,0,0,1,5.7.51A5.54,5.54,0,0,1,21.38,26c0,.32.09.49.48.49q5.38,0,10.76,0c.34,0,.46-.14.49-.45a8.79,8.79,0,0,1,.22-1.44A5.7,5.7,0,0,1,44.5,26c0,.38.14.5.52.48.73,0,1.46,0,2.19,0A2.56,2.56,0,0,0,50,23.7C50,22.4,50,21.1,50,19.8Zm-7.69-5.13H36c-.72,0-.76,0-.76-.78,0-1.69,0-3.38,0-5.07,0-.4.1-.61.54-.58a20.18,20.18,0,0,1,2.7.16,3.28,3.28,0,0,1,2.35,1.73c.75,1.44,1.46,2.91,2.24,4.46A7.23,7.23,0,0,1,42.29,14.67Z"/><path class="cls-1" d="M11.78,9.46H4.38c-.54,0-1-.08-1.27-.61A1.93,1.93,0,0,1,3.2,7.05a1.33,1.33,0,0,1,1.29-.5H19.14c.52,0,1,.06,1.29.59a1.88,1.88,0,0,1,0,1.77,1.11,1.11,0,0,1-1.11.55Z"/><path class="cls-1" d="M20.06,26.23a4.35,4.35,0,0,1-4.41,4.36,4.31,4.31,0,0,1-4.35-4.41,4.38,4.38,0,0,1,8.76.05Zm-4.4,1.86a1.85,1.85,0,0,0,1.91-1.84,1.9,1.9,0,1,0-3.79,0A1.85,1.85,0,0,0,15.66,28.09Z"/><path class="cls-1" d="M43.17,26.24a4.32,4.32,0,0,1-4.37,4.34,4.37,4.37,0,1,1,.05-8.74A4.36,4.36,0,0,1,43.17,26.24Zm-4.36,1.85a1.87,1.87,0,0,0,1.89-1.92,1.93,1.93,0,0,0-1.92-1.85,1.86,1.86,0,0,0-1.87,1.93A1.83,1.83,0,0,0,38.81,28.09Z"/><path class="cls-1" d="M15.12,13.74c.56,0,1.08.12,1.26.69a1.76,1.76,0,0,1-.24,1.87,1.44,1.44,0,0,1-1,.34q-6.79,0-13.59,0a1.5,1.5,0,0,1-1.38-2.3,1.17,1.17,0,0,1,1.17-.62Z"/></g></g></svg>