<svg class="" xmlns="http://www.w3.org/2000/svg" viewBox="0 0 34 50">
  <g class="marker-icon-bus" fill="#fff">
      <path d="M5.75,13.87v2.66a.71.71,0,0,0,.75.67h.75v-4H6.5A.71.71,0,0,0,5.75,13.87Z"/>
      <path d="M28,13.2h-.75v4H28a.71.71,0,0,0,.75-.67V13.87A.71.71,0,0,0,28,13.2Z"/>
      <path d="M21.61,7.2H12.89a4.39,4.39,0,0,0-4.37,4.4V24.8c0,.81.93,1.4,1.73,1.4v2a1,1,0,0,0,1,1h2a1,1,0,0,0,1-1v-2h6v2a1,1,0,0,0,1,1h2a1,1,0,0,0,1-1v-2c.8,0,1.73-.59,1.73-1.4V11.6A4.39,4.39,0,0,0,21.61,7.2ZM14.34,8.67h5.82v1.46H14.34ZM11.43,24.8a1.47,1.47,0,1,1,1.46-1.47A1.46,1.46,0,0,1,11.43,24.8Zm8.82-1.6v1h-6v-2h6Zm2.82,1.6a1.47,1.47,0,1,1,1.45-1.47A1.46,1.46,0,0,1,23.07,24.8Zm1.45-4.4H10V11.6H24.52Z"/>
    </g>
</svg>
	