	<svg class="" xmlns="http://www.w3.org/2000/svg" viewBox="0 7 34 50">
    <g class="marker-icon-car" fill="#fff">
					<path d="M26,23.1a3,3,0,0,0-.2-1c0-.1,0-.2-.1-.2L24.1,18h0c-.5-1.6-1.3-3.2-3.3-3.2H13.3c-2,0-2.7,1.6-3.3,3.1L8.4,21.8A2,2,0,0,0,8,23.1v1.2a.75.75,0,0,0,.1.5c-.1.1-.1.2-.1.4v3.6a1,1,0,0,0,1,1h2a1,1,0,0,0,1-1v-2H22v2a1,1,0,0,0,1,1h2a1,1,0,0,0,1-1V25.2a.37.37,0,0,0-.1-.3,4.33,4.33,0,0,1,.1-.5V23.1ZM11.2,18.3c.6-1.8,1.1-2.3,2.1-2.3h7.5c1,0,1.6.6,2.1,2.3L24,20.6a5,5,0,0,0-1.2-.2H11.1a3.59,3.59,0,0,0-1.1.2Zm.9,6.4H10a.7.7,0,0,1,0-1.4h2.1a.7.7,0,1,1,0,1.4Zm7.4-.1H14.7a.4.4,0,1,1,0-.8h4.8a.4.4,0,0,1,0,.8Zm4.4.1H21.8a.7.7,0,0,1,0-1.4h2.1a.7.7,0,0,1,0,1.4Z"/>
			</g>
	</svg>