<svg class="" xmlns="http://www.w3.org/2000/svg" viewBox="0 0 34 50">
  <g class="marker-icon-motorcycle" fill="#fff">
	<path d="M15.62,25.17v5.18a1.65,1.65,0,1,0,3.28,0V25.17a1.65,1.65,0,1,0-3.28,0"/>
	<path d="M26.21,9.29l-.33-.79a.46.46,0,0,0-.62-.26l-1.93.88-3.53,1.5a4.06,4.06,0,0,0-2.55-1.1,4,4,0,0,0-2.54,1.1l-3.52-1.5L9.25,8.24a.46.46,0,0,0-.62.26l-.33.79a.52.52,0,0,0,.27.66l2.1.93a.5.5,0,0,0,.65-.26l0-.12,2.75,1.15a4.24,4.24,0,0,0-.54,2s-.2.06-.2.09A2.52,2.52,0,0,0,11.53,16v9.72a3.46,3.46,0,0,0,1.38,2.72c.56.44,1.07,0,1.07-.7V24.67a3.28,3.28,0,0,1,6.54,0v3.06c0,.72.52,1.14,1.08.7A3.48,3.48,0,0,0,23,25.71V16a2.51,2.51,0,0,0-1.84-2.22s-.19-.06-.19-.09a4.14,4.14,0,0,0-.55-2l2.76-1.15.05.12a.49.49,0,0,0,.64.26L26,10A.51.51,0,0,0,26.21,9.29Zm-9,6.05a1.66,1.66,0,1,1,1.64-1.66A1.7,1.7,0,0,1,17.25,15.34Z"/>
	</g>
</svg>
	