<svg class="" xmlns="http://www.w3.org/2000/svg" viewBox="0 0 34 50">
  <g class="marker-icon-pickup-loaded" fill="#fff">
    <circle cx="9.25" cy="24.2" r="2"/><circle cx="25.25" cy="24.2" r="2"/>
    <path d="M27.87,20.2H25.25l-2-4h-5v8h4a3,3,0,0,1,6,0h1V21.54A1.36,1.36,0,0,0,27.87,20.2Zm-8.24,0V17.53h2.75l1.37,2.67Z"/>
    <path d="M5.25,19.2v5h1a3,3,0,0,1,6,0h4v-5Z"/>
    <rect x="13.25" y="15.2" width="3" height="3"/>
    <rect x="9.25" y="15.2" width="3" height="3"/>
    <rect x="5.25" y="15.2" width="3" height="3"/>
    <rect x="13.25" y="11.2" width="3" height="3"/>
    <rect x="13.25" y="7.2" width="3" height="3"/>
    <rect x="9.25" y="11.2" width="3" height="3"/>
    <rect x="9.25" y="7.2" width="3" height="3"/>
    <rect x="5.25" y="11.2" width="3" height="3"/>
  </g>
</svg>
	