<svg class="" xmlns="http://www.w3.org/2000/svg" viewBox="0 0 34 50">
  <g class="marker-icon-rental-car" fill="#fff">
    <path d="M26.82,21.68l-.09-.23A3.35,3.35,0,0,0,25,20.36H24.9c-.62-1.85-1.45-4.15-1.63-4.5a3.28,3.28,0,0,0-2-1.28s-.59-.38-4.29-.38a14.34,14.34,0,0,0-4.28.38,3.42,3.42,0,0,0-2.05,1.28c-.18.35-1,2.65-1.57,4.5H9a3.39,3.39,0,0,0-1.77,1.09l-.08.23a.46.46,0,0,0,.43.66h1l-.16.48a2.92,2.92,0,0,0-.1.73v6a.69.69,0,0,0,.69.7h2.3a.7.7,0,0,0,.7-.7V28.36h9.85v1.17a.66.66,0,0,0,.64.7H25a.66.66,0,0,0,.66-.7v-6a2.93,2.93,0,0,0-.12-.73,2.6,2.6,0,0,0-.12-.48h1C26.76,22.34,26.94,22.05,26.82,21.68Zm-15-5c.1-.25.2-1,5.18-1s5.06.76,5.16,1,.72,2.18,1.24,4.33a20.87,20.87,0,0,0-6.12-.64h-.53a21.24,21.24,0,0,0-6.15.64C11.11,18.85,11.68,17,11.81,16.67ZM13,24.91a.64.64,0,0,1-.71.54L9.87,25.1a.62.62,0,0,1-.53-.7l.08-.59a.64.64,0,0,1,.71-.54l2.42.35a.62.62,0,0,1,.53.7Zm7.09,1a.66.66,0,0,1-.67.62H14.56a.63.63,0,0,1-.63-.62v-.61h6.16Zm0-2.45H13.93v-.67a.56.56,0,0,1,.58-.56h5a.6.6,0,0,1,.61.56Zm4,1.66-2.42.35a.63.63,0,0,1-.71-.54l-.08-.59a.62.62,0,0,1,.53-.7l2.42-.35a.63.63,0,0,1,.7.54l.09.59A.62.62,0,0,1,24.12,25.1Z"/>
    <path d="M25.25,8.89l-2-1.69h-1l-1,1h-1v-1l-1,1h-1l.11-1-1.11,1h-1v-1h-2V5.82a.65.65,0,0,0-.67-.62H10.92a.65.65,0,0,0-.67.62v5.75a.65.65,0,0,0,.67.63h2.66a.65.65,0,0,0,.67-.63V10.2h9Zm-13,2a.26.26,0,0,1-.26.26h-.48a.26.26,0,0,1-.26-.26V6.46a.26.26,0,0,1,.26-.26H12a.26.26,0,0,1,.26.26Z"/>
  </g>
</svg>
	