<svg class="" xmlns="http://www.w3.org/2000/svg" viewBox="0 0 34 50">
  <g class="marker-icon-scooter" fill="#fff">
    <path d="M24.39,15.56c0-.43-.35-.58-.78-.58H21.67c-.65,0-1.17.26-1.17.58s.52.58,1.17.58h1.94c.43,0,.78-.15.78-.58"/>
    <path d="M15.25,26.81v5.44a1.76,1.76,0,1,0,3.5,0V26.81a1.76,1.76,0,1,0-3.5,0"/>
    <path d="M21,30.44A3.2,3.2,0,0,0,22.25,28V20.19a3.09,3.09,0,0,0-1.45-2.57c-.54-.35-1.34,0-1.86.39a3.2,3.2,0,0,1-1.89.63,3.4,3.4,0,0,1-2-.64c-.52-.37-1.33-.73-1.87-.38a3.1,3.1,0,0,0-1.47,2.57V28a3.17,3.17,0,0,0,1.3,2.47c.51.39,1,0,1-.63v-3a2.93,2.93,0,0,1,5.84,0v3c0,.64.52,1,1,.63"/>
    <path d="M18.94,6.22H15.06A3.26,3.26,0,0,0,11.75,9.3v3.34c0,.65.26,1.17.58,1.17s.58-.52.58-1.17V9.3a2.32,2.32,0,0,1,2.15-2.49h3.88A2.32,2.32,0,0,1,21.09,9.3v3.34c0,.65.26,1.17.58,1.17s.58-.52.58-1.17V9.3a3.26,3.26,0,0,0-3.31-3.08"/>
    <path d="M15.44,15.53A1.56,1.56,0,1,1,17,17.08a1.56,1.56,0,0,1-1.56-1.55Zm4.28,0A2.72,2.72,0,1,0,17,18.25a2.72,2.72,0,0,0,2.72-2.72"/>
    <path d="M13.5,15.56c0-.32-.52-.58-1.17-.58H10.39c-.43,0-.78.15-.78.58s.35.58.78.58h1.94c.65,0,1.17-.26,1.17-.58"/>
  </g>
</svg>
	