<svg class="" xmlns="http://www.w3.org/2000/svg" viewBox="0 0 34 50">
  <g class="marker-icon-ship" fill="#fff">
    <path d="M24.5,8.67h-6v-1l1-1h-5l1,1v1h-8v2h2v5l4-2h7l4,2v-5h2v-2ZM16,12.17H11v-2h5Zm7,0H18v-2h5Z"/>
    <path d="M19.81,15.67H18v20l4.31-1.86c.34-3.83,7.19-13.1,7.19-13.1Zm.61,5.58c-1.13-.49-1.77-1.5-1.45-2.25s1.51-1,2.63-.49,1.77,1.49,1.45,2.25S21.54,21.74,20.42,21.25Z"/>
    <path d="M14.09,15.67l-9.59,5s7.24,9.23,7.56,13.06L16,35.67v-20Zm-.49,5.58c-1.13.49-2.3.27-2.63-.49s.32-1.76,1.44-2.25,2.3-.27,2.63.49S14.72,20.76,13.6,21.25Z"/>
  </g>
</svg>
	