<svg class="" xmlns="http://www.w3.org/2000/svg" viewBox="0 0 34 50">
  <g class="marker-icon-taxi" fill="#fff">
    <path d="M28.21,17.21l-.27-.77a1.16,1.16,0,0,0-1-.77H26c-.71-2-1.58-4.46-1.84-5a3,3,0,0,0-1.87-1.33V6.2h-11V9.33a3.29,3.29,0,0,0-1.91,1.35c-.21.41-1.1,2.91-1.82,5H6.59a1.17,1.17,0,0,0-1,.78l-.27.77A.53.53,0,0,0,5.8,18h.92l-.19.56a3,3,0,0,0-.13.86v7a.82.82,0,0,0,.81.82h3a.82.82,0,0,0,.81-.82v-1.5H22.5v1.5a.82.82,0,0,0,.81.82h3a.82.82,0,0,0,.81-.82v-7a3,3,0,0,0-.13-.86L26.78,18h.92A.53.53,0,0,0,28.21,17.21Zm-16-10h1v1h1v-1h1v1h1v-1h1v1h1v-1h1v1h1v-1h1v1h-1v1h-1v-1h-1v1h-1v-1h-1v1h-1v-1h-1v1h-1v-1h-1Zm-1.57,4.41c.11-.28.23-1.18,6.07-1.18s6,1,6,1A38.84,38.84,0,0,1,24.21,16a25.28,25.28,0,0,1-7.46.85A25.72,25.72,0,0,1,9.27,16,26.89,26.89,0,0,1,10.68,11.61Zm.3,9.91H9.75c-1.1,0-2.2-.15-2.2-.86v-.85c0-.82.47-.85,1-.85a7.19,7.19,0,0,1,2.14.72c.71.32,1.51.59,1.51,1.12S11.91,21.52,11,21.52Zm8.27.68h-5v-1h5Zm0-2h-5v-1h5Zm4.5,1.32H22.52c-.93,0-1.21-.23-1.21-.72s.8-.8,1.51-1.12A7.19,7.19,0,0,1,25,19c.51,0,1,0,1,.85v.85h0C26,21.37,24.85,21.52,23.75,21.52Z"/>
  </g>
</svg>
	