<svg class="" xmlns="http://www.w3.org/2000/svg" viewBox="0 0 34 50">
  <g class="marker-icon-truck" fill="#fff">
	<path d="M28.51,12h-.73V9.32A1.13,1.13,0,0,0,26.65,8.2H24.58V5.56a.35.35,0,0,0-.54-.3l-.92,1.43v3.2l-.27-.77a2.5,2.5,0,0,0-2.31-1.68H14a2.5,2.5,0,0,0-2.31,1.68l-.27.77V6.69l-.92-1.43a.35.35,0,0,0-.54.3V8.2H7.85A1.13,1.13,0,0,0,6.72,9.32V12H6a.75.75,0,0,0-.74.76v3a.76.76,0,0,0,.74.77h.73v1.11A1.14,1.14,0,0,0,7.85,18.7H9.92v.75h-.6a1.62,1.62,0,0,0-1.6,1.63V24.7H7v1.51a.74.74,0,0,0,.74.74h.73v1.49a.73.73,0,0,0,.72.76h2.22a.75.75,0,0,0,.73-.76V27H22.38v1.49a.75.75,0,0,0,.73.76h2.22a.73.73,0,0,0,.72-.76V27h.73a.74.74,0,0,0,.74-.74V24.7h-.74V21.08a1.62,1.62,0,0,0-1.6-1.63h-.6V18.7h2.07a1.14,1.14,0,0,0,1.13-1.14V16.45h.73a.76.76,0,0,0,.74-.77v-3A.75.75,0,0,0,28.51,12ZM7.85,18a.41.41,0,0,1-.4-.39V16.44a.74.74,0,0,0,.73-.76v-3A.74.74,0,0,0,7.45,12h0V9.32A.39.39,0,0,1,7.85,9H9.92v9Zm4.27,5.25a.75.75,0,0,1-.74.75h-.73a.74.74,0,0,1-.73-.75V21a.74.74,0,0,1,.73-.75h.73a.74.74,0,0,1,.74.75Zm8.8.76a.74.74,0,0,1-.74.74H14.32a.74.74,0,0,1-.74-.74V23.2h7.34Zm0-1.51H13.58V21.7h7.34Zm0-1.5H13.58V20.2h7.34Zm0-1.5H13.58v-.78a.71.71,0,0,1,.71-.72h5.92a.71.71,0,0,1,.71.72Zm.72-3.75H12.86a.75.75,0,0,1-.74-.76V12.69a.74.74,0,0,1,.74-.74h8.78a.74.74,0,0,1,.74.74v2.25A.75.75,0,0,1,21.64,15.7Zm2.94,7.5a.74.74,0,0,1-.73.75h-.73a.75.75,0,0,1-.74-.75V21a.74.74,0,0,1,.74-.75h.73a.73.73,0,0,1,.73.75ZM27.05,12h0a.74.74,0,0,0-.73.76v3a.74.74,0,0,0,.73.76h0v1.11a.41.41,0,0,1-.4.39H24.58V9h2.07a.39.39,0,0,1,.4.37Z"/>
  </g>
</svg>
	