<svg class="" xmlns="http://www.w3.org/2000/svg" viewBox="0 0 34 50">
  <g class="marker-icon-water-bus" fill="#fff">
      <path class="cls-3" d="M22.7,23.29a4.47,4.47,0,0,1-2.82-1.06,4.25,4.25,0,0,1-5.62,0,4.45,4.45,0,0,1-2.81,1.06,4.42,4.42,0,0,1-2.82-1.06,4.37,4.37,0,0,1-2.39,1V26a4.45,4.45,0,0,0,2.39-1,4.25,4.25,0,0,0,5.62,0,4.25,4.25,0,0,0,5.62,0,4.26,4.26,0,0,0,5.62,0,4.42,4.42,0,0,0,2.39,1V23.26a4.33,4.33,0,0,1-2.39-1,4.47,4.47,0,0,1-2.79,1.06"/>
      <path class="cls-3" d="M27.21,9.75h1.36V9.36l-4-2.31H6.24v2.7h2.7v5.42H6.24v5.39a4.45,4.45,0,0,0,2.39-1,4.25,4.25,0,0,0,5.62,0,4.25,4.25,0,0,0,5.62,0,4.26,4.26,0,0,0,5.62,0,4.42,4.42,0,0,0,2.4,1l1.35-4H25.18ZM16.39,15.17h-6.1V9.75h6.1Zm1.35,0V9.75h7.44l-1.62,5.42Z"/>
  </g>
</svg>
	