<svg class="" xmlns="http://www.w3.org/2000/svg" viewBox="0 0 34 50">
  <g class="marker-icon-water-ferry" fill="#fff">
      <path class="cls-3" d="M6,16.67v3.71a3.77,3.77,0,0,0,.88.1,4,4,0,0,0,2.65-1,4.09,4.09,0,0,0,2.65,1,4,4,0,0,0,2.65-1,4,4,0,0,0,5.3,0,4,4,0,0,0,5.3,0,4.23,4.23,0,0,0,1.56.85l2-3.67H27c-.11-.53-.89-3.43-5.9-6.19h0L19.53,7l.53-.18V6.21A34.68,34.68,0,0,0,15,7.2,43,43,0,0,0,9.82,9H6v2.54H7.27v5.13Zm17.17,0H16.25V11.54c3.78.57,7,3.29,6.92,5.13M17.24,8.12a11.61,11.61,0,0,1,1.16-.6l1,2.22A14.15,14.15,0,0,0,16.07,9a5.28,5.28,0,0,1,1.17-.88m-8.7,3.42h6.4v5.13H8.54Z"/>
      <path class="cls-3" d="M28.12,23.06a4,4,0,0,1-2.65-1,4,4,0,0,1-5.3,0,4,4,0,0,1-5.3,0,4.1,4.1,0,0,1-5.34,0,4,4,0,0,1-2.65,1A3.77,3.77,0,0,1,6,23V25.5a3.77,3.77,0,0,0,.88.1,4.05,4.05,0,0,0,2.65-1,4.13,4.13,0,0,0,2.65,1,4.05,4.05,0,0,0,2.65-1,4,4,0,0,0,5.3,0,4,4,0,0,0,5.3,0,4.13,4.13,0,0,0,2.65,1,3.77,3.77,0,0,0,.88-.1V23a3.44,3.44,0,0,1-.84.1"/>
  </g>
</svg>
	