<svg class="" xmlns="http://www.w3.org/2000/svg" viewBox="0 0 34 50">
  <g class="marker-icon-water-abra" fill="#fff">
      <path class="cls-3" d="M25.19,15.27v1.35H22.48V9.86h2.71V8.5l-4.06-4H10.31L6.25,8.5V9.86H9v6.76H6.25V22a4.33,4.33,0,0,0,2.39-1,4.32,4.32,0,0,0,5.62,0,4.29,4.29,0,0,0,5.62,0A4.44,4.44,0,0,0,22.71,22a4,4,0,0,0,1.38-.24l5.16-5.16V15.27Zm-4.06,1.35H10.31V9.86H21.13Z"/>
      <path class="cls-3" d="M22.71,24.74a4.42,4.42,0,0,1-2.82-1.06,4.24,4.24,0,0,1-5.61,0,4.28,4.28,0,0,1-5.64,0,4.42,4.42,0,0,1-2.39,1v2.7a4.35,4.35,0,0,0,2.39-1,4.25,4.25,0,0,0,5.62,0,4.25,4.25,0,0,0,5.62,0,4.25,4.25,0,0,0,5.61,0,4.38,4.38,0,0,0,2.39,1v-2.7a4.45,4.45,0,0,1-2.39-1,4.39,4.39,0,0,1-2.78,1.06"/>
  </g>
</svg>
	