<svg class="" xmlns="http://www.w3.org/2000/svg" viewBox="0 0 34 50">
  <g class="marker-icon-water-taxi" fill="#fff">
      <path class="cls-3" d="M11,20.83a4.73,4.73,0,0,0,3-1.13,4.51,4.51,0,0,0,6,0,4.69,4.69,0,0,0,2.78,1.12l5.73-5.77c0-2.73-2.42-7-8.6-7.15L18.37,6.45H14.06V7.9H5.44V9.33H6.87a4.32,4.32,0,0,1,4.32,4.21v1.54H6.88a1.43,1.43,0,0,0-1.45,1.39c0,.05,0,.09,0,.14V20.8A4.63,4.63,0,0,0,8,19.7a4.68,4.68,0,0,0,3,1.13m3.09-10.75h5.5c5.7,0,6.67,4,6.69,5H14.06Z"/>
      <path class="cls-3" d="M22.92,23.7a4.69,4.69,0,0,1-3-1.12,4.54,4.54,0,0,1-6,0,4.66,4.66,0,0,1-3,1.12,4.72,4.72,0,0,1-3-1.12,4.7,4.7,0,0,1-2.54,1.1v2.87A4.63,4.63,0,0,0,8,25.45a4.74,4.74,0,0,0,3,1.13,4.73,4.73,0,0,0,3-1.13,4.76,4.76,0,0,0,3,1.13,4.73,4.73,0,0,0,3-1.13,4.53,4.53,0,0,0,6,0,4.63,4.63,0,0,0,2.54,1.1V23.68a4.7,4.7,0,0,1-2.54-1.1,4.65,4.65,0,0,1-3,1.12"/>
  </g>
</svg>
	