<svg xmlns="http://www.w3.org/2000/svg" viewBox="0 0 39.5 21.69"><defs><style>.cls-1{fill:#ef5350;}</style></defs><g id="Layer_2" data-name="Layer 2"><g id="Layer_2-2" data-name="Layer 2"><path class="cls-1" d="M21.1,21.5a2.67,2.67,0,0,1-2.32-3.93c.82-1.71,1.67-3.41,2.5-5.11q2.91-6,5.84-11.94l.09-.2A.44.44,0,0,1,27.78,0c.28.09.34.32.27.6q-.9,3.9-1.79,7.8L23.77,19.21A2.69,2.69,0,0,1,21.1,21.5Zm.12-1.43a1.3,1.3,0,1,0-1.3-1.31A1.29,1.29,0,0,0,21.22,20.07Z"/><path class="cls-1" d="M37.84,12.79a1.3,1.3,0,0,1-.23.18l-5,2c-.28.12-.33-.07-.4-.26a11.72,11.72,0,0,0-1.75-3.41c-.38-.5-.8-1-1.21-1.42-.15-.17-.18-.29,0-.47C30.18,8.29,31.1,7.17,32,6A.29.29,0,0,1,32.51,6a17.9,17.9,0,0,1,5.24,6.59C37.78,12.63,37.8,12.69,37.84,12.79Z"/><path class="cls-1" d="M32.53,21.66c.1-.66.21-1.31.28-2a11.18,11.18,0,0,0-.12-3.11c-.07-.47-.08-.48.37-.6l5-1.45c.31-.09.44,0,.53.29a19.73,19.73,0,0,1,.86,6.48c0,.22,0,.39-.33.39H32.65Z"/><path class="cls-1" d="M21,5.6c0,.8.07.72-.59.74a12.14,12.14,0,0,0-5.62,1.54c-.29.16-.43.11-.6-.15-.36-.57-.74-1.13-1.13-1.68-.17-.24-.14-.38.09-.55a15.83,15.83,0,0,1,7.31-2.88c.24,0,.34,0,.36.28C20.87,3.83,20.94,4.76,21,5.6Z"/><path class="cls-1" d="M28.29,3.54l2.36,1.19a.23.23,0,0,1,.09.38L28.37,8.7a.21.21,0,0,1-.37.06l0,0c-.78-.53-.78-.53-.56-1.46.27-1.15.54-2.31.8-3.47C28.23,3.75,28.25,3.69,28.29,3.54Z"/><path class="cls-1" d="M25.1,2.66,23.19,6.57a6,6,0,0,1-.76-.13.39.39,0,0,1-.22-.28c0-1.14.09-2.27.16-3.4,0-.09.15-.25.22-.24C23.41,2.55,24.23,2.61,25.1,2.66Z"/><path class="cls-1" d="M13,13.31H7.5a.5.5,0,0,1,0-1H13a.5.5,0,0,1,0,1Z"/><path class="cls-1" d="M15.5,17.31H.5a.5.5,0,0,1,0-1h15a.5.5,0,1,1,0,1Z"/><path class="cls-1" d="M13,21.31H3.5a.5.5,0,0,1,0-1H13a.5.5,0,1,1,0,1Z"/><path class="cls-1" d="M9.9,9.41l.63.7s1.07.21,1.3,0S12.68,9.3,13,9a.43.43,0,0,0,.05-.6C12.77,8,12.23,7.33,12,7a.36.36,0,0,0-.56,0c-.51.58-1,1.16-1.51,1.75A.51.51,0,0,0,9.9,9.41Z"/></g></g></svg>