<?xml version="1.0" encoding="utf-8"?>
<!-- Generator: Adobe Illustrator 25.0.0, SVG Export Plug-In . SVG Version: 6.00 Build 0)  -->
<svg version="1.1" id="Layer_1" xmlns="http://www.w3.org/2000/svg" xmlns:xlink="http://www.w3.org/1999/xlink" x="0px" y="0px"
	 viewBox="0 0 31.9 21.5" style="enable-background:new 0 0 31.9 21.5;" xml:space="preserve">
<style type="text/css">
	.st0{fill:#F06292;}
	.st1{opacity:0.5;fill:#F06292;}
</style>
<g id="Layer_2_1_">
	<g id="Layer_2-2">
		<circle class="st0" cx="24.5" cy="4.5" r="4.5"/>
		<circle class="st1" cx="8.2" cy="6" r="3.9"/>
		<path class="st0" d="M31.9,21.1c-0.6-2.9-3.8-5.1-7.5-5.1c-2.3,0-4.6,0.9-6.2,2.5c0,0-11.1-1.6-18.1,2.9L31.9,21.1z"/>
		<path class="st0" d="M27.8,9.9c-2,1.5-4.7,1.5-6.6,0c-1.6,0.7-2.7,2.3-2.7,4.1v0.1h2c1.4-2.3,4.3-3,6.6-1.6c0.7,0.4,1.2,1,1.6,1.6
			h1.8V14C30.5,12.2,29.4,10.6,27.8,9.9z"/>
		<path class="st0" d="M19.9,18.3h-0.2c-0.3-0.1-0.5-0.4-0.4-0.8c0,0,0,0,0,0c0.8-2.9,3.9-4.6,6.8-3.8c1.8,0.5,3.2,1.9,3.7,3.7
			c0.2,0.3,0,0.7-0.3,0.9c-0.3,0.2-0.7,0-0.9-0.3c0-0.1-0.1-0.1-0.1-0.2c-0.6-2.3-3-3.6-5.2-2.9c-1.4,0.4-2.5,1.5-2.9,3
			C20.4,18.1,20.2,18.3,19.9,18.3z"/>
		<path class="st1" d="M11.1,10.7c-1.7,1.3-4.1,1.3-5.8,0c-1.4,0.6-2.4,2-2.4,3.6V16c1.7-0.4,3.5-0.7,5.2-0.9c4-0.4,5.2,0.1,5.2,0.1
			v-0.9C13.4,12.7,12.5,11.3,11.1,10.7z"/>
	</g>
</g>
</svg>
