<svg xmlns="http://www.w3.org/2000/svg" viewBox="0 0 32 26.61"><defs><style>.cls-1{fill:#4fc3f7;}</style></defs><g id="Layer_2" data-name="Layer 2"><g id="Layer_2-2" data-name="Layer 2"><path class="cls-1" d="M16,11.84a2.34,2.34,0,0,0,2.3-1.94.18.18,0,0,0-.21-.2h0a9.51,9.51,0,0,1-4.18,0h0a.17.17,0,0,0-.21.21A2.34,2.34,0,0,0,16,11.84Z" transform="translate(0)"/><path class="cls-1" d="M24.22,11a.81.81,0,0,1,.9.57,12,12,0,0,1,.43,1.69c.08.37.07.77.18,1.13a2.67,2.67,0,0,0,.45.73c.19.24.42.47.63.7l.52-.71c.24-.32.47-.64.72-.95a4.06,4.06,0,0,0,.89-2.69c0-.86.09-1.73.15-2.63a1.31,1.31,0,0,1,.9,1c.15.68.23,1.38.32,2.07s.11,1.17.19,1.75c0,.12.12.22.19.33,0-.13.15-.26.14-.38-.08-.87-.19-1.75-.29-2.68a1.94,1.94,0,0,1,.81,1.32c.23,1.23.44,2.46.64,3.69a1.2,1.2,0,0,1,0,.53c-.58,1.89-1.17,3.79-1.74,5.69a4.23,4.23,0,0,0-.12,1c0,.94-.07,1.87-.09,2.8a.4.4,0,0,1-.34.46,4.74,4.74,0,0,1-3.49-.28.53.53,0,0,1-.35-.59c.06-1.45.1-2.91.13-4.37a.68.68,0,0,0-.15-.47,6.15,6.15,0,0,1-1.68-3.85,20.52,20.52,0,0,1,0-2.48C24.13,13.25,24.18,12.14,24.22,11Z" transform="translate(0)"/><path class="cls-1" d="M7.78,11a.81.81,0,0,0-.9.57,12,12,0,0,0-.43,1.69c-.08.37-.07.77-.18,1.13a2.67,2.67,0,0,1-.45.73c-.19.24-.42.47-.63.7l-.52-.71c-.24-.32-.47-.64-.72-.95a4.06,4.06,0,0,1-.89-2.69c0-.86-.09-1.73-.15-2.63a1.31,1.31,0,0,0-.9,1c-.15.68-.23,1.38-.32,2.07s-.11,1.17-.19,1.75c0,.12-.12.22-.19.33-.05-.13-.15-.26-.14-.38.08-.87.19-1.75.29-2.68a1.94,1.94,0,0,0-.81,1.32C.42,13.45.21,14.68,0,15.91a1.2,1.2,0,0,0,0,.53c.58,1.89,1.17,3.79,1.74,5.69a4.23,4.23,0,0,1,.12,1C2,24.08,2,25,2,25.94a.42.42,0,0,0,.35.46,4.74,4.74,0,0,0,3.49-.28.53.53,0,0,0,.35-.59c-.06-1.45-.1-2.91-.13-4.37a.68.68,0,0,1,.15-.47,6.15,6.15,0,0,0,1.68-3.85,20.52,20.52,0,0,0,0-2.48C7.87,13.25,7.82,12.14,7.78,11Z" transform="translate(0)"/><path class="cls-1" d="M23.42,12c0-.34,0-.68,0-1l0-.68.68-.06h.17a8.27,8.27,0,0,0-.76-1.75l-4,.89a1.39,1.39,0,0,0-1,.93,2.72,2.72,0,0,1-5.21,0,1.36,1.36,0,0,0-1-.93l-4-.89a8.27,8.27,0,0,0-.76,1.75h.21l.68.06,0,.68c0,.35,0,.69,0,1v.06l1.64.36a3.46,3.46,0,0,1,2.69,3.37V21A8.85,8.85,0,0,0,19,21V15.8a3.46,3.46,0,0,1,2.7-3.37L23.42,12Z" transform="translate(0)"/><path class="cls-1" d="M3.73,9.6c0,.61.09,1.23.09,1.86a3.36,3.36,0,0,0,.72,2.21c.2.24.38.49.56.73l.15.2,0,0a1.8,1.8,0,0,0,.27-.42,3,3,0,0,0,.08-.49c0-.18,0-.37.08-.57l0-.16a11.23,11.23,0,0,1,.43-1.63,1.59,1.59,0,0,1,.5-.73A9.58,9.58,0,0,1,22.76,6a9.51,9.51,0,0,1,2.53,4.5,1.61,1.61,0,0,1,.55.77,11.23,11.23,0,0,1,.43,1.63l0,.16c0,.2.06.39.08.57a3,3,0,0,0,.08.49,1.8,1.8,0,0,0,.27.42l0,0,.15-.2c.18-.24.36-.49.56-.73a3.36,3.36,0,0,0,.72-2.21c0-.63,0-1.25.09-1.86,0-.11,0-.22,0-.32A12.81,12.81,0,0,0,3.7,9.17Z" transform="translate(0)"/><path class="cls-1" d="M25.17,21.15h0a6.37,6.37,0,0,1-1.51-2.61,8.92,8.92,0,0,1-.9,1,9.61,9.61,0,0,1-13.56,0,10.43,10.43,0,0,1-.88-1,6.25,6.25,0,0,1-1.49,2.57h0c0,.2,0,.41,0,.62a12.82,12.82,0,0,0,18.32,0C25.16,21.53,25.17,21.34,25.17,21.15Z" transform="translate(0)"/></g></g></svg>