<svg xmlns="http://www.w3.org/2000/svg" viewBox="0 0 32 24.88"><defs><style>.cls-1{fill:#a1887f;}</style></defs><g id="Layer_2" data-name="Layer 2"><g id="Layer_2-2" data-name="Layer 2"><path class="cls-1" d="M18.56,21.69V20.26q0-6.18,0-12.37a1.93,1.93,0,0,1,2.2-2.19c1.51,0,3,0,4.53,0a3,3,0,0,1,2.48,1.06c1.21,1.5,2.38,3,3.49,4.61A4.41,4.41,0,0,1,32,14c0,1.79,0,3.59,0,5.39,0,1.54-.73,2.3-2.29,2.27-.65,0-1,.13-1.24.82a3.66,3.66,0,0,1-3.64,2.38,3.77,3.77,0,0,1-3.5-2.61c-.14-.45-.33-.6-.79-.58S19.31,21.69,18.56,21.69Zm12.06-8.33c0-.15,0-.26,0-.32-.7-1.12-1.42-2.23-2.13-3.34l-2.28-.18a4.85,4.85,0,0,0-.66,0c-1.88,0-1.87,0-1.88,1.92s.1,1.93,1.91,1.91S28.92,13.36,30.62,13.36Zm-8.21,7.69A2.57,2.57,0,0,0,25,23.6a2.56,2.56,0,1,0,0-5.11A2.55,2.55,0,0,0,22.41,21.05Z"/><path class="cls-1" d="M17.23,15.31v6.33c-.23,0-.47.05-.7.05-1.31,0-2.62,0-3.93,0a.56.56,0,0,0-.61.45,3.83,3.83,0,0,1-7.35,0,.79.79,0,0,0-.6-.4c-.75-.07-1.51,0-2.26-.07A1.82,1.82,0,0,1,0,19.74c0-1.31,0-2.62,0-3.93,0-.56.34-.51.7-.51H17.23ZM5.78,21A2.59,2.59,0,0,0,8.31,23.6a2.56,2.56,0,0,0,.06-5.11A2.55,2.55,0,0,0,5.78,21Z"/><path class="cls-1" d="M17.27,14H11a.93.93,0,0,1-.09-.3,3,3,0,0,0-1-2.6c-2.5-3-5-6-7.45-9-.7-.85-.56-1.6.48-2a1.07,1.07,0,0,1,.89.17q6.55,5.58,13.06,11.21a1.39,1.39,0,0,1,.4.85A16.18,16.18,0,0,1,17.27,14Z"/><path class="cls-1" d="M1.37,10.85c.5,0,1-.27,1.41.36a.67.67,0,0,0,.64.15.69.69,0,0,0,.37-.53c0-.2-.18-.54-.33-.57-1-.15-.91-.84-.9-1.55,0-1.39,0-2.78.08-4.21.54.53,1.24.92,1.2,1.82,0,.42,0,.84,0,1.26a2,2,0,0,0,.75,1.94,1.71,1.71,0,0,1,.26,2.3,2,2,0,0,1-2.22.8A1.76,1.76,0,0,1,1.37,10.85Z"/></g></g></svg>