<?xml version="1.0" encoding="utf-8"?>
<!-- Generator: Adobe Illustrator 22.1.0, SVG Export Plug-In . SVG Version: 6.00 Build 0)  -->
<svg version="1.1" id="Layer_1" xmlns="http://www.w3.org/2000/svg" xmlns:xlink="http://www.w3.org/1999/xlink" x="0px" y="0px"
	 viewBox="0 0 182 125.3" style="enable-background:new 0 0 182 125.3;" xml:space="preserve">
<style type="text/css">
	.st0{fill:#FFFFFF;}
</style>
<title>large-icn-email-wh</title>
<g id="Layer_2_1_">
	<g id="Layer_1-2">
		<polygon class="st0" points="74.6,62.5 125.7,24.7 122,19.6 57.5,67.4 -7,19.6 -10.7,24.7 40.4,62.5 -11.5,101 -7.8,106 
			45.6,66.4 57.5,75.2 69.4,66.4 122.8,106 126.5,101 		"/>
		<path class="st0" d="M130.6,0.3H-15.6C-23.6,0.3-30,6.8-30,14.7v96.2c0,7.9,6.4,14.4,14.4,14.4h146.2c7.9,0,14.4-6.4,14.4-14.4
			V14.7C145,6.8,138.6,0.3,130.6,0.3z M138.8,110.9c0,4.5-3.6,8.1-8.1,8.1H-15.6c-4.5,0-8.1-3.6-8.1-8.1V14.7c0-4.5,3.6-8.1,8.1-8.1
			h146.2c4.5,0,8.1,3.6,8.1,8.1V110.9z"/>
	</g>
</g>
</svg>
