<?xml version="1.0" encoding="utf-8"?>
<!-- Generator: Adobe Illustrator 22.1.0, SVG Export Plug-In . SVG Version: 6.00 Build 0)  -->
<svg version="1.1" id="Layer_1" xmlns="http://www.w3.org/2000/svg" xmlns:xlink="http://www.w3.org/1999/xlink" x="0px" y="0px"
	 viewBox="0 0 112.6 125" style="enable-background:new 0 0 112.6 125;" xml:space="preserve">
<title>large-icn-timer-wh</title>
<g id="Layer_2_1_">
	<g id="Layer_1-2">
		<path d="M56.3,67.1c0.9,0,1.6,0.7,1.6,1.6c0,0.2-0.1,0.4-0.2,0.7l-0.2,0.5L57,70.1c-0.2,0.1-0.4,0.2-0.7,0.2
			c-0.9,0-1.6-0.7-1.6-1.6c0-0.2,0-0.5,0.1-0.7l0.2-0.5l0.5-0.2C55.9,67.1,56.1,67.1,56.3,67.1 M31,41.4c-0.5,0-1,0.2-1.3,0.6l0,0
			c-0.7,0.7-0.7,1.9,0,2.7l21.6,21.7c-0.4,0.7-0.5,1.5-0.5,2.3c0,3.1,2.5,5.6,5.6,5.6c0.8,0,1.6-0.2,2.3-0.5l8.5,8.5
			c0.7,0.8,1.9,0.8,2.7,0.1c0.8-0.7,0.8-1.9,0.1-2.7c0,0-0.1-0.1-0.1-0.1L61.3,71c1.3-2.8,0-6.1-2.8-7.3c-1.5-0.7-3.1-0.7-4.6,0
			L32.3,42C32,41.7,31.5,41.5,31,41.4z"/>
		<polygon points="96.4,12.3 91.4,17.7 104.9,30.2 110,24.7 96.4,12.3 		"/>
		<path d="M61.9,12.6v-4h6.2V0H45.8v8.7H52v3.9C21.1,15-2,42.1,0.4,73s29.5,54,60.5,51.6s54-29.5,51.6-60.5
			C110.3,37,89,15.3,61.9,12.6L61.9,12.6z M56.3,120.1c-28.4,0-51.4-23-51.4-51.4s23-51.4,51.4-51.4s51.4,23,51.4,51.4l0,0
			C107.6,97,84.7,120,56.3,120.1z"/>
		<rect x="78.1" y="34.4" width="8.6" height="8.6"/>
		<rect x="78.1" y="45.5" width="8.6" height="8.6"/>
		<rect x="66.9" y="34.4" width="8.6" height="8.6"/>
		<rect x="66.9" y="45.5" width="8.6" height="8.6"/>
		<rect x="89.2" y="45.5" width="8.6" height="8.6"/>
		<rect x="78.1" y="56.7" width="8.6" height="8.6"/>
		<rect x="89.2" y="56.7" width="8.6" height="8.6"/>
		<rect x="89.2" y="67.8" width="8.6" height="8.6"/>
		<rect x="55.8" y="34.4" width="8.6" height="8.6"/>
	</g>
</g>
</svg>
