<?xml version="1.0" encoding="utf-8"?>
<!-- Generator: Adobe Illustrator 22.1.0, SVG Export Plug-In . SVG Version: 6.00 Build 0)  -->
<svg version="1.1" id="Layer_1" xmlns="http://www.w3.org/2000/svg" xmlns:xlink="http://www.w3.org/1999/xlink" x="0px" y="0px"
	 viewBox="0 0 150 135" style="enable-background:new 0 0 150 135;" xml:space="preserve">
<style type="text/css">
	.st0{fill:#FFFFFF;}
</style>
<title>large-icn-sms-wh</title>
<g id="Layer_2_1_">
	<g id="Layer_1-2">
		<path class="st0" d="M18.4,120.1c-7.4,0-13.5-6-13.5-13.5V49c0-7.4,6-13.4,13.5-13.5h24.5V9.9l32.6,24.7l1.3,1h42.1
			c7.4,0,13.5,6,13.5,13.5v57.6c0,7.4-6,13.5-13.5,13.5L18.4,120.1 M18.4,125h100.5c10.2,0,18.4-8.2,18.4-18.4V49
			c0-10.2-8.2-18.4-18.4-18.4H78.4L38,0v30.6H18.4C8.2,30.6,0,38.9,0,49v57.6C0,116.8,8.2,125,18.4,125C18.4,125,18.4,125,18.4,125
			L18.4,125z"/>
		<rect x="18.4" y="99.3" class="st0" width="101.7" height="4.9"/>
		<rect x="18.4" y="77.2" class="st0" width="101.7" height="4.9"/>
		<rect x="18.4" y="55.2" class="st0" width="50.3" height="4.9"/>
	</g>
</g>
</svg>
