<?xml version="1.0" encoding="utf-8"?>
<!-- Generator: Adobe Illustrator 22.1.0, SVG Export Plug-In . SVG Version: 6.00 Build 0)  -->
<svg version="1.1" id="Layer_1" xmlns="http://www.w3.org/2000/svg" xmlns:xlink="http://www.w3.org/1999/xlink" x="0px" y="0px"
	 viewBox="0 0 133.1 125.3" style="enable-background:new 0 0 133.1 125.3;" xml:space="preserve">
<title>large-icn-email-wh</title>
<g id="Layer_2_1_">
	<g id="Layer_1-2">
		<polygon points="79.5,67.6 118.4,38.9 115.6,35 66.5,71.4 17.5,35 14.7,38.9 53.5,67.6 14.1,96.9 16.9,100.7 57.5,70.6 66.5,77.3 
			75.6,70.6 116.2,100.7 119,96.9 		"/>
		<path d="M122.1,20.3H10.9c-6,0-10.9,5-10.9,11v83.1c0,6,4.9,10.9,10.9,10.9h111.2c6,0,10.9-4.9,10.9-10.9V31.3
			C133.1,25.3,128.2,20.3,122.1,20.3z M128.3,114.4c0,3.4-2.7,6.2-6.2,6.2H10.9c-3.4,0-6.2-2.7-6.2-6.2V31.3c0-3.4,2.7-6.2,6.2-6.2
			h111.2c3.4,0,6.2,2.7,6.2,6.2V114.4L128.3,114.4z"/>
	</g>
</g>
</svg>
