<svg xmlns="http://www.w3.org/2000/svg" viewBox="0 0 112.62 125"><defs><style>.cls-1{fill:#fff;}</style></defs><title>large-icn-timer-wh</title><g id="Layer_2" data-name="Layer 2"><g id="Layer_1-2" data-name="Layer 1"><path class="cls-1" d="M56.31,67.12a1.57,1.57,0,0,1,1.57,1.57,1.48,1.48,0,0,1-.16.65l-.24.52L57,70.1a1.52,1.52,0,0,1-.66.16,1.58,1.58,0,0,1-1.57-1.57A1.52,1.52,0,0,1,54.9,68l.24-.51.52-.24a1.48,1.48,0,0,1,.65-.16M31,41.44a1.9,1.9,0,0,0-1.34.56h0a1.9,1.9,0,0,0,0,2.68L51.28,66.34a5.44,5.44,0,0,0-.54,2.35,5.58,5.58,0,0,0,5.57,5.57,5.44,5.44,0,0,0,2.35-.54l8.53,8.53a1.9,1.9,0,1,0,2.69-2.68L61.35,71A5.55,5.55,0,0,0,54,63.65L32.3,42A1.89,1.89,0,0,0,31,41.44Z"/><polygon class="cls-1" points="96.4 12.25 91.36 17.74 104.95 30.2 109.98 24.71 96.4 12.25 96.4 12.25"/><path class="cls-1" d="M61.88,12.65v-4h6.19V0H45.79V8.66H52v3.9a56.2,56.2,0,1,0,9.9.09Zm-5.57,107.4a51.36,51.36,0,1,1,51.36-51.36A51.42,51.42,0,0,1,56.31,120.05Z"/><rect class="cls-1" x="78.06" y="34.39" width="8.57" height="8.57" transform="translate(164.7 77.34) rotate(-180)"/><rect class="cls-1" x="78.06" y="45.52" width="8.57" height="8.57" transform="translate(164.7 99.62) rotate(-180)"/><rect class="cls-1" x="66.92" y="34.39" width="8.57" height="8.57" transform="translate(142.42 77.34) rotate(-180)"/><rect class="cls-1" x="66.92" y="45.52" width="8.57" height="8.57" transform="translate(142.42 99.62) rotate(-180)"/><rect class="cls-1" x="89.2" y="45.52" width="8.57" height="8.57" transform="translate(186.97 99.62) rotate(-180)"/><rect class="cls-1" x="78.06" y="56.66" width="8.57" height="8.57" transform="translate(164.7 121.9) rotate(-180)"/><rect class="cls-1" x="89.2" y="56.66" width="8.57" height="8.57" transform="translate(186.97 121.9) rotate(-180)"/><rect class="cls-1" x="89.2" y="67.8" width="8.57" height="8.57" transform="translate(186.97 144.17) rotate(-180)"/><rect class="cls-1" x="55.79" y="34.39" width="8.57" height="8.57" transform="translate(120.14 77.34) rotate(-180)"/></g></g></svg>