<?xml version="1.0" encoding="utf-8"?>
<!-- Generator: Adobe Illustrator 24.2.3, SVG Export Plug-In . SVG Version: 6.00 Build 0)  -->
<svg version="1.1" id="Layer_1" xmlns="http://www.w3.org/2000/svg" xmlns:xlink="http://www.w3.org/1999/xlink" x="0px" y="0px"
	 viewBox="0 0 133.1 125.3" style="enable-background:new 0 0 133.1 125.3;" xml:space="preserve">
<style type="text/css">
	.st0{fill:#FFFFFF;}
	.st1{fill-rule:evenodd;clip-rule:evenodd;fill:#FFFFFF;}
</style>
<g>
	<g>
		<path class="st0" d="M50.7,99.6c-8.8,0-17.4-0.4-24.6-1.1C9.4,96.9,6.8,94.2,6.4,91.4c-0.7-4.8,2.6-7.5,5.2-9.7
			c1.7-1.4,3.3-2.8,3.8-4.5c1.2-4.5,0.7-11.2,0.3-17.8c-0.3-4.5-0.6-8.7-0.4-12.2c1.2-16.9,10-28.8,24.9-33.7
			C39.8,9,41.4,5.3,44.7,2.9c3.9-2.8,9.5-2.8,13.4-0.2c3.3,2.2,5,5.9,4.7,10.2c14.8,5.5,23.6,17.4,25,33.6c0.3,3.9,0,8-0.4,12.3
			c-0.5,6-1,12.1,0.3,17.8c0.4,1.9,2.1,3.3,3.9,4.8c2.4,2.1,5.5,4.7,5.2,9.2c-0.2,3.2-3.9,5.2-12.2,6.7c-5.9,1-14,1.8-23.4,2.1
			C57.7,99.6,54.2,99.6,50.7,99.6z M11.4,90.3c2.7,2.1,20.3,4.7,46.6,4.1c21.5-0.5,31.8-2.9,33.7-4.4c-0.1-1.6-1.3-2.7-3.4-4.5
			c-2.2-1.9-4.7-4-5.5-7.5c-1.6-6.5-1-13.1-0.5-19.5c0.4-4.1,0.7-8,0.4-11.4c-1.2-14.8-9.6-25.4-23.5-29.9L57,16.4l0.5-2.3
			c0.7-3.3,0-5.8-2.2-7.1c-2.2-1.4-5.5-1.4-7.6,0.1c-2.1,1.5-2.8,4.1-2,7.5l0.6,2.4l-2.4,0.7c-14.2,3.9-22.3,14.2-23.4,29.8
			c-0.2,3.1,0.1,7.2,0.4,11.5c0.5,7,1,14.2-0.5,19.5c-0.9,3.3-3.4,5.3-5.5,7.1C12.4,87.7,11.4,88.7,11.4,90.3z"/>
	</g>
	<path class="st1" d="M40.5,101c7.4,0,14.7,0,22.1,0C63.8,115.9,39.3,115.9,40.5,101z"/>
</g>
</svg>
