<svg xmlns="http://www.w3.org/2000/svg" viewBox="0 0 44 50"><defs><style>.cls-1{fill:#222;}.cls-2{fill:#141414;}.cls-3{fill:none;stroke:#ff7a0d;stroke-miterlimit:10;}.cls-4{fill:#fff;}.cls-5{fill:#ed1c24;}</style></defs><title>marker-first-alert</title><g id="Layer_2" data-name="Layer 2"><g id="Layer_1-2" data-name="Layer 1"><path class="cls-1" d="M44,22A22,22,0,1,0,12.53,41.86a11.49,11.49,0,0,1,3.64,2.65l4.34,4.83a2,2,0,0,0,3,0l4.34-4.83a11.64,11.64,0,0,1,3.66-2.66A22,22,0,0,0,44,22Z"/><path class="cls-2" d="M22,2a20,20,0,0,1,8.62,38,13.65,13.65,0,0,0-4.28,3.14L22,48l-4.34-4.83a13.63,13.63,0,0,0-4.26-3.12A20,20,0,0,1,19.71,2.13,19.53,19.53,0,0,1,22,2m0-2a23.75,23.75,0,0,0-2.51.14,22,22,0,0,0-7,41.72,11.49,11.49,0,0,1,3.64,2.65l4.34,4.83a2,2,0,0,0,3,0l4.34-4.83a11.64,11.64,0,0,1,3.66-2.66A22,22,0,0,0,22,0Z"/><path class="cls-3" d="M22,2.5a19.5,19.5,0,0,1,8.41,37.09A14.22,14.22,0,0,0,26,42.84l-4,4.42-4-4.42a13.87,13.87,0,0,0-4.41-3.24,19.5,19.5,0,0,1,6.16-37A20.83,20.83,0,0,1,22,2.5"/><path class="cls-4" d="M32.93,25.48a2.33,2.33,0,0,0-.3-1.22c0-.08-.07-.22-.07-.29l-1.9-5v-.07c-.66-2-1.61-4-4-4H17.43c-2.48,0-3.36,1.94-4,4l-2,4.9A3.1,3.1,0,0,0,11,25.41V27a2,2,0,0,0,.07.64,1,1,0,0,0-.07.44V33a.89.89,0,0,0,1,1h2c.66,0,1-.28,1-1V31H29v2a.89.89,0,0,0,1,1h2c.66,0,1-.28,1-1V28.08a1,1,0,0,0-.07-.44A2,2,0,0,0,33,27l-.07-1.52Zm-18.06-6c.73-2.24,1.39-2.89,2.63-2.89h9.21c1.25,0,1.9.72,2.64,2.89l1.38,2.88a4.86,4.86,0,0,0-1.46-.29H14.8a3.91,3.91,0,0,0-1.31.22ZM16,28H13c-.44,0-.44-2,0-2h3C16.44,26,16.44,28,16,28Zm9,0H19c-.29,0-.29-2,0-2h6C25.29,26,25.29,28,25,28Zm6,0H28c-.44,0-.44-2,0-2h3C31.44,26,31.44,28,31,28Z"/><circle class="cls-5" cx="33" cy="11" r="11"/><path class="cls-4" d="M33,2a9,9,0,1,1-9,9,9,9,0,0,1,9-9m0-1A10,10,0,1,0,43,11,10,10,0,0,0,33,1Z"/><path class="cls-4" d="M33,15.26a1.05,1.05,0,0,1,.8.34,1.12,1.12,0,0,1,0,1.61,1.08,1.08,0,0,1-.8.33,1.09,1.09,0,0,1-.8-.33,1.15,1.15,0,0,1,0-1.61A1.07,1.07,0,0,1,33,15.26Zm.11-1.16h-.17L32,7.1a9.85,9.85,0,0,1-.11-1.33,1.42,1.42,0,0,1,.3-1,1.1,1.1,0,0,1,.86-.35,1.05,1.05,0,0,1,.82.34,1.33,1.33,0,0,1,.3.93,9.94,9.94,0,0,1-.11,1.19Z"/></g></g></svg>