<?xml version="1.0" encoding="utf-8"?>
<!-- Generator: Adobe Illustrator 22.1.0, SVG Export Plug-In . SVG Version: 6.00 Build 0)  -->
<svg version="1.1" id="Layer_1" xmlns="http://www.w3.org/2000/svg" xmlns:xlink="http://www.w3.org/1999/xlink" x="0px" y="0px"
	 viewBox="0 0 50 50" style="enable-background:new 0 0 50 50;" xml:space="preserve">
<style type="text/css">
	.st0{fill:#FFFFFF;}
</style>
<g>
	<g>
		<path class="st0" d="M25,7.1c0.3,0,0.6,0,0.9,0c6.2,0.4,11.4,5.4,11.8,11.7c0.2,3.3-0.7,6.6-2.8,9.1L34.8,28
			c-0.6,0.6-1.2,1.3-1.8,1.8c-0.3,0.2-0.6,0.5-1,0.8l-7,6.7l-7-6.6c-0.3-0.3-0.6-0.6-1-0.8c-0.6-0.6-1.3-1.1-1.8-1.8L15.1,28
			c-1.8-2.4-2.9-5.2-2.9-8.2C12.2,12.8,18,7.1,25,7.1 M25,24.8c3,0,5.4-2.4,5.4-5.4c0-3-2.4-5.4-5.4-5.4s-5.4,2.4-5.4,5.4
			S22,24.8,25,24.8 M25,5c-8.2,0-14.9,6.6-14.9,14.9c0,3.5,1.3,6.8,3.4,9.4l0,0l0.1,0.1c0.6,0.8,1.4,1.5,2.2,2.2
			c0.3,0.2,0.6,0.5,0.8,0.7l8.4,8l8.5-8.1c0.2-0.2,0.6-0.5,0.8-0.7c0.8-0.6,1.6-1.4,2.2-2.2l0.1-0.1l0,0c2.3-2.9,3.6-6.6,3.3-10.6
			C39.2,11.4,33.3,5.5,26,5C25.6,5,25.3,5,25,5L25,5z M25,22.7c-1.8,0-3.3-1.5-3.3-3.3c0-1.8,1.5-3.3,3.3-3.3s3.3,1.5,3.3,3.3
			C28.3,21.2,26.8,22.7,25,22.7L25,22.7z"/>
	</g>
	<path class="st0" d="M33.8,34.8l-1,1c3.7,1,5.8,2.4,5.8,3.5c0,1.8-5.3,4.4-13.6,4.4s-13.6-2.6-13.6-4.5c0-1.2,2.4-2.8,6.4-3.7l-1-1
		c-4,1-6.6,2.7-6.6,4.7c0,3.1,6.6,5.7,14.8,5.7s14.8-2.6,14.8-5.7C39.8,37.5,37.4,35.8,33.8,34.8z"/>
</g>
</svg>
