<?xml version="1.0" encoding="utf-8"?>
<!-- Generator: Adobe Illustrator 22.1.0, SVG Export Plug-In . SVG Version: 6.00 Build 0)  -->
<svg version="1.1" id="Layer_1" xmlns="http://www.w3.org/2000/svg" xmlns:xlink="http://www.w3.org/1999/xlink" x="0px" y="0px"
	 viewBox="0 0 50 50" style="enable-background:new 0 0 50 50;" xml:space="preserve">
<style type="text/css">
	.st0{fill:#FFFFFF;}
</style>
<g>
	<rect x="23.8" y="13.6" class="st0" width="2.4" height="6.5"/>
	<polygon class="st0" points="5.8,30.7 12.3,30.7 12.3,33.1 5,33.1 	"/>
	<polygon class="st0" points="37.7,30.7 44.2,30.7 45,33.1 37.7,33.1 	"/>
	<rect x="12.4" y="18.6" transform="matrix(0.7071 -0.7071 0.7071 0.7071 -11.124 15.9166)" class="st0" width="2.4" height="5.6"/>
	<rect x="33.6" y="20.2" transform="matrix(0.7071 -0.7071 0.7071 0.7071 -4.4854 31.9717)" class="st0" width="5.6" height="2.4"/>
	<path class="st0" d="M7.4,33.1c0-0.2,0-0.2,0-0.4c0-9.7,7.8-17.6,17.6-17.6S42.6,23,42.6,32.7c0,0.2,0,0.2,0,0.4H45
		c0-0.2,0-0.2,0-0.4c0-11-9-20-20-20s-20,9-20,20c0,0.2,0,0.2,0,0.4H7.4z"/>
	<path class="st0" d="M28.2,31.1c-0.2-0.7,0-1.6,0.7-2.1l3.2-2.7l-0.5-0.7l-3.3,2.8c-0.6,0.5-1.4,0.6-2.1,0.2
		c-1.4-0.6-3.1-0.2-4.1,1.2c-0.7,1-0.8,2.4-0.2,3.5c1.1,2,3.7,2.5,5.3,1.1C28.1,33.6,28.4,32.3,28.2,31.1z M23.1,33.3
		c-0.8-1-0.7-2.4,0.2-3.2c1-0.8,2.4-0.7,3.2,0.2c0.8,1,0.7,2.4-0.2,3.2C25.4,34.4,23.9,34.3,23.1,33.3z"/>
</g>
</svg>
