<?xml version="1.0" encoding="utf-8"?>
<!-- Generator: Adobe Illustrator 15.0.0, SVG Export Plug-In . SVG Version: 6.00 Build 0)  -->
<!DOCTYPE svg PUBLIC "-//W3C//DTD SVG 1.1//EN" "http://www.w3.org/Graphics/SVG/1.1/DTD/svg11.dtd">
<svg version="1.1" id="Layer_1" xmlns="http://www.w3.org/2000/svg" xmlns:xlink="http://www.w3.org/1999/xlink" x="0px" y="0px"
	 width="50px" height="50px" viewBox="0 0 50 50" enable-background="new 0 0 50 50" xml:space="preserve">
<g>
	<path fill="#E2B291" d="M25.175,19.167c0.784,1.835,0.221,3.417,2.298,5.492c2.356,2.358,4.077,1.325,6.252,2.708
		C33.447,22.852,29.738,19.257,25.175,19.167z"/>
	<path fill="#AAAAAA" d="M50,13.813c0-2.225-1.799-4.029-4.014-4.029h-8.148L36.623,5.54c-0.377-1.324-1.811-2.405-3.186-2.405
		H16.564c-1.375,0-2.809,1.081-3.186,2.405l-0.286,1c2.367,2.605,0.714,4.455,3.373,7.115c1.985,1.984,3.517,1.568,5.25,2.207
		c1.048-0.287,2.146-0.453,3.285-0.453c6.893,0,12.5,5.605,12.5,12.5c0,1.516-0.287,2.965-0.783,4.312
		c0.209,1.079,0.484,2.172,1.768,3.456c2.754,2.75,4.636,0.871,7.388,3.619c2.235,2.238,1.41,3.899,2.504,5.927
		c0.979-0.734,1.623-1.896,1.623-3.218L50,13.813L50,13.813z"/>
	<path fill="#FFFFFF" d="M45.771,46.6c-0.07-0.207-0.125-0.41-0.17-0.613c-0.006-0.016-0.011-0.026-0.015-0.047
		c-0.062-0.266-0.108-0.526-0.157-0.789c-0.017-0.071-0.027-0.145-0.041-0.219c-0.021-0.1-0.046-0.199-0.066-0.299
		c-0.021-0.107-0.049-0.215-0.076-0.322c-0.02-0.088-0.049-0.18-0.074-0.268c-0.031-0.111-0.072-0.225-0.113-0.338
		c-0.031-0.084-0.063-0.172-0.102-0.258c-0.049-0.121-0.111-0.24-0.174-0.363c-0.043-0.082-0.084-0.164-0.133-0.25
		c-0.08-0.135-0.18-0.277-0.281-0.42c-0.051-0.072-0.092-0.141-0.15-0.215c-0.17-0.217-0.359-0.438-0.588-0.664
		c-2.752-2.75-4.633-0.867-7.385-3.621c-0.191-0.189-0.355-0.379-0.508-0.561c-0.041-0.054-0.074-0.103-0.113-0.152
		c-0.104-0.135-0.203-0.271-0.287-0.402c-0.027-0.049-0.055-0.096-0.084-0.143c-0.084-0.141-0.162-0.279-0.229-0.416
		c-0.017-0.031-0.029-0.063-0.043-0.092c-0.078-0.168-0.144-0.332-0.197-0.494l0,0c-0.58-1.682-0.225-3.191-2.162-5.127
		c-2.756-2.754-4.637-0.871-7.393-3.625c-2.746-2.75-0.863-4.63-3.615-7.38c-1.424-1.424-2.615-1.606-3.813-1.834
		c-0.119-0.021-0.238-0.045-0.357-0.07c-0.049-0.01-0.098-0.021-0.146-0.031c-0.095-0.021-0.189-0.042-0.285-0.066
		c-0.062-0.015-0.123-0.033-0.184-0.051c-0.082-0.025-0.167-0.046-0.251-0.074c-0.073-0.024-0.146-0.054-0.22-0.08
		c-0.074-0.028-0.149-0.054-0.226-0.084c-0.081-0.033-0.163-0.08-0.247-0.119c-0.07-0.033-0.139-0.063-0.207-0.103
		c-0.096-0.051-0.189-0.112-0.285-0.173c-0.063-0.037-0.123-0.07-0.184-0.111c-0.109-0.076-0.223-0.164-0.335-0.254
		c-0.052-0.039-0.101-0.072-0.147-0.113c-0.166-0.137-0.334-0.289-0.504-0.459c-0.16-0.16-0.302-0.319-0.432-0.474
		c-0.042-0.046-0.077-0.093-0.113-0.142c-0.086-0.107-0.17-0.215-0.242-0.322c-0.035-0.049-0.067-0.1-0.101-0.148
		c-0.067-0.105-0.132-0.211-0.188-0.313c-0.023-0.042-0.049-0.085-0.07-0.127c-0.063-0.123-0.122-0.244-0.174-0.364
		c-0.01-0.02-0.018-0.035-0.025-0.056c-0.588-1.418-0.398-2.688-1.271-4.162c0-0.002,0-0.002-0.002-0.005l0,0
		c-0.241-0.408-0.56-0.83-1.006-1.279L10.157,8.95c0.291,0.292,0.521,0.568,0.71,0.837H4.015C1.798,9.787,0,11.59,0,13.815v28.191
		c0,2.223,1.798,4.025,4.014,4.025h40.948c0.063,0.271,0.138,0.549,0.236,0.834L45.771,46.6z M7.816,19.434
		c-1.381,0-2.5-1.119-2.5-2.5s1.118-2.5,2.5-2.5c1.381,0,2.5,1.119,2.5,2.5S9.199,19.434,7.816,19.434z M25.001,40.404
		c-6.893,0-12.498-5.605-12.498-12.498c0-3.931,1.846-7.419,4.696-9.706c0.206,0.044,0.409,0.085,0.608,0.123
		c1.14,0.215,2.125,0.397,3.364,1.639c1.237,1.24,1.425,2.224,1.638,3.366c0.221,1.173,0.471,2.505,1.979,4.015
		c1.515,1.515,2.847,1.765,4.021,1.984c1.144,0.215,2.129,0.397,3.369,1.641c1.236,1.24,1.424,2.226,1.639,3.367
		c0.105,0.576,0.226,1.188,0.496,1.849C32.029,38.758,28.715,40.404,25.001,40.404z"/>
	<path fill="#FF7B31" d="M32.184,30.967c-1.242-1.24-2.229-1.426-3.369-1.641c-1.176-0.223-2.508-0.471-4.021-1.984
		c-1.51-1.512-1.76-2.84-1.979-4.015c-0.209-1.116-0.396-2.084-1.563-3.286c-2.942,1.412-4.996,4.392-4.996,7.866
		c0,4.821,3.927,8.747,8.749,8.747c3.448,0,6.409-2.02,7.833-4.924C32.656,31.484,32.447,31.232,32.184,30.967z"/>
</g>
<rect fill="none" width="50" height="50"/>
</svg>