<?xml version="1.0" encoding="utf-8"?>
<!-- Generator: Adobe Illustrator 15.0.0, SVG Export Plug-In . SVG Version: 6.00 Build 0)  -->
<!DOCTYPE svg PUBLIC "-//W3C//DTD SVG 1.1//EN" "http://www.w3.org/Graphics/SVG/1.1/DTD/svg11.dtd">
<svg version="1.1" id="Layer_1" xmlns="http://www.w3.org/2000/svg" xmlns:xlink="http://www.w3.org/1999/xlink" x="0px" y="0px"
	 width="50px" height="50px" viewBox="0 0 50 50" enable-background="new 0 0 50 50" xml:space="preserve">
<g>
	<g>
		<polygon fill="#FFFFFF" points="30.061,38.273 45.088,22.25 47.376,24.382 32.346,40.404 		"/>
		<path fill="#FFFFFF" d="M37.77,21.086c-0.746-0.995-0.457-0.693-1.66-0.654c-2.045-1.709-1.941,0.746-8.066,2.832
			c-1.443,0.493-5.155,1.398-7.147,1.084c-1.006-0.152-2.14-0.354-3.229-0.883c-0.151-0.083,0.226,0.381-0.69-0.82l-1.666,1.217
			l-0.963-1.211l0.156-0.133l1.43-1.08l-7.156-9.539L0,22.532l4.986,7.181l2.211-1.671l1.227,1.697l-1.029,0.942
			c0.205,0.385,1.029,1.961,1.184,2.62c0.177,0.757,0.574,3.062,2.505,5.5c0,0,0.679-0.093,0.806-0.11l-0.551,0.785
			c0.001,0.159,0.15,0.436,0.271,0.65c0.236,0.422,0.908,1.107,1.207,1.367c0.295,0.261,1.56,0.438,3.233-0.424
			c1.673-0.86,3.392-2.127,3.898-2.485c0.506-0.358,1.625-2.954,2.639-3.672c1.015-0.718,3.263-1.146,5.235-1.957
			c2.494-1.549,3.714-2.445,4.328-2.955c1.955-1.618,6.298-5.824,6.57-7.406C38.717,22.596,38.52,22.078,37.77,21.086z
			 M32.137,22.907c-1.738,1.394-4.463,3.093-7.849,3.587c-3.521,0.517-6.097,0.047-8.034-1.262l1.014-0.569
			c0,0,5.405,3.153,15.574-2.603C33.305,21.796,33.501,21.809,32.137,22.907z"/>
		<polygon fill="#FFFFFF" points="39.202,35.527 40.912,33.699 48.484,42.529 50,42.529 50,44.596 3.864,44.596 3.864,42.529 
			45.204,42.529 		"/>
		<g>
			<path fill="#FF7B31" d="M49.084,13.461l-8.552,11.428c-0.11,0.174-0.175,0.141-0.138-0.063l1.611-8.623
				c0.037-0.206-0.09-0.371-0.288-0.371H38.18c-0.191,0-0.312-0.169-0.259-0.366l3.521-9.708c0.055-0.201,0.261-0.36,0.451-0.353
				l6.791,0.242c0.195,0.005,0.279,0.163,0.188,0.348l-3.416,6.825c-0.093,0.186-0.008,0.332,0.188,0.332h3.291
				C49.132,13.152,49.197,13.294,49.084,13.461z"/>
		</g>
	</g>
	<rect fill="none" width="50" height="50"/>
</g>
</svg>