<?xml version="1.0" encoding="utf-8"?>
<!-- Generator: Adobe Illustrator 15.0.0, SVG Export Plug-In . SVG Version: 6.00 Build 0)  -->
<!DOCTYPE svg PUBLIC "-//W3C//DTD SVG 1.1//EN" "http://www.w3.org/Graphics/SVG/1.1/DTD/svg11.dtd">
<svg version="1.1" id="Layer_1" xmlns="http://www.w3.org/2000/svg" xmlns:xlink="http://www.w3.org/1999/xlink" x="0px" y="0px"
	 width="50px" height="50px" viewBox="0 0 50 50" enable-background="new 0 0 50 50" xml:space="preserve">
<g>
	<path fill="#FFFFFF" d="M28.301,32.324c0.496,0.453,0.916,0.979,1.252,1.563l10.689-10.541L28.301,32.324z"/>
	<path fill="#FF7B31" d="M38.791,20.538c-0.135-0.13-0.273-0.259-0.411-0.386l3.37-3.693c0.169,0.154,0.338,0.313,0.504,0.471
		L38.791,20.538z"/>
	<path fill="#FF7B31" d="M44.707,31.563c-0.119-0.684-0.277-1.369-0.469-2.041l4.81-1.377c0.237,0.84,0.437,1.699,0.587,2.561
		L44.707,31.563z"/>
	<path fill="#FF7B31" d="M43.555,27.541c-0.262-0.643-0.559-1.281-0.889-1.898l4.412-2.354c0.41,0.771,0.783,1.57,1.109,2.377
		L43.555,27.541z"/>
	<path fill="#FF7B31" d="M41.582,23.843c-0.389-0.573-0.811-1.138-1.266-1.675l3.832-3.214c0.561,0.67,1.094,1.375,1.576,2.092
		L41.582,23.843z"/>
	<path fill="#FF7B31" d="M50,34.959h-5c0-0.188-0.005-0.377-0.009-0.566l4.999-0.117C49.995,34.504,50,34.73,50,34.959z"/>
	<path fill="#FFFFFF" d="M5,34.959H0C0,21.174,11.215,9.961,25,9.961c5.438,0,10.621,1.743,14.99,5.043l-3.014,3.989
		c-3.492-2.64-7.638-4.035-11.979-4.035C13.973,14.961,5,23.932,5,34.959z"/>
	<path fill="#FFFFFF" d="M25,32.783c-2.005,0-3.63,1.623-3.63,3.628s1.626,3.628,3.63,3.628s3.628-1.623,3.628-3.628
		S27.004,32.783,25,32.783"/>
</g>
<rect fill="none" width="50" height="50"/>
</svg>