<?xml version="1.0" encoding="utf-8"?>
<!-- Generator: Adobe Illustrator 15.0.0, SVG Export Plug-In . SVG Version: 6.00 Build 0)  -->
<!DOCTYPE svg PUBLIC "-//W3C//DTD SVG 1.1//EN" "http://www.w3.org/Graphics/SVG/1.1/DTD/svg11.dtd">
<svg version="1.1" id="Layer_1" xmlns="http://www.w3.org/2000/svg" xmlns:xlink="http://www.w3.org/1999/xlink" x="0px" y="0px"
	 width="50px" height="50px" viewBox="0 0 50 50" enable-background="new 0 0 50 50" xml:space="preserve">
<g>
	<g>
		<path fill="#FFFFFF" d="M22.398,27.273l-4.547-2.601l-0.648,3.25l-4.275,0.914c-2.922,0.625-5.186,2.938-5.75,5.873L4.861,46.752
			L22.4,49.998l-1.948-12.984l2.597-3.896l-1.947-2.601L22.398,27.273z"/>
		<path fill="#FFFFFF" d="M38.156,39.615c-4.926,0-8.934-4.008-8.934-8.93c0-2.023,0.687-3.888,1.824-5.388l-3.449,1.972
			l1.301,3.248l-1.95,2.596l2.596,3.896L27.6,50l17.539-3.25l-1.709-8.875C41.947,38.967,40.128,39.615,38.156,39.615"/>
		<path fill="#FFFFFF" d="M24.997,0c-7.894,0-14.291,1.6-14.291,3.57c0,0.949,1.481,1.812,3.897,2.452v6.791
			c0,6.158,4.058,11.524,9.841,13.021l0.553,0.141l1.276-0.412c5.424-1.75,9.115-6.938,9.115-12.809v-6.73
			c2.418-0.64,3.896-1.503,3.896-2.452C39.289,1.601,32.893,0,24.997,0 M20.451,7.146V5.845h9.093v1.301h-2.596v1.297h-3.9V7.146
			 M24.997,14.287c-4.987,0-9.094-1.761-9.094-3.896h9.094h9.092C34.092,12.528,29.986,14.287,24.997,14.287"/>
		<path fill="#FF7B31" d="M31.725,30.688c0,3.554,2.881,6.431,6.434,6.431c3.551,0,6.432-2.877,6.432-6.431
			c0-3.549-2.881-6.429-6.432-6.429C34.604,24.258,31.725,27.139,31.725,30.688"/>
	</g>
	<rect fill="none" width="50" height="50"/>
</g>
</svg>
