<?xml version="1.0" encoding="utf-8"?>
<!-- Generator: Adobe Illustrator 15.0.0, SVG Export Plug-In . SVG Version: 6.00 Build 0)  -->
<!DOCTYPE svg PUBLIC "-//W3C//DTD SVG 1.1//EN" "http://www.w3.org/Graphics/SVG/1.1/DTD/svg11.dtd">
<svg version="1.1" id="Layer_1" xmlns="http://www.w3.org/2000/svg" xmlns:xlink="http://www.w3.org/1999/xlink" x="0px" y="0px"
	 width="50px" height="50px" viewBox="0 0 50 50" enable-background="new 0 0 50 50" xml:space="preserve">
<g>
	<circle fill="#FFFFFF" cx="25" cy="11.629" r="8.539"/>
	<g>
		<path fill="#FFFFFF" d="M29.207,24.232c-1.326,0.457-2.736,0.709-4.207,0.709c-1.471,0-2.883-0.25-4.206-0.709
			C16.945,32.822,13.104,41.411,9.255,50c10.498,0,20.993,0,31.49,0C36.896,41.411,33.053,32.822,29.207,24.232z M23.875,29.75
			c0.75,0,1.498,0,2.248,0c0.182,2.416,0.363,4.83,0.547,7.249c-1.113,0-2.229,0-3.341,0C23.512,34.58,23.691,32.166,23.875,29.75z
			 M22.421,49.057c0.12-1.604,0.24-3.211,0.362-4.813c1.479,0,2.953,0,4.433,0c0.124,1.604,0.243,3.21,0.363,4.813
			C25.857,49.057,24.143,49.057,22.421,49.057z"/>
		<path fill="#FF7B31" d="M25,23.258c-6.413,0-11.63-5.214-11.63-11.63C13.37,5.216,18.586,0,25,0
			c6.411,0,11.629,5.216,11.629,11.628C36.629,18.044,31.413,23.258,25,23.258z M25,0.355c-6.217,0-11.273,5.059-11.273,11.273
			c0,6.218,5.058,11.274,11.273,11.274s11.271-5.057,11.271-11.274C36.273,5.414,31.218,0.355,25,0.355z"/>
		<path d="M23.021,15.566h-1.528V9.805c-0.558,0.521-1.214,0.905-1.972,1.161V9.575c0.396-0.133,0.83-0.38,1.299-0.741
			c0.468-0.364,0.787-0.788,0.962-1.274h1.239V15.566L23.021,15.566z"/>
		<path d="M27.891,7.559c0.772,0,1.377,0.271,1.813,0.828c0.517,0.651,0.774,1.732,0.774,3.244c0,1.51-0.258,2.592-0.783,3.256
			c-0.43,0.543-1.032,0.816-1.807,0.816c-0.773,0-1.398-0.303-1.873-0.896c-0.479-0.596-0.717-1.662-0.717-3.19
			c0-1.501,0.264-2.582,0.783-3.243C26.518,7.83,27.118,7.559,27.891,7.559z M27.891,8.824c-0.184,0-0.35,0.06-0.494,0.177
			c-0.146,0.119-0.256,0.329-0.338,0.631c-0.104,0.397-0.158,1.063-0.158,1.999s0.05,1.582,0.145,1.93
			c0.096,0.35,0.211,0.586,0.354,0.699c0.143,0.113,0.308,0.178,0.49,0.178c0.188,0,0.354-0.064,0.498-0.182
			c0.146-0.113,0.256-0.329,0.338-0.632c0.104-0.394,0.156-1.056,0.156-1.993c0-0.936-0.047-1.576-0.143-1.925
			c-0.094-0.349-0.213-0.586-0.354-0.705C28.24,8.884,28.077,8.824,27.891,8.824z"/>
		<path fill="#FF7B31" d="M25,1.247c-5.732,0-10.383,4.647-10.383,10.381c0,5.735,4.646,10.382,10.383,10.382
			c5.734,0,10.382-4.646,10.382-10.382C35.382,5.894,30.734,1.247,25,1.247z M25,19.499c-4.341,0-7.872-3.53-7.872-7.872
			c0-4.341,3.53-7.872,7.872-7.872s7.87,3.531,7.87,7.872S29.342,19.499,25,19.499z"/>
	</g>
	<rect fill="none" width="50" height="50"/>
</g>
</svg>