<?xml version="1.0" encoding="utf-8"?>
<!-- Generator: Adobe Illustrator 24.2.3, SVG Export Plug-In . SVG Version: 6.00 Build 0)  -->
<svg version="1.1" id="Layer_1" xmlns="http://www.w3.org/2000/svg" xmlns:xlink="http://www.w3.org/1999/xlink" x="0px" y="0px"
	 viewBox="0 0 88 82" style="enable-background:new 0 0 88 82;" xml:space="preserve">
<style type="text/css">
	.st0{opacity:0.2;fill:#4C4C4C;enable-background:new    ;}
	.st1{fill:#999999;}
	.st2{fill:#D60000;}
</style>
<g>
	<polygon class="st0" points="5.2,67.4 9.4,14.6 61.7,14.2 80.6,65.4 	"/>
	<g>
		<polygon class="st1" points="1.7,71.1 6.5,10.4 11.8,11.5 10.9,15.9 10.7,15.9 6.5,66.5 79.5,63.7 83.1,62.1 85.3,67.8 		"/>
	</g>
	<g>
		<g>
			
				<rect x="13.1" y="13.1" transform="matrix(0.9998 -1.955211e-02 1.955211e-02 0.9998 -0.2748 0.2931)" class="st2" width="3.5" height="2.2"/>
		</g>
		<g>
			<path class="st2" d="M21.5,15v-2.2l7.5-0.2v2.2L21.5,15z M34,14.8v-2.2l7.5-0.2v2.2L34,14.8z M46.5,14.6v-2.2l7.5-0.2v2.2
				L46.5,14.6z"/>
		</g>
		<g>
			<polygon class="st2" points="62.6,16.8 61.7,14.4 59.1,14.4 59.1,12.2 63.3,12 64.8,15.9 			"/>
		</g>
		<g>
			<path class="st2" d="M76.9,55.5l-2.2-5.9l2.2-0.9l2.2,5.7L76.9,55.5z M73.4,45.8l-2.2-5.7l2.2-0.9l2.2,5.7L73.4,45.8z M69.9,36.2
				l-2.2-5.7l2.2-0.9l2.2,5.7L69.9,36.2z M66.1,26.5l-2.2-5.7l2.2-0.9l2.2,5.7L66.1,26.5z"/>
		</g>
		<g>
			
				<rect x="78.9" y="58.8" transform="matrix(0.9381 -0.3465 0.3465 0.9381 -16.0281 31.4666)" class="st2" width="2.2" height="3.5"/>
		</g>
	</g>
	<g>
		<path class="st1" d="M10.2,73.6H-0.1V63.2h10.3V73.6z M1,72.5h7.9v-7.9H1V72.5z"/>
	</g>
	<g>
		<path class="st1" d="M14.9,18.8H4.5V8.4h10.3L14.9,18.8L14.9,18.8z M5.6,17.5h7.9v-8H5.6V17.5z"/>
	</g>
	<g>
		<path class="st1" d="M87.9,71.4H77.6V61h10.3V71.4z M78.7,70h7.9v-7.9h-7.9V70z"/>
	</g>
	<path class="st1" d="M81.5,15.5L68.3,8.9l0.9,4.6C48.3,17.2,47.9,41,47.9,41c6.4-18,18.5-20.5,22.7-20.7l1.1,5.7L81.5,15.5z"/>
</g>
</svg>
