<?xml version="1.0" encoding="utf-8"?>
<!-- Generator: Adobe Illustrator 15.0.0, SVG Export Plug-In . SVG Version: 6.00 Build 0)  -->
<!DOCTYPE svg PUBLIC "-//W3C//DTD SVG 1.1//EN" "http://www.w3.org/Graphics/SVG/1.1/DTD/svg11.dtd">
<svg version="1.1" id="Layer_1" xmlns="http://www.w3.org/2000/svg" xmlns:xlink="http://www.w3.org/1999/xlink" x="0px" y="0px"
	 width="50px" height="50px" viewBox="0 0 50 50" enable-background="new 0 0 50 50" xml:space="preserve">
<g>
	<path fill="#FFFFFF" d="M46.748,37.484L46.748,37.484c-0.502,0-0.982-0.112-1.439-0.338l-8.098-4.551
		c-0.898-0.438-1.496-1.396-1.496-2.464v-8.11c0-1.053,0.613-2.034,1.563-2.496l7.97-4.485C47.627,13.858,50,15.63,50,17.914v16.332
		c0,0.893-0.354,1.719-0.992,2.33C48.396,37.161,47.592,37.484,46.748,37.484z M46.748,17.224c-0.107,0-0.215,0.025-0.316,0.075
		l-7.969,4.485c-0.146,0.074-0.195,0.15-0.195,0.238v8.113c0,0.088,0.051,0.164,0.133,0.205l8.097,4.551
		c0.039,0.02,0.146,0.043,0.252,0.043l0,0c0.185,0,0.362-0.076,0.498-0.201c0.096-0.09,0.207-0.25,0.207-0.486V17.914
		C47.449,17.488,47.084,17.224,46.748,17.224z"/>
	<path fill="#FFFFFF" d="M31.541,15.599c0.34,0.394,0.555,0.898,0.555,1.457v18.777c0,1.24-1.01,2.244-2.246,2.244H9.06
		l-2.457,2.457c0.307,0.063,0.621,0.094,0.944,0.094h22.299c2.645,0,4.797-2.151,4.797-4.795V17.056
		c0-1.263-0.502-2.402-1.302-3.261L31.541,15.599z"/>
	
		<rect x="15.434" y="2.644" transform="matrix(-0.7069 -0.7073 0.7073 -0.7069 10.8382 54.4891)" fill="#FF7B31" width="2.549" height="44.709"/>
	<path fill="#FFFFFF" d="M5.305,34.602V17.056c0-1.238,1.005-2.246,2.245-2.246h17.548l2.548-2.551H7.549
		c-2.643,0-4.795,2.152-4.795,4.797v18.777c0,0.401,0.063,0.787,0.158,1.158L5.305,34.602z"/>
</g>
<rect fill="none" width="50" height="50"/>
</svg>
