<?xml version="1.0" encoding="utf-8"?>
<!-- Generator: Adobe Illustrator 15.0.0, SVG Export Plug-In . SVG Version: 6.00 Build 0)  -->
<!DOCTYPE svg PUBLIC "-//W3C//DTD SVG 1.1//EN" "http://www.w3.org/Graphics/SVG/1.1/DTD/svg11.dtd">
<svg version="1.1" id="Layer_1" xmlns="http://www.w3.org/2000/svg" xmlns:xlink="http://www.w3.org/1999/xlink" x="0px" y="0px"
	 width="50px" height="50px" viewBox="0 0 50 50" enable-background="new 0 0 50 50" xml:space="preserve">
<circle fill="#FFFFFF" cx="25" cy="17.404" r="12.24"/>
<g>
	<g>
		<g>
			<polygon fill="#FFFFFF" points="8.875,39.352 6.375,39.352 6.381,38.882 8.88,38.945 			"/>
		</g>
		<path fill="#FFFFFF" d="M8.988,37.471l-2.479-0.308c0.042-0.334,0.093-0.661,0.15-0.991l2.461,0.443
			C9.068,36.896,9.025,37.184,8.988,37.471z"/>
		<path fill="#FFFFFF" d="M9.453,35.176l-2.405-0.684c0.093-0.323,0.192-0.643,0.302-0.958l2.363,0.815
			C9.619,34.624,9.531,34.898,9.453,35.176z"/>
		<path fill="#FFFFFF" d="M10.264,32.982l-2.27-1.049c0.14-0.306,0.289-0.604,0.445-0.897l2.209,1.174
			C10.514,32.464,10.385,32.721,10.264,32.982z"/>
		<path fill="#FFFFFF" d="M11.404,30.938l-2.086-1.381c0.187-0.281,0.381-0.555,0.582-0.822l1.998,1.5
			C11.729,30.463,11.563,30.698,11.404,30.938z"/>
		<g>
			<path fill="#FFFFFF" d="M12.848,29.087l-1.854-1.677c0.106-0.12,0.213-0.236,0.323-0.348l1.804,1.729L12.848,29.087z"/>
		</g>
		<g>
			<path fill="#FF7B31" d="M45.777,40.186c-0.021-0.131-0.035-0.259-0.062-0.392l2.468-0.418c0.024,0.158,0.049,0.315,0.07,0.478
				L45.777,40.186z"/>
		</g>
		<path fill="#FF7B31" d="M45.439,38.497c-0.066-0.247-0.139-0.494-0.217-0.738l2.373-0.78c0.094,0.291,0.182,0.584,0.26,0.877
			L45.439,38.497z"/>
		<path fill="#FF7B31" d="M44.754,36.499c-0.102-0.24-0.208-0.479-0.32-0.715l2.258-1.074c0.133,0.271,0.252,0.548,0.367,0.822
			L44.754,36.499z"/>
		<path fill="#FF7B31" d="M43.805,34.584c-0.131-0.229-0.264-0.453-0.4-0.675l2.115-1.331c0.158,0.254,0.313,0.511,0.461,0.773
			L43.805,34.584z"/>
		<path fill="#FF7B31" d="M42.643,32.777c-0.156-0.215-0.313-0.428-0.477-0.635l1.967-1.539c0.184,0.229,0.359,0.469,0.535,0.709
			L42.643,32.777z"/>
		<path fill="#FF7B31" d="M41.293,31.1c-0.182-0.201-0.363-0.394-0.546-0.584l1.801-1.73c0.201,0.207,0.401,0.425,0.603,0.646
			L41.293,31.1z"/>
		<path fill="#FF7B31" d="M39.775,29.58c-0.199-0.178-0.398-0.348-0.596-0.507l1.571-1.943c0.229,0.185,0.453,0.38,0.688,0.585
			L39.775,29.58z"/>
		<g>
			<path fill="#FF7B31" d="M38.113,28.29c-0.113-0.073-0.223-0.144-0.332-0.208l1.296-2.139c0.132,0.082,0.271,0.168,0.405,0.257
				L38.113,28.29z"/>
		</g>
		<path fill="#494949" d="M19.456,13.493v7.823h-2.161v-5.127c-0.352,0.266-0.689,0.48-1.016,0.645
			c-0.326,0.166-0.736,0.323-1.23,0.475v-1.752c0.729-0.236,1.293-0.516,1.695-0.846c0.402-0.329,0.718-0.734,0.945-1.218H19.456z"
			/>
		<path fill="#494949" d="M28.035,21.316h-6.41c0.074-0.633,0.296-1.229,0.669-1.789c0.371-0.555,1.069-1.215,2.099-1.975
			c0.625-0.464,1.022-0.816,1.199-1.059c0.172-0.241,0.26-0.471,0.26-0.688c0-0.236-0.084-0.435-0.26-0.6
			c-0.173-0.165-0.391-0.249-0.652-0.249c-0.274,0-0.496,0.085-0.67,0.257c-0.172,0.174-0.289,0.471-0.349,0.907l-2.14-0.175
			c0.084-0.6,0.234-1.069,0.461-1.408c0.224-0.337,0.539-0.594,0.947-0.775c0.406-0.182,0.971-0.271,1.692-0.271
			c0.749,0,1.334,0.086,1.751,0.257c0.42,0.172,0.75,0.436,0.989,0.789c0.236,0.354,0.357,0.754,0.357,1.195
			c0,0.467-0.141,0.914-0.412,1.341c-0.274,0.429-0.772,0.896-1.5,1.407c-0.43,0.297-0.714,0.504-0.86,0.625
			c-0.145,0.119-0.314,0.274-0.51,0.468h3.338L28.035,21.316L28.035,21.316z"/>
		<path fill="#494949" d="M28.945,17.438c0-1.461,0.265-2.486,0.791-3.069c0.525-0.581,1.328-0.875,2.406-0.875
			c0.516,0,0.94,0.063,1.272,0.19c0.334,0.129,0.604,0.293,0.813,0.498c0.211,0.207,0.377,0.42,0.496,0.646
			c0.118,0.226,0.215,0.488,0.291,0.792c0.139,0.571,0.215,1.17,0.215,1.792c0,1.396-0.236,2.417-0.709,3.064
			c-0.475,0.648-1.287,0.971-2.438,0.971c-0.647,0-1.172-0.104-1.567-0.309c-0.397-0.207-0.728-0.51-0.981-0.91
			c-0.187-0.283-0.329-0.67-0.433-1.162C28.996,18.577,28.945,18.035,28.945,17.438z M31.064,17.443
			c0,0.979,0.086,1.647,0.262,2.007c0.174,0.36,0.422,0.538,0.755,0.538c0.215,0,0.401-0.077,0.562-0.229
			c0.162-0.154,0.278-0.393,0.354-0.723c0.074-0.327,0.111-0.84,0.111-1.536c0-1.021-0.086-1.707-0.26-2.058
			c-0.174-0.352-0.434-0.528-0.777-0.528c-0.354,0-0.607,0.181-0.766,0.539C31.145,15.811,31.064,16.475,31.064,17.443z"/>
		<path fill="#FF7B31" d="M25.143,31.221c-7.584,0-13.75-6.17-13.75-13.748c0-7.582,6.166-13.751,13.75-13.751
			c7.58,0,13.75,6.169,13.75,13.751C38.889,25.051,32.723,31.221,25.143,31.221z M25.143,5.734c-6.474,0-11.738,5.264-11.738,11.739
			c0,6.473,5.265,11.735,11.738,11.735c6.47,0,11.736-5.263,11.736-11.735C36.879,10.998,31.613,5.734,25.143,5.734z"/>
		<path fill="#FFFFFF" d="M9.218,20.684C3.544,25.264,0,32.244,0,39.855h4.936c0-5.524,2.326-10.646,6.145-14.285
			C10.214,24.073,9.57,22.432,9.218,20.684z"/>
		<path fill="#FF7B31" d="M41.018,20.879c-0.279,1.299-0.723,2.533-1.291,3.698C47.322,30.193,50,39.855,50,39.855
			C50,32.352,46.555,25.462,41.018,20.879z"/>
		<path fill="#FF7B31" d="M25.066,28.555c-0.15,0-0.301-0.004-0.449-0.011l0.085-3.122c0.12,0.005,0.241,0.008,0.364,0.008
			l0.201-0.003l0.032,3.124L25.066,28.555z"/>
		<path fill="#FF7B31" d="M25.988,28.514l-0.163-1.867c0.19-0.018,0.378-0.037,0.563-0.063l0.276,1.854
			C26.443,28.467,26.219,28.494,25.988,28.514z"/>
		<path fill="#FF7B31" d="M23.938,28.495c-0.227-0.024-0.451-0.058-0.674-0.095l0.309-1.851c0.185,0.029,0.373,0.06,0.563,0.078
			L23.938,28.495z"/>
		<path fill="#FF7B31" d="M27.346,28.309l-0.404-1.83c0.188-0.043,0.369-0.088,0.551-0.141l0.521,1.803
			C27.791,28.201,27.568,28.257,27.346,28.309z"/>
		<path fill="#FF7B31" d="M22.586,28.262c-0.225-0.054-0.445-0.113-0.663-0.183l0.562-1.79c0.179,0.057,0.358,0.105,0.541,0.148
			L22.586,28.262z"/>
		<path fill="#FF7B31" d="M28.66,27.93l-0.635-1.765c0.178-0.065,0.352-0.132,0.521-0.208l0.75,1.719
			C29.087,27.768,28.877,27.852,28.66,27.93z"/>
		<path fill="#FF7B31" d="M21.277,27.855c-0.217-0.082-0.43-0.172-0.637-0.271l0.791-1.698c0.168,0.079,0.34,0.15,0.514,0.218
			L21.277,27.855z"/>
		<path fill="#FF7B31" d="M29.914,27.382l-0.854-1.668c0.166-0.085,0.328-0.177,0.485-0.272l0.972,1.604
			C30.32,27.166,30.119,27.275,29.914,27.382z"/>
		<path fill="#FF7B31" d="M20.032,27.284c-0.202-0.108-0.401-0.226-0.597-0.349l1.002-1.584c0.158,0.1,0.318,0.193,0.482,0.282
			L20.032,27.284z"/>
		<path fill="#FF7B31" d="M31.089,26.68l-1.063-1.545c0.156-0.105,0.308-0.217,0.449-0.334l1.168,1.467
			C31.463,26.41,31.279,26.548,31.089,26.68z"/>
		<path fill="#FF7B31" d="M18.87,26.557c-0.185-0.136-0.366-0.271-0.544-0.421l1.193-1.444c0.146,0.121,0.293,0.234,0.446,0.344
			L18.87,26.557z"/>
		<path fill="#FF7B31" d="M32.166,25.824l-1.258-1.389c0.137-0.129,0.275-0.26,0.408-0.394l1.34,1.31
			C32.5,25.516,32.336,25.672,32.166,25.824z"/>
		<path fill="#FF7B31" d="M17.813,25.684c-0.166-0.154-0.326-0.314-0.48-0.479l1.361-1.287c0.131,0.139,0.265,0.273,0.402,0.4
			L17.813,25.684z"/>
		<path fill="#FF7B31" d="M33.119,24.848l-1.825-1.597c0.122-0.142,0.239-0.287,0.353-0.438l1.9,1.498
			C33.413,24.495,33.27,24.673,33.119,24.848z"/>
		<path fill="#FF7B31" d="M16.876,24.684c-0.091-0.111-0.183-0.226-0.271-0.341l2.021-1.53c0.074,0.098,0.148,0.19,0.225,0.285
			L16.876,24.684z"/>
		<path fill="#FFFFFF" d="M24.164,37.604c0.652-0.084,1.32-0.063,1.975,0.055l-1.134-11.021L24.164,37.604z"/>
		<path fill="#FFFFFF" d="M22.404,40.386c-1.276,1.509-1.086,3.773,0.424,5.048c1.511,1.276,3.77,1.086,5.048-0.424
			c1.276-1.511,1.089-3.77-0.423-5.046C25.941,38.686,23.684,38.875,22.404,40.386"/>
	</g>
	<rect fill="none" width="50" height="50"/>
</g>
</svg>
