<?xml version="1.0" encoding="utf-8"?>
<!-- Generator: Adobe Illustrator 15.0.0, SVG Export Plug-In . SVG Version: 6.00 Build 0)  -->
<!DOCTYPE svg PUBLIC "-//W3C//DTD SVG 1.1//EN" "http://www.w3.org/Graphics/SVG/1.1/DTD/svg11.dtd">
<svg version="1.1" id="Layer_1" xmlns="http://www.w3.org/2000/svg" xmlns:xlink="http://www.w3.org/1999/xlink" x="0px" y="0px"
	 width="50px" height="50px" viewBox="0 0 50 50" enable-background="new 0 0 50 50" xml:space="preserve">
<g>
	<g>
		<path fill="#FFFFFF" d="M32.932,28.635h-9.047c-0.767,0-1.389-0.619-1.389-1.389V16.368c0-0.767,0.622-1.39,1.389-1.39
			c0.766,0,1.389,0.623,1.389,1.39v9.489h7.66c0.768,0,1.389,0.621,1.389,1.389C34.32,28.016,33.699,28.635,32.932,28.635z"/>
	</g>
	<g>
		<g>
			<path fill="#FF7B31" d="M28.191,5.815c-0.396-0.066-0.797-0.119-1.201-0.161l0.564-5.527c0.521,0.055,1.041,0.123,1.555,0.209
				L28.191,5.815z"/>
		</g>
		<g>
			<path fill="#FF7B31" d="M47.145,36.609l-4.92-2.582c0.357-0.676,0.674-1.379,0.945-2.092l5.189,1.983
				C48.01,34.836,47.602,35.742,47.145,36.609z M49.248,31.104l-5.389-1.354c0.188-0.742,0.33-1.5,0.426-2.254l5.51,0.704
				C49.674,29.175,49.488,30.148,49.248,31.104z M49.998,25.259l-5.557-0.049l0.002-0.209c-0.002-0.698-0.037-1.403-0.111-2.09
				l5.525-0.589c0.094,0.88,0.141,1.781,0.143,2.677L49.998,25.259z M43.955,20.65c-0.17-0.742-0.385-1.484-0.643-2.201l5.229-1.87
				c0.33,0.925,0.606,1.876,0.828,2.832L43.955,20.65z M42.416,16.344c-0.342-0.685-0.725-1.354-1.141-1.99l4.643-3.045
				c0.539,0.818,1.031,1.679,1.471,2.556L42.416,16.344z M39.906,12.514c-0.494-0.588-1.025-1.149-1.58-1.672l3.813-4.043
				c0.709,0.669,1.389,1.389,2.021,2.142L39.906,12.514z M36.568,9.37c-0.611-0.456-1.262-0.877-1.922-1.257l2.76-4.82
				c0.85,0.486,1.68,1.029,2.467,1.614L36.568,9.37z M32.596,7.093c-0.703-0.298-1.43-0.557-2.162-0.769l1.549-5.336
				c0.941,0.274,1.877,0.607,2.781,0.99L32.596,7.093z"/>
		</g>
		<g>
			<path fill="#FF7B31" d="M44.699,40.396l-4.383-3.418c0.25-0.32,0.492-0.646,0.721-0.979l4.584,3.137
				C45.324,39.566,45.018,39.986,44.699,40.396z"/>
		</g>
	</g>
	<g>
		<path fill="#FFFFFF" d="M25,50C11.214,50,0,38.786,0,25C0,11.215,11.214,0,25,0c0.745,0,1.48,0.032,2.193,0.094l-0.489,5.534
			c-0.563-0.05-1.131-0.074-1.706-0.074c-10.723,0-19.444,8.723-19.444,19.444c0,10.723,8.723,19.443,19.444,19.443
			c5.447,0,10.678-2.309,14.357-6.332l4.103,3.75C38.73,47.033,32.002,50,25,50z"/>
	</g>
</g>
</svg>
