<?xml version="1.0" encoding="utf-8"?>
<!-- Generator: Adobe Illustrator 15.0.0, SVG Export Plug-In . SVG Version: 6.00 Build 0)  -->
<!DOCTYPE svg PUBLIC "-//W3C//DTD SVG 1.1//EN" "http://www.w3.org/Graphics/SVG/1.1/DTD/svg11.dtd">
<svg version="1.1" id="Layer_1" xmlns="http://www.w3.org/2000/svg" xmlns:xlink="http://www.w3.org/1999/xlink" x="0px" y="0px"
	 width="50px" height="50px" viewBox="0 0 50 50" enable-background="new 0 0 50 50" xml:space="preserve">
<g>
	<polygon fill="#FFFFFF" points="27.328,31.277 12.484,31.277 15.609,25.028 24.203,25.028 	"/>
	<path fill="#FFFFFF" d="M13.352,41.247c0,1.146-0.928,2.073-2.072,2.073c-1.146,0-2.072-0.928-2.072-2.073s0.928-2.072,2.072-2.072
		S13.352,40.104,13.352,41.247"/>
	<path fill="#FFFFFF" d="M43.352,41.247c0,1.146-0.929,2.073-2.074,2.073c-1.141,0-2.07-0.928-2.07-2.073s0.932-2.072,2.07-2.072
		C42.423,39.175,43.352,40.104,43.352,41.247"/>
	<path fill="#FFFFFF" d="M0,32.665v8.61l5.061-0.049c0,0.008-0.001,0.018-0.001,0.024c0,3.435,2.786,6.218,6.221,6.218
		c3.427,0,6.201-2.77,6.218-6.189h17.563c0.015,3.422,2.791,6.189,6.22,6.189c3.426,0,6.202-2.77,6.218-6.189H50v-8.613L0,32.665
		L0,32.665z M11.277,46.219c-2.739,0-4.968-2.228-4.968-4.969c0-2.742,2.229-4.973,4.968-4.973c2.74,0,4.972,2.229,4.972,4.973
		C16.249,43.989,14.02,46.219,11.277,46.219z M41.277,46.219c-2.741,0-4.971-2.228-4.971-4.969c0-2.742,2.229-4.973,4.971-4.973
		s4.971,2.229,4.971,4.973C46.248,43.989,44.014,46.219,41.277,46.219z"/>
	<path fill="#FFFFFF" d="M41.425,12.53H29.996l-0.141,18.748h20.14v-5.77L41.425,12.53z M37.497,30.027h-5v-1.245h5V30.027z
		 M34.996,27.529v-10h5.001l5.002,10H34.996z"/>
	<path fill="#FFFFFF" d="M23.193,23.778h-7.19L2.316,5.792C1.315,4.445,2.276,2.53,3.956,2.53h0.781
		c1.039,0,2.021,0.479,2.662,1.298L23.193,23.778z"/>
	<path fill="#FF7B31" d="M3.71,24.601c0.021-0.063,0.04-0.127,0.04-0.199V22.5c0.698-0.075,1.249-0.642,1.249-1.36v-2.226
		c0-0.715-0.551-1.288-1.249-1.358V7.673L2.5,6.029v11.524c-0.698,0.073-1.249,0.646-1.249,1.359v2.227
		c0,0.719,0.551,1.284,1.249,1.359V24.4c0,0.186,0.083,0.348,0.21,0.461c-0.055,0.093-0.095,0.193-0.095,0.311
		C2.613,25.52,2.891,25.8,3.239,25.8c0.534,0.003,0.984,0.449,0.984,0.99c0,0.534-0.45,0.985-0.987,0.985
		c-0.535,0-0.987-0.451-0.987-0.985c0-0.347-0.279-0.627-0.624-0.627C1.277,26.163,1,26.443,1,26.79
		c0,1.229,1.004,2.229,2.236,2.229c1.234,0,2.237-1.006,2.237-2.229C5.474,25.719,4.717,24.819,3.71,24.601z"/>
</g>
<rect fill="none" width="50" height="50"/>
</svg>
