<?xml version="1.0" encoding="utf-8"?>
<!-- Generator: Adobe Illustrator 25.0.0, SVG Export Plug-In . SVG Version: 6.00 Build 0)  -->
<svg xmlns="http://www.w3.org/2000/svg" xmlns:xlink="http://www.w3.org/1999/xlink" version="1.1" id="Layer_1" x="0px" y="0px" width="88px" height="82px" viewBox="0 0 88 82" enable-background="new 0 0 88 82" xml:space="preserve">
<style type="text/css">
	.st0{fill:#C1272D;}
	.st1{opacity:0.5;fill:#C1272D;enable-background:new    ;}
</style>
<g id="Layer_2_1_">
	<g id="Layer_2-2">
		<circle class="st0" cx="53.6" cy="34" r="5.1"/>
		<circle class="st1" cx="35.2" cy="35.7" r="4.4"/>
		<path class="st0" d="M62,52.8c-0.7-3.3-4.3-5.8-8.5-5.8c-2.6,0-5.2,1-7,2.8c0,0-12.6-1.8-20.5,3.3L62,52.8z"/>
		<path class="st0" d="M57.4,40.1c-2.3,1.7-5.3,1.7-7.5,0c-1.8,0.8-3.1,2.6-3.1,4.6v0.1h2.3c1.6-2.6,4.9-3.4,7.5-1.8
			c0.8,0.5,1.4,1.1,1.8,1.8h2v-0.1C60.4,42.7,59.2,40.9,57.4,40.1z"/>
		<path class="st0" d="M48.4,49.6h-0.2c-0.3-0.1-0.6-0.5-0.5-0.9l0,0c0.9-3.3,4.4-5.2,7.7-4.3c2,0.6,3.6,2.2,4.2,4.2
			c0.2,0.3,0,0.8-0.3,1c-0.3,0.2-0.8,0-1-0.3c0-0.1-0.1-0.1-0.1-0.2c-0.7-2.6-3.4-4.1-5.9-3.3c-1.6,0.5-2.8,1.7-3.3,3.4
			C49,49.4,48.8,49.6,48.4,49.6z"/>
		<path class="st1" d="M38.5,41c-1.9,1.5-4.6,1.5-6.6,0c-1.6,0.7-2.7,2.3-2.7,4.1V47c1.9-0.5,4-0.8,5.9-1c4.5-0.5,5.9,0.1,5.9,0.1
			v-1C41.1,43.3,40,41.7,38.5,41z"/>
	</g>
</g>
</svg>
