<?xml version="1.0" encoding="utf-8"?>
<!-- Generator: Adobe Illustrator 15.0.0, SVG Export Plug-In . SVG Version: 6.00 Build 0)  -->
<!DOCTYPE svg PUBLIC "-//W3C//DTD SVG 1.1//EN" "http://www.w3.org/Graphics/SVG/1.1/DTD/svg11.dtd">
<svg version="1.1" id="Layer_1" xmlns="http://www.w3.org/2000/svg" xmlns:xlink="http://www.w3.org/1999/xlink" x="0px" y="0px"
	 width="50px" height="50px" viewBox="0 0 50 50" enable-background="new 0 0 50 50" xml:space="preserve">
<g>
	<g>
		<circle fill="#FFFFFF" cx="25.001" cy="41.789" r="6.236"/>
		<path fill="#FFFFFF" d="M24.425,30.107c0.191-0.008,0.383-0.027,0.576-0.027c3.935,0,7.631,1.533,10.414,4.313l2.78-2.777
			c-3.045-3.045-6.953-4.897-11.174-5.354L24.425,30.107z"/>
		<path fill="#FFFFFF" d="M32.074,18.773l-2.342,3.475c4.246,0.883,8.293,2.956,11.584,6.244l2.781-2.781
			C40.646,22.26,36.48,19.963,32.074,18.773z"/>
		<path fill="#FFFFFF" d="M36.971,11.523l-2.287,3.388c4.676,1.508,8.961,4.108,12.537,7.681L50,19.814
			C46.25,16.064,41.813,13.264,36.971,11.523z"/>
		<g>
			
				<rect x="23.905" y="-1.281" transform="matrix(-0.829 -0.5592 0.5592 -0.829 33.8002 54.4009)" fill="#FF7B31" width="2.622" height="46.629"/>
		</g>
		<path fill="#FFFFFF" d="M16.242,32.984l4.229-6.269c-3.255,0.804-6.236,2.466-8.666,4.894l2.78,2.781
			C15.106,33.873,15.666,33.414,16.242,32.984z"/>
		<path fill="#FFFFFF" d="M26.438,17.889c-7.391-0.396-14.902,2.196-20.534,7.822l2.781,2.781c4.189-4.188,9.602-6.391,15.097-6.676
			L26.438,17.889z"/>
		<path fill="#FFFFFF" d="M29.268,13.691l2.422-3.588C29.506,9.682,27.273,9.454,25,9.454c-9.44,0-18.319,3.679-25,10.358
			l2.782,2.779C8.72,16.655,16.608,13.389,25,13.389C26.439,13.389,27.865,13.5,29.268,13.691z"/>
	</g>
	<rect fill="none" width="50" height="50"/>
</g>
</svg>

