<?xml version="1.0" encoding="utf-8"?>
<!-- Generator: Adobe Illustrator 22.1.0, SVG Export Plug-In . SVG Version: 6.00 Build 0)  -->
<svg version="1.1" id="Capa_1" xmlns="http://www.w3.org/2000/svg" xmlns:xlink="http://www.w3.org/1999/xlink" x="0px" y="0px"
	 viewBox="0 0 55 55" style="enable-background:new 0 0 55 55;" xml:space="preserve">
<style type="text/css">
	.st0{fill:#285AA5;}
</style>
<path class="st0" d="M27.5,1.5c-14.3,0-26,11.7-26,26c0,7.3,3,14.2,8.4,19.2l1,0.9H11h0.1c0.4,0.4,0.9,0.7,1.4,1
	c0.1,0,0.1,0.1,0.2,0.1c0.1,0,0.1,0.1,0.2,0.1c0.4,0.3,0.8,0.5,1.1,0.7l0.3,0.2c0.1,0.1,0.2,0.1,0.3,0.2c0,0,0.1,0,0.1,0.1
	c0.2,0.1,0.4,0.2,0.6,0.3c0.3,0.2,0.6,0.3,0.9,0.5l0.3,0.2c2,1,4.1,1.6,6.4,2H23l2.1,0.3h0.2c0.6,0.2,1.3,0.2,2,0.2s1.4,0,2-0.1
	l2.3-0.3h0.3c2.1-0.4,4.2-1,6.2-2c0.1,0,0.2-0.1,0.3-0.2l1.6-0.8l0.1-0.1l0.1-0.1c0.1,0,0.1-0.1,0.2-0.1l0.3-0.2
	c0.4-0.2,0.8-0.4,1.1-0.7c0.2-0.1,0.4-0.3,0.5-0.4c0.1-0.1,0.2-0.2,0.3-0.2c0.3-0.2,0.6-0.4,0.9-0.7c0.1,0,0.2-0.1,0.2-0.2l0.8-0.7
	c5.4-4.9,8.5-11.9,8.5-19.2C53.5,13.2,41.8,1.5,27.5,1.5z M21,42.7c1.4-0.7,2.3-2.2,2.3-3.9v-3.5L23,34.9c0,0-2-2.4-2.7-5.5L20,28.7
	l-0.5-0.2C19.2,28.3,19,28,19,27.6v-3.2c0-0.3,0.1-0.5,0.4-0.8l0.4-0.4v-5.4v-0.2c0,0-0.2-2,1.2-3.7c1.2-1.4,3.5-2.1,6.5-2.1
	c3.1,0,5.2,0.7,6.4,2.2c1.4,1.6,1.2,3.7,1.2,3.7v5.5l0.5,0.5c0.2,0.2,0.4,0.5,0.4,0.7v3.2c0,0.4-0.3,0.9-0.8,1l-0.7,0.3l-0.3,0.7
	c-0.6,1.8-1.3,3.2-2.2,4.5l-0.2,0.3c-0.2,0.2-0.3,0.4-0.5,0.6L31,35.3v3.6c0,1.7,0.9,3.2,2.4,4l7.3,3.6c-0.2,0.1-0.4,0.2-0.6,0.3
	c-0.1,0.1-0.2,0.1-0.3,0.2c-0.1,0-0.1,0.1-0.2,0.1c-0.5,0.3-0.9,0.5-1.3,0.7l-0.1,0.1c0,0-0.1,0.1-0.2,0.1c-0.9,0.5-2,0.9-3,1.3
	h-0.2c-0.3,0.1-0.6,0.2-0.9,0.3c-0.3,0.1-0.6,0.2-0.9,0.3c-0.5,0.2-1.2,0.3-1.7,0.3h-0.2c-0.5,0.1-1.1,0.2-1.7,0.2h-0.3
	c-0.3,0-0.6,0-0.9,0c-0.8,0.1-1.7,0.1-2.7,0h-0.2c-0.3,0-0.6-0.1-0.9-0.1s-0.6,0-0.9-0.1C22.2,50,21,49.7,20,49.3h-0.2
	c-0.3-0.1-0.5-0.2-0.8-0.3s-0.6-0.2-0.9-0.3c-0.4-0.1-0.7-0.3-1.1-0.5L16.7,48c0,0-0.1-0.1-0.2-0.1l-1.3-0.8
	C15.1,47,15.1,47,15,46.9l-0.1-0.1l-0.1-0.1c-0.3-0.2-0.5-0.3-0.7-0.4L21,42.7z M42.6,44.3l-7.9-3.9c-0.6-0.3-0.8-0.7-0.8-1.4v-2.6
	c0.2-0.2,0.3-0.4,0.5-0.6c1-1.3,1.8-3,2.4-4.7c1.2-0.7,2-2,2-3.4v-3.2c0-0.9-0.3-1.7-0.8-2.4v-4.2c0.1-0.6,0.2-3.5-1.9-5.9
	c-1.8-2-4.7-3-8.5-3s-6.7,1.1-8.6,3.1c-1.3,1.5-1.9,3.4-1.9,5.7v4.3c-0.6,0.7-0.8,1.5-0.8,2.4v3.2c0,1.1,0.5,2.1,1.3,2.9
	c0.7,2.6,2,4.7,2.8,5.8v2.5c0,0.6-0.3,1.1-0.8,1.4l-7.2,3.9c-0.2,0.1-0.4,0.2-0.5,0.3C7,40,4.4,33.9,4.4,27.5
	c0-12.8,10.4-23.1,23.1-23.1s23.1,10.4,23.1,23.1c0,6.5-2.7,12.7-7.5,17.1C42.9,44.5,42.7,44.4,42.6,44.3z"/>
</svg>
