<?xml version="1.0" encoding="utf-8"?>
<!-- Generator: Adobe Illustrator 22.1.0, SVG Export Plug-In . SVG Version: 6.00 Build 0)  -->
<svg version="1.1" id="Layer_1" xmlns="http://www.w3.org/2000/svg" xmlns:xlink="http://www.w3.org/1999/xlink" x="0px" y="0px"
	 viewBox="0 0 211 60" style="enable-background:new 0 0 211 60;" xml:space="preserve">
<style type="text/css">
	.st0{fill:#2459A8;}
</style>
<g>
	<path class="st0" d="M80.3,12.2c0.3,3.8,1.3,7.4,2.3,11c-0.4-0.1-0.7-0.3-1-0.3c-0.9-0.2-1.7,0.2-2.4,0.8c-1,0.8-1.7,1.9-2.2,3.1
		c-1.5,3.1-3,6.2-4.5,9.2c-1.5,2.9-0.1,6.4,2.9,7.6c0.4,0.2,0.8,0.3,1.3,0.4c0.7,0.2,1.1,0.7,1.1,1.3c0,0.6-0.4,1.2-1,1.3
		c-0.2,0.1-0.5,0.1-0.7,0.1c-2.7,0-5.4-0.1-8-0.8c-1.9-0.5-3.7-1.3-5-2.7c-0.9-1-1.4-2.1-1.6-3.4c-0.1-1.6,0.3-3,1-4.4
		c1.9-3.7,3.8-7.3,5.7-11c2.1-4.1,4.3-8.2,6.4-12.3c1-2,2.1-4,3.2-6c0.4-0.8,1-1.4,1.7-2c0.9-0.7,1.9-0.8,2.9-0.8
		c1.7,0,2.8,1.1,3.7,2.4c1.1,1.5,1.9,3.2,2.6,4.9c1,2.7,2,5.4,3,8c2.6,7,5.2,14,7.8,21c0.6,1.7,1.2,3.4,2.1,5c0.5,1,1.1,1.9,2,2.6
		c0.6,0.6,1.4,0.8,2.2,0.9c1.5,0.2,2.8-0.1,4.1-0.9c0.6-0.4,1.4-0.3,1.9,0.3c0.4,0.5,0.5,1.4,0,1.9c-2.2,2.5-4.7,4.8-7.7,6.2
		c-1.1,0.5-2.3,0.9-3.6,0.9c-1.8,0-3.1-0.7-4.2-2c-1-1.4-1.7-2.9-2.3-4.5c-1-2.9-2-5.7-3-8.6C88.4,34.7,86,28,83.6,21.3
		c-1-2.9-2-5.9-3-8.8c0-0.1-0.1-0.2-0.1-0.2C80.4,12.2,80.4,12.2,80.3,12.2z"/>
	<path class="st0" d="M142.1,34.5c0.9-5.3,1.9-10.6,2.8-15.9c1.6,0,3.2,0,4.7,0c0.4,0,0.7,0.1,1,0.2c1.5,0.4,2.2,1.6,1.9,3.1
		c-0.4,2.5-0.8,4.9-1.3,7.4c-0.1,0.8-0.3,1.6-0.5,2.4c-0.6,1.6-1.8,2.5-3.5,2.7C145.6,34.5,143.9,34.5,142.1,34.5z M145.1,32.2
		c0.5,0,0.9,0,1.4,0c1,0,1.8-0.7,2-1.7c0.5-2.7,0.9-5.3,1.4-8c0.2-0.9-0.3-1.6-1-1.6c-0.5,0-1,0-1.5-0.1c-0.2,0-0.3,0-0.4,0.3
		c-0.2,1.1-0.4,2.1-0.6,3.2c-0.4,2-0.7,4-1.1,6C145.3,30.9,145.2,31.6,145.1,32.2z"/>
	<path class="st0" d="M131.8,34.5c0.1-0.7,0.2-1.3,0.3-1.9c0.3-1.9,0.6-3.7,1-5.6c0.3-1.8,0.6-3.6,1-5.4c0.2-0.9,0.3-1.8,0.5-2.6
		c0-0.2,0.1-0.3,0.3-0.3c1.4,0,2.8,0,4.2,0c1.5,0.1,2.7,0.6,3,2.3c0.1,0.7,0.1,1.4,0,2.2c-0.2,1.2-0.5,2.3-1.4,3.2
		c-0.3,0.3-0.7,0.6-1.1,0.8c-0.2,0.1-0.3,0.2-0.2,0.4c0.1,0.8,0.2,1.6,0.3,2.4c0.2,1.2,0.3,2.4,0.5,3.6c0,0.2,0.1,0.5,0.1,0.8
		c-0.9,0-1.7,0-2.6,0c-0.1,0-0.2-0.1-0.2-0.2c-0.1-0.7-0.2-1.5-0.2-2.2c-0.1-1.1-0.2-2.2-0.4-3.3c-0.1-0.8-0.1-0.8-0.9-0.8
		c-0.4,0-0.5,0.2-0.5,0.5c-0.3,1.9-0.7,3.9-1,5.8c0,0.1-0.2,0.2-0.3,0.3C133.4,34.5,132.7,34.5,131.8,34.5z M135.9,26
		c0.5,0,1,0,1.5,0c0.6,0,1-0.4,1.3-0.8c0.2-0.3,0.3-0.6,0.4-0.9c0.3-0.8,0.4-1.7,0.2-2.6c-0.1-0.4-0.4-0.8-0.9-0.8
		c-0.5-0.1-1,0-1.5,0c-0.1,0-0.2,0.2-0.2,0.2c-0.2,0.9-0.3,1.8-0.5,2.7C136.2,24.5,136.1,25.2,135.9,26z"/>
	<path class="st0" d="M113.1,34.5c-0.8,0-1.5,0-2.3,0c-0.3,0-0.2-0.2-0.2-0.4c0-1,0-1.9,0-2.9c0-0.2,0-0.4,0-0.7c-0.4,0-0.7,0-1,0
		c-0.7,0-1.4,0-2,0c-0.3,0-0.4,0.1-0.5,0.3c-0.4,1.1-0.8,2.2-1.2,3.3c-0.1,0.2-0.2,0.3-0.5,0.3c-0.7,0-1.3,0-2.1,0
		c0.2-0.5,0.3-0.9,0.5-1.3c1.8-4.8,3.6-9.5,5.5-14.3c0-0.1,0.2-0.3,0.3-0.3c1,0,2.1,0,3.1,0c0,0,0.1,0,0.2,0c0,0.9,0.1,1.7,0.1,2.6
		c0,1.6,0.1,3.2,0.1,4.9c0,2,0.1,4,0.1,5.9C113.1,32.9,113.1,33.6,113.1,34.5z M108,28.4c0.8,0,1.4,0,2.1,0c0.3,0,0.4-0.1,0.4-0.4
		c0-2,0-4,0-6c0-0.1,0-0.2,0-0.3c0,0-0.1,0-0.1,0C109.6,23.9,108.8,26.1,108,28.4z"/>
	<path class="st0" d="M158.9,34.5c0-1.2,0-2.3,0-3.4c0-0.5,0-0.5-0.5-0.5c-0.9,0-1.7,0-2.6,0c-0.2,0-0.4,0.1-0.4,0.3
		c-0.4,1.1-0.8,2.1-1.1,3.2c-0.1,0.4-0.3,0.5-0.7,0.5c-0.6,0-1.3,0-1.9,0c0.4-1.1,0.8-2.1,1.2-3.1c1.6-4.1,3.2-8.3,4.7-12.4
		c0.1-0.2,0.2-0.4,0.5-0.3c0.9,0,1.8,0,2.7,0c0.2,0,0.4,0,0.4,0.3c0,0.9,0,1.8,0.1,2.8c0.1,2.1,0.1,4.3,0.1,6.4c0,1,0,2,0.1,3
		c0,1,0,2,0.1,3c0,0.3-0.1,0.4-0.3,0.3C160.4,34.5,159.7,34.5,158.9,34.5z M158.8,21.7c0,0-0.1,0-0.1,0c-0.8,2.2-1.6,4.5-2.4,6.8
		c0.8,0,1.4,0,2.1,0c0.4,0,0.4-0.1,0.4-0.4c0-2,0-4,0-6C158.8,21.9,158.8,21.8,158.8,21.7z"/>
	<path class="st0" d="M124.2,18.6c-0.5,1.3-0.9,2.5-1.3,3.7c-1.4,3.9-2.9,7.9-4.3,11.8c-0.1,0.3-0.2,0.4-0.6,0.4c-0.8,0-1.6,0-2.4,0
		c0-0.3,0-0.5,0-0.8c0-2.2-0.1-4.4-0.1-6.6c0-1.5,0-3.1-0.1-4.6c0-1.2,0-2.4-0.1-3.6c0-0.1,0-0.2,0-0.3c0.8,0,1.7,0,2.5,0
		c0,3.6,0,7.3,0,10.9c0,0,0.1,0,0.1,0c0.2-0.6,0.4-1.1,0.6-1.7c1-3,2.1-6,3.1-9c0.1-0.2,0.2-0.3,0.5-0.3
		C122.8,18.7,123.5,18.6,124.2,18.6z"/>
	<path class="st0" d="M132.7,18.7c-0.1,0.7-0.2,1.4-0.4,2.2c-0.2,0-0.3,0-0.4,0c-1.2,0-2.4,0-3.6,0c-0.3,0-0.5,0.1-0.5,0.4
		c-0.2,1.3-0.4,2.6-0.7,3.9c1.2,0,2.4,0,3.6,0c-0.1,0.7-0.2,1.4-0.4,2.1c0,0.2-0.2,0.2-0.3,0.2c-1,0-2,0-3,0c-0.1,0-0.2,0-0.3,0
		c-0.3,1.6-0.6,3.1-0.8,4.8c1.5,0,3,0,4.5,0c-0.1,0.8-0.3,1.5-0.4,2.3c-2.4,0-4.7,0-7.1,0c0.1-0.7,0.2-1.5,0.4-2.2
		c0.4-2,0.7-4,1.1-6c0.3-1.8,0.6-3.6,0.9-5.4c0.1-0.6,0.2-1.3,0.3-1.9c0-0.2,0.1-0.3,0.3-0.3c2.2,0,4.5,0,6.7,0
		C132.5,18.7,132.6,18.7,132.7,18.7z"/>
</g>
</svg>
