<?xml version="1.0" encoding="utf-8"?>
<!-- Generator: Adobe Illustrator 19.2.1, SVG Export Plug-In . SVG Version: 6.00 Build 0)  -->
<svg version="1.1" id="Layer_1" xmlns="http://www.w3.org/2000/svg" xmlns:xlink="http://www.w3.org/1999/xlink" x="0px" y="0px"
	 viewBox="0 0 211 60" style="enable-background:new 0 0 211 60;" xml:space="preserve">
<style type="text/css">
	.st0{fill:#FFFFFF;}
	.st1{fill:#D96B00;}
	.st2{fill:#4D4D4D;}
	.st3{fill:url(#SVGID_1_);}
	.st4{fill:none;}
	.st5{fill:#333333;}
	.st6{fill:#EA7200;}
	.st7{fill:url(#SVGID_2_);}
	.st8{fill:url(#SVGID_3_);}
	.st9{fill:#666666;}
	.st10{fill:#808080;}
	.st11{fill:url(#SVGID_4_);}
</style>
<rect class="st0" width="211" height="60"/>
<g>
	<g>
		<g>
			<g>
				<g>
					<path class="st1" d="M82.3,19.9v20.8h7.1v3.4H78.6V19.9H82.3z"/>
					<path class="st1" d="M108.6,33.7l-7.9-13.8h4.2l5.5,9.7l5.6-9.7h4.2l-7.9,13.8v10.5h-3.7V33.7z"/>
					<path class="st1" d="M135.8,44.2V18.3l17.7,18.5V19.9h3.7v25.7l-17.7-18.5v17H135.8z"/>
					<path class="st1" d="M180.9,31.5l-6.7-11.6h4.2l4.6,8.2l4.9-8.2h4.2l-7,11.6l7.3,12.7h-4.1l-5.4-9.3l-5.5,9.3h-4.1L180.9,31.5z
						"/>
				</g>
			</g>
		</g>
	</g>
	<g>
		<polygon class="st2" points="19.7,48.1 32.8,44.5 49.9,48.7 57.9,39.4 52.6,30.4 52.2,27.1 43.8,20 36,19.7 27.6,12.1 22.5,11.3 
			23.9,12.8 18.5,14.2 26.2,14 26.9,21.2 23.7,39.5 		"/>
		<g>
			<polygon class="st0" points="42.1,30.4 45.2,33.1 48.8,32.8 			"/>
			<g>
				<g>
					<g>
						<linearGradient id="SVGID_1_" gradientUnits="userSpaceOnUse" x1="55.2332" y1="49.2516" x2="55.2332" y2="34.4026">
							<stop  offset="0" style="stop-color:#960E76"/>
							<stop  offset="0.1917" style="stop-color:#B4235A"/>
							<stop  offset="0.5025" style="stop-color:#DE4232"/>
							<stop  offset="0.6611" style="stop-color:#EF4E23"/>
							<stop  offset="0.7547" style="stop-color:#F26A20"/>
							<stop  offset="0.9171" style="stop-color:#F7941C"/>
							<stop  offset="1" style="stop-color:#F9A51A"/>
						</linearGradient>
						<polygon class="st3" points="57.9,39.3 54.6,39 52.6,30.4 						"/>
						<polyline class="st4" points="26.9,21.2 27.6,12.1 35.7,19.4 43.8,20 52.6,26.8 52.6,30.4 57.9,39.3 49.5,48.6 32.8,44.5 
							19.7,48.1 						"/>
					</g>
				</g>
				<g>
					<polygon class="st5" points="26.9,21.2 23.9,38.5 27.7,30.4 					"/>
					<polygon class="st6" points="27.6,31.7 20.2,47.1 29.4,38.6 					"/>
				</g>
			</g>
			<linearGradient id="SVGID_2_" gradientUnits="userSpaceOnUse" x1="30.8106" y1="55.6222" x2="30.8106" y2="19.9354">
				<stop  offset="0" style="stop-color:#960E76"/>
				<stop  offset="0.1917" style="stop-color:#B4235A"/>
				<stop  offset="0.5025" style="stop-color:#DE4232"/>
				<stop  offset="0.6611" style="stop-color:#EF4E23"/>
				<stop  offset="0.7547" style="stop-color:#F26A20"/>
				<stop  offset="0.9171" style="stop-color:#F7941C"/>
				<stop  offset="1" style="stop-color:#F9A51A"/>
			</linearGradient>
			<path class="st7" d="M28.2,29.8l-0.7-8.3l1.1-5.2c0,0,5.5,5,5.4,5C33.9,21.3,28.2,29.8,28.2,29.8z"/>
			<linearGradient id="SVGID_3_" gradientUnits="userSpaceOnUse" x1="38.8998" y1="61.2048" x2="38.8998" y2="40.2671">
				<stop  offset="0" style="stop-color:#960E76"/>
				<stop  offset="0.1917" style="stop-color:#B4235A"/>
				<stop  offset="0.5025" style="stop-color:#DE4232"/>
				<stop  offset="0.6611" style="stop-color:#EF4E23"/>
				<stop  offset="0.7547" style="stop-color:#F26A20"/>
				<stop  offset="0.9171" style="stop-color:#F7941C"/>
				<stop  offset="1" style="stop-color:#F9A51A"/>
			</linearGradient>
			<polygon class="st8" points="28.2,31.7 49.6,47.9 30.3,38.7 			"/>
			<polygon class="st9" points="29.5,30.6 34.4,23 36.3,29.5 38.7,37.7 			"/>
			<g>
				<polygon class="st5" points="36,19.7 27.6,12.1 22.5,11.3 26.3,13.8 26.9,21.2 28.3,14.9 34.7,20.7 40.6,20.1 				"/>
				<polygon class="st5" points="19.7,48.1 32.8,44.5 49.6,48.6 30,39.2 				"/>
				<polygon class="st5" points="52.7,30.6 56.6,39 50.7,47.5 57.9,39.4 				"/>
				<polygon class="st5" points="47.5,24.4 51,27.1 52.6,30.4 52.2,27.1 				"/>
			</g>
			<polygon class="st10" points="40.5,39.5 46.5,44.7 38.3,32.1 			"/>
			<linearGradient id="SVGID_4_" gradientUnits="userSpaceOnUse" x1="42.5293" y1="42.2789" x2="42.5293" y2="16.6068">
				<stop  offset="0" style="stop-color:#960E76"/>
				<stop  offset="0.1917" style="stop-color:#B4235A"/>
				<stop  offset="0.5025" style="stop-color:#DE4232"/>
				<stop  offset="0.6611" style="stop-color:#EF4E23"/>
				<stop  offset="0.7547" style="stop-color:#F26A20"/>
				<stop  offset="0.9171" style="stop-color:#F7941C"/>
				<stop  offset="1" style="stop-color:#F9A51A"/>
			</linearGradient>
			<polygon class="st11" points="43.8,20 50,25.1 44.8,22.5 35.1,21.4 			"/>
			<polygon class="st5" points="25.7,14 18.5,14.2 23.9,12.8 			"/>
		</g>
	</g>
</g>
</svg>
