<?xml version="1.0" encoding="UTF-8"?><svg id="Layer_2" xmlns="http://www.w3.org/2000/svg" viewBox="0 0 36.48 40"><defs><style>.cls-1{fill:#fff;}</style></defs><g id="Layer_1-2"><g><path class="cls-1" d="M36.47,10.57c0,2.97-.02,5.94,.02,8.91,.01,.8-.29,1.31-.97,1.62-2.85,1.31-5.8,1.81-8.9,1.04-1.26-.32-2.54-.61-3.81-.87-2.5-.5-4.67,.34-6.65,1.78-.59,.43-1.15,.92-1.72,1.38-1.03,.82-2.01,.59-2.45-.63-2.03-5.63-4.02-11.27-6.06-16.9-.42-1.17-.19-1.98,.79-2.76C10.75,.95,15.27-.57,20.41,.25c1.31,.21,2.64,.73,3.81,1.38,3.21,1.79,6.16,1.24,9.06-.66,.25-.16,.49-.34,.74-.51,.54-.37,1.09-.63,1.75-.31,.67,.33,.72,.92,.71,1.59-.02,2.94,0,5.89,0,8.83,0,0,0,0,0,0Zm-11.18-1.65c-1.55-.52-3.06-1.02-4.55-1.56-.15-.05-.25-.32-.3-.51-.33-1.15-.66-2.3-.93-3.46-.11-.47-.33-.6-.78-.61-1.9-.06-3.74,.21-5.54,.81-.6,.2-.68,.45-.45,1,.42,1,.75,2.04,1.18,3.04,.2,.47,.07,.67-.34,.88-.97,.5-1.93,1.01-2.85,1.58-.22,.13-.46,.56-.39,.76,.65,2.01,1.37,4,2.07,6,1.39-.86,2.69-1.67,4.09-2.54,.43,1.1,.79,2.02,1.15,2.96,.57,1.46,.56,1.39,2.07,1.27,1.23-.1,2.48-.02,3.82-.02-.4-1.55-.79-3.03-1.2-4.61,1.54,.38,2.91,.72,4.42,1.09-.44-1.99-.84-3.8-1.2-5.43,1.69,.16,3.31,.31,5.04,.47,.1,1.37,.21,2.88,.34,4.4,.04,.51-.17,.68-.65,.68-1.14-.01-2.27,0-3.56,0,.34,1.41,.65,2.8,1.04,4.17,.05,.19,.45,.4,.7,.41,.79,.05,1.58,0,2.37,0,.53,0,.63-.29,.58-.74-.07-.7-.12-1.41-.17-2.11-.12-1.7-.13-1.72,1.54-2.24,.77-.24,1.21-.56,1.09-1.47-.1-.72-.02-1.47-.02-2.2,0-.83,0-1.66,0-2.6-1.15,.49-2.1,.9-3.16,1.36-.15-1.54-.29-2.91-.43-4.36-2.01,.46-3.89,.21-5.87-.57,.33,1.51,.62,2.85,.92,4.19Z"/><path class="cls-1" d="M4.59,5.17c0,.06,.03,.23-.04,.32-.68,.82-.16,1.58,.12,2.35,3.09,8.63,6.18,17.25,9.26,25.87,.09,.26,.19,.51,.27,.77,.23,.79-.06,1.43-.73,1.66-.82,.28-1.51-.03-1.83-.89-.73-1.96-1.44-3.93-2.15-5.9C6.91,22.23,4.34,15.1,1.77,7.97c-.18-.5-.4-.85-.96-1.1-.38-.17-.69-.75-.79-1.2-.12-.57,.23-1.05,.82-1.25,.72-.24,1.44-.49,2.18-.64,.87-.18,1.56,.45,1.56,1.39Z"/><path class="cls-1" d="M14.24,8.27c2.03-.64,3.91-.98,5.86-.85,.17,.01,.42,.24,.48,.42,.56,1.95,1.09,3.92,1.59,5.77-1.85,.14-3.68,.29-5.7,.44-.67-1.74-1.43-3.7-2.23-5.78Z"/><path class="cls-1" d="M8.71,32.79c0,.75,.01,1.47-.01,2.19,0,.14-.12,.3-.23,.39-.62,.54-.64,1.06,.09,1.41,.76,.36,1.58,.63,2.41,.77,1.71,.29,3.44,.23,5.12-.25,.47-.14,.95-.35,1.36-.62,.54-.36,.54-.86,.03-1.23-.3-.22-.38-.46-.36-.8,.02-.62,0-1.23,0-1.85,1.22,.14,2.59,1.32,2.91,2.46,.34,1.23-.09,2.43-1.2,3.26-1.12,.84-2.43,1.17-3.79,1.33-2.09,.25-4.17,.2-6.2-.44-.86-.27-1.64-.66-2.27-1.33-1.12-1.19-1.1-2.94,.04-4.11,.55-.57,1.36-1.03,2.12-1.2Z"/></g></g></svg>