<?xml version="1.0" encoding="UTF-8"?><svg id="Layer_2" xmlns="http://www.w3.org/2000/svg" viewBox="0 0 38.38 39.76"><defs><style>.cls-1{fill:#fff;}.cls-2{fill:#ed1c24;}</style></defs><g id="Layer_1-2"><g><g><path class="cls-2" d="M32.51,31.76l-8.37,1.5,1.78,2.11c-5.63,2.47-12.34,1.69-17.22-2.17C2.34,28.17,.59,19.45,4.08,12.48l-1.95-1.27C-2,19.18-.05,29.24,7.26,35.01c5.74,4.54,13.7,5.36,20.22,2.2l2.15,2.55,2.89-8Z"/><path class="cls-2" d="M31.13,4.75C25.39,.21,17.43-.61,10.91,2.55L8.76,0l-2.89,8,8.37-1.5-1.78-2.11c5.63-2.47,12.34-1.69,17.22,2.17,6.35,5.02,8.1,13.74,4.61,20.72l1.95,1.27c4.13-7.98,2.18-18.04-5.12-23.81Z"/></g><g><path class="cls-1" d="M30.55,28.64L10.97,9.05l-.75,.75,3.84,3.84c-.18,.03-.32,.19-.33,.39-.06,.87,.18,1.67,.61,2.42,.05,.09,.13,.17,.21,.22,.09,.05,.13,.11,.15,.2,.08,.31,.15,.63,.26,.93,.46,1.33,1.32,2.25,2.72,2.63,.87,.23,1.91,.11,2.77-.4l1.14,1.14c-.53,1.68-1.05,3.36-1.63,5.02-.03-.03-.05-.05-.06-.07-.23-.65-.47-1.31-.69-1.96-.02-.05,0-.14,.03-.19,.27-.41,.52-.84,.64-1.32,.13-.51-.06-.9-.52-1.06-.43-.16-.87-.17-1.31-.03-.51,.16-.71,.53-.61,1.06,.01,.07,.04,.15,.06,.22,.13,.42,.37,.78,.59,1.14,.03,.05,.05,.15,.03,.2-.22,.64-.45,1.28-.69,1.92-.01,.04-.04,.08-.06,.12-.01,0-.03,0-.04,0-.65-2.05-1.3-4.09-1.96-6.16-.07,.04-.12,.07-.16,.09-1.22,.75-2.5,1.37-3.89,1.77-.32,.09-.64,.23-.91,.42-.53,.36-.77,.92-.87,1.52-.08,.44-.08,.9-.09,1.36-.01,.65,0,1.31,.14,1.95,.01,.06,.07,.14,.12,.17,.65,.31,1.29,.64,1.96,.9,1.52,.6,3.11,.95,4.73,1.12,.76,.08,1.53,.06,2.3,.07,.88,0,1.76,.01,2.63-.11,1.65-.24,3.27-.62,4.81-1.27,.44-.19,.87-.41,1.3-.62,.08-.04,.15-.09,.2-.16l2.17,2.17,.75-.75Z"/><path class="cls-1" d="M27.76,23.85c-.1-.6-.35-1.14-.84-1.53-.28-.22-.61-.33-.95-.43-.38-.11-.74-.26-1.1-.4l2.96,2.96c-.01-.2-.03-.41-.07-.6Z"/><path class="cls-1" d="M22.31,17.07c.02-.1,.05-.14,.16-.14,.09,0,.2-.04,.26-.1,.09-.07,.15-.18,.21-.28,.38-.7,.56-1.45,.53-2.25,0-.16-.05-.29-.18-.38-.09-.06-.1-.12-.08-.22,.14-.6,.18-1.21,.19-1.99,0-.38-.04-.9-.24-1.4-.16-.38-.37-.74-.75-.91-.31-.14-.56-.33-.76-.6-.03-.04-.07-.07-.1-.1-1.16-1.01-2.48-1.3-3.95-.89-.85,.24-1.56,.74-2.18,1.36-.51,.51-.9,1.08-1.14,1.74l7.54,7.54c.22-.44,.4-.89,.49-1.38Z"/></g></g></g></svg>