<?xml version="1.0" encoding="UTF-8"?><svg id="Layer_2" xmlns="http://www.w3.org/2000/svg" viewBox="0 0 36.69 40.01"><defs><style>.cls-1{fill:#fff;}</style></defs><g id="Layer_1-2"><g><path class="cls-1" d="M9.59,7.92v-3.24c0-.52,.42-.94,.94-.94h15.63c.52,0,.94,.42,.94,.94V25.43l3.75,3.75V3.75c0-2.07-1.68-3.75-3.75-3.75H9.59c-2.07,0-3.75,1.68-3.75,3.75v.42l3.75,3.75Z"/><path class="cls-1" d="M36.69,37.94l-5.84-5.84v-.02l-3.75-3.75v.02L9.59,10.84v-.02l-3.75-3.75v.02L1.45,2.7l-1.45,1.45,5.84,5.84v26.28c0,2.07,1.68,3.75,3.75,3.75H27.1c2.07,0,3.75-1.68,3.75-3.75v-1.26l4.39,4.39,1.45-1.45Zm-18.34-.42h0c-1.38,0-2.5-1.12-2.5-2.5s1.12-2.5,2.5-2.5,2.5,1.12,2.5,2.5c0,1.38-1.12,2.5-2.5,2.5Zm-7.82-7.5c-.52,0-.94-.42-.94-.94V13.74L25.87,30.01H10.53Z"/></g></g></svg>