<svg xmlns="http://www.w3.org/2000/svg" viewBox="0 0 45.8 38.08"><defs><style>.cls-1{fill:#fff;}</style></defs><g id="Layer_2" data-name="Layer 2"><g id="Layer_1-2" data-name="Layer 1"><path class="cls-1" d="M22.87,17a3.35,3.35,0,0,0,3.3-2.77.25.25,0,0,0-.3-.29h0a13.76,13.76,0,0,1-6,0h0a.25.25,0,0,0-.31.29A3.36,3.36,0,0,0,22.87,17Z"/><path class="cls-1" d="M34.67,15.73a1.18,1.18,0,0,1,1.29.81A18.23,18.23,0,0,1,36.57,19c.11.53.09,1.1.25,1.62a3.56,3.56,0,0,0,.65,1c.28.36.6.67.9,1l.75-1c.34-.45.68-.91,1-1.35a5.9,5.9,0,0,0,1.28-3.86c0-1.24.13-2.47.2-3.77A1.89,1.89,0,0,1,42.93,14c.21,1,.32,2,.45,3,.11.83.16,1.67.27,2.5,0,.17.18.31.27.47a1.41,1.41,0,0,0,.21-.54c-.12-1.25-.27-2.5-.42-3.83a2.75,2.75,0,0,1,1.16,1.89c.33,1.75.63,3.51.92,5.28a1.56,1.56,0,0,1-.08.74C44.89,26.24,44,29,43.23,31.67a6,6,0,0,0-.18,1.46c-.06,1.33-.1,2.66-.12,4a.57.57,0,0,1-.49.65,6.72,6.72,0,0,1-5-.4.76.76,0,0,1-.5-.84c.09-2.08.14-4.17.18-6.25a1,1,0,0,0-.2-.68,8.71,8.71,0,0,1-2.4-5.51,30,30,0,0,1,0-3.55C34.54,19,34.61,17.37,34.67,15.73Z"/><path class="cls-1" d="M11.13,15.73a1.18,1.18,0,0,0-1.29.81A18.23,18.23,0,0,0,9.23,19c-.11.53-.09,1.1-.25,1.62a3.56,3.56,0,0,1-.65,1c-.27.36-.6.67-.9,1l-.75-1c-.34-.45-.67-.91-1-1.35A5.83,5.83,0,0,1,4.38,16.4c0-1.24-.14-2.47-.21-3.77A1.89,1.89,0,0,0,2.87,14c-.21,1-.32,2-.45,3-.11.83-.16,1.67-.27,2.5,0,.17-.18.31-.27.47-.07-.18-.22-.37-.21-.54.12-1.25.27-2.5.42-3.83A2.75,2.75,0,0,0,.93,17.5C.6,19.25.31,21,0,22.78a1.69,1.69,0,0,0,.07.74C.91,26.24,1.76,29,2.57,31.67a6,6,0,0,1,.18,1.46c.06,1.33.1,2.66.12,4a.58.58,0,0,0,.49.65,6.72,6.72,0,0,0,5-.4.76.76,0,0,0,.5-.84c-.09-2.08-.14-4.17-.18-6.25a1,1,0,0,1,.2-.68,8.78,8.78,0,0,0,2.41-5.51,32.33,32.33,0,0,0,0-3.55C11.26,19,11.19,17.37,11.13,15.73Z"/><path class="cls-1" d="M33.52,17.16c0-.48,0-1,0-1.47l0-1,1-.08h.23a12.26,12.26,0,0,0-1.08-2.49L28.05,13.4a2,2,0,0,0-1.45,1.33,3.9,3.9,0,0,1-7.46,0,1.92,1.92,0,0,0-1.45-1.33L12,12.12a12.46,12.46,0,0,0-1.09,2.51h.3l1,.08,0,1c0,.49,0,1,0,1.47v.09l2.33.52a4.93,4.93,0,0,1,3.86,4.82V30a12.56,12.56,0,0,0,4.39.79,12.39,12.39,0,0,0,4.28-.75V22.61A4.92,4.92,0,0,1,31,17.8l2.51-.56Z"/><path class="cls-1" d="M5.34,13.74c.07.87.13,1.77.13,2.66a4.81,4.81,0,0,0,1,3.17c.28.34.54.69.8,1l.21.29,0,0a2.84,2.84,0,0,0,.39-.6A4.38,4.38,0,0,0,8,19.54c0-.24.06-.52.12-.81l0-.22a18.77,18.77,0,0,1,.61-2.34,2.38,2.38,0,0,1,.72-1,13.72,13.72,0,0,1,23-6.5,13.48,13.48,0,0,1,3.63,6.45A2.34,2.34,0,0,1,37,16.17a17.18,17.18,0,0,1,.61,2.34l0,.22c.06.29.09.57.12.81a4.38,4.38,0,0,0,.11.72,2.58,2.58,0,0,0,.4.6l0,0,.22-.29c.25-.34.51-.69.79-1a4.76,4.76,0,0,0,1-3.17c0-.89.06-1.79.13-2.66l0-.46A18.33,18.33,0,0,0,5.3,13.12C5.31,13.33,5.33,13.54,5.34,13.74Z"/><path class="cls-1" d="M36,30.27h0a9.06,9.06,0,0,1-2.15-3.74,13.18,13.18,0,0,1-1.3,1.5,13.71,13.71,0,0,1-19.4,0,14.17,14.17,0,0,1-1.25-1.44,9.05,9.05,0,0,1-2.14,3.68h0c0,.29,0,.59,0,.89A18.33,18.33,0,0,0,36,31.1C36,30.82,36,30.54,36,30.27Z"/></g></g></svg>