<svg xmlns="http://www.w3.org/2000/svg" viewBox="0 0 17.75 29.88"><defs><style>.cls-1{fill:#ed1c24;}</style></defs><g id="Layer_2" data-name="Layer 2"><g id="Layer_1-2" data-name="Layer 1"><path class="cls-1" d="M1.37,2.31H.44C.11,2.3,0,2.2,0,1.87c0-.48,0-1,0-1.44C0,.14.13,0,.42,0h16.7c.59,0,.63,0,.63.62,0,.41,0,.82,0,1.23s-.11.45-.45.46h-.88a2.27,2.27,0,0,1,0,.37,11,11,0,0,0,0,2.29,9.76,9.76,0,0,1-2.74,6.89c-.6.67-1.27,1.28-1.91,1.91-.26.26-.52.52-.76.8s-.25.44,0,.74a11.77,11.77,0,0,0,.85.88,21.11,21.11,0,0,1,2.69,2.9,9.83,9.83,0,0,1,1.8,7.16,6.11,6.11,0,0,0,.08,1.2c0,.05.13.12.21.12.24,0,.48,0,.72,0a.35.35,0,0,1,.39.39V29.5a.34.34,0,0,1-.37.38,2.62,2.62,0,0,1-.28,0H.64c-.6,0-.64,0-.64-.64V28a.36.36,0,0,1,.4-.41h.7c.17,0,.23-.06.24-.24a17.94,17.94,0,0,0,0-1.94,9.85,9.85,0,0,1,2.9-7.58c.67-.71,1.39-1.36,2.08-2.05s.78-.89,0-1.65-1.41-1.35-2.08-2A9.92,9.92,0,0,1,1.44,6.5a21,21,0,0,1-.07-2.38C1.36,3.53,1.37,3,1.37,2.31Zm8.57,24c1.8,0,3.61,0,5.41,0,.23,0,.32-.06.35-.31a9.23,9.23,0,0,0-1-5.38A14.45,14.45,0,0,0,11.73,17a13.51,13.51,0,0,1-1.15-1.24,1.17,1.17,0,0,1,0-1.64c.32-.41.7-.77,1.06-1.15.66-.69,1.36-1.34,2-2.07a9.08,9.08,0,0,0,2.1-7c0-.24-.12-.31-.35-.31H2.41c-.24,0-.33.07-.35.31A9.15,9.15,0,0,0,3.22,9.56,15.14,15.14,0,0,0,6,12.87a11.83,11.83,0,0,1,1.15,1.2,1.21,1.21,0,0,1,0,1.74c-.32.4-.7.75-1,1.13-.68.72-1.41,1.4-2,2.17a9.06,9.06,0,0,0-2,6.81c0,.27.12.34.39.34C4.21,26.25,8.17,26.26,9.94,26.26Z"/><path class="cls-1" d="M9.57,24.43h3.5c.16,0,.21,0,.23-.19.12-1.13-.07-.9-.66-1.91a9,9,0,0,0-1.91-2.14,7.48,7.48,0,0,1-.75-.74c-1-.73-1-.73-2.23,0a3.93,3.93,0,0,0-.68.67c-.44.43-.92.84-1.32,1.3-1,1.18-1.46,1.25-1.3,2.77,0,.16.08.2.25.2Z"/></g></g></svg>