<?xml version="1.0" encoding="UTF-8"?><svg id="Layer_2" xmlns="http://www.w3.org/2000/svg" viewBox="0 0 33.07 40.86"><defs><style>.cls-1{fill:#fff;}</style></defs><g id="Layer_1-2"><g><g id="Icon_awesome-map-marker-alt"><path class="cls-1" d="M16.72,32.56C7.29,18.89,5.54,17.49,5.54,12.46,5.54,5.58,11.12,0,18,0c6.88,0,12.46,5.58,12.46,12.46h0c0,5.04-1.75,6.43-11.18,20.1-.5,.71-1.49,.87-2.2,.37-.14-.1-.27-.23-.37-.37Zm1.28-14.91c2.87,0,5.19-2.33,5.19-5.19,0-2.87-2.33-5.19-5.19-5.19-2.86,0-5.19,2.32-5.19,5.19,0,2.87,2.32,5.19,5.19,5.19,0,0,0,0,0,0h0Z"/></g><path class="cls-1" d="M10.04,40.85c-.18,0-.37,0-.55-.01l.1-2c.17,0,.34,.01,.5,.01,1.32,0,2.67-.25,4.02-.73l.68,1.88c-1.58,.57-3.17,.88-4.74,.85Zm-5.75-1.4c-2.69-1.35-4.22-3.2-4.29-3.27l1.55-1.27-.77,.63,.77-.64s1.34,1.61,3.64,2.75l-.89,1.79Zm15.12-1.95l-1.16-1.63c.23-.16,.46-.33,.69-.51,1.24-.96,2.51-1.7,3.78-2.2l.73,1.86c-1.09,.42-2.19,1.07-3.28,1.91-.25,.2-.5,.38-.75,.56Zm12.32-1.08c-1.12-1.03-2.47-1.7-3.9-1.93l.32-1.97c1.82,.3,3.52,1.14,4.93,2.43l-1.35,1.47Z"/></g></g></svg>