<?xml version="1.0" encoding="UTF-8"?><svg id="Layer_2" xmlns="http://www.w3.org/2000/svg" viewBox="0 0 29.83 39.46"><defs><style>.cls-1{fill:#fff;}</style></defs><g id="Layer_1-2"><g><g id="Icon_awesome-map-marker-alt"><path class="cls-1" d="M13.8,32.56C4.37,18.89,2.62,17.49,2.62,12.46,2.62,5.58,8.2,0,15.08,0c6.88,0,12.46,5.58,12.46,12.46h0c0,5.04-1.75,6.43-11.18,20.1-.5,.71-1.49,.87-2.2,.37-.14-.1-.27-.23-.37-.37Zm1.28-14.91c2.87,0,5.19-2.33,5.19-5.19,0-2.87-2.33-5.19-5.19-5.19-2.86,0-5.19,2.32-5.19,5.19,0,2.87,2.32,5.19,5.19,5.19,0,0,0,0,0,0h0Z"/></g><g id="Group_6203"><path id="Path_26486" class="cls-1" d="M14.77,39.46c-7.62,0-14.77-2.3-14.77-6.15,0-2.66,6.42-4.28,9.24-4.32h.21c-5.73,.83-8.73,2.8-8.73,4.32,0,2.21,6.01,4.69,14.05,4.69s14.05-2.48,14.05-4.69c0-1.4-2.57-3.33-8.22-4.24h.24c1.37-.04,8.99,1.68,8.99,4.24-.01,3.85-7.44,6.15-15.06,6.15Z"/></g></g></g></svg>