<svg xmlns="http://www.w3.org/2000/svg" viewBox="0 0 94.67 59.7"><defs><style>.cls-1{fill-rule:evenodd;}</style></defs><g id="Layer_2" data-name="Layer 2"><g id="Layer_1-2" data-name="Layer 1"><path class="cls-1" d="M94.65,17.89l-.87-3.22a2.78,2.78,0,0,0-2.5-2H81.74L73.51,2.64A4.71,4.71,0,0,0,70.33.87a306.57,306.57,0,0,0-46.06,0,4.71,4.71,0,0,0-3.18,1.77L12.87,12.7H3.33a2.79,2.79,0,0,0-2.51,2L0,17.61a.93.93,0,0,0,.51,1.07L6,21.14l-2.21,2.7a10.35,10.35,0,0,0-2,6.8v27a2,2,0,0,0,2,2H18.77a2,2,0,0,0,2-2v-3h54v3a2,2,0,0,0,2,2H90.77a2,2,0,0,0,2-2v-27a10.29,10.29,0,0,0-2-6.8l-2.2-2.7,5.43-2.46C94.46,18.5,94.76,18.32,94.65,17.89Zm-80.34.05L24.4,5.37A2.36,2.36,0,0,1,26,4.44C44,3.23,51.6,3.37,69.43,4.44a2.36,2.36,0,0,1,1.64.93L81.16,17.94c.32.44.21,1-.64.91-25.26-1.3-40.31-1.42-65.57,0C14.1,19,14,18.38,14.31,17.94ZM67.65,35.46l-2.2,8.83A4.86,4.86,0,0,1,60.73,48H35.87a4.85,4.85,0,0,1-4.71-3.68L29,35.46a4.85,4.85,0,0,1,4.71-6H62.94A4.85,4.85,0,0,1,67.65,35.46ZM18.57,46.7H8.21a3.19,3.19,0,0,1-3-4.15l.43-1.37A3.19,3.19,0,0,1,9.08,39L19,40.35a3.19,3.19,0,0,1-.44,6.35Zm5.35-12.91-13.6-.51A3.69,3.69,0,0,1,6.8,29.63V26.76a1.25,1.25,0,0,1,1.35-1.29l13.57,1.68a3.61,3.61,0,0,1,3.08,3.48v2.31A.85.85,0,0,1,23.92,33.79ZM71.3,52.7h-46a.5.5,0,0,1-.5-.5.5.5,0,0,1,.5-.5h46a.5.5,0,0,1,.5.5A.5.5,0,0,1,71.3,52.7Zm14.27-5.91H75.21a3.19,3.19,0,0,1-.43-6.36l9.93-1.36a3.2,3.2,0,0,1,3.48,2.2l.43,1.36A3.2,3.2,0,0,1,85.57,46.79Zm3.23-20v2.87a3.69,3.69,0,0,1-3.52,3.65l-13.6.51a.84.84,0,0,1-.88-.85V30.35a3.29,3.29,0,0,1,2.8-3.17l13.85-1.71A1.25,1.25,0,0,1,88.8,26.76Z"/></g></g></svg>