<svg xmlns="http://www.w3.org/2000/svg" viewBox="0 0 86 54.23"><defs><style>.cls-1{fill:#fff;fill-rule:evenodd;}</style></defs><g id="Layer_2" data-name="Layer 2"><g id="Layer_1-2" data-name="Layer 1"><path class="cls-1" d="M86,16.25l-.79-2.93a2.52,2.52,0,0,0-2.27-1.78H74.25L66.78,2.4A4.26,4.26,0,0,0,63.89.79a278.26,278.26,0,0,0-41.84,0A4.24,4.24,0,0,0,19.16,2.4l-7.47,9.14H3A2.51,2.51,0,0,0,.75,13.32L0,16a.83.83,0,0,0,.46,1L5.42,19.2l-2,2.46a9.34,9.34,0,0,0-1.77,6.17V52.39a1.85,1.85,0,0,0,1.84,1.84H17.05a1.85,1.85,0,0,0,1.85-1.84v-2.7H68v2.7a1.85,1.85,0,0,0,1.84,1.84H82.46a1.85,1.85,0,0,0,1.84-1.84V27.83a9.35,9.35,0,0,0-1.78-6.17l-2-2.46L85.45,17C85.81,16.8,86.08,16.64,86,16.25Zm-73,0L22.17,4.88A2.09,2.09,0,0,1,23.65,4c16.27-1.1,23.22-1,39.42,0a2.09,2.09,0,0,1,1.49.84l9.17,11.41c.28.41.19.94-.58.83a481.3,481.3,0,0,0-59.57,0C12.81,17.23,12.71,16.7,13,16.29ZM61.46,32.22l-2,8a4.41,4.41,0,0,1-4.28,3.34H32.58a4.42,4.42,0,0,1-4.28-3.34l-2-8a4.41,4.41,0,0,1,4.28-5.49h26.6A4.42,4.42,0,0,1,61.46,32.22ZM16.87,42.42H7.46a2.9,2.9,0,0,1-2.77-3.77l.39-1.24a2.9,2.9,0,0,1,3.16-2l9,1.24a2.9,2.9,0,0,1-.4,5.77ZM21.73,30.7,9.37,30.23a3.35,3.35,0,0,1-3.19-3.32v-2.6A1.14,1.14,0,0,1,7.4,23.13l12.33,1.53a3.29,3.29,0,0,1,2.8,3.17v2.1A.78.78,0,0,1,21.73,30.7Zm43,17.22H23a.5.5,0,0,1,0-1H64.77a.5.5,0,0,1,0,1Zm13-5.42H68.32a2.9,2.9,0,0,1-.39-5.77l9-1.24a2.9,2.9,0,0,1,3.16,2l.39,1.24A2.9,2.9,0,0,1,77.73,42.5Zm2.94-18.19v2.6a3.36,3.36,0,0,1-3.2,3.32l-12.36.47a.77.77,0,0,1-.79-.77V27.57a3,3,0,0,1,2.54-2.88l12.58-1.56A1.15,1.15,0,0,1,80.67,24.31Z"/></g></g></svg>