<?xml version="1.0" encoding="UTF-8"?><svg id="Layer_2" xmlns="http://www.w3.org/2000/svg" viewBox="0 0 17.51 40.08"><defs><style>.cls-1{fill:#fff;}</style></defs><g id="Layer_1-2"><g><path class="cls-1" d="M15.95,40.08c-.14-.11-.36-.2-.41-.34-.58-1.64-1.45-2.16-3.19-1.87-.19-.82-.62-1.43-1.57-1.41-.83,.02-1.26,.55-1.45,1.31-.9-.45-1.24-.42-1.88,.14-.19-.35-.31-.79-.6-1.04-.28-.24-.73-.38-1.11-.39-.75-.02-1.19,.51-1.38,1.47-.31,0-.62-.04-.92,0-1,.15-1.72,.68-2.03,1.67-.1,.32-.24,.49-.59,.35-.01-1.26,1.13-2.41,2.6-2.57,.35-.04,.53-.13,.71-.46,.72-1.32,2.51-1.39,3.39-.15,.06,.09,.12,.18,.15,.22,.41,0,.78,.02,1.14,0,.12,0,.27-.1,.35-.19,1.08-1.26,2.53-1.2,3.45,.15,.1,.15,.38,.24,.58,.25,1.6,.05,2.89,1.27,2.77,2.88Z"/><g><path class="cls-1" d="M5.68,4.38c2.05,1.2,4.1,1.19,6.22-.03,.35,.81,.72,1.58,1.01,2.38,1.64,4.51,1.56,9.05,.11,13.57-.43,1.35-1.03,2.65-1.55,3.97-.1,.26-.25,.36-.55,.36-1.44-.02-2.88,0-4.32-.02-.16,0-.41-.11-.48-.24-1.58-3.27-2.62-6.68-2.71-10.34-.08-3.35,.64-6.52,2.15-9.52,.02-.04,.05-.07,.11-.14Zm1.54,9.4c.85,.86,2.2,.87,3.05,.03,.83-.83,.85-2.19,.03-3.03-.83-.85-2.21-.86-3.06-.02-.84,.83-.85,2.18-.02,3.02Z"/><path class="cls-1" d="M3.07,17.25c.25,.99,.46,1.95,.74,2.9,.28,.95,.63,1.87,.96,2.84-2.29,1.43-2.98,3.81-3.61,6.37C.23,27.01-.27,24.71,.15,22.28c.35-2,1.66-4.26,2.92-5.02Z"/><path class="cls-1" d="M14.43,17.25c3.08,1.9,4.07,8.04,1.94,12.03-.18-.66-.34-1.3-.54-1.92-.44-1.34-1.03-2.6-2.06-3.59-.2-.19-.4-.41-.64-.52-.41-.18-.34-.39-.23-.75,.5-1.61,.96-3.23,1.43-4.84,.04-.13,.06-.27,.1-.42Z"/><path class="cls-1" d="M5.92,3.7c.9-1.21,1.8-2.42,2.75-3.7,1.23,1.18,2.09,2.45,2.88,3.78-1.51,1.17-4.24,1.16-5.63-.08Z"/><path class="cls-1" d="M6.98,27.86c0-.43,0-.86,0-1.25,1.19,0,2.36,0,3.58,0-.03,.39-.07,.83-.11,1.25-1.09,0-2.27,.01-3.46,.02Z"/><path class="cls-1" d="M5.6,25.8c0-.12,0-.32-.01-.48,2.14,0,4.21,0,6.29,0,0,.14,0,.33,0,.49-2.06,0-4.14,0-6.27,0Z"/><path class="cls-1" d="M8.99,35.75c-.22-.11-.39-.16-.51-.27-.06-.06-.04-.22-.04-.34,0-1.68,0-3.37,0-5.05,0-.09-.02-.19,.01-.26,.06-.1,.17-.25,.25-.24,.12,0,.24,.12,.33,.22,.04,.04,.03,.14,.03,.21,0,1.74,0,3.49,0,5.23,0,.12-.04,.25-.09,.5Z"/><path class="cls-1" d="M4.79,27.86c.02,.16,.06,.29,.06,.41,0,1.15,0,2.3,0,3.45,0,.24-.03,.49-.32,.45-.12-.02-.3-.27-.3-.42-.03-1.16-.02-2.33,0-3.49,0-.14,.12-.31,.22-.42,.05-.05,.2,.01,.34,.03Z"/><path class="cls-1" d="M6.89,29.63c.03,.16,.07,.28,.08,.41,0,1.09,0,2.18,0,3.27,0,.23-.01,.47-.32,.47-.3,0-.32-.24-.32-.47,0-1.09,0-2.18,0-3.27,0-.15,.11-.31,.21-.43,.04-.05,.2,.02,.34,.03Z"/><path class="cls-1" d="M13.24,27.85c.02,.16,.06,.28,.06,.41,0,1.16,0,2.32,0,3.48,0,.24-.05,.49-.33,.43-.12-.02-.28-.27-.29-.42-.02-1.16-.02-2.32,0-3.48,0-.15,.11-.31,.21-.43,.05-.05,.21,0,.35,.01Z"/><path class="cls-1" d="M11.14,29.64c.02,.16,.05,.28,.05,.41,0,1.09,0,2.17,0,3.26,0,.22,0,.47-.31,.46-.3,0-.32-.24-.32-.47,0-1.1,0-2.2,.01-3.31,0-.14,.12-.3,.23-.41,.04-.04,.2,.03,.34,.05Z"/></g></g></g></svg>