<?xml version="1.0" encoding="UTF-8"?><svg id="Layer_2" xmlns="http://www.w3.org/2000/svg" viewBox="0 0 37.31 39.8"><defs><style>.cls-1{fill:#fff;}</style></defs><g id="Layer_1-2"><path id="Icon_metro-calendar" class="cls-1" d="M12.44,14.93h4.97v4.97h-4.97v-4.97Zm7.46,0h4.97v4.97h-4.97v-4.97Zm7.46,0h4.97v4.97h-4.97v-4.97ZM4.97,29.85h4.97v4.97H4.97v-4.97Zm7.46,0h4.97v4.97h-4.97v-4.97Zm7.46,0h4.97v4.97h-4.97v-4.97Zm-7.46-7.46h4.97v4.97h-4.97v-4.97Zm7.46,0h4.97v4.97h-4.97v-4.97Zm7.46,0h4.97v4.97h-4.97v-4.97Zm-22.39,0h4.97v4.97H4.97v-4.97ZM32.34,0V2.49h-4.97V0H9.94V2.49H4.97V0H0V39.8H37.31V0h-4.97Zm2.49,37.31H2.49V9.95H34.82v27.36Z"/></g></svg>