<svg xmlns="http://www.w3.org/2000/svg" viewBox="0 0 31.3 26.74"><defs><style>.cls-1{fill:#ed1c24;}</style></defs><g id="Layer_2" data-name="Layer 2"><g id="Layer_1-2" data-name="Layer 1"><path class="cls-1" d="M27.81,26.74H3.49a3.49,3.49,0,0,1-3-5.31L12.68,1.66h0a3.49,3.49,0,0,1,5.94,0L30.77,21.43a3.48,3.48,0,0,1-3,5.31Zm-13.43-24L2.23,22.48a1.48,1.48,0,0,0,1.26,2.26H27.81A1.46,1.46,0,0,0,29.1,24a1.44,1.44,0,0,0,0-1.5L16.91,2.71a1.52,1.52,0,0,0-2.53,0Z"/><path class="cls-1" d="M14.49,19.92a1.23,1.23,0,0,1,1.26-1.3A1.2,1.2,0,0,1,17,19.92a1.24,1.24,0,1,1-2.47,0ZM15,17l-.29-10.1h2L16.44,17Z"/></g></g></svg>