<?xml version="1.0" encoding="utf-8"?>
<!-- Generator: Adobe Illustrator 24.3.0, SVG Export Plug-In . SVG Version: 6.00 Build 0)  -->
<svg version="1.1" id="Layer_1" xmlns="http://www.w3.org/2000/svg" xmlns:xlink="http://www.w3.org/1999/xlink" x="0px" y="0px"
	 viewBox="0 0 32 31" style="enable-background:new 0 0 32 31;" xml:space="preserve">
<style type="text/css">
	.st0{fill:#666666;}
</style>
<g>
	<path class="st0" d="M23,14h-1v-2.8C22,7.8,19.3,5,16,5s-6,2.8-6,6.2V14H9c-0.3,0-0.5,0.2-0.5,0.5v11C8.5,25.8,8.7,26,9,26h14
		c0.3,0,0.5-0.2,0.5-0.5v-11C23.5,14.2,23.3,14,23,14z M11,11.2C11,8.3,13.2,6,16,6s5,2.3,5,5.2V14H11V11.2z M22.5,25h-13V15h13V25z
		"/>
	<g>
		<path class="st0" d="M16.7,20.1l0.1,1.9h-1.6l0.1-1.9c-0.3-0.2-0.5-0.6-0.5-1c0-0.7,0.5-1.2,1.2-1.2c0.7,0,1.2,0.5,1.2,1.2
			C17.2,19.5,17,19.9,16.7,20.1z"/>
	</g>
</g>
</svg>
