<?xml version="1.0" encoding="utf-8"?>
<!-- Generator: Adobe Illustrator 24.3.0, SVG Export Plug-In . SVG Version: 6.00 Build 0)  -->
<svg version="1.1" id="Layer_1" xmlns="http://www.w3.org/2000/svg" xmlns:xlink="http://www.w3.org/1999/xlink" x="0px" y="0px"
	 viewBox="0 0 32 31" style="enable-background:new 0 0 32 31;" xml:space="preserve">
<style type="text/css">
	.st0{fill:#666666;}
</style>
<g>
	<g>
		<path class="st0" d="M26.2,25.4c-0.1,0-0.2,0-0.3-0.1l-5.3-4.8c-0.1-0.1-0.2-0.2-0.2-0.4s0.1-0.3,0.2-0.4l5.3-4.8
			c0.1-0.1,0.4-0.2,0.5-0.1c0.2,0.1,0.3,0.3,0.3,0.5v9.5c0,0.2-0.1,0.4-0.3,0.5C26.4,25.3,26.3,25.4,26.2,25.4z M21.7,20.1l4,3.6
			v-7.3L21.7,20.1z"/>
	</g>
	<path class="st0" d="M17.9,13.1H16c-0.3,0.3-0.6,0.7-0.8,1h2.7c0.8,0,1.4,0.6,1.4,1.4v9.3c0,0.7-0.6,1.4-1.4,1.4H7.6
		c-0.8,0-1.4-0.6-1.4-1.4v-9.3c0-0.7,0.6-1.4,1.4-1.4h1.6c0.1-0.3,0.2-0.7,0.3-1H7.6c-1.3,0-2.4,1.1-2.4,2.4v9.3
		c0,1.3,1.1,2.4,2.4,2.4h10.3c1.3,0,2.4-1.1,2.4-2.4v-9.3C20.2,14.2,19.2,13.1,17.9,13.1z"/>
	<path class="st0" d="M22.8,5.5l-6.8-1.6L17,6.5c-5.3,2.9-7.3,9.2-5.9,15.9c-1-5.1,2.3-11,7-13.3l1,2.4L22.8,5.5z"/>
</g>
</svg>
