<?xml version="1.0" encoding="utf-8"?>
<!-- Generator: Adobe Illustrator 24.3.0, SVG Export Plug-In . SVG Version: 6.00 Build 0)  -->
<svg version="1.1" id="Layer_1" xmlns="http://www.w3.org/2000/svg" xmlns:xlink="http://www.w3.org/1999/xlink" x="0px" y="0px"
	 viewBox="0 0 32 31" style="enable-background:new 0 0 32 31;" xml:space="preserve">
<style type="text/css">
	.st0{fill:#666666;}
</style>
<g>
	<g>
		<g>
			<path class="st0" d="M24,26c-0.1,0-0.2,0-0.2,0c-3.2-0.3-6.2-1.4-8.9-3.2c-2.5-1.6-4.6-3.7-6.2-6.2C6.9,14,5.8,10.9,5.5,7.7
				C5.4,6.4,6.4,5.1,7.8,5C7.9,5,7.9,5,8,5h3c1.3,0,2.4,0.9,2.5,2.2c0.1,0.9,0.4,1.8,0.7,2.7l0,0.1c0.3,0.9,0,1.9-0.6,2.5l-1,1
				c1.3,2.2,3.1,4,5.3,5.3l1-1c0.7-0.7,1.7-0.9,2.6-0.6c0.9,0.3,1.8,0.6,2.7,0.7c1.3,0.2,2.2,1.3,2.2,2.5v3C26.5,24.9,25.4,26,24,26
				z M11,6C11,6,11,6,11,6H8c0,0-0.1,0-0.1,0C7,6.1,6.4,6.8,6.5,7.6c0.3,3,1.4,5.9,3,8.5c1.5,2.4,3.5,4.4,5.9,5.9
				c2.5,1.6,5.5,2.7,8.5,3c0,0,0.1,0,0.1,0c0.8,0,1.5-0.7,1.5-1.5v-3c0,0,0,0,0,0c0-0.8-0.5-1.4-1.3-1.5c-1-0.1-2-0.4-2.9-0.7
				c-0.6-0.2-1.2-0.1-1.6,0.3l-1.3,1.3C18.2,20,18,20,17.8,19.9c-2.6-1.5-4.7-3.6-6.2-6.2c-0.1-0.2-0.1-0.4,0.1-0.6l1.3-1.3
				c0.4-0.4,0.5-1,0.4-1.5l0-0.1c-0.3-0.9-0.6-1.9-0.7-2.9C12.5,6.6,11.8,6,11,6z"/>
		</g>
	</g>
</g>
</svg>
