<?xml version="1.0" encoding="utf-8"?>
<!-- Generator: Adobe Illustrator 24.3.0, SVG Export Plug-In . SVG Version: 6.00 Build 0)  -->
<svg version="1.1" id="Layer_1" xmlns="http://www.w3.org/2000/svg" xmlns:xlink="http://www.w3.org/1999/xlink" x="0px" y="0px"
	 viewBox="0 0 32 31" style="enable-background:new 0 0 32 31;" xml:space="preserve">
<style type="text/css">
	.st0{fill:#666666;}
</style>
<g>
	<path class="st0" d="M18,16.1c-0.5-0.5-1.2-0.5-1.7,0l-1.2,1.2l-1-1l1.2-1.2c0.5-0.5,0.5-1.2,0-1.7c-0.5-0.5-1.2-0.5-1.7,0
		l-1.2,1.2l-0.9-0.9c-0.2-0.2-0.5-0.2-0.7,0l-1.4,1.4c-0.1,0.1-0.1,0.2-0.1,0.3c0,0.1,0.1,0.2,0.1,0.3l0.1,0.1L6,19.4
		c-0.2,0.2-0.2,0.5,0,0.7l2.2,2.1l-4.5,4.4c-0.2,0.2-0.2,0.5,0,0.7c0.1,0.1,0.2,0.1,0.3,0.1c0.1,0,0.2,0,0.3-0.1l4.5-4.4l2.4,2.4
		c0.1,0.1,0.2,0.1,0.3,0.1c0.2,0,0.2-0.1,0.3-0.1l3.4-3.5l0.2,0.2c0.1,0.1,0.2,0.1,0.3,0.1c0.1,0,0.2,0,0.3-0.1l1.4-1.4
		c0.1-0.1,0.1-0.2,0.1-0.3c0-0.1-0.1-0.2-0.1-0.3l-0.8-0.8l1.2-1.2C18.4,17.4,18.4,16.6,18,16.1z M14.2,14.1c0.1-0.1,0.3-0.1,0.4,0
		c0.1,0.1,0.1,0.3,0,0.4l-1.2,1.2L13,15.3L14.2,14.1z M11.6,24.3L7,19.8l3.1-3.2l4.6,4.5L11.6,24.3z M15.8,21l-5.5-5.5l0.8-0.8
		l0.9,0.9c0,0,0,0,0,0l1,1c0,0,0,0,0,0l1.7,1.7c0,0,0,0,0,0l1,1c0,0,0,0,0,0l0.8,0.8L15.8,21z M17.3,17.2l-1.2,1.2L15.7,18l1.2-1.2
		c0,0,0.1-0.1,0.2-0.1c0.1,0,0.1,0,0.2,0.1c0,0,0.1,0.1,0.1,0.2C17.4,17.1,17.3,17.1,17.3,17.2z"/>
	<g>
		<g>
			<g>
				<path class="st0" d="M22.4,15.8c-3.4,0-6.1-2.7-6.1-6.1s2.7-6.1,6.1-6.1s6.1,2.7,6.1,6.1S25.8,15.8,22.4,15.8z M22.4,4.5
					c-2.9,0-5.2,2.3-5.2,5.2s2.3,5.2,5.2,5.2s5.2-2.3,5.2-5.2S25.2,4.5,22.4,4.5z"/>
			</g>
		</g>
		<path class="st0" d="M23,9.6l1.5-1.5c0.2-0.2,0.2-0.5,0-0.7c-0.2-0.2-0.5-0.2-0.7,0L22.4,9l-1.5-1.5c-0.2-0.2-0.5-0.2-0.7,0
			c-0.2,0.2-0.2,0.5,0,0.7l1.5,1.5l-1.5,1.5c-0.2,0.2-0.2,0.5,0,0.7c0.1,0.1,0.2,0.1,0.3,0.1s0.2,0,0.3-0.1l1.5-1.5l1.5,1.5
			c0.1,0.1,0.2,0.1,0.3,0.1s0.2,0,0.3-0.1c0.2-0.2,0.2-0.5,0-0.7L23,9.6z"/>
	</g>
</g>
</svg>
