<?xml version="1.0" encoding="utf-8"?>
<!-- Generator: Adobe Illustrator 24.3.0, SVG Export Plug-In . SVG Version: 6.00 Build 0)  -->
<svg version="1.1" id="Layer_1" xmlns="http://www.w3.org/2000/svg" xmlns:xlink="http://www.w3.org/1999/xlink" x="0px" y="0px"
	 viewBox="0 0 32 31" style="enable-background:new 0 0 32 31;" xml:space="preserve">
<style type="text/css">
	.st0{fill:#666666;}
</style>
<g>
	<path class="st0" d="M22,5c-3.3,0-6,3-6,6.7V14H4.5C4.2,14,4,14.2,4,14.5v11C4,25.8,4.2,26,4.5,26h14c0.3,0,0.5-0.2,0.5-0.5v-11
		c0-0.3-0.2-0.5-0.5-0.5H17v-2.3C17,8.6,19.2,6,22,6s5,2.6,5,5.7V15h1v-3.3C28,8,25.3,5,22,5z M18,15v10H5V15h11h1H18z"/>
	<g>
		<path class="st0" d="M12.1,20.3l0.1,1.7h-1.5l0.1-1.7c-0.3-0.2-0.5-0.5-0.5-0.9c0-0.6,0.5-1.1,1.1-1.1c0.6,0,1.1,0.5,1.1,1.1
			C12.6,19.7,12.4,20.1,12.1,20.3z"/>
	</g>
</g>
</svg>
