<?xml version="1.0" encoding="utf-8"?>
<!-- Generator: Adobe Illustrator 24.3.0, SVG Export Plug-In . SVG Version: 6.00 Build 0)  -->
<svg version="1.1" id="Layer_1" xmlns="http://www.w3.org/2000/svg" xmlns:xlink="http://www.w3.org/1999/xlink" x="0px" y="0px"
	 viewBox="0 0 32 31" style="enable-background:new 0 0 32 31;" xml:space="preserve">
<style type="text/css">
	.st0{fill:#666666;}
</style>
<g>
	<path class="st0" d="M16,11.5c1.1,0,2,0.9,2,2s-0.9,2-2,2s-2-0.9-2-2S14.9,11.5,16,11.5 M16,10.5c-1.7,0-3,1.3-3,3s1.3,3,3,3
		c1.7,0,3-1.3,3-3S17.7,10.5,16,10.5L16,10.5z"/>
	<path class="st0" d="M16,6.5c4.1,0,7.5,3.3,7.5,7.3c0,4.4-5.7,9-7.5,10.4c-1.8-1.4-7.5-6-7.5-10.4C8.5,9.8,11.9,6.5,16,6.5 M16,5.5
		c-4.7,0-8.5,3.7-8.5,8.3c0,5.8,8.5,11.7,8.5,11.7s8.5-5.8,8.5-11.7C24.5,9.2,20.7,5.5,16,5.5L16,5.5z"/>
</g>
</svg>
