<?xml version="1.0" encoding="utf-8"?>
<!-- Generator: Adobe Illustrator 24.3.0, SVG Export Plug-In . SVG Version: 6.00 Build 0)  -->
<svg version="1.1" id="Layer_1" xmlns="http://www.w3.org/2000/svg" xmlns:xlink="http://www.w3.org/1999/xlink" x="0px" y="0px"
	 viewBox="0 0 22 22" style="enable-background:new 0 0 22 22;" xml:space="preserve">
<style type="text/css">
	.st0{fill:#FFFFFF;}
</style>
<g>
	<path class="st0" d="M21.3,6.2h-0.7V3.8c0-0.6-0.5-1-1-1h-1.9V0.3c0-0.2-0.1-0.3-0.3-0.3c-0.1,0-0.1,0-0.2,0.1l-0.8,1.3v2.9
		l-0.2-0.7C15.8,2.7,15,2.1,14,2H8c-1,0-1.8,0.6-2.1,1.5L5.6,4.3V1.4L4.8,0.1C4.7,0,4.5,0,4.4,0.1c0,0.1-0.1,0.1-0.1,0.2v2.4H2.4
		c-0.6,0-1,0.5-1,1v2.5H0.7C0.3,6.2,0,6.5,0,6.9c0,0,0,0,0,0v2.7c0,0.4,0.3,0.7,0.7,0.7h0.7v1c0,0.5,0.5,1,1,1h1.9V13H3.7
		c-0.8,0-1.5,0.7-1.5,1.5v3.3H1.6v1.4c0,0.4,0.3,0.7,0.7,0.7h0.7v1.4c0,0.4,0.3,0.7,0.6,0.7c0,0,0,0,0,0h2c0.4,0,0.7-0.3,0.7-0.7
		v-1.3h9.4v1.4c0,0.4,0.3,0.7,0.7,0.7h2c0.4,0,0.7-0.3,0.7-0.7c0,0,0,0,0,0v-1.4h0.7c0.4,0,0.7-0.3,0.7-0.7v-1.4h-0.7v-3.3
		c0-0.8-0.7-1.5-1.5-1.5h-0.6v-0.7h1.9c0.6,0,1-0.5,1-1v-1h0.7c0.4,0,0.7-0.3,0.7-0.7V6.8C22,6.5,21.7,6.2,21.3,6.2z M2.4,11.7
		c-0.2,0-0.4-0.2-0.4-0.4v-1.1c0.4,0,0.7-0.3,0.7-0.7c0,0,0,0,0,0V6.8c0-0.3-0.3-0.6-0.7-0.6l0,0V3.8c0-0.2,0.2-0.3,0.4-0.3h1.9v8.2
		H2.4z M6.3,16.5c0,0.4-0.3,0.7-0.7,0.7H4.9c-0.4,0-0.7-0.3-0.7-0.7c0,0,0,0,0,0v-2.1c0-0.4,0.3-0.7,0.7-0.7c0,0,0,0,0,0h0.7
		c0.4,0,0.7,0.3,0.7,0.7c0,0,0,0,0,0L6.3,16.5z M14.4,17.2c0,0.4-0.3,0.7-0.7,0.7H8.3c-0.4,0-0.7-0.3-0.7-0.7v-0.7h6.7V17.2z
		 M14.4,15.8H7.6v-0.7h6.7V15.8z M14.4,14.5H7.6v-0.7h6.7V14.5z M14.4,13.1H7.6v-0.7c0-0.4,0.3-0.7,0.6-0.7c0,0,0,0,0,0h5.4
		c0.4,0,0.7,0.3,0.7,0.6c0,0,0,0,0,0L14.4,13.1z M15,9.6H7C6.6,9.6,6.3,9.3,6.3,9c0,0,0,0,0,0V6.8c0-0.4,0.3-0.7,0.7-0.7H15
		c0.4,0,0.7,0.3,0.7,0.7v2.1C15.7,9.3,15.4,9.6,15,9.6C15,9.6,15,9.6,15,9.6L15,9.6z M17.7,16.5c0,0.4-0.3,0.7-0.7,0.7c0,0,0,0,0,0
		h-0.7c-0.4,0-0.7-0.3-0.7-0.7v-2.1c0-0.4,0.3-0.7,0.7-0.7c0,0,0,0,0,0H17c0.4,0,0.7,0.3,0.7,0.7c0,0,0,0,0,0V16.5z M20,6.2L20,6.2
		c-0.4,0-0.7,0.3-0.7,0.7c0,0,0,0,0,0v2.7c0,0.4,0.3,0.7,0.7,0.7c0,0,0,0,0,0l0,0v1c0,0.2-0.2,0.4-0.4,0.4h-1.9V3.5h1.9
		c0.2,0,0.4,0.1,0.4,0.3V6.2z"/>
</g>
</svg>
