<?xml version="1.0" encoding="utf-8"?>
<!-- Generator: Adobe Illustrator 24.3.0, SVG Export Plug-In . SVG Version: 6.00 Build 0)  -->
<svg version="1.1" id="Layer_1" xmlns="http://www.w3.org/2000/svg" xmlns:xlink="http://www.w3.org/1999/xlink" x="0px" y="0px"
	 viewBox="0 0 22 22" style="enable-background:new 0 0 22 22;" xml:space="preserve">
<style type="text/css">
	.st0{fill:#FFFFFF;}
</style>
<g>
	<path class="st0" d="M9.5,15.6v4.8c-0.1,0.8,0.5,1.6,1.3,1.7c0.8,0.1,1.6-0.5,1.7-1.3c0-0.1,0-0.2,0-0.3v-4.8
		c0.1-0.8-0.5-1.6-1.3-1.7c-0.8-0.1-1.6,0.5-1.7,1.3C9.5,15.3,9.5,15.5,9.5,15.6"/>
	<path class="st0" d="M19.2,1l-0.3-0.7c-0.1-0.2-0.3-0.3-0.5-0.2c0,0,0,0,0,0l-1.8,0.8l-3.2,1.4c-0.6-0.6-1.5-1-2.3-1
		c-0.9,0-1.7,0.4-2.3,1L5.4,0.8L3.6,0C3.4-0.1,3.2,0,3.1,0.2c0,0,0,0,0,0L2.8,1C2.7,1.2,2.8,1.5,3,1.6l1.9,0.9
		c0.2,0.1,0.5,0,0.6-0.2V2.1l2.5,1.1C7.7,3.7,7.6,4.4,7.6,5c0,0-0.2,0.1-0.2,0.1C6.5,5.4,5.8,6.2,5.7,7.2v8.9c0,1,0.5,1.9,1.3,2.5
		c0.5,0.4,1,0,1-0.6v-2.8c0.1-1.7,1.6-2.9,3.2-2.8c1.5,0.1,2.6,1.3,2.8,2.8v2.8c0,0.7,0.5,1,1,0.6c0.8-0.6,1.3-1.5,1.3-2.5V7.2
		c-0.1-1-0.8-1.8-1.7-2c0,0-0.2-0.1-0.2-0.1c0-0.6-0.2-1.3-0.5-1.8l2.5-1.1l0,0.1c0.1,0.2,0.4,0.3,0.6,0.2l2-0.8
		C19.2,1.5,19.3,1.3,19.2,1C19.2,1,19.2,1,19.2,1z M10.9,6.6c-0.8,0-1.5-0.7-1.5-1.5c0-0.8,0.7-1.5,1.5-1.5c0.8,0,1.5,0.7,1.5,1.5
		c0,0,0,0,0,0C12.4,5.8,11.8,6.5,10.9,6.6L10.9,6.6z"/>
</g>
</svg>
