<?xml version="1.0" encoding="utf-8"?>
<!-- Generator: Adobe Illustrator 24.3.0, SVG Export Plug-In . SVG Version: 6.00 Build 0)  -->
<svg version="1.1" id="Layer_1" xmlns="http://www.w3.org/2000/svg" xmlns:xlink="http://www.w3.org/1999/xlink" x="0px" y="0px"
	 viewBox="0 0 22 22" style="enable-background:new 0 0 22 22;" xml:space="preserve">
<style type="text/css">
	.st0{fill:#FFFFFF;}
</style>
<g>
	<path class="st0" d="M0,6.7v2.7C0,9.7,0.4,10,0.7,10l0,0h0.8V6H0.8C0.4,6,0,6.3,0,6.7L0,6.7z"/>
	<path class="st0" d="M21.3,6h-0.8v4h0.8c0.4,0,0.7-0.3,0.7-0.7l0,0V6.7C22.1,6.3,21.7,6,21.3,6C21.4,6,21.4,6,21.3,6z"/>
	<path class="st0" d="M15.3,0H6.8C4.5,0,2.7,2,2.7,4.4v13.2c0,0.8,0.9,1.4,1.6,1.4v2c0,0.6,0.4,1,1,1h1.9c0.6,0,1-0.4,1-1v-2h5.8v2
		c0,0.6,0.4,1,1,1h1.9c0.6,0,1-0.4,1-1v-2c0.8,0,1.6-0.6,1.6-1.4V4.4C19.4,2,17.6,0,15.3,0z M8.3,1.5h5.6V3H8.3V1.5z M5.5,17.6
		C4.7,17.6,4,17,4,16.1c0-0.8,0.6-1.5,1.4-1.5c0.8,0,1.4,0.6,1.4,1.5l0,0C6.8,16.9,6.2,17.6,5.5,17.6L5.5,17.6z M13.9,16v1H8.2v-2
		h5.8V16z M16.6,17.6c-0.8,0-1.4-0.6-1.4-1.4c0-0.8,0.6-1.5,1.3-1.5c0.8,0,1.4,0.6,1.4,1.4l0,0C18,16.9,17.4,17.6,16.6,17.6
		L16.6,17.6z M18,13.2H4V4.4H18L18,13.2L18,13.2z"/>
</g>
</svg>
