<?xml version="1.0" encoding="utf-8"?>
<!-- Generator: Adobe Illustrator 24.3.0, SVG Export Plug-In . SVG Version: 6.00 Build 0)  -->
<svg version="1.1" id="Layer_1" xmlns="http://www.w3.org/2000/svg" xmlns:xlink="http://www.w3.org/1999/xlink" x="0px" y="0px"
	 viewBox="0 0 22 22" style="enable-background:new 0 0 22 22;" xml:space="preserve">
<style type="text/css">
	.st0{fill:#FFFFFF;}
</style>
<path class="st0" d="M22,10.4l-0.1-0.3c-0.5-0.6-1.2-1-1.9-1.2h-0.1c-0.7-2.1-1.6-4.6-1.8-5c-0.5-0.7-1.3-1.2-2.2-1.4
	c0,0-0.7-0.4-4.8-0.4C9.4,2,7.8,2.1,6.2,2.5C5.3,2.7,4.5,3.2,3.9,3.9c-0.2,0.4-1.1,3-1.7,5H2.1c-0.8,0.2-1.5,0.6-2,1.2l-0.1,0.3
	c-0.1,0.3,0,0.6,0.2,0.7c0.1,0,0.2,0.1,0.2,0.1h1.1l-0.2,0.5c-0.1,0.3-0.1,0.5-0.1,0.8v6.7c0,0.4,0.3,0.8,0.8,0.8h0h2.6
	c0.4,0,0.8-0.3,0.8-0.8v-1.3h11v1.3c0,0.4,0.3,0.8,0.7,0.8c0,0,0,0,0,0h2.8c0.4,0,0.7-0.3,0.7-0.7c0,0,0,0,0,0v-6.7
	c0-0.3-0.1-0.5-0.1-0.8c0-0.2-0.1-0.4-0.1-0.5h1.1C21.9,11.1,22.1,10.8,22,10.4 M5.3,4.8C5.4,4.6,5.5,3.7,11,3.7
	c5.5,0,5.6,0.8,5.7,1.1c0.1,0.3,0.8,2.4,1.4,4.8c-2.2-0.6-4.5-0.8-6.8-0.7h-0.6C8.4,8.9,6.1,9.1,3.9,9.7C4.5,7.3,5.1,5.2,5.3,4.8
	L5.3,4.8z M6.6,14c-0.1,0.4-0.4,0.6-0.8,0.6l-2.7-0.4c-0.4-0.1-0.6-0.4-0.6-0.8c0,0,0,0,0,0l0.1-0.7c0.1-0.4,0.4-0.6,0.8-0.6
	l2.7,0.4c0.4,0.1,0.6,0.4,0.6,0.8c0,0,0,0,0,0L6.6,14z M14.5,15.1c0,0.4-0.4,0.7-0.7,0.7H8.3c-0.4,0-0.7-0.3-0.7-0.7v-0.7h6.9V15.1z
	 M14.5,12.4H7.6v-0.7c0-0.3,0.3-0.6,0.6-0.6c0,0,0,0,0,0h5.6c0.4,0,0.7,0.3,0.7,0.6L14.5,12.4z M18.9,14.2l-2.7,0.4
	c-0.4,0.1-0.7-0.2-0.8-0.6c0,0,0,0,0,0l-0.1-0.7c-0.1-0.4,0.2-0.7,0.6-0.8c0,0,0,0,0,0l2.7-0.4c0.4,0,0.7,0.2,0.8,0.6l0.1,0.7
	C19.5,13.8,19.3,14.2,18.9,14.2L18.9,14.2z"/>
</svg>
