<?xml version="1.0" encoding="utf-8"?>
<!-- Generator: Adobe Illustrator 24.3.0, SVG Export Plug-In . SVG Version: 6.00 Build 0)  -->
<svg version="1.1" id="Layer_1" xmlns="http://www.w3.org/2000/svg" xmlns:xlink="http://www.w3.org/1999/xlink" x="0px" y="0px"
	 viewBox="0 0 42 42" style="enable-background:new 0 0 42 42;" xml:space="preserve">
<style type="text/css">
	.st0{opacity:0.44;fill:#FFFFFF;enable-background:new    ;}
	.st1{fill:url(#SVGID_1_);}
	.st2{fill:#666666;}
	.st3{fill:#1C1C1C;}
	.st4{fill:#B3B3B3;}
	.st5{fill:#F3F3F3;}
	.st6{fill:#A2A2A2;}
</style>
<g id="Layer_1-2">
	<circle class="st0" cx="21" cy="21" r="21"/>
	
		<radialGradient id="SVGID_1_" cx="21" cy="-253" r="21" gradientTransform="matrix(1 0 0 -1 0 -232)" gradientUnits="userSpaceOnUse">
		<stop  offset="0.15" style="stop-color:#000000"/>
		<stop  offset="1" style="stop-color:#000000;stop-opacity:0"/>
	</radialGradient>
	<circle class="st1" cx="21" cy="21" r="21"/>
	<g transform="rotate(45 21 21)">
		<circle class="st2" cx="21" cy="21" r="14"/>
		<g>
			<polygon class="st3" points="21,23 14,26.6 21,13.4 28,26.6 			"/>
			<path class="st4" d="M21,14.5l5.8,11l-5.8-3l-5.8,3L21,14.5 M21,12.4L20.1,14l-5.8,11l-1.5,2.8l2.8-1.5l5.3-2.8l5.4,2.8l2.8,1.5
				L27.7,25l-5.8-11L21,12.4z"/>
			<path class="st5" d="M21,15.2l5,9.5l-5-2.6l-5,2.6L21,15.2 M21,13.8l-0.6,1.1l-5.1,9.5l-1,1.8l1.8-0.9l4.8-2.4l4.8,2.4l1.8,0.9
				l-0.9-1.8l-5-9.5L21,13.8z"/>
			<polygon class="st6" points="25.3,24 21.3,16.4 21.3,21.9 			"/>
		</g>
	</g>
</g>
</svg>
