<svg xmlns="http://www.w3.org/2000/svg" viewBox="0 0 10 15"><defs><style>.cls-1{fill:#fff;}</style></defs><g id="Layer_2" data-name="Layer 2"><g id="Layer_1-2" data-name="Layer 1"><path class="cls-1" d="M10,3.12A1.88,1.88,0,1,0,7.5,4.89v.57A3.3,3.3,0,0,1,4.21,8.75H2.5V3.64a1.88,1.88,0,1,0-1.25,0v7.72a1.88,1.88,0,1,0,1.25,0V10H4.21A4.55,4.55,0,0,0,8.75,5.46V4.89A1.87,1.87,0,0,0,10,3.12ZM1.88,1.25a.63.63,0,0,1,0,1.25h0a.63.63,0,0,1,0-1.25Zm0,12.5a.63.63,0,1,1,.62-.63A.63.63,0,0,1,1.88,13.75Zm6.24-10a.63.63,0,1,1,.63-.63A.63.63,0,0,1,8.12,3.75Z"/></g></g></svg>