<svg xmlns="http://www.w3.org/2000/svg" viewBox="0 0 16 9.61"><defs><style>.cls-1{fill:#d96b00;}</style></defs><g id="Layer_2" data-name="Layer 2"><g id="Layer_1-2" data-name="Layer 1"><path class="cls-1" d="M8.67.07A3.71,3.71,0,0,0,8,0a3.71,3.71,0,0,0-.67.07C3.39.38,0,3.37,0,4.82S3.79,9.61,8,9.61s8-3.25,8-4.79S12.61.38,8.67.07ZM8,8.61c-4,0-7-3.18-7-3.79,0-.43,1.54-2.18,3.88-3.14a3.67,3.67,0,0,0-.63,2.07,3.75,3.75,0,0,0,7.5,0,3.67,3.67,0,0,0-.63-2.07C13.47,2.64,15,4.39,15,4.82,15,5.43,12,8.61,8,8.61Z"/></g></g></svg>