<?xml version="1.0" encoding="utf-8"?>
<!-- Generator: Adobe Illustrator 24.3.0, SVG Export Plug-In . SVG Version: 6.00 Build 0)  -->
<svg version="1.1" id="Layer_1" xmlns="http://www.w3.org/2000/svg" xmlns:xlink="http://www.w3.org/1999/xlink" x="0px" y="0px"
	 viewBox="0 0 25 25" style="enable-background:new 0 0 25 25;" xml:space="preserve">
<style type="text/css">
	.st0{fill:#FFFFFF;}
</style>
<g id="Layer_2_1_">
	<g id="Layer_1-2">
		<path class="st0" d="M19.5,11H18V8.2C18,4.8,15.5,2,12.5,2S7,4.8,7,8.2V11H5.5C5.2,11,5,11.2,5,11.5v11C5,22.8,5.2,23,5.5,23h14
			c0.3,0,0.5-0.2,0.5-0.5v-11C20,11.2,19.8,11,19.5,11z M8,8.2C8,5.3,10,3,12.5,3S17,5.3,17,8.2V11H8V8.2z M19,22H6V12h13V22z"/>
		<path class="st0" d="M11.8,17.1L11.7,19h1.6l-0.1-1.9c0.3-0.2,0.5-0.6,0.5-1c0-0.7-0.5-1.2-1.2-1.2s-1.2,0.5-1.2,1.2c0,0,0,0,0,0
			C11.3,16.5,11.5,16.9,11.8,17.1z"/>
	</g>
</g>
</svg>
