<svg xmlns="http://www.w3.org/2000/svg" viewBox="0 0 17 16.78"><defs><style>.cls-1{fill:#d96b00;}</style></defs><g id="Layer_2" data-name="Layer 2"><g id="Layer_1-2" data-name="Layer 1"><path class="cls-1" d="M13.84,4.24a4.19,4.19,0,1,0-8.38,0A4.36,4.36,0,0,0,5.9,6.15l3.75,6.42,3.74-6.42A4.23,4.23,0,0,0,13.84,4.24ZM9.65,6.59A2.35,2.35,0,1,1,12,4.24,2.33,2.33,0,0,1,9.65,6.59Z"/><path class="cls-1" d="M.5,15.24a.45.45,0,0,1-.25-.07.49.49,0,0,1-.19-.67A2.23,2.23,0,0,1,.47,14a.5.5,0,0,1,.71,0,.49.49,0,0,1,0,.7A1.8,1.8,0,0,0,.93,15,.5.5,0,0,1,.5,15.24Z"/><path class="cls-1" d="M11.48,16.78h-.09a4.26,4.26,0,0,1-1.06-.35.51.51,0,0,1-.23-.67.5.5,0,0,1,.67-.23,3.28,3.28,0,0,0,.8.27.5.5,0,0,1,.4.58A.51.51,0,0,1,11.48,16.78Zm2,0a.5.5,0,0,1-.49-.43.51.51,0,0,1,.42-.57,6.09,6.09,0,0,0,.89-.19.5.5,0,0,1,.62.33.51.51,0,0,1-.33.63,6.84,6.84,0,0,1-1,.22ZM9,15.3a.5.5,0,0,1-.33-.12c-.23-.2-.47-.4-.73-.59a.5.5,0,0,1-.12-.7.51.51,0,0,1,.7-.11,8.62,8.62,0,0,1,.8.64.51.51,0,0,1,.06.71A.52.52,0,0,1,9,15.3ZM2.53,13.93a.49.49,0,0,1-.47-.36A.5.5,0,0,1,2.39,13a8.31,8.31,0,0,1,1-.22.5.5,0,0,1,.56.43.5.5,0,0,1-.42.56,6.94,6.94,0,0,0-.89.19A.39.39,0,0,1,2.53,13.93Zm3.9-.09a.25.25,0,0,1-.12,0,5.9,5.9,0,0,0-.89-.15.5.5,0,1,1,.09-1,5.61,5.61,0,0,1,1,.18.5.5,0,0,1,.36.61A.51.51,0,0,1,6.43,13.84Z"/><path class="cls-1" d="M16.16,15.61a.51.51,0,0,1-.37-.17.49.49,0,0,1,0-.7,1.65,1.65,0,0,0,.26-.28.51.51,0,0,1,.69-.13.5.5,0,0,1,.14.69,3.21,3.21,0,0,1-.42.46A.5.5,0,0,1,16.16,15.61Z"/></g></g></svg>