<?xml version="1.0" encoding="utf-8"?>
<!-- Generator: Adobe Illustrator 24.3.0, SVG Export Plug-In . SVG Version: 6.00 Build 0)  -->
<svg version="1.1" id="Layer_1" xmlns="http://www.w3.org/2000/svg" xmlns:xlink="http://www.w3.org/1999/xlink" x="0px" y="0px"
	 viewBox="0 0 25 25" style="enable-background:new 0 0 25 25;" xml:space="preserve">
<style type="text/css">
	.st0{fill:#FFFFFF;}
</style>
<g id="Layer_2_1_">
	<g id="Layer_1-2">
		<path class="st0" d="M12.6,7.8c1.1,0,2,0.9,2,2s-0.9,2-2,2s-2-0.9-2-2S11.4,7.8,12.6,7.8 M12.6,6.8c-1.7,0-3,1.3-3,3s1.3,3,3,3
			s3-1.3,3-3S14.2,6.8,12.6,6.8z"/>
		<path class="st0" d="M12.5,3.5c4,0.1,7.1,3.4,7,7.3c0,4.4-5.2,9-7,10.4c-1.8-1.4-7-6-7-10.4C5.4,6.9,8.5,3.6,12.5,3.5 M12.5,2.5
			c-4.5,0.1-8.1,3.8-8,8.3c0,5.8,8,11.7,8,11.7s8-5.8,8-11.7C20.6,6.3,17,2.6,12.5,2.5z"/>
	</g>
</g>
</svg>
