<?xml version="1.0" encoding="utf-8"?>
<!-- Generator: Adobe Illustrator 24.3.0, SVG Export Plug-In . SVG Version: 6.00 Build 0)  -->
<svg version="1.1" id="Layer_1" xmlns="http://www.w3.org/2000/svg" xmlns:xlink="http://www.w3.org/1999/xlink" x="0px" y="0px"
	 viewBox="0 0 25 25" style="enable-background:new 0 0 25 25;" xml:space="preserve">
<style type="text/css">
	.st0{fill:#FFFFFF;}
</style>
<g id="Layer_2_1_">
	<g id="Layer_1-2">
		<path class="st0" d="M22.5,22.7c-0.1,0-0.2-0.1-0.3-0.1l-5-4.8c-0.2-0.2-0.2-0.5,0-0.7c0,0,0,0,0,0l5-4.8c0.1-0.1,0.4-0.2,0.5-0.1
			c0.2,0.1,0.3,0.3,0.3,0.5v9.5c0,0.2-0.1,0.4-0.3,0.5C22.6,22.7,22.6,22.7,22.5,22.7z M18.2,17.4L22,21v-7.2L18.2,17.4z"/>
		<path class="st0" d="M14.6,10.4h-3.2c-0.2,0.3-0.5,0.6-0.7,0.9l-0.1,0.1h3.9c0.8,0,1.4,0.6,1.4,1.4v0v9.3c0,0.8-0.6,1.4-1.4,1.4h0
			H4.4c-0.8,0-1.4-0.6-1.4-1.4l0,0v-9.3c0-0.8,0.6-1.4,1.4-1.4h0.7c0.1-0.3,0.2-0.7,0.2-1H4.4c-1.3,0-2.4,1.1-2.4,2.4v9.3
			c0,1.3,1.1,2.4,2.4,2.4h10.3c1.3,0,2.4-1.1,2.4-2.4l0,0v-9.3C17,11.5,15.9,10.4,14.6,10.4z"/>
		<path class="st0" d="M18.8,2.2l-6.9-1.6L13,3.2c-5.3,2.9-7.3,9.2-5.9,15.9c-1-5.1,2.3-11,7-13.3l1,2.4L18.8,2.2z"/>
	</g>
</g>
</svg>
