<?xml version="1.0" encoding="utf-8"?>
<!-- Generator: Adobe Illustrator 24.3.0, SVG Export Plug-In . SVG Version: 6.00 Build 0)  -->
<svg version="1.1" id="Layer_1" xmlns="http://www.w3.org/2000/svg" xmlns:xlink="http://www.w3.org/1999/xlink" x="0px" y="0px"
	 viewBox="0 0 25 25" style="enable-background:new 0 0 25 25;" xml:space="preserve">
<style type="text/css">
	.st0{fill:#FFFFFF;}
</style>
<g id="Layer_2_1_">
	<g id="Layer_1-2">
		<path class="st0" d="M17.7,2c-3.1,0-5.5,2.5-5.5,5.6V11h-10c-0.3,0-0.5,0.2-0.5,0.5v11C1.7,22.8,2,23,2.2,23h14
			c0.3,0,0.5-0.2,0.5-0.5v-11c0-0.3-0.2-0.5-0.5-0.5h-3V7.6c0-2.5,2-4.5,4.5-4.5s4.5,2,4.5,4.5v3.9c0,0.3,0.2,0.5,0.5,0.5
			s0.5-0.2,0.5-0.5V7.6C23.3,4.5,20.8,2,17.7,2z M15.7,22h-13V12h13V22z"/>
		<path class="st0" d="M9.2,14.7c-0.6,0-1.1,0.5-1.1,1.1c0,0.4,0.2,0.7,0.5,0.9l-0.1,1.7H10l-0.1-1.7c0.3-0.2,0.5-0.6,0.5-0.9
			C10.4,15.2,9.9,14.7,9.2,14.7z"/>
	</g>
</g>
</svg>
