<svg xmlns="http://www.w3.org/2000/svg" viewBox="0 0 16 16"><defs><style>.cls-1{fill:#d96b00;}</style></defs><g id="Layer_2" data-name="Layer 2"><g id="Layer_1-2" data-name="Layer 1"><path class="cls-1" d="M8,16A8,8,0,0,1,2.34,2.35,7.92,7.92,0,0,1,8,0H8A8,8,0,1,1,8,16ZM8,1H8A7,7,0,0,0,1,8a7,7,0,0,0,7,7H8a7,7,0,0,0,7-7A7,7,0,0,0,8,1Z"/><path class="cls-1" d="M8,12.23a.5.5,0,0,1-.5-.5v-4a.5.5,0,0,1,.5-.5H8a.5.5,0,0,1,.5.5v4a.5.5,0,0,1-.5.5Z"/><path class="cls-1" d="M8,5.5a.51.51,0,0,1-.35-.15.57.57,0,0,1-.11-.16.65.65,0,0,1,0-.19.5.5,0,0,1,.69-.47l.17.11A.54.54,0,0,1,8.49,5a.43.43,0,0,1,0,.19A.48.48,0,0,1,8,5.5Z"/></g></g></svg>