<?xml version="1.0" encoding="utf-8"?>
<!-- Generator: Adobe Illustrator 24.3.0, SVG Export Plug-In . SVG Version: 6.00 Build 0)  -->
<svg version="1.1" id="Layer_1" xmlns="http://www.w3.org/2000/svg" xmlns:xlink="http://www.w3.org/1999/xlink" x="0px" y="0px"
	 viewBox="0 0 25 25" style="enable-background:new 0 0 25 25;" xml:space="preserve">
<style type="text/css">
	.st0{fill:#FFFFFF;}
</style>
<g id="Layer_2_1_">
	<g id="Layer_1-2">
		<path class="st0" d="M14.9,14c0-0.3-0.1-0.6-0.4-0.9c-0.2-0.2-0.5-0.4-0.9-0.4c-0.3,0-0.6,0.1-0.9,0.4l-1.2,1.2l-1-1l1.2-1.2
			c0.2-0.2,0.4-0.5,0.4-0.9c0-0.3-0.1-0.6-0.4-0.9c-0.5-0.5-1.2-0.5-1.7,0l0,0l-1.2,1.2L8,10.7c-0.1-0.1-0.2-0.1-0.3-0.1
			c-0.1,0-0.3,0-0.4,0.1l-1.4,1.4c-0.2,0.2-0.2,0.5,0,0.7l0,0L6,12.9l-3.4,3.5c-0.2,0.2-0.2,0.5,0,0.7l2.1,2.1l-4.5,4.4
			c-0.2,0.2-0.3,0.5-0.1,0.7c0.1,0.1,0.3,0.2,0.5,0.2c0.1,0,0.3-0.1,0.3-0.1L5.4,20l2.4,2.4c0.1,0.1,0.2,0.1,0.3,0.1
			s0.3-0.1,0.4-0.1l3.4-3.5L12,19c0.1,0.1,0.2,0.1,0.3,0.1s0.3-0.1,0.4-0.1l1.4-1.5c0.1-0.1,0.2-0.2,0.1-0.3c0-0.1-0.1-0.3-0.1-0.3
			L13.3,16l1.2-1.2C14.7,14.6,14.8,14.3,14.9,14z M10.7,11.1c0.1-0.1,0.2-0.1,0.3,0l0,0c0,0,0.1,0.1,0.1,0.2c0,0.1,0,0.1-0.1,0.2
			l-1.2,1.2l-0.3-0.3L10.7,11.1z M8.1,21.2l-2.4-2.4l0,0l-2.1-2.1l3.1-3.1l4.5,4.5L8.1,21.2z M12.4,17.9l-5.5-5.4l0.7-0.7l0.9,0.9
			l0,0l1,1l0,0l1.7,1.7l0,0l1,1l0,0l0.8,0.8L12.4,17.9z M13.8,14.1L13.8,14.1l-1.2,1.2L12.3,15l1.2-1.2c0,0,0.1-0.1,0.2-0.1
			c0.1,0,0.1,0,0.2,0.1c0,0,0.1,0.1,0.1,0.2C13.9,14,13.8,14.1,13.8,14.1z"/>
		<path class="st0" d="M18.9,12.8c-3.4,0-6.1-2.7-6.1-6.1s2.7-6.1,6.1-6.1S25,3.3,25,6.7l0,0C25,10,22.3,12.7,18.9,12.8z M18.9,1.5
			c-2.8,0-5.1,2.3-5.1,5.1s2.3,5.1,5.1,5.1S24,9.5,24,6.6l0,0C24,3.8,21.7,1.5,18.9,1.5z"/>
		<path class="st0" d="M18,9c-0.1,0-0.3-0.1-0.3-0.1L16,7.3c-0.2-0.2-0.2-0.5-0.1-0.7c0.2-0.2,0.5-0.2,0.7-0.1c0,0,0,0,0.1,0.1
			L18,7.8l3.3-3.3c0.2-0.2,0.5-0.2,0.7,0l0,0c0.2,0.2,0.2,0.5,0,0.7l-3.7,3.7C18.2,8.9,18.1,9,18,9z"/>
	</g>
</g>
</svg>
