<?xml version="1.0" encoding="utf-8"?>
<!-- Generator: Adobe Illustrator 24.3.0, SVG Export Plug-In . SVG Version: 6.00 Build 0)  -->
<svg version="1.1" id="Layer_1" xmlns="http://www.w3.org/2000/svg" xmlns:xlink="http://www.w3.org/1999/xlink" x="0px" y="0px"
	 viewBox="0 0 25 25" style="enable-background:new 0 0 25 25;" xml:space="preserve">
<style type="text/css">
	.st0{fill:#FFFFFF;}
</style>
<g id="Layer_2_1_">
	<g id="Layer_1-2">
		<path class="st0" d="M14.5,13.1c-0.2-0.2-0.5-0.4-0.8-0.3l0,0c-0.3,0-0.6,0.1-0.8,0.4l-1.2,1.2l-1-1l1.2-1.2
			c0.2-0.2,0.4-0.5,0.3-0.8c0-0.3-0.1-0.7-0.4-0.9c-0.2-0.2-0.5-0.4-0.8-0.3l0,0c-0.3,0-0.6,0.1-0.8,0.4l-1.2,1.2L8,10.7
			c-0.1-0.1-0.2-0.1-0.3-0.1c-0.1,0-0.3,0.1-0.4,0.1l-1.4,1.4c-0.2,0.2-0.2,0.5,0,0.7c0,0,0,0,0,0l0.1,0.1l-3.4,3.5
			c-0.2,0.2-0.2,0.5,0,0.7l2.1,2.1l-4.5,4.4c-0.2,0.2-0.3,0.5-0.1,0.7c0.1,0.1,0.3,0.2,0.5,0.2c0.1,0,0.3-0.1,0.3-0.1l4.5-4.4
			l2.4,2.4c0.1,0.1,0.2,0.1,0.3,0.1l0,0c0.1,0,0.3-0.1,0.3-0.1l3.4-3.5L12,19c0.1,0.1,0.2,0.1,0.3,0.1c0.1,0,0.3-0.1,0.4-0.1
			l1.4-1.5c0.1-0.1,0.2-0.2,0.1-0.3c0-0.1-0.1-0.3-0.1-0.3L13.3,16l1.2-1.2C15,14.3,14.9,13.5,14.5,13.1z M10.8,11.1
			c0.1-0.1,0.2-0.1,0.3,0c0.1,0.1,0.1,0.2,0,0.3l0,0l-1.2,1.2l-0.3-0.3L10.8,11.1z M8.1,21.2l-2.4-2.4l0,0l-2.1-2.1l3.1-3.1l4.5,4.5
			L8.1,21.2z M12.4,17.9l-5.5-5.4l0.7-0.7l0.9,0.9l0,0l1,1l0,0l1.7,1.7l0,0l1,1l0,0l0.8,0.8L12.4,17.9z M13.8,14.1l-1.2,1.2L12.3,15
			l1.2-1.2c0,0,0.1-0.1,0.1-0.1l0,0c0,0,0.1,0,0.2,0.1C13.9,13.9,13.9,14,13.8,14.1z"/>
		<path class="st0" d="M18.9,12.8c-3.4,0-6.1-2.7-6.1-6.1c0-3.4,2.7-6.1,6.1-6.1S25,3.2,25,6.6c0,0,0,0,0,0
			C25,10,22.3,12.7,18.9,12.8z M18.9,1.5c-2.8,0-5.1,2.3-5.1,5.1s2.3,5.1,5.1,5.1S24,9.5,24,6.6c0,0,0,0,0,0
			C24,3.8,21.7,1.5,18.9,1.5z"/>
		<path class="st0" d="M19.6,6.6l1.5-1.5c0.2-0.2,0.2-0.5,0-0.7s-0.5-0.2-0.7,0l0,0l-1.5,1.5l-1.5-1.5c-0.2-0.2-0.5-0.2-0.7,0
			c0,0,0,0,0,0c-0.2,0.2-0.2,0.5,0,0.7l1.5,1.5l-1.5,1.5c-0.2,0.2-0.2,0.5,0,0.7C16.8,8.9,16.9,9,17,9c0.1,0,0.3-0.1,0.3-0.1
			l1.5-1.5l1.5,1.5C20.5,8.9,20.6,9,20.7,9c0.1,0,0.3-0.1,0.3-0.1c0.2-0.2,0.2-0.5,0-0.7c0,0,0,0,0,0L19.6,6.6z"/>
	</g>
</g>
</svg>
