<?xml version="1.0" encoding="utf-8"?>
<!-- Generator: Adobe Illustrator 24.3.0, SVG Export Plug-In . SVG Version: 6.00 Build 0)  -->
<svg version="1.1" id="Layer_1" xmlns="http://www.w3.org/2000/svg" xmlns:xlink="http://www.w3.org/1999/xlink" x="0px" y="0px"
	 viewBox="0 0 25 25" style="enable-background:new 0 0 25 25;" xml:space="preserve">
<style type="text/css">
	.st0{fill:#FFFFFF;}
</style>
<g id="Layer_2_1_">
	<g id="Layer_1-2">
		<path class="st0" d="M20.5,23h-0.2c-3.2-0.3-6.2-1.4-8.9-3.2c-2.5-1.6-4.6-3.7-6.2-6.2C3.4,11,2.4,7.9,2,4.7
			C1.9,3.4,2.9,2.1,4.3,2c0,0,0,0,0,0h3.2C8.8,2,9.9,2.9,10,4.2c0.1,0.9,0.4,1.8,0.7,2.7V7c0.3,0.9,0,1.9-0.6,2.5l-1,1
			c1.3,2.2,3.1,4,5.3,5.3l1-1c0.7-0.7,1.7-0.9,2.6-0.6c0.9,0.3,1.8,0.6,2.7,0.7c1.3,0.1,2.3,1.2,2.3,2.5v3C23,21.9,21.9,23,20.5,23z
			 M7.6,3H4.4C3.6,3.1,2.9,3.8,3,4.6c0,0,0,0,0,0c0.3,3,1.4,5.9,3,8.5c1.5,2.4,3.5,4.4,5.9,5.9c2.5,1.6,5.4,2.7,8.5,3h0.1
			c0.8,0,1.5-0.7,1.5-1.5v-3l0,0c0-0.8-0.5-1.4-1.3-1.5c-1-0.1-2-0.4-2.9-0.7c-0.6-0.2-1.2-0.1-1.6,0.3l-1.3,1.2
			c-0.2,0.2-0.4,0.2-0.6,0.1c-2.6-1.5-4.7-3.6-6.2-6.2C8,10.5,8,10.2,8.2,10.1l1.3-1.3c0.4-0.4,0.5-1,0.4-1.5V7.2
			C9.5,6.3,9.2,5.3,9.1,4.3C9,3.6,8.3,3,7.6,3z"/>
	</g>
</g>
</svg>
