<?xml version="1.0" encoding="UTF-8"?><svg xmlns="http://www.w3.org/2000/svg" viewBox="0 0 16 12.29"><defs><style>.d{fill:#d96b00;}</style></defs><g id="a"/><g id="b"><g id="c"><g><path class="d" d="M8.74,0c2.41,0,4.26,.5,5.77,1.89,2.12,1.93,1.95,4.79-.34,6.52-.73,.55-.74,.56-.29,1.36,.21,.36,.5,.68,.73,1.03,.09,.14,.15,.35,.11,.5-.02,.08-.32,.16-.44,.11-.88-.36-1.8-.68-2.61-1.17-.45-.27-.79-.38-1.31-.32-2.02,.25-3.95-.07-5.71-1.16-1.93-1.2-2.75-3.2-2.06-5.07,.49-1.32,1.48-2.19,2.7-2.8C6.5,.28,7.78-.02,8.74,0Zm4.53,10.46l.11-.13c-.07-.16-.14-.31-.22-.47q-.55-1.14,.45-1.87c2.29-1.67,2.31-4.31,.01-5.97-1.8-1.31-3.85-1.58-6-1.21-1.46,.25-2.76,.84-3.75,1.98-1.17,1.36-1.15,3.13,.06,4.45,.3,.32,.64,.62,1,.87,1.7,1.14,3.6,1.39,5.58,1.1,.56-.08,.98,0,1.41,.4,.38,.36,.89,.57,1.34,.85Z"/><path class="d" d="M2.48,11.38c.49-.33,.86-.61,1.26-.85,.22-.14,.48-.32,.71-.31,1.32,.05,2.64,.16,3.96,.25,.07,0,.13,.03,.2,.04l.02,.17c-.64,.11-1.28,.28-1.93,.31-.71,.04-1.45-.2-2.12-.05-.64,.14-1.18,.65-1.79,.95-.36,.18-.76,.28-1.15,.37-.16,.03-.35-.07-.52-.12,.05-.17,.06-.36,.15-.51,.23-.38,.49-.73,.73-1.1,.22-.33,.15-.56-.19-.81C.66,8.93-.09,7.87,0,6.39c.09-1.44,.91-2.42,2.06-3.16l.16,.09c-.19,.38-.32,.82-.6,1.12-1.37,1.53-1.24,3.33,.38,4.62q.99,.78,.51,2s-.01,.1-.04,.33Z"/><path class="d" d="M9.16,4.28c.47,0,.84,.36,.83,.83,0,.44-.36,.8-.8,.81-.44,0-.85-.4-.84-.85,0-.43,.37-.79,.81-.8Z"/><path class="d" d="M6.88,5.92c-.42,0-.81-.39-.81-.81,0-.46,.38-.84,.84-.83,.44,0,.81,.37,.82,.8,0,.44-.41,.84-.85,.84Z"/><path class="d" d="M12.28,5.07c0,.42-.36,.82-.78,.84-.45,.02-.86-.36-.86-.81,0-.47,.36-.84,.83-.83,.44,0,.8,.36,.81,.8Z"/></g></g></g></svg>