<?xml version="1.0" encoding="UTF-8"?><svg xmlns="http://www.w3.org/2000/svg" viewBox="0 0 18.38 14.12"><defs><style>.d{fill:#fff;}</style></defs><g id="a"/><g id="b"><g id="c"><g><path class="d" d="M10.04,0c2.77,0,4.89,.58,6.63,2.17,2.43,2.22,2.24,5.5-.39,7.49-.84,.63-.86,.64-.34,1.56,.24,.42,.58,.78,.83,1.19,.1,.16,.17,.4,.12,.57-.02,.09-.37,.18-.51,.13-1.01-.42-2.07-.78-2.99-1.35-.51-.31-.91-.44-1.5-.37-2.33,.29-4.54-.08-6.56-1.33-2.21-1.37-3.16-3.67-2.37-5.83,.56-1.52,1.7-2.51,3.1-3.21C7.46,.32,8.94-.02,10.04,0Zm5.2,12.02l.13-.15c-.08-.18-.16-.36-.25-.54q-.63-1.3,.52-2.14c2.63-1.92,2.66-4.95,.01-6.86-2.07-1.5-4.42-1.82-6.89-1.39-1.68,.29-3.17,.96-4.31,2.28-1.35,1.56-1.32,3.59,.07,5.12,.34,.37,.73,.71,1.15,.99,1.96,1.31,4.13,1.6,6.41,1.26,.64-.09,1.13,0,1.63,.46,.43,.41,1.02,.66,1.53,.98Z"/><path class="d" d="M2.84,13.08c.56-.38,.99-.7,1.44-.98,.25-.16,.55-.37,.81-.36,1.52,.06,3.04,.18,4.55,.29,.08,0,.15,.03,.23,.05l.02,.2c-.74,.13-1.47,.32-2.22,.36-.81,.04-1.67-.23-2.43-.05-.73,.16-1.36,.75-2.06,1.09-.41,.2-.87,.33-1.32,.43-.18,.04-.4-.09-.6-.14,.05-.2,.07-.41,.17-.58,.26-.43,.56-.84,.84-1.26,.25-.38,.17-.65-.22-.93C.76,10.25-.1,9.04,0,7.34c.11-1.65,1.04-2.78,2.36-3.63l.18,.1c-.22,.43-.37,.94-.68,1.29-1.58,1.75-1.43,3.83,.44,5.31q1.13,.9,.59,2.29c-.02,.05-.02,.12-.05,.38Z"/><path class="d" d="M10.52,4.92c.55,0,.96,.41,.95,.96,0,.51-.42,.92-.92,.93-.51,0-.97-.46-.97-.97,0-.5,.43-.91,.94-.91Z"/><path class="d" d="M7.9,6.8c-.48,0-.93-.44-.93-.93,0-.53,.43-.96,.97-.96,.51,0,.93,.42,.94,.92,0,.5-.47,.97-.98,.97Z"/><path class="d" d="M14.11,5.83c0,.48-.42,.94-.9,.97-.52,.03-.99-.41-.99-.93,0-.54,.42-.96,.96-.95,.51,0,.92,.42,.93,.92Z"/></g></g></g></svg>