<svg xmlns="http://www.w3.org/2000/svg" viewBox="0 0 7.95 14.14"><defs><style>.cls-1{fill:#f44336;}</style></defs><g id="Layer_2" data-name="Layer 2"><g id="Layer_1-2" data-name="Layer 1"><path class="cls-1" d="M3.52,13.26V9.68L3,9.56A4,4,0,0,1,0,5.32C.16,3.69.3,2.06.45.42A.42.42,0,0,1,.9,0H3.15A.25.25,0,0,1,3.3.06l.86,1.27L1.8,2.88,5.09,6.11h0L3.79,3.3,6.15,1.75C5.87,1.18,5.6.6,5.32,0l.13,0H7A.43.43,0,0,1,7.5.45c.15,1.63.29,3.26.44,4.89A4,4,0,0,1,4.58,9.65l-.15,0v3.58H5.86a.72.72,0,0,1,.74.54c.08.23,0,.34-.23.34H1.58c-.23,0-.3-.1-.24-.33a.74.74,0,0,1,.73-.55H3.52Z"/></g></g></svg>