<svg xmlns="http://www.w3.org/2000/svg" viewBox="0 0 39.25 40"><defs><style>.cls-1{fill:#d5d7db;}</style></defs><g id="Layer_2" data-name="Layer 2"><g id="Layer_1-2" data-name="Layer 1"><path class="cls-1" d="M17.54.06A20.2,20.2,0,0,1,39.2,18.69,19.84,19.84,0,0,1,20.9,40,19.46,19.46,0,0,1,.05,22,19.22,19.22,0,0,1,4.68,8.06a19,19,0,0,1,13-6.52Zm.13,1.48A18.85,18.85,0,0,0,5,8.3,18.65,18.65,0,0,0,.8,21.93a18.33,18.33,0,0,0,20,16.53A18,18,0,0,0,37,18.88,17.77,17.77,0,0,0,30.61,6.93,17.57,17.57,0,0,0,17.79,3Z"/><path class="cls-1" d="M19.25,5.45A14.92,14.92,0,1,0,34.17,20.37,14.91,14.91,0,0,0,19.25,5.45Zm0,19.4a4.48,4.48,0,1,1,4.48-4.48A4.48,4.48,0,0,1,19.25,24.85Z"/></g></g></svg>