<svg xmlns="http://www.w3.org/2000/svg" viewBox="0 0 37.63 40"><defs><style>.cls-1{fill:#d5d7db;}</style></defs><g id="Layer_2" data-name="Layer 2"><g id="Layer_1-2" data-name="Layer 1"><path class="cls-1" d="M30.4,26A20.71,20.71,0,0,1,34,27.58a7.91,7.91,0,0,1,3.18,3.1,3.85,3.85,0,0,1,.32,2.68A4.87,4.87,0,0,1,37,34.58a6.5,6.5,0,0,1-.73.94,10.51,10.51,0,0,1-3.47,2.26A37,37,0,0,1,18,40a45.66,45.66,0,0,1-7.38-.81,26.16,26.16,0,0,1-7.06-2.34A8.31,8.31,0,0,1,.64,34.45L.37,34l-.19-.47a3.21,3.21,0,0,1-.18-1,3.1,3.1,0,0,1,.65-1.82,8,8,0,0,1,3-2.21,20.62,20.62,0,0,1,3.46-1.22,19.47,19.47,0,0,0-3.37,1.4A7.54,7.54,0,0,0,1,31,2.62,2.62,0,0,0,.5,32.58a2.24,2.24,0,0,0,.2.8l.17.38.25.34a7.56,7.56,0,0,0,2.81,2A24.75,24.75,0,0,0,10.83,38a43.24,43.24,0,0,0,7.19.4c4.76-.13,9.67-.83,13.81-2.78a8.05,8.05,0,0,0,2.55-1.82,3.7,3.7,0,0,0,.36-.51,2.08,2.08,0,0,0,.16-.48,1.15,1.15,0,0,0-.17-.86,5.34,5.34,0,0,0-2.16-1.76A17.06,17.06,0,0,0,29.45,29Z"/><path class="cls-1" d="M28.33,4.17A14.24,14.24,0,0,0,8.19,24.31L18.26,34.38,28.33,24.31A14.24,14.24,0,0,0,28.33,4.17ZM18.26,16.36A4.77,4.77,0,1,1,23,11.59,4.77,4.77,0,0,1,18.26,16.36Z"/></g></g></svg>