<?xml version="1.0" encoding="UTF-8"?>
<svg id="Layer_2" data-name="Layer 2" xmlns="http://www.w3.org/2000/svg" viewBox="0 0 29 35">
  <defs>
    <style>
      .cls-1 {
        fill: #fff;
      }

      .cls-2 {
        fill: #e81c24;
      }
    </style>
  </defs>
  <g id="Layer_1-2" data-name="Layer 1">
    <g>
      <path class="cls-2" d="m24.75,4.25C19.09-1.42,9.91-1.42,4.25,4.25s-5.66,14.84,0,20.5l10.25,10.25,10.25-10.25c5.66-5.66,5.66-14.84,0-20.5Z"/>
      <path class="cls-1" d="m15.15,24.71h-1.27c-.78,0-1.47-.48-1.75-1.21l-.6-1.55-1.97-1.13-1.65.25c-.77.1-1.5-.26-1.89-.92l-.6-1.06c-.39-.66-.33-1.52.15-2.12l1.02-1.3v-2.27l-1.05-1.3c-.48-.61-.54-1.46-.15-2.13l.6-1.05c.38-.66,1.12-1.02,1.88-.92l1.65.25,2-1.13.6-1.55c.28-.73.97-1.2,1.75-1.2h1.24c.78,0,1.47.47,1.75,1.2l.6,1.55,1.97,1.13,1.65-.25c.76-.11,1.5.26,1.89.92l.6,1.06c.39.66.33,1.52-.15,2.12l-1.02,1.3v2.27l1.05,1.3c.48.61.54,1.46.15,2.13l-.6,1.05c-.39.67-1.12,1.02-1.88.92l-1.65-.25-1.97,1.13-.6,1.55c-.28.73-.97,1.2-1.75,1.2Z"/>
      <path class="cls-2" d="m13.48,17.81c-.16,0-.32-.05-.45-.16l-2.64-2.17c-.3-.25-.34-.69-.09-.99.25-.3.69-.34.99-.09l2.14,1.76,4.58-4.78c.27-.28.71-.29.99-.02.28.27.29.71.02.99l-5.03,5.25c-.14.14-.32.22-.5.22Z"/>
    </g>
  </g>
</svg>