<?xml version="1.0" encoding="UTF-8"?>
<svg id="Layer_2" data-name="Layer 2" xmlns="http://www.w3.org/2000/svg" viewBox="0 0 29 35">
  <defs>
    <style>
      .cls-1 {
        fill: #fff;
      }

      .cls-2 {
        fill: #e81c24;
      }
    </style>
  </defs>
  <g id="Layer_1-2" data-name="Layer 1">
    <g>
      <path class="cls-2" d="m24.75,4.25C19.09-1.42,9.91-1.42,4.25,4.25c-5.66,5.66-5.66,14.84,0,20.5l10.25,10.25,10.25-10.25c5.66-5.66,5.66-14.84,0-20.5Z"/>
      <path class="cls-1" d="m21.21,22.02h-1.74v-2.96c0-1.83-1-3.41-2.47-4.27,1.47-.86,2.47-2.45,2.47-4.27v-2.96h1.74c.39,0,.7-.31.7-.7s-.31-.7-.7-.7H7.79c-.39,0-.7.31-.7.7s.31.7.7.7h1.74v2.96c0,1.82,1,3.41,2.47,4.27-1.47.86-2.47,2.45-2.47,4.27v2.96h-1.74c-.39,0-.7.31-.7.7s.31.7.7.7h13.42c.39,0,.7-.31.7-.7s-.31-.7-.7-.7Zm-10.28-11.5v-2.96h7.14v2.96c0,1.97-1.6,3.57-3.57,3.57s-3.57-1.6-3.57-3.57Zm3.57,4.97c1.81,0,3.3,1.36,3.52,3.11h-7.05c.23-1.75,1.71-3.11,3.52-3.11Z"/>
    </g>
  </g>
</svg>