<?xml version="1.0" encoding="UTF-8"?>
<svg id="Layer_2" data-name="Layer 2" xmlns="http://www.w3.org/2000/svg" viewBox="0 0 29 35">
  <defs>
    <style>
      .cls-1 {
        fill: #fff;
      }

      .cls-2 {
        fill: #e81c24;
      }
    </style>
  </defs>
  <g id="Layer_1-2" data-name="Layer 1">
    <g>
      <path class="cls-2" d="m24.75,4.25C19.09-1.42,9.91-1.42,4.25,4.25c-5.66,5.66-5.66,14.84,0,20.5l10.25,10.25,10.25-10.25c5.66-5.66,5.66-14.84,0-20.5Z"/>
      <path class="cls-1" d="m21.05,11.93c-.26,0-.51-.1-.71-.29l-5.84-5.83-5.84,5.83c-.39.39-1.02.39-1.41,0-.39-.39-.39-1.02,0-1.41l6.19-6.18c.25-.27.62-.43,1.01-.44.41-.03.77.13,1.06.4l6.24,6.22c.39.39.39,1.02,0,1.41-.2.2-.45.29-.71.29Zm-6.17-6.5l-.02.02s.02-.01.02-.02Z"/>
      <path class="cls-1" d="m19.82,17.78c-.26,0-.51-.1-.71-.29l-4.61-4.61-4.61,4.61c-.39.39-1.02.39-1.41,0s-.39-1.02,0-1.41l5.03-5.03c.55-.54,1.44-.54,1.98,0l5.03,5.03c.39.39.39,1.02,0,1.41-.2.2-.45.29-.71.29Z"/>
      <path class="cls-1" d="m18.5,23.74c-.26,0-.51-.1-.71-.29l-3.3-3.3-3.3,3.3c-.39.39-1.02.39-1.41,0s-.39-1.02,0-1.41l3.79-3.79c.51-.5,1.33-.5,1.84,0l3.79,3.79c.39.39.39,1.02,0,1.41-.2.2-.45.29-.71.29Z"/>
    </g>
  </g>
</svg>