<?xml version="1.0" encoding="utf-8"?>
<!-- Generator: Adobe Illustrator 22.1.0, SVG Export Plug-In . SVG Version: 6.00 Build 0)  -->
<svg version="1.1" id="Layer_1" xmlns="http://www.w3.org/2000/svg" xmlns:xlink="http://www.w3.org/1999/xlink" x="0px" y="0px"
	 viewBox="0 0 34 29" style="enable-background:new 0 0 34 29;" xml:space="preserve">
<style type="text/css">
	.st0{fill:#EF2635;}
</style>
<g>
	<g>
		<g>
			<g>
				<g>
					<path class="st0" d="M32.2,29H1.8c-0.7,0-1.3-0.4-1.6-1c-0.4-0.6-0.3-1.4,0-2L15.4,0.9C15.8,0.3,16.3,0,17,0l0,0
						c0.6,0,1.2,0.3,1.6,0.9L33.7,26c0.4,0.6,0.4,1.4,0,2C33.4,28.6,32.8,29,32.2,29z M17,1c-0.3,0-0.6,0.2-0.8,0.4L1,26.5
						c-0.2,0.3-0.2,0.7,0,1S1.4,28,1.8,28h30.3c0.3,0,0.6-0.2,0.8-0.5c0.2-0.3,0.2-0.7,0-1L17.7,1.4C17.6,1.1,17.3,1,17,1L17,1z"/>
				</g>
			</g>
		</g>
	</g>
</g>
<rect x="16" y="9" class="st0" width="2" height="10"/>
<rect x="16" y="21" class="st0" width="2" height="2"/>
</svg>
