<?xml version="1.0" encoding="UTF-8"?>
<svg id="Layer_2" data-name="Layer 2" xmlns="http://www.w3.org/2000/svg" viewBox="0 0 29 35">
  <defs>
    <style>
      .cls-1 {
        fill: #fff;
      }

      .cls-2 {
        fill: #e81c24;
      }
    </style>
  </defs>
  <g id="Layer_1-2" data-name="Layer 1">
    <g>
      <path class="cls-2" d="m24.75,4.25C19.09-1.42,9.91-1.42,4.25,4.25c-5.66,5.66-5.66,14.84,0,20.5l10.25,10.25,10.25-10.25c5.66-5.66,5.66-14.84,0-20.5Z"/>
      <path class="cls-1" d="m24.02,14.23l-.29-.28.28-.3c.68-.74,1.06-1.69,1.06-2.68,0-2.18-1.8-3.96-4.01-3.96-1.11,0-2.14.44-2.91,1.24l-.3.31-.3-.32c-.84-.89-1.96-1.38-3.16-1.38-2.28,0-4.22,1.86-4.41,4.24l-.03.35-.35.03c-.75.06-1.44.32-2.01.74h-3.45c-.39,0-.7.31-.7.7s.31.7.7.7h2.26c-.27.52-.43,1.1-.43,1.72,0,.22.02.43.06.64h-3.6c-.39,0-.7.31-.7.7s.31.7.7.7h4.12c.83,1.34,2.45,2.15,4.25,1.72l.39-.09.1.39c.44,1.69,2.01,2.88,3.83,2.88,1.35,0,2.59-.65,3.32-1.75l.22-.33.34.2c.64.38,1.38.58,2.12.58,2.25,0,4.09-1.78,4.09-3.96,0-1.05-.42-2.05-1.19-2.79Z"/>
    </g>
  </g>
</svg>