<?xml version="1.0" encoding="UTF-8"?>
<svg id="Layer_2" data-name="Layer 2" xmlns="http://www.w3.org/2000/svg" viewBox="0 0 29 35">
  <defs>
    <style>
      .cls-1 {
        fill: #fff;
      }

      .cls-2 {
        fill: #e81c24;
      }
    </style>
  </defs>
  <g id="Layer_1-2" data-name="Layer 1">
    <g>
      <path class="cls-2" d="m24.75,4.25C19.09-1.42,9.91-1.42,4.25,4.25c-5.66,5.66-5.66,14.84,0,20.5l10.25,10.25,10.25-10.25c5.66-5.66,5.66-14.84,0-20.5Z"/>
      <path class="cls-1" d="m18.16,11.92l-8.86-3.97,4.25-1.62c.52-.2.77-.78.58-1.29s-.78-.77-1.29-.58l-6.5,2.48s-.05.03-.08.05c-.09.04-.18.09-.25.16-.1.09-.17.2-.23.32-.05.12-.08.25-.09.38,0,.12.02.24.06.36,0,0,0,.02,0,.02l2.49,6.5c.15.4.53.64.93.64.12,0,.24-.02.36-.07.52-.2.77-.78.58-1.29l-1.62-4.24,8.86,3.97c1.36.61,2.4,1.7,2.93,3.09.53,1.39.49,2.9-.12,4.25l-1.34,3c-.23.5,0,1.1.5,1.32.13.06.27.09.41.09.38,0,.75-.22.91-.59l1.34-3c1.7-3.81-.01-8.29-3.82-9.99Z"/>
    </g>
  </g>
</svg>