<?xml version="1.0" encoding="UTF-8"?>
<svg id="Layer_2" data-name="Layer 2" xmlns="http://www.w3.org/2000/svg" viewBox="0 0 29 35">
  <defs>
    <style>
      .cls-1 {
        fill: #fff;
      }

      .cls-2 {
        fill: #e81c24;
      }
    </style>
  </defs>
  <g id="Layer_1-2" data-name="Layer 1">
    <g>
      <path class="cls-2" d="m24.75,4.25C19.09-1.42,9.91-1.42,4.25,4.25c-5.66,5.66-5.66,14.84,0,20.5l10.25,10.25,10.25-10.25c5.66-5.66,5.66-14.84,0-20.5Z"/>
      <polygon class="cls-1" points="18.33 5.59 10.67 5.59 5.24 11.01 5.24 18.68 10.67 24.1 18.33 24.1 23.76 18.68 23.76 11.01 18.33 5.59"/>
      <path class="cls-2" d="m13.18,20.86c0-.73.58-1.3,1.32-1.3s1.33.56,1.33,1.3-.57,1.3-1.33,1.3-1.32-.56-1.32-1.3Zm.34-4.54l-.12-7.8v-.11c0-.67.45-1.11,1.11-1.11s1.1.43,1.1,1.11v.11l-.12,7.8c-.02.63-.36,1.03-.99,1.03s-.96-.39-.97-1.03Z"/>
    </g>
  </g>
</svg>