<svg xmlns="http://www.w3.org/2000/svg" viewBox="0 0 24 24"><defs><style>.cls-1{fill:#010101;}.cls-2{fill:#4f4f4f;}.cls-3{fill:#19bcfe;}</style></defs><title>alerts-blue</title><g id="Layer_2" data-name="Layer 2"><g id="Layer_1-2" data-name="Layer 1"><path class="cls-1" d="M10.73,21.3a4.21,4.21,0,0,0-3.45-1.8h-4a11.4,11.4,0,0,1-2.79-8A11.53,11.53,0,0,1,11.57.51H12a11.48,11.48,0,0,1,8.7,19H16.77a4.33,4.33,0,0,0-3.53,1.84L12,23.13Z"/><path class="cls-2" d="M12,1a11,11,0,0,1,8.47,18h-3.7a4.81,4.81,0,0,0-3.94,2.06L12,22.25,11.14,21a4.7,4.7,0,0,0-3.86-2H3.53A10.94,10.94,0,0,1,1,11.56,11.18,11.18,0,0,1,11.59,1H12m0-1h-.45A12.1,12.1,0,0,0,0,11.52,11.93,11.93,0,0,0,3.07,20H7.28a3.69,3.69,0,0,1,3,1.59L12,24l1.65-2.37A3.81,3.81,0,0,1,16.77,20h4.16A12,12,0,0,0,12,0Z"/><path class="cls-3" d="M20.84,15.45a.92.92,0,0,1,0,1,.94.94,0,0,1-.79.52H4a1,1,0,0,1-.85-.52,1,1,0,0,1,0-1l8-13A1,1,0,0,1,12,2a1,1,0,0,1,.85.47Z"/><rect class="cls-1" x="11" y="5" width="2" height="7"/><rect class="cls-1" x="11" y="14" width="2" height="2"/></g></g></svg>