<?xml version="1.0" encoding="utf-8"?>
<!-- Generator: Adobe Illustrator 22.1.0, SVG Export Plug-In . SVG Version: 6.00 Build 0)  -->
<svg version="1.1" id="Layer_1" xmlns="http://www.w3.org/2000/svg" xmlns:xlink="http://www.w3.org/1999/xlink" x="0px" y="0px"
	 viewBox="0 0 95 36.1" style="enable-background:new 0 0 95 36.1;" xml:space="preserve">
<style type="text/css">
	.st0{fill:#C1272D;}
</style>
<g>
	<path class="st0" d="M93.3,18.7v-6.2c0-1-0.6-1.9-1.5-2c-2-0.4-5.6-1.1-7.2-1.7C82.3,8,73.4,3.5,70.3,2.7c-3.1-0.8-17-5.3-30.4,0.2
		c-2.3,0.9-12.4,6.6-18.4,9.6c-1.8,0-19.2,4.3-20.1,7.2S0.2,24,0,24.8c-0.2,0.7,0,4.3,1.3,6.8c1.3,0.9,3.9,1.5,6.8,1.9
		c0-0.2-0.1-0.4-0.1-0.6c0-0.6,0-1,0-1.4c0-5.6,3.9-10.1,8.6-10.1s8.6,4.5,8.6,10.1c0,0.3,0,0.6,0,0.9c0,0.6-0.1,1.2-0.3,1.8l0,0
		l42.7-1c0-0.1,0-0.3-0.1-0.4c-0.1-0.5-0.1-0.9-0.1-1.3c0-5.6,3.9-10.1,8.6-10.1s8.6,4.5,8.6,10.1c0,0,0,0,0,0.1h0.2l7.3-1.6
		c0,0,2.8-1.8,2.8-6.6C95,20.1,93.3,18.7,93.3,18.7z M50.9,12.8l-16,0.6c0.3-2.8-1.1-3.4-1.1-3.4c6.3-6.8,19.1-7,19.1-7L50.9,12.8z
		 M68.9,11.9l-14.5,0.6l1.3-9.6c7.5-0.1,11.8,1.8,11.8,1.8l2.1,4.1L68.9,11.9z M77,11.8h-4l-4-6.5c3,1.4,5.5,2.8,6.9,3.7
		C76.7,9.6,77.2,10.7,77,11.8z"/>
</g>
</svg>
