<?xml version="1.0" encoding="utf-8"?>
<!-- Generator: Adobe Illustrator 21.1.0, SVG Export Plug-In . SVG Version: 6.00 Build 0)  -->
<svg version="1.1" id="Layer_1" xmlns="http://www.w3.org/2000/svg" xmlns:xlink="http://www.w3.org/1999/xlink" x="0px" y="0px"
	 viewBox="0 0 34 50" style="enable-background:new 0 0 34 50;" xml:space="preserve">
<style type="text/css">
	.st0{fill:#272727;}
	.st1{fill:#FFFFFF;}
</style>
<g>
	<path class="st0" d="M32.5,23.8c1-2.1,1.5-4.5,1.5-7C34,7.5,26.4,0,17,0S0,7.5,0,16.8c0,2.5,0.6,4.8,1.5,7L15.2,49
		c0.8,1.4,2.8,1.4,3.5,0L32.5,23.8z"/>
	<g>
		<path fill="{{ color }}"  d="M30.7,23.9c0.9-2,1.3-4.1,1.3-6.4C32,8.9,25.3,2,17,2S2,8.9,2,17.5c0,2.3,0.5,4.4,1.3,6.4l13,23.6c0.7,1.3,0.5,1.3,1.1,0
			L30.7,23.9z"/>
	</g>
</g>
<rect x="13" y="8" class="st1" width="8" height="1"/>
<rect x="11.5" y="9.5" transform="matrix(6.123234e-17 -1 1 6.123234e-17 3.5 23.5)" class="st1" width="4" height="1"/>
<rect x="18.5" y="9.5" transform="matrix(6.123234e-17 -1 1 6.123234e-17 10.5 30.5)" class="st1" width="4" height="1"/>
<rect x="21" y="26" transform="matrix(-1 -1.224647e-16 1.224647e-16 -1 44 54)" class="st1" width="2" height="2"/>
<rect x="11" y="26" transform="matrix(-1 -1.224647e-16 1.224647e-16 -1 24 54)" class="st1" width="2" height="2"/>
<g>
	<path class="st1" d="M21,19h-1h-6h-1v-2H7v8c0,0.6,0.4,1,1,1h18c0.6,0,1-0.4,1-1v-8h-6V19z"/>
	<path class="st1" d="M26,12H8c-0.6,0-1,0.4-1,1v3h6h1v1v1h6v-1v-1h1h6v-3C27,12.4,26.6,12,26,12z"/>
</g>
</svg>
