<?xml version="1.0" encoding="utf-8"?>
<!-- Generator: Adobe Illustrator 21.1.0, SVG Export Plug-In . SVG Version: 6.00 Build 0)  -->
<svg version="1.1" id="Layer_1" xmlns="http://www.w3.org/2000/svg" xmlns:xlink="http://www.w3.org/1999/xlink" x="0px" y="0px"
	 viewBox="0 0 34 50" style="enable-background:new 0 0 34 50;" xml:space="preserve">
<style type="text/css">
	.st0{fill:#272727;}
	.st1{fill:#FFFFFF;}
	.st2{fill:#F47A16;}
</style>
<g>
	<path class="st0" d="M32.5,23.8c1-2.1,1.5-4.5,1.5-7C34,7.5,26.4,0,17,0S0,7.5,0,16.8c0,2.5,0.6,4.8,1.5,7L15.2,49
		c0.8,1.4,2.8,1.4,3.5,0L32.5,23.8z"/>
	<g>
		<path fill="{{ color }}"  d="M30.7,23.9c0.9-2,1.3-4.1,1.3-6.4C32,8.9,25.3,2,17,2S2,8.9,2,17.5c0,2.3,0.5,4.4,1.3,6.4l13,23.6c0.7,1.3,0.5,1.3,1.1,0
			L30.7,23.9z"/>
	</g>
</g>
<g>
	<rect x="13" y="11" class="st1" width="8" height="1"/>
	<rect x="13" y="11" class="st1" width="1" height="4"/>
	<rect x="20" y="11" class="st1" width="1" height="4"/>
	<rect x="21" y="29" class="st1" width="2" height="2"/>
	<rect x="11" y="29" class="st1" width="2" height="2"/>
	<g>
		<path class="st1" d="M21,22h-1h-6h-1v-2H7v8c0,0.6,0.4,1,1,1h18c0.6,0,1-0.4,1-1v-8h-6V22z"/>
		<path class="st1" d="M26,15H8c-0.6,0-1,0.4-1,1v3h6h1v1v1h6v-1v-1h1h6v-3C27,15.4,26.6,15,26,15z"/>
	</g>
</g>
<g>
	<g>
		<circle class="st2" cx="27.5" cy="6.5" r="6"/>
		<path class="st1" d="M27.5,1c3,0,5.5,2.5,5.5,5.5S30.5,12,27.5,12S22,9.5,22,6.5S24.5,1,27.5,1 M27.5,0C23.9,0,21,2.9,21,6.5
			s2.9,6.5,6.5,6.5S34,10.1,34,6.5S31.1,0,27.5,0L27.5,0z"/>
	</g>
	<g>
		<path class="st1" d="M27.5,7.1L27.5,7.1c-0.3,0-0.5-0.2-0.5-0.5V3.5C27,3.2,27.2,3,27.5,3l0,0C27.8,3,28,3.2,28,3.5v3.1
			C28,6.9,27.8,7.1,27.5,7.1z"/>
	</g>
	<g>
		<path class="st1" d="M29.9,8.5L29.9,8.5c-0.2,0.2-0.5,0.3-0.7,0.1L27.2,7c-0.2-0.2-0.3-0.5-0.2-0.7l0,0c0.2-0.2,0.5-0.3,0.7-0.1
			l1.9,1.6C30,8,30.1,8.3,29.9,8.5z"/>
	</g>
</g>
</svg>
