<svg xmlns="http://www.w3.org/2000/svg" viewBox="0 0 23 27.72"><defs><style>.cls-1{fill:lime;stroke:#272727;stroke-miterlimit:10;}</style></defs><title>video-sad-faceAsset 112</title><g id="Layer_2" data-name="Layer 2"><g id="Layer_1-2" data-name="Layer 1"><path class="cls-1" d="M19.31,8.52,11.5.71,3.69,8.51a10.92,10.92,0,0,0,0,15.42l.09.09a10.91,10.91,0,0,0,15.43,0l.1-.1A10.89,10.89,0,0,0,19.31,8.52ZM16.2,10.93a1,1,0,0,1-1.41,0l-.29-.29-3-3-3,3-.3.29a1,1,0,0,1-1.41,0,1,1,0,0,1,0-1.41l.29-.29,3-3,.71-.71.71-.71.7.71.71.71,3,3,.29.29A1,1,0,0,1,16.2,10.93Z"/></g></g></svg>