<svg id="Layer_1" data-name="Layer 1" xmlns="http://www.w3.org/2000/svg" viewBox="0 0 40 40"><defs><style>.cls-1{fill:#fff;}.cls-2{fill:#43bc55;}</style></defs><title>map-popup-icon-50</title><rect class="cls-1" x="34.29" y="20" width="5.71" height="1.9"/><rect class="cls-1" x="38.1" y="15.24" width="1.9" height="12.38"/><rect class="cls-1" y="20" width="5.71" height="1.9"/><rect class="cls-1" y="15.24" width="1.9" height="12.38"/><rect class="cls-1" x="15.24" y="4.76" width="1.9" height="6.67"/><rect class="cls-1" x="9.52" y="4.76" width="12.38" height="1.9"/><path class="cls-1" d="M31.94,11.59l.87.88-1.09,1.09a1.44,1.44,0,0,1,.66,1.2V33.33H20.67l-4.24-3.39-.52-.42H8.1A1.43,1.43,0,0,1,6.67,28.1V14.76A1.43,1.43,0,0,1,8.1,13.33H29.25l1.89-1.88-.19,0H8.1a3.33,3.33,0,0,0-3.34,3.33V28.1A3.33,3.33,0,0,0,8.1,31.43h7.14L20,35.24H34.29V14.76A3.35,3.35,0,0,0,31.94,11.59Z"/><path class="cls-2" d="M28.1,6.67a8.1,8.1,0,1,0,8.09,8.09A8.09,8.09,0,0,0,28.1,6.67Zm0,10.5-.68.68-.66.67-3.37-3.37,1.35-1.34,2,2,4.7-4.71,1.35,1.35Z"/></svg>