<?xml version="1.0" encoding="utf-8"?>
<!-- Generator: Adobe Illustrator 22.1.0, SVG Export Plug-In . SVG Version: 6.00 Build 0)  -->
<svg version="1.1" id="Layer_1" xmlns="http://www.w3.org/2000/svg" xmlns:xlink="http://www.w3.org/1999/xlink" x="0px" y="0px"
	 viewBox="0 0 40 40" style="enable-background:new 0 0 40 40;" xml:space="preserve">
<style type="text/css">
	.st0{fill:#333333;}
	.st1{fill:#43BC55;}
</style>
<title>map-popup-icon-50</title>
<path class="st0" d="M28.3,0H11.7c-5.5,0-10,4.5-10,10v16.7c0,5.5,4.5,10,10,10V40h2.2v-3.3h12.2V40h2.2v-3.3c5.5,0,10-4.5,10-10v0
	V10C38.3,4.5,33.9,0,28.3,0L28.3,0z M36.1,12.2v12.2h-3.3v2.2h3.3c0,4.3-3.5,7.8-7.8,7.8H11.7c-4.3,0-7.8-3.5-7.8-7.8V10
	c0-4.3,3.5-7.8,7.8-7.8h16.7c4.3,0,7.8,3.5,7.8,7.8h-3.3v2.2H36.1z"/>
<path class="st1" d="M20,8.9c-5.2,0-9.5,4.2-9.5,9.4s4.2,9.5,9.4,9.5s9.5-4.2,9.5-9.4c0,0,0,0,0,0C29.4,13.1,25.2,8.9,20,8.9z
	 M21.7,18.3v5h-3.3v-5c-1.2-0.9-1.5-2.7-0.6-3.9s2.7-1.5,3.9-0.6s1.5,2.7,0.6,3.9C22.1,18,21.9,18.2,21.7,18.3z"/>
</svg>
