<svg xmlns="http://www.w3.org/2000/svg" viewBox="0 0 20 13"><defs><style>.cls-1{fill:none;stroke:#b3b3b3;}.cls-2,.cls-3{fill:#b3b3b3;}.cls-2{fill-rule:evenodd;}</style></defs><title>vehicle-icn</title><g id="Layer_2" data-name="Layer 2"><g id="Layer_1-2" data-name="Layer 1"><path class="cls-1" d="M18.15,12.5H15.38a.68.68,0,0,1-.67-.69v-.72H5.29v.72a.68.68,0,0,1-.67.69H1.85a.68.68,0,0,1-.67-.69V6.59a2.33,2.33,0,0,1,.43-1.5L4.86,1A1.17,1.17,0,0,1,5.65.54c1-.07,7.94-.05,8.68,0a1.18,1.18,0,0,1,.8.45l3.25,4.09a2.34,2.34,0,0,1,.43,1.51v5.22A.68.68,0,0,1,18.15,12.5Z"/><path class="cls-2" d="M2,3.85H.47A.48.48,0,0,0,0,4.33v.28a.48.48,0,0,0,.47.48H1l.93-1.17Z"/><path class="cls-2" d="M19.53,3.85H18l.05.08.67.85L19,5.1h.52A.48.48,0,0,0,20,4.61V4.33A.48.48,0,0,0,19.53,3.85Z"/><path class="cls-2" d="M13.59,2.07a.36.36,0,0,0-.25-.15c-.34,0-6.36,0-6.7,0a.36.36,0,0,0-.25.15l-1.56,2H15Z"/><ellipse class="cls-3" cx="4.12" cy="7.17" rx="0.93" ry="0.96"/><ellipse class="cls-3" cx="15.88" cy="7.17" rx="0.93" ry="0.96"/></g></g></svg>