<?xml version="1.0" encoding="utf-8"?>
<!-- Generator: Adobe Illustrator 22.1.0, SVG Export Plug-In . SVG Version: 6.00 Build 0)  -->
<svg version="1.1" id="Layer_1" xmlns="http://www.w3.org/2000/svg" xmlns:xlink="http://www.w3.org/1999/xlink" x="0px" y="0px"
	 viewBox="0 0 40 40" style="enable-background:new 0 0 40 40;" xml:space="preserve">
<style type="text/css">
	.st0{fill:#333333;}
</style>
<title>map-popup-icon-50</title>
<path class="st0" d="M22.4,34.7H5.9c-3.2,0-5.9-2.6-5.9-5.9V11.2c0-3.2,2.6-5.9,5.9-5.9h16.5c3.3,0,5.9,2.6,5.9,5.9v0v17.6
	C28.2,32.1,25.6,34.7,22.4,34.7z M5.9,7.7c-1.9,0-3.5,1.6-3.5,3.5v17.6c0,1.9,1.6,3.5,3.5,3.5h16.5c1.9,0,3.5-1.6,3.5-3.5v0V11.2
	c0-1.9-1.6-3.5-3.5-3.5l0,0L5.9,7.7z"/>
<path class="st0" d="M40,33L27.8,20L40,7V33z M31,20l6.6,7V13L31,20z"/>
</svg>
