<?xml version="1.0" encoding="utf-8"?>
<!-- Generator: Adobe Illustrator 23.0.6, SVG Export Plug-In . SVG Version: 6.00 Build 0)  -->
<svg version="1.1" id="Layer_1" xmlns="http://www.w3.org/2000/svg" xmlns:xlink="http://www.w3.org/1999/xlink" x="0px" y="0px"
	 viewBox="0 0 34 34" style="enable-background:new 0 0 34 34;" xml:space="preserve">
<style type="text/css">
	.st0{fill:#333333;}
</style>
<title>unlock</title>
<g>
	<path class="st0" d="M20,26.2H7c-0.3,0-0.5-0.2-0.5-0.5V15.5c0-0.3,0.2-0.5,0.5-0.5h13c0.3,0,0.5,0.2,0.5,0.5v10.2
		C20.5,26,20.3,26.2,20,26.2z M7.5,25.1h11.9V16H7.5V25.1z"/>
</g>
<g>
	<path class="st0" d="M27,15.5c-0.3,0-0.5-0.2-0.5-0.5v-2.8c-0.1-2.3-1.9-4.1-4.2-4.2C21.1,8,20,8.4,19.1,9.2
		c-0.9,0.8-1.4,1.9-1.4,3.1l0,2.8c0,0.3-0.2,0.5-0.5,0.5s-0.5-0.2-0.5-0.5v-2.8c0.1-1.5,0.7-2.8,1.7-3.7c1.1-1,2.4-1.5,3.9-1.4
		c2.8,0.1,5,2.3,5.1,5.1v2.8C27.5,15.3,27.3,15.5,27,15.5z"/>
</g>
<path class="st0" d="M14.1,20.7l0.1,1.7h-1.5l0.1-1.7c-0.5-0.3-0.6-1-0.3-1.5c0.3-0.5,1-0.6,1.5-0.3s0.6,1,0.3,1.5
	C14.3,20.5,14.2,20.6,14.1,20.7z"/>
</svg>
