<?xml version="1.0" encoding="utf-8"?>
<!-- Generator: Adobe Illustrator 22.1.0, SVG Export Plug-In . SVG Version: 6.00 Build 0)  -->
<svg version="1.1" id="Layer_1" xmlns="http://www.w3.org/2000/svg" xmlns:xlink="http://www.w3.org/1999/xlink" x="0px" y="0px"
	 viewBox="0 0 13 18" style="enable-background:new 0 0 13 18;" xml:space="preserve">
<style type="text/css">
	.st0{fill:none;stroke:#333333;stroke-linecap:round;stroke-linejoin:round;}
</style>
<title>address-icn</title>
<g id="Layer_2_1_">
	<g id="Layer_1-2">
		<path class="st0" d="M6.5,0.5c-3.1,0-5.6,2.6-5.6,5.7c0,0,0,0,0,0c0,4.5,5.6,8.3,5.6,8.3s5.6-3.8,5.6-8.3
			C12.1,3.1,9.6,0.5,6.5,0.5C6.5,0.5,6.5,0.5,6.5,0.5z M6.5,8.1c-1.1,0-1.9-0.8-1.9-1.9s0.8-1.9,1.9-1.9c1.1,0,1.9,0.8,1.9,1.9
			c0,0,0,0,0,0C8.4,7.3,7.5,8.1,6.5,8.1C6.5,8.1,6.5,8.1,6.5,8.1z"/>
		<path class="st0" d="M10.4,13.1c1.3,0.5,2.1,1.1,2.1,1.9c0,1.4-2.7,2.5-6,2.5s-6-1.1-6-2.5c0-0.8,0.8-1.4,2.1-1.9"/>
	</g>
</g>
</svg>
