<svg xmlns="http://www.w3.org/2000/svg" viewBox="0 0 13 19.97"><defs><style>.cls-1,.cls-2{fill:none;stroke:#b3b3b3;stroke-linejoin:round;}.cls-2{stroke-linecap:round;}.cls-3{fill:#b3b3b3;}</style></defs><title>driver-icn</title><g id="Layer_2" data-name="Layer 2"><g id="Layer_1-2" data-name="Layer 1"><path class="cls-1" d="M2.63,14.63.5,15.5V11.88a3,3,0,0,1,3-3h6a3,3,0,0,1,3,3V15.5l-2-.81"/><circle class="cls-2" cx="6.13" cy="3.5" r="3"/><circle class="cls-2" cx="6.5" cy="15.47" r="4"/><path class="cls-3" d="M6.5,14.47a1,1,0,1,1-1,1,1,1,0,0,1,1-1m0-1a2,2,0,1,0,2,2,2,2,0,0,0-2-2Z"/><line class="cls-1" x1="5.29" y1="15.24" x2="3" y2="14.47"/><line class="cls-1" x1="7.71" y1="15.24" x2="10.41" y2="14.61"/><line class="cls-1" x1="6.5" y1="16.72" x2="6.5" y2="19.47"/></g></g></svg>