<svg xmlns="http://www.w3.org/2000/svg" viewBox="0 0 22 22"><defs><style>.cls-1,.cls-3{fill:#b3b3b3;}.cls-2,.cls-4{fill:none;}.cls-2,.cls-3{stroke:#b3b3b3;}.cls-3{stroke-width:0.25px;}</style></defs><title>bag-icn</title><g id="Layer_2" data-name="Layer 2"><g id="Layer_1-2" data-name="Layer 1"><path class="cls-1" d="M20,6.65V17.49H2V6.65H20m.63-1H1.38A.38.38,0,0,0,1,6V18.12a.38.38,0,0,0,.38.38H20.62a.38.38,0,0,0,.38-.38V6a.38.38,0,0,0-.38-.39Z"/><path class="cls-2" d="M7.12,5.69V4.45a.94.94,0,0,1,.94-1h5.35a.94.94,0,0,1,.95,1V5.69"/><line class="cls-2" x1="16.16" y1="12.02" x2="20.75" y2="12.02"/><line class="cls-2" x1="5.16" y1="12.02" x2="17.16" y2="12.02"/><line class="cls-2" x1="2" y1="12.02" x2="5.16" y2="12.02"/><path class="cls-3" d="M5.82,12.23v1.58a.44.44,0,0,1-.43.44h0A.44.44,0,0,1,5,13.81V12.23"/><path class="cls-3" d="M17,12.23v1.58a.44.44,0,0,1-.43.44h0a.44.44,0,0,1-.43-.44V12.23"/><rect class="cls-4" width="22" height="22"/></g></g></svg>