<svg id="Layer_1" data-name="Layer 1" xmlns="http://www.w3.org/2000/svg" viewBox="0 0 40 40"><defs><style>.cls-1{fill:#fff;}</style></defs><title>map-popup-icon-50</title><path class="cls-1" d="M22.35,34.71H5.88A5.89,5.89,0,0,1,0,28.82V11.18A5.89,5.89,0,0,1,5.88,5.29H22.35a5.89,5.89,0,0,1,5.89,5.89V28.82A5.89,5.89,0,0,1,22.35,34.71ZM5.88,7.65a3.54,3.54,0,0,0-3.53,3.53V28.82a3.54,3.54,0,0,0,3.53,3.53H22.35a3.53,3.53,0,0,0,3.53-3.53V11.18a3.53,3.53,0,0,0-3.53-3.53Z"/><path class="cls-1" d="M40,33,27.8,20,40,7ZM31,20l6.62,7V13Z"/></svg>