<?xml version="1.0" encoding="utf-8"?>
<!-- Generator: Adobe Illustrator 23.0.6, SVG Export Plug-In . SVG Version: 6.00 Build 0)  -->
<svg version="1.1" id="Layer_1" xmlns="http://www.w3.org/2000/svg" xmlns:xlink="http://www.w3.org/1999/xlink" x="0px" y="0px"
	 viewBox="0 0 23 19" style="enable-background:new 0 0 23 19;" xml:space="preserve">
<style type="text/css">
	.st0{fill:#777777;}
</style>
<title>engine-on</title>
<rect x="22" y="10" class="st0" width="1" height="6"/>
<path class="st0" d="M10.1,2H4.3C4,2,3.7,1.8,3.7,1.5l0,0C3.7,1.2,4,1,4.3,1l0,0h5.9c0.3,0,0.5,0.2,0.6,0.5l0,0
	C10.7,1.8,10.4,2,10.1,2L10.1,2z"/>
<path class="st0" d="M19.9,0.7C19,0.2,18,0,17.1,0C15,0,13,1.1,11.9,3.1c0,0,0,0,0-0.1H5C3.3,3,2,4.3,2,6v3.4H1V6.6l0,0
	C1,6.3,0.8,6,0.5,6l0,0C0.2,6,0,6.3,0,6.6v6.8l0,0C0,13.7,0.2,14,0.5,14S1,13.7,1,13.5v-2.8h1V14c0,1.7,1.3,3,3,3h3l3.1,2H21v-8.6
	c0,0,0.7-0.7,1-1.1c0.1-0.2,0.2-0.3,0.3-0.5C23.9,5.9,22.8,2.3,19.9,0.7z M20,18h-8.6l-2.8-1.8L8.3,16H8H5c-1.1,0-2-0.9-2-2V6
	c0-1.1,0.9-2,2-2h6.4v0.1c-0.8,2.1-0.3,4.4,1.2,6c1.2,1.3,2.8,1.9,4.4,1.9c1.1,0,2.1-0.3,3.1-0.8V18H20z M21.4,8.3
	c-0.1,0.2-0.2,0.3-0.3,0.5c-0.2,0.4-0.5,0.7-0.8,1c-0.9,0.8-2.1,1.3-3.3,1.3c-1.4,0-2.7-0.6-3.6-1.6c-1.2-1.3-1.6-3.3-1-5l0.4-0.9
	C13.6,2,15.3,1,17.1,1c0.8,0,1.6,0.2,2.4,0.6c1.2,0.6,2,1.7,2.4,2.9C22.2,5.8,22,7.1,21.4,8.3z"/>
<path class="st0" d="M16.1,7.7c0-0.4,0.1-0.7,0.2-1.1c0.2-0.3,0.5-0.6,0.8-0.8c0.2-0.2,0.4-0.4,0.6-0.7C17.9,5,18,4.7,18.1,4.5
	c0-0.3-0.1-0.5-0.3-0.7c-0.2-0.2-0.5-0.3-0.7-0.3s-0.5,0.1-0.6,0.2c-0.2,0.2-0.3,0.4-0.3,0.7h-1.5l0,0c0-0.6,0.2-1.2,0.7-1.5
	c0.5-0.4,1.1-0.6,1.8-0.6s1.3,0.2,1.8,0.6s0.7,1,0.7,1.6c0,0.4-0.1,0.9-0.4,1.2c-0.3,0.4-0.6,0.7-1,0.9c-0.2,0.1-0.3,0.3-0.4,0.5
	s-0.1,0.4-0.1,0.7L16.1,7.7L16.1,7.7z M17.7,9.9h-1.5V8.6h1.5V9.9z"/>
</svg>
