<?xml version="1.0" encoding="utf-8"?>
<!-- Generator: Adobe Illustrator 22.1.0, SVG Export Plug-In . SVG Version: 6.00 Build 0)  -->
<svg version="1.1" id="Layer_1" xmlns="http://www.w3.org/2000/svg" xmlns:xlink="http://www.w3.org/1999/xlink" x="0px" y="0px"
	 viewBox="0 0 40 40" style="enable-background:new 0 0 40 40;" xml:space="preserve">
<style type="text/css">
	.st0{fill:#333333;}
</style>
<title>map-popup-icon-50</title>
<path class="st0" d="M9.2,4.6c1.7,0,3.1,1.4,3.1,3.1c0,1.7-1.4,3.1-3.1,3.1c-1.7,0-3.1-1.4-3.1-3.1c0,0,0,0,0,0
	C6.2,6,7.5,4.6,9.2,4.6 M9.2,2.6c-2.8,0-5.1,2.3-5.1,5.1c0,2.8,2.3,5.1,5.1,5.1c2.8,0,5.1-2.3,5.1-5.1c0,0,0,0,0,0
	C14.4,4.8,12.1,2.5,9.2,2.6C9.2,2.5,9.2,2.5,9.2,2.6z"/>
<path class="st0" d="M26.1,2.5c3.1,0,5.7,2.5,5.7,5.6s-2.5,5.7-5.6,5.7c-3.1,0-5.7-2.5-5.7-5.6c0,0,0,0,0,0
	C20.5,5.1,23,2.6,26.1,2.5 M26.1,0.5c-4.3,0-7.7,3.4-7.7,7.7s3.4,7.7,7.7,7.7s7.7-3.4,7.7-7.7c0,0,0,0,0,0C33.9,4,30.5,0.5,26.1,0.5
	C26.2,0.5,26.2,0.5,26.1,0.5L26.1,0.5z"/>
<path class="st0" d="M40,39.5h-2V25.1c0-2.8-2.3-5.1-5.1-5.1c0,0,0,0-0.1,0H20c-2.5,0-4.6,2.1-4.6,4.6v14.9h-2.1V24.6
	c0-3.7,3-6.6,6.7-6.6h12.8c3.9,0,7.1,3.2,7.2,7.1V39.5z"/>
<path class="st0" d="M2,27.7H0v-8.9C0,16.2,2.1,14,4.7,14c0,0,0,0,0,0h8.6c2.8,0,5.1,2.3,5.1,5.1v0.3h-2v-0.3c0-1.7-1.4-3.1-3.1-3.1
	H4.8c-1.5,0-2.7,1.2-2.7,2.7c0,0,0,0,0,0V27.7z"/>
</svg>
