<?xml version="1.0" encoding="utf-8"?>
<!-- Generator: Adobe Illustrator 22.1.0, SVG Export Plug-In . SVG Version: 6.00 Build 0)  -->
<svg version="1.1" id="Layer_1" xmlns="http://www.w3.org/2000/svg" xmlns:xlink="http://www.w3.org/1999/xlink" x="0px" y="0px"
	 viewBox="0 0 40 40" style="enable-background:new 0 0 40 40;" xml:space="preserve">
<style type="text/css">
	.st0{fill:#333333;}
</style>
<title>map-popup-icon-50</title>
<path class="st0" d="M9.9,25.6c3.3,4,7.4,7.2,12,9.4c2.1,1.1,4.4,1.8,6.7,2h0.5c1.6,0,3.2-0.6,4.3-1.8l0,0c0.4-0.5,0.9-1,1.4-1.4
	c0.3-0.3,0.7-0.7,1-1c1.4-1.3,1.5-3.4,0.3-4.8c-0.1-0.1-0.2-0.2-0.3-0.3l-4.2-4.2c-0.6-0.7-1.5-1.1-2.5-1.1c-1,0-1.9,0.4-2.5,1.1
	L24,26l-0.7-0.4c-0.3-0.1-0.5-0.3-0.8-0.4c-2.4-1.6-4.6-3.5-6.4-5.8c-0.9-1-1.6-2.2-2.2-3.4c0.7-0.6,1.3-1.2,1.9-1.8l0.7-0.6
	c0.7-0.7,1.1-1.6,1.2-2.5c0-1-0.5-1.9-1.2-2.5l-2.1-2.1C14.2,6,14,5.8,13.8,5.5c-0.5-0.5-0.9-1-1.4-1.4C11.7,3.4,10.8,3,9.9,3
	C8.9,3,8,3.4,7.3,4.1L4.7,6.7c-0.9,0.9-1.5,2.1-1.6,3.5c-0.1,1.9,0.3,3.9,1,5.6C5.5,19.4,7.4,22.7,9.9,25.6z M4.8,10.3
	C4.9,9.5,5.3,8.6,5.9,8l2.6-2.7C8.9,5,9.4,4.8,9.9,4.7c0.5,0,0.9,0.2,1.3,0.6c0.5,0.4,0.9,0.9,1.4,1.4l0.7,0.8l2.1,2.1
	c0.4,0.3,0.6,0.8,0.6,1.3c0,0.5-0.3,1-0.7,1.3l-0.7,0.7c-0.6,0.7-1.3,1.3-1.9,1.9l0,0c-0.4,0.4-0.6,1-0.4,1.6c0,0,0,0,0,0.1
	c0.6,1.4,1.5,2.8,2.5,4c1.9,2.4,4.2,4.5,6.8,6.2c0.3,0.2,0.6,0.4,0.9,0.5c0.3,0.1,0.5,0.3,0.8,0.4h0.1c0.2,0.1,0.4,0.2,0.7,0.2
	c0.4,0,0.8-0.2,1-0.5l2.6-2.6c0.3-0.3,0.8-0.5,1.3-0.5c0.5,0,0.9,0.3,1.3,0.6l4.3,4.2c0.7,0.6,0.8,1.7,0.3,2.4
	c-0.1,0.1-0.2,0.2-0.3,0.3c-0.3,0.3-0.6,0.6-0.9,0.9c-0.5,0.5-1,1-1.5,1.5c-0.8,0.9-1.9,1.3-3,1.3h-0.4c-2.1-0.2-4.2-0.8-6.1-1.8
	c-4.4-2.1-8.3-5.2-11.4-8.9c-2.4-2.7-4.3-5.9-5.6-9.3C5,13.7,4.7,12,4.8,10.3z"/>
</svg>
