<svg id="Layer_1" data-name="Layer 1" xmlns="http://www.w3.org/2000/svg" viewBox="0 0 40.03 40.03"><defs><style>.cls-1{fill:#fff;}</style></defs><title>map-popup-icon-50</title><path class="cls-1" d="M9.93,25.6a36,36,0,0,0,12,9.4,18.69,18.69,0,0,0,6.71,2h.48a5.59,5.59,0,0,0,4.31-1.85l0,0a17.91,17.91,0,0,1,1.36-1.41c.33-.31.67-.65,1-1a3.41,3.41,0,0,0,0-5.07l-4.24-4.23a3.39,3.39,0,0,0-2.48-1.14,3.52,3.52,0,0,0-2.5,1.13l-2.53,2.52-.69-.36c-.29-.15-.55-.28-.78-.43a26.64,26.64,0,0,1-6.37-5.8,15.4,15.4,0,0,1-2.16-3.44c.66-.6,1.28-1.23,1.88-1.84l.65-.65a3.65,3.65,0,0,0,1.17-2.54,3.57,3.57,0,0,0-1.17-2.54l-2.1-2.1c-.25-.24-.48-.48-.72-.73-.46-.48-.95-1-1.43-1.42A3.52,3.52,0,0,0,9.85,3,3.63,3.63,0,0,0,7.34,4.09L4.71,6.73a5.45,5.45,0,0,0-1.62,3.46,13.14,13.14,0,0,0,1,5.64A33,33,0,0,0,9.93,25.6ZM4.81,10.34A3.75,3.75,0,0,1,5.93,8L8.55,5.32a1.91,1.91,0,0,1,1.3-.59,1.79,1.79,0,0,1,1.27.61c.47.44.91.89,1.39,1.38l.74.75,2.1,2.1A1.92,1.92,0,0,1,16,10.88a1.94,1.94,0,0,1-.66,1.32l-.66.66c-.65.67-1.27,1.29-1.94,1.89l0,0a1.38,1.38,0,0,0-.35,1.56s0,0,0,.06a16.75,16.75,0,0,0,2.47,4,28.34,28.34,0,0,0,6.79,6.19c.31.19.63.35.93.5a7,7,0,0,1,.78.43l.08,0a1.43,1.43,0,0,0,.68.17,1.5,1.5,0,0,0,1.05-.48l2.63-2.63A1.88,1.88,0,0,1,29.08,24a1.75,1.75,0,0,1,1.25.63l4.25,4.24a1.71,1.71,0,0,1,0,2.66c-.3.31-.61.62-.94.93-.49.48-1,1-1.47,1.53a3.86,3.86,0,0,1-3,1.29l-.37,0a16.93,16.93,0,0,1-6.07-1.82,34.25,34.25,0,0,1-11.42-8.94A31.43,31.43,0,0,1,5.7,15.25,11.49,11.49,0,0,1,4.81,10.34Z"/></svg>