<?xml version="1.0" encoding="utf-8"?>
<!-- Generator: Adobe Illustrator 22.1.0, SVG Export Plug-In . SVG Version: 6.00 Build 0)  -->
<svg version="1.1" id="Layer_1" xmlns="http://www.w3.org/2000/svg" xmlns:xlink="http://www.w3.org/1999/xlink" x="0px" y="0px"
	 viewBox="0 0 20 13" style="enable-background:new 0 0 20 13;" xml:space="preserve">
<style type="text/css">
	.st0{fill:#333333;}
</style>
<title>vehicle-icn</title>
<g id="Layer_2_1_">
	<g id="Layer_1-2">
		<g>
			<path class="st0" d="M18.2,13h-2.8c-0.3,0-0.6-0.1-0.8-0.4c-0.2-0.2-0.3-0.5-0.3-0.8v-0.2H5.8v0.2c0,0.6-0.5,1.2-1.2,1.2H1.9
				c-0.3,0-0.6-0.1-0.8-0.4c-0.2-0.2-0.3-0.5-0.3-0.8V6.6c0-0.6,0.1-1.3,0.5-1.8l3.3-4.1C4.7,0.3,5.1,0.1,5.6,0c1-0.1,8-0.1,8.8,0
				c0.5,0.1,0.9,0.3,1.2,0.6l3.2,4.1c0.4,0.6,0.6,1.2,0.5,1.9l0,5.2C19.3,12.4,18.8,13,18.2,13L18.2,13z M4.8,10.6h10.4v1.2
				c0,0.1,0.1,0.2,0.2,0.2h2.8c0.1,0,0.2-0.1,0.2-0.2V6.6c0-0.5-0.1-0.9-0.3-1.2l-3.2-4.1c-0.1-0.1-0.3-0.2-0.5-0.3
				C13.6,1,6.6,1,5.7,1c-0.2,0-0.3,0.1-0.4,0.3L2,5.4C1.8,5.7,1.7,6.1,1.7,6.6l0,5.3c0,0.1,0.1,0.2,0.2,0.2h2.8
				c0.1,0,0.2-0.1,0.2-0.2V10.6z"/>
		</g>
		<path class="st0" d="M2,3.8H0.5C0.2,3.9,0,4.1,0,4.3v0.3c0,0.3,0.2,0.5,0.5,0.5H1L2,3.8L2,3.8z"/>
		<path class="st0" d="M19.5,3.8H18l0,0.1l0.7,0.8L19,5.1h0.5c0.3,0,0.5-0.2,0.5-0.5c0,0,0,0,0,0V4.3C20,4.1,19.8,3.9,19.5,3.8z"/>
		<path class="st0" d="M13.6,2.1c-0.1-0.1-0.1-0.1-0.3-0.1c-0.3,0-6.4,0-6.7,0C6.5,1.9,6.4,2,6.4,2.1l-1.6,2H15L13.6,2.1z"/>
		<ellipse class="st0" cx="4.1" cy="7.2" rx="0.9" ry="1"/>
		<ellipse class="st0" cx="15.9" cy="7.2" rx="0.9" ry="1"/>
	</g>
</g>
</svg>
