<svg id="Layer_1" data-name="Layer 1" xmlns="http://www.w3.org/2000/svg" viewBox="0 0 40 40"><defs><style>.cls-1{fill:#fb982d;}</style></defs><title>map-popup-icon-50</title><path class="cls-1" d="M9.23,4.61A3.08,3.08,0,1,1,6.15,7.68,3.08,3.08,0,0,1,9.23,4.61m0-2.06a5.14,5.14,0,1,0,5.13,5.13A5.13,5.13,0,0,0,9.23,2.55Z"/><path class="cls-1" d="M26.15,2.55A5.65,5.65,0,1,1,20.51,8.2a5.65,5.65,0,0,1,5.64-5.65m0-2a7.7,7.7,0,1,0,7.7,7.7A7.7,7.7,0,0,0,26.15.5Z"/><path class="cls-1" d="M40,39.5H38V25.13A5.13,5.13,0,0,0,32.82,20H20a4.6,4.6,0,0,0-4.59,4.59V39.5H13.33V24.59A6.65,6.65,0,0,1,20,18H32.82A7.19,7.19,0,0,1,40,25.13Z"/><path class="cls-1" d="M2.05,27.72H0V18.8A4.77,4.77,0,0,1,4.76,14h8.57a5.14,5.14,0,0,1,5.13,5.14v.34H16.41v-.34a3.08,3.08,0,0,0-3.08-3.08H4.76A2.72,2.72,0,0,0,2.05,18.8Z"/></svg>