<svg id="Layer_1" data-name="Layer 1" xmlns="http://www.w3.org/2000/svg" viewBox="0 0 40 40"><defs><style>.cls-1{fill:#fff;}</style></defs><title>map-popup-icon-50</title><path class="cls-1" d="M20,2.35a14.07,14.07,0,0,1,14.14,14C34.14,26,23.69,34.43,20,37.13,16.3,34.44,5.86,26,5.86,16.32A14.07,14.07,0,0,1,20,2.35M20,0A16.41,16.41,0,0,0,3.5,16.32C3.5,29.41,20,40,20,40S36.5,29.41,36.5,16.32A16.41,16.41,0,0,0,20,0Z"/><path class="cls-1" d="M20,12.94a3.53,3.53,0,1,1-3.54,3.53A3.54,3.54,0,0,1,20,12.94m0-2.35a5.88,5.88,0,1,0,5.89,5.88A5.89,5.89,0,0,0,20,10.59Z"/></svg>