<svg xmlns="http://www.w3.org/2000/svg" viewBox="0 0 34 34"><defs><style>.cls-1,.cls-2,.cls-4{fill:none;}.cls-2,.cls-4{stroke:#fff;stroke-linecap:round;}.cls-2{stroke-linejoin:round;}.cls-3{fill:#fff;}</style></defs><title>disable </title><g id="Layer_2" data-name="Layer 2"><g id="Layer_1-2" data-name="Layer 1"><rect class="cls-1" width="34" height="34"/><polyline class="cls-2" points="16.04 23.25 12.29 27.07 6.71 21.54 10.46 17.73"/><path class="cls-3" d="M13.16,15.47h2.32a.77.77,0,0,1,.77.77v0a.77.77,0,0,1-.77.77H13.16a0,0,0,0,1,0,0V15.47A0,0,0,0,1,13.16,15.47Z" transform="translate(-7.18 15.27) rotate(-45.28)"/><path class="cls-3" d="M16.08,18.36h2.32a.77.77,0,0,1,.77.77v0a.77.77,0,0,1-.77.77H16.08a0,0,0,0,1,0,0V18.36A0,0,0,0,1,16.08,18.36Z" transform="translate(-8.37 18.2) rotate(-45.28)"/><rect class="cls-2" x="13.23" y="14.88" width="2.14" height="9.28" transform="translate(-9.63 15.95) rotate(-45.28)"/><line class="cls-2" x1="9.35" y1="24.16" x2="4.22" y2="29.23"/><path class="cls-2" d="M23.78,4.77a6,6,0,1,0,6,6A6,6,0,0,0,23.78,4.77Z"/><line class="cls-4" x1="21.81" y1="12.74" x2="25.75" y2="8.8"/><line class="cls-4" x1="21.81" y1="8.8" x2="25.75" y2="12.74"/></g></g></svg>