<?xml version="1.0" encoding="utf-8"?>
<!-- Generator: Adobe Illustrator 23.0.6, SVG Export Plug-In . SVG Version: 6.00 Build 0)  -->
<svg version="1.1" id="Layer_1" xmlns="http://www.w3.org/2000/svg" xmlns:xlink="http://www.w3.org/1999/xlink" x="0px" y="0px"
	 viewBox="0 0 34 34" style="enable-background:new 0 0 34 34;" xml:space="preserve">
<style type="text/css">
	.st0{fill:#333333;}
</style>
<title>lock</title>
<g>
	<path class="st0" d="M24.1,27.5H9.9c-0.3,0-0.5-0.2-0.5-0.5V15.9c0-0.3,0.2-0.5,0.5-0.5h14.2c0.3,0,0.5,0.2,0.5,0.5V27
		C24.6,27.3,24.4,27.5,24.1,27.5z M10.4,26.5h13.2V16.4H10.4V26.5z"/>
</g>
<g>
	<path class="st0" d="M22.3,15.9c-0.3,0-0.5-0.2-0.5-0.5v-3.1c0-2.7-2.2-4.8-4.8-4.8c0,0,0,0,0,0c-1.3,0-2.5,0.5-3.4,1.4
		c-0.9,0.9-1.4,2.1-1.4,3.4v3.1c0,0.3-0.2,0.5-0.5,0.5s-0.5-0.2-0.5-0.5v-3.1c0-1.6,0.6-3,1.7-4.1C14,7.1,15.4,6.5,17,6.5
		c0,0,0,0,0,0c3.2,0,5.8,2.6,5.8,5.8v3.1C22.8,15.7,22.6,15.9,22.3,15.9z"/>
</g>
<path class="st0" d="M17.7,21.6l0.1,1.9h-1.6l0.1-1.9c-0.3-0.2-0.5-0.6-0.5-1c0-0.7,0.5-1.2,1.2-1.2s1.2,0.5,1.2,1.2c0,0,0,0,0,0
	C18.2,21,18,21.4,17.7,21.6z"/>
</svg>
