<?xml version="1.0" encoding="utf-8"?>
<!-- Generator: Adobe Illustrator 22.1.0, SVG Export Plug-In . SVG Version: 6.00 Build 0)  -->
<svg version="1.1" id="Layer_1" xmlns="http://www.w3.org/2000/svg" xmlns:xlink="http://www.w3.org/1999/xlink" x="0px" y="0px"
	 viewBox="0 0 40 40" style="enable-background:new 0 0 40 40;" xml:space="preserve">
<style type="text/css">
	.st0{fill:#333333;}
</style>
<rect x="19.1" y="-3.3" transform="matrix(0.6082 -0.7938 0.7938 0.6082 -8.5903 23.984)" class="st0" width="1.8" height="48"/>
<path class="st0" d="M20.7,22.3c2.9-0.4,5.2-2.8,5.2-5.8c0-3.3-2.7-5.9-5.9-5.9s-5.9,2.6-5.9,5.9c0,0.3,0,0.6,0.1,0.8L20.7,22.3z
	 M20,12.9c1.9,0,3.5,1.6,3.5,3.5c0,1.9-1.6,3.6-3.5,3.6s-3.5-1.6-3.5-3.5C16.5,14.5,18,12.9,20,12.9z"/>
<g>
	<path class="st0" d="M6.7,11.6C8.7,6.2,13.9,2.3,20,2.3c7.8,0,14.1,6.2,14.1,14c0,4.5-2.3,8.8-5.1,12.4l1.9,1.4
		c3.1-3.9,5.7-8.6,5.7-13.8C36.5,7.3,29.1,0,20,0C13.1,0,7.2,4.2,4.7,10.1L6.7,11.6z"/>
	<path class="st0" d="M27.5,30.4c-2.8,3.1-5.8,5.5-7.5,6.7C16.3,34.4,5.9,26,5.9,16.3c0-0.8,0.1-1.5,0.2-2.3L4,12.4
		c-0.3,1.2-0.5,2.5-0.5,3.9C3.5,29.4,20,40,20,40s4.9-3.2,9.4-8.1L27.5,30.4z"/>
</g>
</svg>
