<?xml version="1.0" encoding="utf-8"?>
<!-- Generator: Adobe Illustrator 22.1.0, SVG Export Plug-In . SVG Version: 6.00 Build 0)  -->
<svg version="1.1" id="Layer_1" xmlns="http://www.w3.org/2000/svg" xmlns:xlink="http://www.w3.org/1999/xlink" x="0px" y="0px"
	 viewBox="0 0 40 40" style="enable-background:new 0 0 40 40;" xml:space="preserve">
<style type="text/css">
	.st0{fill:#333333;}
	.st1{fill:#EE252C;}
</style>
<title>map-popup-icon-50</title>
<rect x="34.3" y="20" class="st0" width="5.7" height="1.9"/>
<rect x="38.1" y="15.2" class="st0" width="1.9" height="12.4"/>
<rect y="20" class="st0" width="5.7" height="1.9"/>
<rect y="15.2" class="st0" width="1.9" height="12.4"/>
<rect x="15.2" y="4.8" class="st0" width="1.9" height="6.7"/>
<rect x="9.5" y="4.8" class="st0" width="12.4" height="1.9"/>
<path class="st0" d="M31,11.4h-1.9v1.9H31c0.3,0,0.5,0.1,0.7,0.2h0.2v0.2c0.3,0.3,0.5,0.7,0.5,1.1v18.6H20.7l-4.2-3.4l-0.5-0.4H8.1
	c-0.8,0-1.4-0.6-1.4-1.4V14.8c0-0.8,0.6-1.4,1.4-1.4c0,0,0,0,0,0h19v-1.9h-19c-1.8,0-3.3,1.5-3.3,3.3c0,0,0,0,0,0v13.3
	c0,1.8,1.5,3.3,3.3,3.3c0,0,0,0,0,0h7.1l4.8,3.8h14.3V14.8C34.3,12.9,32.8,11.5,31,11.4z"/>
<path class="st1" d="M28.1,6.7c-4.5,0-8.1,3.6-8.1,8.1c0,4.5,3.6,8.1,8.1,8.1c4.5,0,8.1-3.6,8.1-8.1c0,0,0,0,0,0
	C36.2,10.3,32.6,6.7,28.1,6.7L28.1,6.7z M31.9,15.4H29v2.9h-1.9v-2.9h-2.8v-1.9h2.9v-2.8h1.9v2.9h2.8V15.4z"/>
</svg>
