<svg xmlns="http://www.w3.org/2000/svg" viewBox="0 0 13 18"><defs><style>.cls-1{fill:none;stroke:#b3b3b3;stroke-linecap:round;stroke-linejoin:round;}</style></defs><title>address-icn</title><g id="Layer_2" data-name="Layer 2"><g id="Layer_1-2" data-name="Layer 1"><path class="cls-1" d="M6.5.5A5.66,5.66,0,0,0,.9,6.23c0,4.45,5.6,8.27,5.6,8.27s5.6-3.82,5.6-8.27A5.66,5.66,0,0,0,6.5.5Zm0,7.64A1.91,1.91,0,1,1,8.37,6.23,1.89,1.89,0,0,1,6.5,8.14Z"/><path class="cls-1" d="M10.39,13.1c1.29.46,2.11,1.14,2.11,1.9,0,1.38-2.69,2.5-6,2.5S.5,16.38.5,15c0-.75.8-1.43,2.06-1.89"/></g></g></svg>