<?xml version="1.0" encoding="utf-8"?>
<!-- Generator: Adobe Illustrator 23.0.6, SVG Export Plug-In . SVG Version: 6.00 Build 0)  -->
<svg version="1.1" id="Layer_1" xmlns="http://www.w3.org/2000/svg" xmlns:xlink="http://www.w3.org/1999/xlink" x="0px" y="0px"
	 viewBox="0 0 34 34" style="enable-background:new 0 0 34 34;" xml:space="preserve">
<style type="text/css">
	.st0{fill:#333333;}
</style>
<title>disable</title>
<g>
	<path class="st0" d="M12.3,27.6c-0.1,0-0.3-0.1-0.4-0.1l-5.6-5.5c-0.2-0.2-0.2-0.5,0-0.7l3.8-3.8c0.2-0.2,0.5-0.2,0.7,0
		c0.2,0.2,0.2,0.5,0,0.7l-3.4,3.5l4.9,4.8l3.4-3.5c0.2-0.2,0.5-0.2,0.7,0s0.2,0.5,0,0.7l-3.8,3.8C12.6,27.5,12.5,27.6,12.3,27.6z"/>
</g>
<g>
	<path class="st0" d="M13.1,16.8l1.6-1.6c0.3-0.3,0.8-0.3,1.1,0l0,0c0.3,0.3,0.3,0.8,0,1.1h0l-1.6,1.6l0,0L13.1,16.8L13.1,16.8z"/>
</g>
<g>
	<path class="st0" d="M16,19.7l1.6-1.6c0.3-0.3,0.8-0.3,1.1,0l0,0l0,0c0.3,0.3,0.3,0.8,0,1.1l0,0l-1.6,1.6l0,0L16,19.7L16,19.7z"/>
</g>
<g>
	<path class="st0" d="M16.8,24c-0.1,0-0.3-0.1-0.4-0.1l-6.6-6.5c-0.2-0.2-0.2-0.5,0-0.7l1.5-1.5c0.1-0.1,0.2-0.2,0.4-0.1
		c0.1,0,0.3,0.1,0.4,0.1l6.6,6.5c0.2,0.2,0.2,0.5,0,0.7l-1.5,1.5C17.1,24,17,24,16.8,24z M11,17l5.9,5.8l0.8-0.8l-5.9-5.8L11,17z"/>
</g>
<g>
	<path class="st0" d="M4.2,29.7c-0.1,0-0.3,0-0.4-0.1c-0.2-0.2-0.2-0.5,0-0.7L9,23.8c0.2-0.2,0.5-0.2,0.7,0s0.2,0.5,0,0.7l-5.1,5.1
		C4.5,29.7,4.3,29.7,4.2,29.7z"/>
</g>
<g>
	<path class="st0" d="M23.8,17.3c-3.6,0-6.5-2.9-6.5-6.5s2.9-6.5,6.5-6.5s6.5,2.9,6.5,6.5S27.4,17.3,23.8,17.3z M23.8,5.3
		c-3,0-5.5,2.5-5.5,5.5s2.5,5.5,5.5,5.5c3,0,5.5-2.5,5.5-5.5S26.8,5.3,23.8,5.3z"/>
</g>
<g>
	<path class="st0" d="M21.8,13.2c-0.1,0-0.3,0-0.4-0.1c-0.2-0.2-0.2-0.5,0-0.7l3.9-3.9c0.2-0.2,0.5-0.2,0.7,0s0.2,0.5,0,0.7
		l-3.9,3.9C22.1,13.2,21.9,13.2,21.8,13.2z"/>
</g>
<g>
	<path class="st0" d="M25.8,13.2c-0.1,0-0.3,0-0.4-0.1l-3.9-3.9c-0.2-0.2-0.2-0.5,0-0.7s0.5-0.2,0.7,0l3.9,3.9
		c0.2,0.2,0.2,0.5,0,0.7C26,13.2,25.9,13.2,25.8,13.2z"/>
</g>
</svg>
