<svg id="Layer_1" data-name="Layer 1" xmlns="http://www.w3.org/2000/svg" viewBox="0 0 40 40"><defs><style>.cls-1{fill:#fff;}.cls-2{fill:#43bc55;}</style></defs><title>map-popup-icon-50</title><path class="cls-1" d="M28.33,0H11.67a10,10,0,0,0-10,10V26.67a10,10,0,0,0,10,10V40h2.22V36.67H26.11V40h2.22V36.67a10,10,0,0,0,10-10V10A10,10,0,0,0,28.33,0Zm7.78,12.22V24.44H32.78v2.23h3.33a7.78,7.78,0,0,1-7.78,7.77H11.67a7.78,7.78,0,0,1-7.78-7.77V10a7.79,7.79,0,0,1,7.78-7.78H28.33A7.79,7.79,0,0,1,36.11,10H32.78v2.22Z"/><path class="cls-2" d="M20,8.89a9.45,9.45,0,1,0,9.44,9.44A9.44,9.44,0,0,0,20,8.89Zm1.67,9.43v5H18.33v-5a2.78,2.78,0,1,1,3.34,0Z"/></svg>