<?xml version="1.0" encoding="utf-8"?>
<!-- Generator: Adobe Illustrator 22.1.0, SVG Export Plug-In . SVG Version: 6.00 Build 0)  -->
<svg version="1.1" id="Layer_1" xmlns="http://www.w3.org/2000/svg" xmlns:xlink="http://www.w3.org/1999/xlink" x="0px" y="0px"
	 viewBox="0 0 13 20" style="enable-background:new 0 0 13 20;" xml:space="preserve">
<style type="text/css">
	.st0{fill:#333333;}
</style>
<title>driver-icn</title>
<g id="Layer_2_1_">
	<g id="Layer_1-2">
		<g>
			<path class="st0" d="M12.5,16c-0.1,0-0.1,0-0.2,0l-2-0.8l0.4-0.9l1.3,0.5v-2.9c0-1.4-1.1-2.5-2.5-2.5h-6C2.1,9.4,1,10.5,1,11.9
				v2.9l1.4-0.6l0.4,0.9L0.7,16c-0.2,0.1-0.3,0-0.5,0C0.1,15.8,0,15.7,0,15.5v-3.6C0,10,1.6,8.4,3.5,8.4h6c1.9,0,3.5,1.6,3.5,3.5
				v3.6c0,0.2-0.1,0.3-0.2,0.4C12.7,16,12.6,16,12.5,16z"/>
		</g>
		<g>
			<path class="st0" d="M6.1,7C4.2,7,2.6,5.4,2.6,3.5S4.2,0,6.1,0s3.5,1.6,3.5,3.5S8.1,7,6.1,7z M6.1,1C4.8,1,3.6,2.1,3.6,3.5
				S4.8,6,6.1,6c1.4,0,2.5-1.1,2.5-2.5S7.5,1,6.1,1z"/>
		</g>
		<g>
			<path class="st0" d="M6.5,20C4,20,2,18,2,15.5S4,11,6.5,11s4.5,2,4.5,4.5S9,20,6.5,20z M6.5,12C4.6,12,3,13.5,3,15.5
				S4.6,19,6.5,19s3.5-1.6,3.5-3.5S8.4,12,6.5,12z"/>
		</g>
		<path class="st0" d="M6.5,14.5c0.6,0,1,0.4,1,1s-0.4,1-1,1s-1-0.4-1-1S5.9,14.5,6.5,14.5 M6.5,13.5c-1.1,0-2,0.9-2,2s0.9,2,2,2
			s2-0.9,2-2S7.6,13.5,6.5,13.5z"/>
		<g>
			<rect x="3.6" y="13.6" transform="matrix(0.3189 -0.9478 0.9478 0.3189 -11.2562 14.0464)" class="st0" width="1" height="2.4"/>
		</g>
		<g>
			<rect x="7.7" y="14.4" transform="matrix(0.974 -0.2264 0.2264 0.974 -3.1442 2.4391)" class="st0" width="2.8" height="1"/>
		</g>
		<g>
			<rect x="6" y="16.7" class="st0" width="1" height="2.8"/>
		</g>
	</g>
</g>
</svg>
