<svg xmlns="http://www.w3.org/2000/svg" viewBox="0 0 34 50.05"><defs><style>.cls-1{fill:#272727;}.cls-2{fill:{{ color }};}.cls-3{fill:#fff;}.cls-4{fill:gray;}</style></defs><title>marker-case-sm-circle-x-gr</title><g id="Layer_2" data-name="Layer 2"><g id="Layer_1-2" data-name="Layer 1"><path class="cls-1" d="M32.5,23.8a16.29,16.29,0,0,0,1.5-7A16.88,16.88,0,0,0,17,0,16.88,16.88,0,0,0,0,16.8a18.29,18.29,0,0,0,1.5,7L15.2,49a2,2,0,0,0,3.5,0Z"/><path class="cls-2" d="M30.7,23.9A15.27,15.27,0,0,0,32,17.5,15.22,15.22,0,0,0,17,2,15.22,15.22,0,0,0,2,17.5a17,17,0,0,0,1.3,6.4l13,23.6c.7,1.3.5,1.3,1.1,0Z"/><circle class="cls-3" cx="27.5" cy="6.5" r="6"/><path class="cls-4" d="M27.5,1A5.5,5.5,0,1,1,22,6.5,5.51,5.51,0,0,1,27.5,1m0-1A6.5,6.5,0,1,0,34,6.5,6.5,6.5,0,0,0,27.5,0Z"/><rect class="cls-4" x="26.91" y="0.62" width="1" height="11.57" transform="translate(3.5 21.26) rotate(-45)"/><rect class="cls-4" x="21.62" y="5.91" width="11.57" height="1" transform="translate(3.5 21.26) rotate(-45)"/><rect class="cls-3" x="13" y="11.2" width="8" height="1"/><rect class="cls-3" x="13" y="11.2" width="1" height="4"/><rect class="cls-3" x="20" y="11.2" width="1" height="4"/><rect class="cls-3" x="21" y="29.2" width="2" height="2"/><rect class="cls-3" x="11" y="29.2" width="2" height="2"/><path class="cls-3" d="M21,22.2H13v-2H7v8a.94.94,0,0,0,1,1H26a.94.94,0,0,0,1-1v-8H21Z"/><path class="cls-3" d="M26,15.2H8a.94.94,0,0,0-1,1v3h7v2h6v-2h7v-3A.94.94,0,0,0,26,15.2Z"/></g></g></svg>