<svg xmlns="http://www.w3.org/2000/svg" viewBox="0 0 45.49 45.5"><defs><style>.cls-1{fill:#a0a3a0;}.cls-2{fill:#505050;}.cls-3{fill:#fff;}</style></defs><g id="Layer_2" data-name="Layer 2"><g id="Layer_1-2" data-name="Layer 1"><path d="M22.74,45.5h-.45l0-1.5h.42a21.42,21.42,0,0,0,4.38-.45L27.43,45A23,23,0,0,1,22.74,45.5Zm-5.56-.68A22.52,22.52,0,0,1,12.35,43L13,41.66a20.93,20.93,0,0,0,4.5,1.7Zm15.14-1.43L31.69,42a21.69,21.69,0,0,0,4.11-2.52l.92,1.19A23,23,0,0,1,32.32,43.39ZM8.06,40.14a23.25,23.25,0,0,1-3.54-3.75l1.2-.91A21.58,21.58,0,0,0,9,39Zm32.34-3-1.16-1a21.84,21.84,0,0,0,2.59-4.06l1.35.66A22.78,22.78,0,0,1,40.4,37.09ZM1.91,31.94A23.08,23.08,0,0,1,.38,27l1.48-.28a21.15,21.15,0,0,0,1.43,4.6Zm43-4.06-1.47-.34A21.32,21.32,0,0,0,44,22.75h1.51A23.19,23.19,0,0,1,44.91,27.88Zm-43.41-6L0,21.87a23,23,0,0,1,.78-5.1l1.45.39A21.25,21.25,0,0,0,1.5,21.92Zm42.25-2.33a21.39,21.39,0,0,0-1.25-4.66l1.4-.55a23.2,23.2,0,0,1,1.34,5ZM4,12.69,2.69,12A23,23,0,0,1,5.64,7.74l1.13,1A21.61,21.61,0,0,0,4,12.69Zm36.22-2a21.06,21.06,0,0,0-3.17-3.63l1-1.11a22.8,22.8,0,0,1,3.4,3.88Zm-29.9-5.2L9.46,4.27A22.8,22.8,0,0,1,14,1.76l.58,1.38A21.46,21.46,0,0,0,10.33,5.49ZM33.16,4.23a21.33,21.33,0,0,0-4.44-1.87L29.14.91a23.12,23.12,0,0,1,4.76,2Zm-14-2.43L18.91.32A22.81,22.81,0,0,1,24.06,0L24,1.54A21.55,21.55,0,0,0,19.16,1.8Z"/><circle class="cls-1" cx="22.73" cy="22.75" r="17"/><path class="cls-2" d="M22.73,6.75a16,16,0,1,1-16,16,16,16,0,0,1,16-16m0-2a18,18,0,1,0,18,18,18,18,0,0,0-18-18Z"/><polygon points="22.73 23.92 15.3 28.38 22.73 13.52 30.16 28.38 22.73 23.92"/><path class="cls-3" d="M22.73,15.75l5,10-5-3-5,3,5-10m0-4.47L21,14.86l-5,10L12.87,31l5.89-3.53,4-2.39,4,2.39L32.59,31l-3.07-6.14-5-10-1.79-3.58Z"/></g></g></svg>