<svg xmlns="http://www.w3.org/2000/svg" viewBox="0 0 34 50.05"><defs><style>.cls-1{fill:#272727;}.cls-2{fill:#010101;}.cls-3{fill:#fff;}.cls-4{fill:red;}.cls-5{fill:#f72f2f;}</style></defs><title>marker-case-sm-btry-low</title><g id="Layer_2" data-name="Layer 2"><g id="Layer_1-2" data-name="Layer 1"><path class="cls-1" d="M32.5,23.8a16.29,16.29,0,0,0,1.5-7A16.88,16.88,0,0,0,17,0,16.88,16.88,0,0,0,0,16.8a18.29,18.29,0,0,0,1.5,7L15.2,49a2,2,0,0,0,3.5,0Z"/><path class="cls-2" d="M30.7,23.9A15.27,15.27,0,0,0,32,17.5,15.22,15.22,0,0,0,17,2,15.22,15.22,0,0,0,2,17.5a17,17,0,0,0,1.3,6.4l13,23.6c.7,1.3.5,1.3,1.1,0Z"/><rect class="cls-3" x="13" y="13.2" width="8" height="1"/><rect class="cls-3" x="13" y="13.2" width="1" height="4"/><rect class="cls-3" x="20" y="13.2" width="1" height="4"/><rect class="cls-3" x="21" y="31.2" width="2" height="2"/><rect class="cls-3" x="11" y="31.2" width="2" height="2"/><path class="cls-3" d="M21,24.2H13v-2H7v8a.94.94,0,0,0,1,1H26a.94.94,0,0,0,1-1v-8H21Z"/><path class="cls-3" d="M26,17.2H8a.94.94,0,0,0-1,1v3h7v2h6v-2h7v-3A.94.94,0,0,0,26,17.2Z"/><circle class="cls-2" cx="27.5" cy="6.7" r="6"/><path class="cls-4" d="M27.5,1.2A5.5,5.5,0,1,1,22,6.7a5.51,5.51,0,0,1,5.5-5.5m0-1A6.5,6.5,0,1,0,34,6.7,6.5,6.5,0,0,0,27.5.2Z"/><path class="cls-5" d="M30.42,5.32a.32.32,0,0,0-.28-.15H27.83V1.54a.34.34,0,0,0-.26-.33.33.33,0,0,0-.37.19L24.56,7.34a.33.33,0,0,0,0,.32.35.35,0,0,0,.28.15h2.31v3.62a.33.33,0,0,0,.26.33h.07a.32.32,0,0,0,.3-.19l2.64-5.94A.31.31,0,0,0,30.42,5.32Z"/></g></g></svg>