<svg xmlns="http://www.w3.org/2000/svg" viewBox="0 0 22 12"><defs><style>.cls-1{fill:#fff;isolation:isolate;}</style></defs><g id="Layer_2" data-name="Layer 2"><g id="Layer_1-2" data-name="Layer 1"><circle class="cls-1" cx="5" cy="10" r="2"/><path class="cls-1" d="M19,4H17.5a1,1,0,0,1-.8-.4L14.6.8A2,2,0,0,0,13,0H6.5a1,1,0,0,0-.8.4L3.3,3.6a1,1,0,0,1-.8.4H1A1,1,0,0,0,0,5V9a1,1,0,0,0,1,1H2a3,3,0,0,1,6,0h5a3,3,0,0,1,6,0h2a1,1,0,0,0,1-1V7A3,3,0,0,0,19,4ZM10,4H5L6.7,1.45A1,1,0,0,1,7.54,1H10Zm1,0V1h1.46a1,1,0,0,1,.84.45L15,4Z"/><circle class="cls-1" cx="16" cy="10" r="2"/></g></g></svg>