<?xml version="1.0" encoding="UTF-8"?><svg xmlns="http://www.w3.org/2000/svg" viewBox="0 0 21.65 12.99"><defs><style>.e{fill:#3f9978;}</style></defs><g id="a"/><g id="b"><g id="c"><path id="d" class="e" d="M11.91,7.58h-.54v-2.98c0-.15-.12-.27-.27-.27h-.46c-.16,0-.32,.05-.45,.14l-.52,.35c-.12,.08-.16,.25-.08,.37h0l.3,.45c.08,.12,.25,.16,.37,.08h.02v1.87h-.54c-.15,0-.27,.12-.27,.27h0v.54c0,.15,.12,.27,.27,.27h2.17c.15,0,.27-.12,.27-.27h0v-.54c0-.15-.12-.27-.27-.27h0ZM20.57,0H1.08C.48,0,0,.48,0,1.08V11.91c0,.6,.48,1.08,1.08,1.08H20.57c.6,0,1.08-.48,1.08-1.08V1.08c0-.6-.48-1.08-1.08-1.08ZM1.62,11.37v-2.17c1.2,0,2.17,.97,2.17,2.17H1.62ZM1.62,3.79V1.62H3.79c0,1.2-.97,2.17-2.17,2.17Zm9.2,6.5c-1.79,0-3.25-1.7-3.25-3.79s1.45-3.79,3.25-3.79,3.25,1.7,3.25,3.79-1.45,3.79-3.25,3.79Zm9.2,1.08h-2.17c0-1.2,.97-2.17,2.17-2.17v2.17Zm0-7.58c-1.2,0-2.17-.97-2.17-2.17h2.17V3.79Z"/></g></g></svg>