<svg xmlns="http://www.w3.org/2000/svg" viewBox="0 0 29.81 28"><defs><style>.cls-1,.cls-3{fill:none;}.cls-2{fill:#fff;}.cls-3{stroke:#fff;}</style></defs><g id="Layer_2" data-name="Layer 2"><g id="Layer_1-2" data-name="Layer 1"><g id="Group_1" data-name="Group 1"><ellipse class="cls-1" cx="13.5" cy="14" rx="13.5" ry="14"/><path class="cls-2" d="M13.94,28l-.16-5a8.18,8.18,0,0,0,3.64-1l2.42,4.37A13,13,0,0,1,13.94,28Z"/><path class="cls-2" d="M8,26.76A13.67,13.67,0,0,1,3.17,23l3.88-3.16a8.68,8.68,0,0,0,3,2.38Z"/><path class="cls-2" d="M24.36,22.32l-4.07-2.91a9.08,9.08,0,0,0,1.53-3.58l4.91,1A14.11,14.11,0,0,1,24.36,22.32Z"/><path class="cls-2" d="M.46,17.63A14.68,14.68,0,0,1,0,14a14.27,14.27,0,0,1,.19-2.36l4.94.82A8.73,8.73,0,0,0,5,14a9.47,9.47,0,0,0,.3,2.38Z"/><path class="cls-2" d="M6.55,8.82,2.39,6A13.86,13.86,0,0,1,6.77,1.86L9.34,6.15A8.88,8.88,0,0,0,6.55,8.82Z"/><path class="cls-2" d="M17.18,5.88A8,8,0,0,0,12.94,5l-.32-5a13.16,13.16,0,0,1,6.83,1.4Z"/><path class="cls-2" d="M23.14,11.59l3.5-.8a13.14,13.14,0,0,0-.62-2Z"/><path class="cls-3" d="M28.82,3h0a1.75,1.75,0,0,1-.05,2.48l-9.18,8.87a1.74,1.74,0,0,1-2.48,0h0a1.76,1.76,0,0,1,0-2.48l9.19-8.87A1.74,1.74,0,0,1,28.82,3Z"/><path id="Rectangle_65" data-name="Rectangle 65" class="cls-2" d="M29.18,2.61h0a2.26,2.26,0,0,1-.06,3.19L25.34,9.46a2.26,2.26,0,0,1-3.19-.06h0a2.25,2.25,0,0,1,.05-3.18L26,2.56A2.26,2.26,0,0,1,29.18,2.61Z"/><path id="Rectangle_66" data-name="Rectangle 66" class="cls-2" d="M20.42,5.32l5.81,5.81a1.12,1.12,0,0,1,0,1.59h0a1.13,1.13,0,0,1-1.6,0l-5.8-5.8a1.13,1.13,0,0,1,0-1.6h0A1.12,1.12,0,0,1,20.42,5.32Z"/></g></g></g></svg>