<svg xmlns="http://www.w3.org/2000/svg" viewBox="0 0 27 27"><defs><style>.cls-1{fill:none;stroke:#fff;}.cls-2{isolation:isolate;}.cls-3{fill:#fff;}</style></defs><g id="Layer_2" data-name="Layer 2"><g id="Layer_1-2" data-name="Layer 1"><g id="Group_3" data-name="Group 3"><g id="Rectangle_72-2" data-name="Rectangle 72-2"><rect class="cls-1" x="0.5" y="0.5" width="26" height="26" rx="1.5"/></g><g class="cls-2"><path class="cls-3" d="M10.5,20.5l1.57-.29a.57.57,0,0,0,.35-.22.59.59,0,0,0,.15-.41V7.1H9.17a.39.39,0,0,0-.31.11.61.61,0,0,0-.15.26L7.94,9.83H7.37V6.3H19.71V9.83h-.56l-.77-2.36a.72.72,0,0,0-.14-.26.38.38,0,0,0-.3-.11H14.49V19.58a.62.62,0,0,0,.15.42.67.67,0,0,0,.36.21l1.57.29V21H10.5Z"/></g></g></g></g></svg>