<svg xmlns="http://www.w3.org/2000/svg" viewBox="0 0 37.87 30.82"><defs><style>.cls-1{fill:#fff;}</style></defs><g id="Layer_2" data-name="Layer 2"><g id="Layer_1-2" data-name="Layer 1"><polygon class="cls-1" points="5.06 15.19 5.06 4.79 19.06 4.79 19.06 13.19 21.06 12.72 21.06 2.79 3.06 2.79 3.06 14.79 5.06 15.19"/><path class="cls-1" d="M26.17,23h-3V22h3Zm-6,0h-3V22h3Zm-6.08-.09a5,5,0,0,1-2.84-1.64l.76-.65a4,4,0,0,0,2.26,1.31Zm15.2-.07-.25-1a4,4,0,0,0,2.17-1.45L32,21A5.05,5.05,0,0,1,29.29,22.84ZM10,18.23v-3h1v3Zm23-.3H32v-3h1ZM11,12.21H10v-3h1Zm22-.28H32v-3h1ZM11,6.21H10V5a4.9,4.9,0,0,1,.39-1.93l.92.38A4.08,4.08,0,0,0,11,5Zm22-.28H32V5a4.07,4.07,0,0,0-.41-1.78l.89-.44A4.86,4.86,0,0,1,33,5ZM13.09,1.5,12.6.63A5,5,0,0,1,15,0h3V1H15A4,4,0,0,0,13.09,1.5Zm16.66-.11A3.94,3.94,0,0,0,28,1H27V0h1a4.84,4.84,0,0,1,2.15.49ZM24,1H21V0h3Z"/><g id="Ellipse_104" data-name="Ellipse 104"><path class="cls-1" d="M9.53,30.82a9.53,9.53,0,1,1,9.53-9.53A9.55,9.55,0,0,1,9.53,30.82Zm0-17A7.47,7.47,0,1,0,17,21.29,7.48,7.48,0,0,0,9.53,13.82Z"/></g><path class="cls-1" d="M18.51,18.13l4.62-8.4L34.19,26.79H17.3a9.79,9.79,0,0,1-1.91,2H37.87L23,5.84,17.43,16A9.56,9.56,0,0,1,18.51,18.13Z"/></g></g></svg>