<svg xmlns="http://www.w3.org/2000/svg" viewBox="0 0 28.89 28.89"><defs><style>.cls-1{fill:#fff;}</style></defs><g id="Layer_2" data-name="Layer 2"><g id="Layer_1-2" data-name="Layer 1"><rect id="Rectangle_87" data-name="Rectangle 87" class="cls-1" x="6.94" y="6.94" width="3" height="3" rx="0.41"/><rect id="Rectangle_87-2" data-name="Rectangle 87" class="cls-1" x="12.94" y="6.94" width="3" height="3" rx="0.41"/><rect id="Rectangle_87-3" data-name="Rectangle 87" class="cls-1" x="18.94" y="6.94" width="3" height="3" rx="0.41"/><rect id="Rectangle_87-4" data-name="Rectangle 87" class="cls-1" x="6.94" y="12.94" width="3" height="3" rx="0.41"/><rect id="Rectangle_87-5" data-name="Rectangle 87" class="cls-1" x="12.94" y="12.94" width="3" height="3" rx="0.41"/><rect id="Rectangle_87-6" data-name="Rectangle 87" class="cls-1" x="18.94" y="12.94" width="3" height="3" rx="0.41"/><rect id="Rectangle_87-7" data-name="Rectangle 87" class="cls-1" x="6.94" y="18.94" width="3" height="3" rx="0.41"/><rect id="Rectangle_87-8" data-name="Rectangle 87" class="cls-1" x="12.94" y="18.94" width="3" height="3" rx="0.41"/><rect id="Rectangle_87-9" data-name="Rectangle 87" class="cls-1" x="18.94" y="18.94" width="3" height="3" rx="0.41"/><path class="cls-1" d="M14.44,0A14.42,14.42,0,0,0,.94,19.54v8.4H9.35A14.44,14.44,0,1,0,14.44,0Zm0,27A12.56,12.56,0,1,1,27,14.44,12.57,12.57,0,0,1,14.44,27Z"/></g></g></svg>