<?xml version="1.0" encoding="utf-8"?>
<!-- Generator: Adobe Illustrator 22.1.0, SVG Export Plug-In . SVG Version: 6.00 Build 0)  -->
<svg version="1.1" id="Layer_1" xmlns="http://www.w3.org/2000/svg" xmlns:xlink="http://www.w3.org/1999/xlink" x="0px" y="0px"
	 viewBox="0 0 28 32" style="enable-background:new 0 0 28 32;" xml:space="preserve">
<style type="text/css">
	.st0{fill:#808080;}
	.st1{fill:url(#SVGID_1_);}
	.st2{fill:#ED1C24;}
	.st3{fill:#00DB00;}
	.st4{fill:#00A880;}
	.st5{fill:#FFFFFF;}
	.st6{fill:#960000;}
	.st7{fill:#BE39C9;}
	.st8{fill:#2FC1F4;}
	.st9{fill:#F7E800;stroke:#000000;stroke-miterlimit:10;}
	.st10{fill:#ED1C24;stroke:#FFFFFF;stroke-miterlimit:10;}
	.st11{fill:#0F0F0F;}
	.st12{fill:#FFFF00;stroke:#BE39C9;stroke-miterlimit:10;}
	.st13{fill:none;stroke:#ED1C24;stroke-miterlimit:10;}
	.st14{fill:#FFFFFF;stroke:#ED1C24;stroke-miterlimit:10;}
</style>
<path class="st7" d="M28,14.1c0-8.3-7.1-14.8-15.6-13.9C5.9,0.9,0.7,6.2,0.1,12.8c-0.6,6.1,2.8,11.5,7.9,14c0.9,0.4,1.7,1,2.3,1.7
	l2.8,3.1c0.5,0.6,1.4,0.6,1.9,0l2.8-3.1c0.6-0.7,1.5-1.3,2.3-1.7C24.7,24.5,28,19.7,28,14.1z"/>
<g>
	<path d="M14,1.4c7,0,12.7,5.7,12.7,12.7c0,4.9-2.8,9.4-7.2,11.5c-1.1,0.5-2,1.2-2.7,2l-2.8,3l-2.8-3.1c-0.7-0.8-1.6-1.5-2.7-2
		c-4.9-2.3-7.7-7.3-7.2-12.7C1.9,6.9,6.6,2.1,12.5,1.5C13,1.4,13.5,1.4,14,1.4 M14,0.1c-0.5,0-1.1,0-1.6,0.1
		C5.9,0.9,0.7,6.2,0.1,12.8c-0.6,6.1,2.8,11.5,7.9,14c0.9,0.4,1.7,1,2.3,1.7l2.8,3.1c0.3,0.3,0.6,0.4,0.9,0.4c0.3,0,0.7-0.1,0.9-0.4
		l2.8-3.1c0.6-0.7,1.5-1.3,2.3-1.7c4.7-2.3,8-7.1,8-12.6C28,6.4,21.7,0.1,14,0.1L14,0.1z"/>
</g>
<g>
	<path class="st5" d="M10.2,19c0.6-0.8,1.2-1.5,1.8-2.2c0.5-0.5,1.2-0.8,1.9-0.8c1.2,0,2.3,0,3.5,0c0.4,0,0.8,0.3,0.8,0.7
		s-0.3,0.7-0.8,0.7s-1,0-1.5,0c-0.4,0-0.7,0.3-0.8,0.6c0,0.4,0.3,0.7,0.7,0.7c1.2,0,2.5,0,3.7,0c0.2,0,0.4-0.1,0.6-0.3
		c0.3-0.3,0.7-0.7,1-0.9c0.4-0.4,0.8-0.4,1.2-0.1c0.3,0.3,0.3,0.8-0.1,1.2c-0.5,0.6-1.1,1.1-1.6,1.6c-0.3,0.3-0.5,0.3-0.8,0.3
		c-1.9,0-3.7,0-5.5,0c-0.7,0-1.1,0.2-1.4,0.8c0,0.1-0.1,0.1-0.1,0.2l0,0C11.9,20.6,11,19.8,10.2,19z"/>
	<path class="st5" d="M11.3,23.9c-1.5,0-3.1,0-4.6,0c0-0.1,0-0.1,0-0.2c0-1,0-2,0-3c0-0.1,0-0.2,0.1-0.3c0.2-0.3,0.3-0.4,0.5-0.6
		C8.6,21.3,9.9,22.6,11.3,23.9z"/>
	<path class="st5" d="M8,19.2c0.1-0.1,0.2-0.2,0.3-0.3c0.2-0.2,0.3-0.2,0.6,0c1.2,1.2,2.3,2.3,3.5,3.5c0.2,0.2,0.2,0.4,0,0.6
		c-0.1,0.1-0.2,0.2-0.2,0.3C10.8,21.9,9.4,20.6,8,19.2z"/>
</g>
<g>
	<path class="st9" d="M13.3,2.9l-6,10.4c-0.3,0.6,0.1,1.3,0.7,1.3H20c0.6,0,1.1-0.7,0.7-1.3l-6-10.4C14.4,2.4,13.6,2.4,13.3,2.9z"/>
</g>
<rect x="13.5" y="6" width="1" height="4"/>
<rect x="13.5" y="11" width="1" height="1.5"/>
</svg>
