<?xml version="1.0" encoding="utf-8"?>
<!-- Generator: Adobe Illustrator 22.1.0, SVG Export Plug-In . SVG Version: 6.00 Build 0)  -->
<svg version="1.1" id="Layer_1" xmlns="http://www.w3.org/2000/svg" xmlns:xlink="http://www.w3.org/1999/xlink" x="0px" y="0px"
	 viewBox="0 0 28 32" style="enable-background:new 0 0 28 32;" xml:space="preserve">
<style type="text/css">
	.st0{fill: {{ color }};}
	.st1{fill:none;stroke:{{ color }};stroke-width:0.6364;stroke-miterlimit:10;}
	.st2{fill: {{ handColor }};}
</style>
<path class="st0" d="M28,14c0-8.3-7.1-14.8-15.6-13.9C5.9,0.8,0.7,6.1,0.1,12.7c-0.6,6.1,2.8,11.5,7.9,14c0.9,0.4,1.7,1,2.3,1.7
	l2.8,3.1c0.5,0.6,1.4,0.6,1.9,0l2.8-3.1c0.6-0.7,1.5-1.3,2.3-1.7C24.7,24.4,28,19.6,28,14z"/>
<path class="st1" d="M14,1.6c6.8,0,12.4,5.6,12.4,12.4c0,4.7-2.8,9.1-7.1,11.2c-1.1,0.5-2.1,1.2-2.8,2.1L14,30.1l-2.5-2.8
	c-0.8-0.8-1.7-1.5-2.8-2.1c-4.8-2.3-7.5-7.1-7-12.4C2.2,7,6.8,2.3,12.6,1.7C13.1,1.6,13.5,1.6,14,1.6"/>
<g>
	<path class="st2" d="M10,13.7c0.7-0.8,1.3-1.7,2.1-2.6c0.6-0.6,1.3-0.9,2.2-0.9c1.3,0,2.6,0,3.9,0c0.5,0,0.8,0.3,0.9,0.8
		c0,0.5-0.3,0.8-0.8,0.8c-0.6,0-1.2,0-1.8,0c-0.5,0-0.8,0.3-0.8,0.7c0,0.4,0.3,0.8,0.8,0.8c1.4,0,2.8,0,4.2,0c0.2,0,0.5-0.1,0.6-0.3
		c0.4-0.3,0.8-0.7,1.1-1.1c0.5-0.5,1-0.5,1.4-0.1c0.4,0.4,0.3,0.9-0.1,1.3c-0.6,0.6-1.3,1.3-1.9,1.9c-0.3,0.3-0.5,0.4-0.9,0.4
		c-2.1,0-4.2,0-6.3,0c-0.7,0-1.3,0.2-1.6,0.9c0,0.1-0.1,0.1-0.1,0.1c0,0,0,0,0,0C11.9,15.6,11,14.7,10,13.7z"/>
	<path class="st2" d="M11.3,19.4c-1.7,0-3.5,0-5.2,0c0-0.1,0-0.1,0-0.2c0-1.1,0-2.2,0-3.4c0-0.1,0-0.2,0.1-0.3
		c0.2-0.2,0.4-0.5,0.6-0.7C8.2,16.4,9.7,17.9,11.3,19.4z"/>
	<path class="st2" d="M7.6,14c0.1-0.1,0.1-0.2,0.2-0.2c0.2-0.2,0.4-0.2,0.6,0c1.3,1.3,2.7,2.7,4,4c0.2,0.2,0.2,0.4,0,0.7
		c-0.1,0.1-0.1,0.2-0.2,0.2C10.7,17.1,9.1,15.6,7.6,14z"/>
</g>
<g>
	<path d="M14,1.3C21,1.3,26.7,7,26.7,14c0,4.9-2.8,9.4-7.2,11.5c-1.1,0.5-2,1.2-2.7,2L14,30.5l-2.8-3.1c-0.7-0.8-1.6-1.5-2.7-2
		c-4.9-2.3-7.7-7.3-7.2-12.7C1.9,6.8,6.6,2,12.5,1.4C13,1.3,13.5,1.3,14,1.3 M14,0c-0.5,0-1.1,0-1.6,0.1C5.9,0.8,0.7,6.1,0.1,12.7
		c-0.6,6.1,2.8,11.5,7.9,14c0.9,0.4,1.7,1,2.3,1.7l2.8,3.1c0.3,0.3,0.6,0.4,0.9,0.4c0.3,0,0.7-0.1,0.9-0.4l2.8-3.1
		c0.6-0.7,1.5-1.3,2.3-1.7c4.7-2.3,8-7.1,8-12.6C28,6.3,21.7,0,14,0L14,0z"/>
</g>
</svg>
