<?xml version="1.0" encoding="utf-8"?>
<!-- Generator: Adobe Illustrator 21.1.0, SVG Export Plug-In . SVG Version: 6.00 Build 0)  -->
<svg version="1.1" id="Layer_1" xmlns="http://www.w3.org/2000/svg" xmlns:xlink="http://www.w3.org/1999/xlink" x="0px" y="0px"
	 viewBox="0 0 34 50" style="enable-background:new 0 0 34 50;" xml:space="preserve">
<style type="text/css">
	.st0{fill:#222222;}
	.st2{fill:#FFFFFF;}
</style>
<path class="st0" d="M32.3,23.8c1-2.1,1.5-4.5,1.5-7C33.8,7.5,26.3,0,17,0S0.2,7.5,0.2,16.8c0,2.5,0.6,4.8,1.5,7l13.5,25.2
	c0.8,1.4,2.8,1.4,3.5,0L32.3,23.8z"/>
<g>
	<path fill="{{ color }}" d="M30.7,23.9c0.9-2,1.3-4.1,1.3-6.4C32,8.9,25.3,2,17,2S2,8.9,2,17.5c0,2.3,0.5,4.4,1.3,6.4l13,23.6
		c0.7,1.3,0.5,1.3,1.1,0L30.7,23.9z"/>
</g>

<g>
	<path class="st2" d="M26,17c0-0.4-0.1-0.7-0.2-1c0-0.1,0-0.2-0.1-0.2l-1.6-3.9l0,0c-0.5-1.6-1.3-3.2-3.3-3.2h-7.5
		c-2,0-2.7,1.6-3.3,3.1l-1.6,3.9C8.1,16.1,8,16.5,8,17v1.2c0,0.2,0,0.4,0.1,0.5C8,18.8,8,18.9,8,19.1v3.6c0,0.5,0.4,1,1,1h2
		c0.5,0,1-0.4,1-1v-1.8h10.4v1.8c0,0.5,0.4,1,1,1H25c0.5,0,1-0.4,1-1v-3.6c0-0.1,0-0.2-0.1-0.3c0-0.2,0.1-0.4,0.1-0.5L26,17L26,17
		L26,17z M11.2,12.2c0.6-1.8,1.1-2.3,2.1-2.3h7.5c1,0,1.6,0.6,2.1,2.3l1.1,2.3c-0.4-0.1-0.8-0.2-1.2-0.2H11.1
		c-0.4,0-0.8,0.1-1.1,0.2L11.2,12.2z M12.1,18.6h-2.1c-0.4,0-0.7-0.3-0.7-0.7c0-0.4,0.3-0.7,0.7-0.7h2.1c0.4,0,0.7,0.3,0.7,0.7
		C12.8,18.3,12.5,18.6,12.1,18.6z M19.5,18.5h-4.8c-0.2,0-0.4-0.2-0.4-0.4c0-0.2,0.2-0.4,0.4-0.4h4.8c0.2,0,0.4,0.2,0.4,0.4
		C19.9,18.3,19.7,18.5,19.5,18.5z M23.9,18.6h-2.1c-0.4,0-0.7-0.3-0.7-0.7c0-0.4,0.3-0.7,0.7-0.7h2.1c0.4,0,0.7,0.3,0.7,0.7
		C24.6,18.3,24.3,18.6,23.9,18.6z"/>
</g>
</svg>
