<?xml version="1.0" encoding="utf-8"?>
<!-- Generator: Adobe Illustrator 24.3.0, SVG Export Plug-In . SVG Version: 6.00 Build 0)  -->
<svg version="1.1" id="Layer_1" xmlns="http://www.w3.org/2000/svg" xmlns:xlink="http://www.w3.org/1999/xlink" x="0px" y="0px"
	 viewBox="0 0 100 100" style="enable-background:new 0 0 100 100;" xml:space="preserve">
<style type="text/css">
	.st0{fill:#F5B339;}
	.st1{fill:#FFDD3E;}
	.st2{fill:#282F3A;}
	.st3{fill:#3A454F;}
	.st4{fill:#DD3E3E;}
	.st5{fill:#FFFFFF;}
	.st6{fill:#F2E5C0;}
	.st7{fill:#EC9100;}
</style>
<g transform="rotate({{ rotate }} 50 50)">
	<g>
		<path class="st0" d="M70.6,22.3C70.6,12,70,7.7,67.4,5.1S54.4,0.5,50,0.5S35.2,2.4,32.6,5.1c-2.6,2.7-3.2,6.4-3.2,17.2
			c0,14.8-1.8,70.2,2.7,73.9c4.5,3.7,13.3,3.9,17.8,3.9s13.3-0.1,17.8-3.9C72.3,92.4,70.6,37,70.6,22.3z"/>
		<path class="st1" d="M68.8,24.6c0-9.9-0.5-13.6-2.9-16.1C63.5,6.1,54,5.1,50,5.1s-13.5,1-15.9,3.4c-2.4,2.4-2.9,5-2.9,16.1
			c0,2.3,0.3,5.8,0.9,9.2c1.3,2.9,2,7.7,2.4,12.4c-0.5,0.8-0.9,2.3-0.9,3.8c-0.7,2.2-0.2,6.8,0,9.6c0,0.2,0,0.6,0,0.8
			c0,0-0.4,9.8,0,14.1c0.1,1,0.3,2.5,0.5,2.8c0.1,1.3-1.6,6.8-1.5,7.9c0.4,2,0.4,6.7,0.9,7.2c4.1,3.4,12.2,3.5,16.3,3.5
			s12.2-0.1,16.3-3.5c0.6-0.5,0.6-5.1,0.9-7.2c0.2-1-1.6-6.5-1.5-7.9c0.3-0.8,0.4-1.8,0.5-2.8c0.4-4.3,0-14.1,0-14.1
			c0-0.2,0-0.6,0-0.8c0.2-2.8,0.7-7.4,0-9.6c0-1.6-0.3-3.1-0.9-3.8c0.5-4.7,1.2-9.5,2.4-12.4C68.5,30.3,68.8,26.9,68.8,24.6z"/>
		<g>
			<path class="st2" d="M33.7,59.5V49.5L31,34.7c-0.5,5.3-0.6,15.6-0.5,24.8H33.7z"/>
			<path class="st2" d="M30.5,60.3c0.1,9.7,0.4,18,0.4,18l2.8-3.9V60.3H30.5z"/>
		</g>
		<path class="st2" d="M50,28.3c0,0-10.3-0.1-17.8,5.4l2.4,12.4c0,0,4.2-3.6,15.4-3.6s15.4,3.6,15.4,3.6l2.4-12.4
			C60.3,28.2,50,28.3,50,28.3z"/>
		<g>
			<path class="st3" d="M66.3,59.5V49.5L69,34.7c0.5,5.3,0.6,15.6,0.5,24.8H66.3z"/>
			<path class="st3" d="M69.5,60.3c-0.1,9.7-0.4,18-0.4,18l-2.8-3.9V60.3H69.5z"/>
		</g>
		<path class="st2" d="M65.8,77.2c-3.8,1-27.7,1-31.5,0c0,0-1.8,4.8-1.5,7.9c2.6,1.6,8.1,3.6,17.2,3.6s14.6-2,17.2-3.6
			C67.6,82,65.8,77.2,65.8,77.2z"/>
		<g>
			<path class="st2" d="M30,37.5l-4.3,1.1c-0.4,0.1-0.7-0.2-0.7-0.6c0.1-0.8,0.6-1.9,2.1-2.3C29.6,34.9,30,37.5,30,37.5z"/>
			<path class="st2" d="M70,37.5l4.3,1.1c0.4,0.1,0.7-0.2,0.7-0.6c-0.1-0.8-0.6-1.9-2.1-2.3C70.4,34.9,70,37.5,70,37.5z"/>
		</g>
		<path class="st3" d="M65.4,46.1l2.4-12.4C60.3,28.2,50,28.3,50,28.3v14.2C61.2,42.5,65.4,46.1,65.4,46.1z"/>
		<path class="st3" d="M65.8,77.2c-0.1,0-0.3,0.1-0.4,0.1c0,0-0.1,0-0.1,0c-0.1,0-0.2,0-0.3,0c-2.6,0.4-8.8,0.6-15,0.6v10.7
			c9.1,0,14.6-2,17.2-3.6C67.6,82,65.8,77.2,65.8,77.2z"/>
		<path class="st2" d="M54.3,98.8c-2.8,0.2-5.7,0.2-8.6,0c-0.4,0-0.8,0.4-0.9,1.1c2,0.1,3.8,0.1,5.1,0.1c1.4,0,3.2,0,5.1-0.1
			C55.1,99.2,54.7,98.8,54.3,98.8z"/>
		<g>
			<path class="st4" d="M39.6,98.8C39.6,98.8,39.6,98.8,39.6,98.8c0.1-0.4-0.2-0.9-0.6-1c-1.2-0.3-2.5-0.7-3.7-1.1
				c-0.4-0.1-0.8,0.1-1,0.5c0,0,0,0,0,0c0,0.1,0,0.2,0,0.2c1.5,0.8,3.3,1.3,5.1,1.7C39.5,99,39.6,98.9,39.6,98.8z"/>
			<path class="st4" d="M65.7,97.2c-0.1-0.4-0.6-0.6-1-0.5c-1.2,0.4-2.5,0.8-3.7,1.1c-0.4,0.1-0.7,0.5-0.6,1c0,0,0,0,0,0
				c0,0.2,0.1,0.3,0.2,0.4c1.8-0.4,3.6-0.9,5.1-1.7C65.7,97.4,65.7,97.3,65.7,97.2C65.7,97.2,65.7,97.2,65.7,97.2z"/>
		</g>
		<path class="st2" d="M59.8,2.9C60.4,3,60.9,2.6,61,2.1c0,0,0,0,0,0c0-0.2-0.1-0.4-0.3-0.5C56.9,0.6,52.5,0,50,0
			c-2.5,0-6.9,0.6-10.8,1.6C39,1.7,38.9,1.9,39,2.1c0,0,0,0,0,0c0.1,0.5,0.7,0.9,1.2,0.8c3.2-0.7,6.6-1.4,9.8-1.4
			C53.3,1.4,56.6,2.1,59.8,2.9z"/>
		<path class="st0" d="M57.3,21.6c-0.1,0.4-0.5,0.7-0.9,0.7H43.7c-0.4,0-0.8-0.3-0.9-0.7l-1.7-8.2l1.4,9.2c0.1,0.5,0.5,0.8,0.9,0.8
			h13.2c0.5,0,0.9-0.3,0.9-0.8l1.4-9.2L57.3,21.6z"/>
		<path class="st0" d="M57.3,55.5l-14.7-2.6l-3.3,4.9c-0.3,0.4,0,1,0.5,1h13.5c0.2,0,0.4-0.1,0.6-0.2C54.8,57.8,57.3,55.5,57.3,55.5
			z"/>
		<path class="st5" d="M56.9,55.7H43.1c-0.3,0-0.5-0.2-0.5-0.5V53c0-0.3,0.2-0.5,0.5-0.5h13.8c0.3,0,0.5,0.2,0.5,0.5v2.2
			C57.4,55.5,57.2,55.7,56.9,55.7z"/>
		<path class="st6" d="M55,54.8H45c-0.2,0-0.4-0.2-0.4-0.4v-0.7c0-0.2,0.2-0.4,0.4-0.4h10c0.2,0,0.4,0.2,0.4,0.4v0.7
			C55.3,54.6,55.2,54.8,55,54.8z"/>
		<g>
			<path class="st2" d="M41.9,66.9h-1.6v-1.1h4.6v1.1h-1.6v4.8h-1.3V66.9z"/>
			<path class="st2" d="M49.1,70.3h-1.8l-0.4,1.4h-1.4l1.9-5.9H49l1.9,5.9h-1.4L49.1,70.3z M48.8,69.3l-0.1-0.5
				c-0.2-0.6-0.3-1.3-0.5-1.9h0c-0.1,0.6-0.3,1.3-0.5,1.9l-0.1,0.5H48.8z"/>
			<path class="st2" d="M53.4,68.7l-1.5-2.9h1.5l0.5,1.1c0.1,0.3,0.3,0.6,0.4,1h0c0.1-0.4,0.3-0.7,0.4-1l0.5-1.1h1.4l-1.5,2.9l1.6,3
				h-1.5l-0.6-1.2c-0.2-0.3-0.3-0.6-0.4-1h0c-0.1,0.4-0.3,0.7-0.4,1l-0.6,1.2h-1.4L53.4,68.7z"/>
			<path class="st2" d="M58.4,65.8h1.3v5.9h-1.3V65.8z"/>
		</g>
		<g>
			<path class="st5" d="M33.4,5.2c-0.2,0.1-0.4,0.2-0.6,0.2c1.6-0.6,3.2-1.3,4.8-1.9C38,3.4,38.2,3,38,2.6c0,0,0,0,0,0
				c0,0,0-0.1-0.1-0.1c-2,0.6-3.7,1.3-4.8,2.1C33.3,4.8,33.3,5,33.4,5.2z"/>
			<path class="st7" d="M32.8,5.5c0.2-0.1,0.4-0.2,0.6-0.2c-0.1-0.2-0.2-0.4-0.2-0.6c-0.2,0.2-0.4,0.3-0.6,0.5
				c-0.1,0.1-0.2,0.2-0.3,0.4C32.4,5.5,32.6,5.5,32.8,5.5z"/>
			<path class="st5" d="M62.4,3.4c1.6,0.7,3.2,1.4,4.7,2.2c-0.2-0.1-0.4-0.2-0.6-0.3c0.1-0.2,0.2-0.4,0.3-0.7
				c-1.1-0.8-2.8-1.5-4.8-2.1C61.9,2.9,62.1,3.2,62.4,3.4z"/>
			<path class="st7" d="M66.9,4.6c-0.1,0.2-0.2,0.4-0.3,0.7c0.2,0.1,0.4,0.2,0.6,0.3c0.2,0.1,0.4,0.1,0.6,0
				c-0.1-0.2-0.3-0.3-0.4-0.5C67.2,4.9,67.1,4.8,66.9,4.6z"/>
		</g>
		<g>
			<g>
				<path class="st2" d="M29.1,57.8L29.1,57.8c-0.2,0-0.4-0.2-0.4-0.4v-2.2c0-0.2,0.2-0.4,0.4-0.4h0c0.2,0,0.4,0.2,0.4,0.4v2.2
					C29.5,57.6,29.3,57.8,29.1,57.8z"/>
				<path class="st2" d="M29.1,65.8L29.1,65.8c-0.2,0-0.4-0.2-0.4-0.4v-2.2c0-0.2,0.2-0.4,0.4-0.4h0c0.2,0,0.4,0.2,0.4,0.4v2.2
					C29.5,65.6,29.3,65.8,29.1,65.8z"/>
			</g>
			<g>
				<path class="st2" d="M70.9,57.8L70.9,57.8c-0.2,0-0.4-0.2-0.4-0.4v-2.2c0-0.2,0.2-0.4,0.4-0.4h0c0.2,0,0.4,0.2,0.4,0.4v2.2
					C71.3,57.6,71.1,57.8,70.9,57.8z"/>
				<path class="st2" d="M70.9,65.8L70.9,65.8c-0.2,0-0.4-0.2-0.4-0.4v-2.2c0-0.2,0.2-0.4,0.4-0.4h0c0.2,0,0.4,0.2,0.4,0.4v2.2
					C71.3,65.6,71.1,65.8,70.9,65.8z"/>
			</g>
		</g>
	</g>
</g>
</svg>
