<?xml version="1.0" encoding="utf-8"?>
<!-- Generator: Adobe Illustrator 21.1.0, SVG Export Plug-In . SVG Version: 6.00 Build 0)  -->
<svg version="1.1" id="Layer_1" xmlns="http://www.w3.org/2000/svg" xmlns:xlink="http://www.w3.org/1999/xlink" x="0px" y="0px"
	 viewBox="0 0 34 50" style="enable-background:new 0 0 34 50;" xml:space="preserve">
<style type="text/css">
	.st0{fill:#222222;}
	.st1{fill:#FFFFFF;}
	.st2{fill:#F47A16;}
</style>
<path class="st0" d="M32.3,23.8c1-2.1,1.5-4.5,1.5-7C33.8,7.5,26.3,0,17,0S0.2,7.5,0.2,16.8c0,2.5,0.6,4.8,1.5,7l13.5,25.2
	c0.8,1.4,2.8,1.4,3.5,0L32.3,23.8z"/>
<g>
	<path fill="{{ color }}" d="M30.7,23.9c0.9-2,1.3-4.1,1.3-6.4C32,8.9,25.3,2,17,2S2,8.9,2,17.5c0,2.3,0.5,4.4,1.3,6.4l13,23.6
		c0.7,1.3,0.5,1.3,1.1,0L30.7,23.9z"/>
</g>
<g>
	<g>
		<circle class="st2" cx="27.5" cy="6.5" r="6"/>
		<path class="st1" d="M27.5,1c3,0,5.5,2.5,5.5,5.5S30.5,12,27.5,12S22,9.5,22,6.5S24.5,1,27.5,1 M27.5,0C23.9,0,21,2.9,21,6.5
			s2.9,6.5,6.5,6.5S34,10.1,34,6.5S31.1,0,27.5,0L27.5,0z"/>
	</g>
	<g>
		<path class="st1" d="M27.5,7.1L27.5,7.1c-0.3,0-0.5-0.2-0.5-0.5V3.5C27,3.2,27.2,3,27.5,3l0,0C27.8,3,28,3.2,28,3.5v3.1
			C28,6.9,27.8,7.1,27.5,7.1z"/>
	</g>
	<g>
		<path class="st1" d="M29.9,8.5L29.9,8.5c-0.2,0.2-0.5,0.3-0.7,0.1L27.2,7c-0.2-0.2-0.3-0.5-0.2-0.7l0,0c0.2-0.2,0.5-0.3,0.7-0.1
			l1.9,1.6C30,8,30.1,8.3,29.9,8.5z"/>
	</g>
<g>
	 <path id="svg_13" d="m25.880953,23.428562c0,-0.4 -0.1,-0.7 -0.2,-1c0,-0.1 0,-0.2 -0.1,-0.2l-1.6,-3.9l0,0c-0.5,-1.6 -1.3,-3.2 -3.3,-3.2l-7.5,0c-2,0 -2.7,1.6 -3.3,3.1l-1.6,3.9c-0.3,0.4 -0.4,0.8 -0.4,1.3l0,1.2c0,0.2 0,0.4 0.1,0.5c-0.1,0.1 -0.1,0.2 -0.1,0.4l0,3.6c0,0.5 0.4,1 1,1l2,0c0.5,0 1,-0.4 1,-1l0,-1.8l10.4,0l0,1.8c0,0.5 0.4,1 1,1l1.6,0c0.5,0 1,-0.4 1,-1l0,-3.6c0,-0.1 0,-0.2 -0.1,-0.3c0,-0.2 0.1,-0.4 0.1,-0.5l0,-1.3l0,0l0,0zm-14.8,-4.8c0.6,-1.8 1.1,-2.3 2.1,-2.3l7.5,0c1,0 1.6,0.6 2.1,2.3l1.1,2.3c-0.4,-0.1 -0.8,-0.2 -1.2,-0.2l-11.7,0c-0.4,0 -0.8,0.1 -1.1,0.2l1.2,-2.3zm0.9,6.4l-2.1,0c-0.4,0 -0.7,-0.3 -0.7,-0.7c0,-0.4 0.3,-0.7 0.7,-0.7l2.1,0c0.4,0 0.7,0.3 0.7,0.7c0,0.4 -0.3,0.7 -0.7,0.7zm7.4,-0.1l-4.8,0c-0.2,0 -0.4,-0.2 -0.4,-0.4c0,-0.2 0.2,-0.4 0.4,-0.4l4.8,0c0.2,0 0.4,0.2 0.4,0.4c0,0.2 -0.2,0.4 -0.4,0.4zm4.4,0.1l-2.1,0c-0.4,0 -0.7,-0.3 -0.7,-0.7c0,-0.4 0.3,-0.7 0.7,-0.7l2.1,0c0.4,0 0.7,0.3 0.7,0.7c0,0.4 -0.3,0.7 -0.7,0.7z" class="st1"/>
		</g>
</g>
</svg>
