<?xml version="1.0" encoding="utf-8"?>
<!-- Generator: Adobe Illustrator 25.1.0, SVG Export Plug-In . SVG Version: 6.00 Build 0)  -->
<svg version="1.1" id="Layer_1" xmlns="http://www.w3.org/2000/svg" xmlns:xlink="http://www.w3.org/1999/xlink" x="0px" y="0px"
	 viewBox="0 0 24 24" style="enable-background:new 0 0 24 24;" xml:space="preserve">
<style type="text/css">
	.st0{fill:#FFFFFF;}
</style>
<g>
	<path class="st0" d="M0,7.5v2.8C0,10.6,0.4,11,0.7,11l0,0h0.8V6.8H0.8C0.4,6.8,0,7.1,0,7.5L0,7.5z"/>
	<path class="st0" d="M23.3,6.8h-0.8V11h0.8c0.4,0,0.7-0.3,0.7-0.7l0,0V7.5C24.1,7.1,23.7,6.8,23.3,6.8C23.4,6.8,23.4,6.8,23.3,6.8z
		"/>
	<path class="st0" d="M16.7,0.5H7.4c-2.5,0-4.5,2.1-4.5,4.6v13.8c0,0.8,0.9,1.5,1.8,1.5v2.1c0,0.6,0.4,1,1,1h2.1c0.6,0,1-0.4,1-1
		v-2.1h6.3v2.1c0,0.6,0.4,1,1,1h2.1c0.6,0,1-0.4,1-1v-2.1c0.8,0,1.8-0.6,1.8-1.5V5.1C21.2,2.6,19.2,0.5,16.7,0.5z M9,2.1h6.1v1.6H9
		V2.1z M6,18.9c-0.8,0-1.6-0.6-1.6-1.6c0-0.8,0.6-1.6,1.6-1.6c0.8,0,1.6,0.6,1.6,1.6l0,0C7.4,18.2,6.8,18.9,6,18.9L6,18.9z
		 M15.2,17.2v1H8.9v-2.1h6.3V17.2z M18.1,18.9c-0.8,0-1.6-0.6-1.6-1.5c0-0.8,0.6-1.6,1.5-1.6s1.6,0.6,1.6,1.5l0,0
		C19.7,18.2,19,18.9,18.1,18.9L18.1,18.9z M19.7,14.3H4.4V5.1h15.2v9.2H19.7z"/>
</g>
</svg>
