<?xml version="1.0" encoding="utf-8"?>
<!-- Generator: Adobe Illustrator 25.1.0, SVG Export Plug-In . SVG Version: 6.00 Build 0)  -->
<svg version="1.1" id="Layer_1" xmlns="http://www.w3.org/2000/svg" xmlns:xlink="http://www.w3.org/1999/xlink" x="0px" y="0px"
	 viewBox="0 0 24 24" style="enable-background:new 0 0 24 24;" xml:space="preserve">
<style type="text/css">
	.st0{fill:#FFFFFF;}
</style>
<g>
	<path class="st0" d="M23.4,13.1c0-0.4-0.1-0.9-0.3-1.3c0-0.1,0-0.3-0.1-0.3l-2-5l0,0c-0.6-2-1.7-4.1-4.2-4.1H7.2
		c-2.6,0-3.4,2-4.2,4l-2,5c-0.4,0.5-0.6,1.1-0.6,1.7v1.5c0,0.2,0,0.4,0.1,0.6c-0.1,0.2-0.1,0.3-0.1,0.6v4.6c0,0.7,0.6,1.3,1.3,1.3
		h2.6c0.7,0,1.3-0.6,1.3-1.3v-2.6h12.8v2.6c0,0.7,0.6,1.3,1.3,1.3h2.6c0.7,0,1.3-0.6,1.3-1.3v-4.6c0-0.1,0-0.3-0.1-0.4
		c0-0.2,0.1-0.4,0.1-0.6v-1.7H23.4z M4.5,7c0.8-2.3,1.4-2.9,2.7-2.9h9.6c1.3,0,2,0.8,2.7,2.9l1.4,2.9c-0.5-0.1-1-0.2-1.5-0.3h-15
		c-0.5,0-1,0.1-1.4,0.3L4.5,7z M5.6,15.2H3c-0.5,0-0.9-0.4-0.9-0.9s0.4-0.9,0.9-0.9h2.7c0.5,0,0.9,0.4,0.9,0.9
		C6.5,14.8,6.1,15.2,5.6,15.2L5.6,15.2z M15.1,15H9c-0.3,0-0.5-0.2-0.5-0.5S8.7,14,9,14l0,0h6.1c0.3,0,0.5,0.2,0.5,0.5
		C15.6,14.8,15.4,15,15.1,15z M20.7,15.2H18c-0.5,0-0.9-0.4-0.9-0.9s0.4-0.9,0.9-0.9h2.7c0.5,0,0.9,0.4,0.9,0.9
		C21.6,14.8,21.2,15.2,20.7,15.2z"/>
</g>
</svg>
