<svg class="" xmlns="http://www.w3.org/2000/svg" viewBox="0 0 34 50">
  <g class="marker-icon-water-taxi" fill="#fff">
	<rect x="12.6" y="9" class="st2" width="0.8" height="4"/>
	<rect x="12.6" y="14" class="st2" width="0.8" height="1"/>
	<path class="st2" d="M27,13H16.4L19,7H7l2.6,6H7H6v1v13v1h1h20h1v-1V14v-1H27z M17.5,8L13,18.5L8.5,8H17.5z M7,14h2.7l3.3,7l3.3-7
		h7.5L7,26.4V14z M7,27L7,27L7,27L7,27z M12.6,27l5.9-4.4l3.2,4.4H12.6z M27,26.5L22.2,20l4.8-3.6V26.5z M27,15.2l-5.7,4.2v0
		l-0.5,0.4l5.4,7.3h-3.2l-4.2-5.7l-0.8,0.6l0,0l-7,5.2h-3l17.6-13H27V15.2z"/>
	  </g>
</svg>
	