<?xml version="1.0" encoding="utf-8"?>
<!-- Generator: Adobe Illustrator 25.1.0, SVG Export Plug-In . SVG Version: 6.00 Build 0)  -->
<svg version="1.1" id="Layer_1" xmlns="http://www.w3.org/2000/svg" xmlns:xlink="http://www.w3.org/1999/xlink" x="0px" y="0px"
	 viewBox="0 0 24 24" style="enable-background:new 0 0 24 24;" xml:space="preserve">
<style type="text/css">
	.st0{fill:#FFFFFF;}
</style>
<g>
	<path class="st0" d="M6,17.5c0.6,0,1,0.4,1,1s-0.4,1-1,1s-1-0.4-1-1S5.5,17.5,6,17.5 M6,16.5c-1.1,0-2,0.9-2,2s0.9,2,2,2s2-0.9,2-2
		S7.1,16.5,6,16.5z"/>
	<path class="st0" d="M20.1,17.5c0.6,0,1,0.4,1,1s-0.4,1-1,1s-1-0.4-1-1S19.6,17.5,20.1,17.5 M20.1,16.5c-1.1,0-2,0.9-2,2s0.9,2,2,2
		s2-0.9,2-2S21.2,16.5,20.1,16.5z"/>
	<path class="st0" d="M13.1,3.5H1v13.1H0v1.6h3c0.3-1.6,1.8-2.7,3.4-2.5c1.3,0.2,2.3,1.2,2.5,2.5h4L13.1,3.5z"/>
	<path class="st0" d="M20.1,6.5h-5v11.6h2c0.3-1.6,1.8-2.7,3.4-2.5c1.3,0.2,2.3,1.2,2.5,2.5h1V9.5L20.1,6.5z M22.1,13.5h-5v-5h2l3,2
		V13.5z"/>
</g>
</svg>
