<svg xmlns="http://www.w3.org/2000/svg" viewBox="0 0 31.23 31.23"><defs><style>.cls-1{fill:#fff;}</style></defs><g id="Layer_2" data-name="Layer 2"><g id="Layer_1-2" data-name="Layer 1"><rect class="cls-1" x="9.37" width="12.49" height="1.56"/><rect class="cls-1" x="9.37" width="1.56" height="6.25"/><rect class="cls-1" x="20.3" width="1.56" height="6.25"/><rect class="cls-1" x="21.86" y="28.11" width="3.12" height="3.12"/><rect class="cls-1" x="6.25" y="28.11" width="3.12" height="3.12"/><path class="cls-1" d="M21.86,17.18H9.37V14.06H0V26.55a1.47,1.47,0,0,0,1.56,1.56H29.67a1.47,1.47,0,0,0,1.56-1.56V14.06H21.86Z"/><path class="cls-1" d="M29.67,6.25H1.56A1.47,1.47,0,0,0,0,7.81v4.68H10.93v3.13H20.3V12.49H31.23V7.81A1.47,1.47,0,0,0,29.67,6.25Z"/></g></g></svg>