<?xml version="1.0" encoding="utf-8"?>
<!-- Generator: Adobe Illustrator 25.1.0, SVG Export Plug-In . SVG Version: 6.00 Build 0)  -->
<svg version="1.1" id="Layer_1" xmlns="http://www.w3.org/2000/svg" xmlns:xlink="http://www.w3.org/1999/xlink" x="0px" y="0px"
	 viewBox="0 0 24 24" style="enable-background:new 0 0 24 24;" xml:space="preserve">
<style type="text/css">
	.st0{fill:#FFFFFF;}
</style>
<g>
	<path class="st0" d="M10.3,17v5.2c-0.1,0.9,0.6,1.7,1.5,1.8c0.9,0.1,1.7-0.6,1.8-1.5c0-0.1,0-0.2,0-0.4V17c0.1-0.9-0.6-1.7-1.5-1.8
		c-0.9-0.1-1.7,0.6-1.8,1.5C10.3,16.7,10.3,16.8,10.3,17"/>
	<path class="st0" d="M20.9,1.1l-0.3-0.8C20.5,0.1,20.3-0.1,20,0c0,0,0,0,0,0l-1.9,0.9l-3.5,1.5c-0.7-0.7-1.6-1-2.5-1.1
		c-1,0.1-1.9,0.4-2.5,1.1L5.9,0.9L4,0C3.7-0.1,3.5,0,3.4,0.3c0,0,0,0,0,0L3,1.1C2.9,1.3,3,1.6,3.3,1.8l2.1,0.9
		c0.3,0.1,0.5,0,0.6-0.3V2.3l2.8,1.1c-0.3,0.6-0.5,1.3-0.5,2c0,0-0.2,0.1-0.2,0.1C7,5.8,6.3,6.7,6.3,7.8v9.7c0,1.1,0.5,2.1,1.4,2.7
		c0.6,0.4,1.1,0,1.1-0.7v-3.1c0.1-1.8,1.7-3.2,3.5-3c1.6,0.1,2.9,1.4,3,3v3.1c0,0.7,0.5,1.1,1.1,0.7c0.9-0.6,1.4-1.6,1.4-2.7V7.8
		c-0.1-1.1-0.8-1.9-1.8-2.2c0,0-0.2-0.1-0.2-0.1c0-0.7-0.2-1.4-0.5-2l2.8-1.1l0,0.1c0.1,0.2,0.4,0.4,0.6,0.3l2.1-0.9
		C21,1.7,21.1,1.4,20.9,1.1C20.9,1.1,20.9,1.1,20.9,1.1z M11.9,7.1c-0.9,0-1.7-0.7-1.7-1.6s0.7-1.7,1.6-1.7c0.9,0,1.7,0.7,1.7,1.6
		c0,0,0,0,0,0C13.6,6.4,12.9,7.1,11.9,7.1L11.9,7.1z"/>
</g>
</svg>
