<?xml version="1.0" encoding="utf-8"?>
<!-- Generator: Adobe Illustrator 25.1.0, SVG Export Plug-In . SVG Version: 6.00 Build 0)  -->
<svg version="1.1" id="Layer_1" xmlns="http://www.w3.org/2000/svg" xmlns:xlink="http://www.w3.org/1999/xlink" x="0px" y="0px"
	 viewBox="0 0 24 24" style="enable-background:new 0 0 24 24;" xml:space="preserve">
<style type="text/css">
	.st0{fill:#FFFFFF;}
</style>
<g>
	<circle class="st0" cx="4" cy="19.5" r="2"/>
	<circle class="st0" cx="20" cy="19.5" r="2"/>
	<path class="st0" d="M22.6,15.5H20l-2-4h-5v8h4c0-1.7,1.3-3,3-3s3,1.3,3,3h1v-2.7C24,16.1,23.4,15.5,22.6,15.5
		C22.6,15.5,22.6,15.5,22.6,15.5z M14.4,15.5v-2.7h2.8l1.4,2.7H14.4z"/>
	<path class="st0" d="M0,14.5v5h1c0-1.7,1.3-3,3-3s3,1.3,3,3h4v-5H0z"/>
	<rect x="8" y="10.5" class="st0" width="3" height="3"/>
	<rect x="4" y="10.5" class="st0" width="3" height="3"/>
	<rect y="10.5" class="st0" width="3" height="3"/>
	<rect x="8" y="6.5" class="st0" width="3" height="3"/>
	<rect x="8" y="2.5" class="st0" width="3" height="3"/>
	<rect x="4" y="6.5" class="st0" width="3" height="3"/>
	<rect x="4" y="2.5" class="st0" width="3" height="3"/>
	<rect y="6.5" class="st0" width="3" height="3"/>
</g>
</svg>
