<?xml version="1.0" encoding="utf-8"?>
<!-- Generator: Adobe Illustrator 25.1.0, SVG Export Plug-In . SVG Version: 6.00 Build 0)  -->
<svg version="1.1" id="Layer_1" xmlns="http://www.w3.org/2000/svg" xmlns:xlink="http://www.w3.org/1999/xlink" x="0px" y="0px"
	 viewBox="0 0 24 24" style="enable-background:new 0 0 24 24;" xml:space="preserve">
<style type="text/css">
	.st0{fill:#FFFFFF;}
</style>
<g>
	<path class="st0" d="M21.8,15.5l-0.1-0.2c-0.4-0.5-1.1-0.9-1.7-1.1h-0.1c-0.6-1.9-1.5-4.1-1.6-4.5c-0.5-0.7-1.2-1.1-2-1.3
		c0,0-0.6-0.4-4.3-0.4c-1.4-0.1-2.9,0-4.3,0.4C6.9,8.5,6.2,9,5.7,9.7c-0.2,0.4-1,2.6-1.6,4.5H4c-0.7,0.2-1.3,0.6-1.8,1.1l-0.1,0.2
		c-0.1,0.2,0,0.5,0.2,0.6c0.1,0,0.1,0,0.2,0h1l-0.2,0.5c-0.1,0.2-0.1,0.5-0.1,0.7v6c0,0.4,0.3,0.7,0.7,0.7c0,0,0,0,0,0h2.3
		c0.4,0,0.7-0.3,0.7-0.7l0,0v-1.2h9.9v1.2c0,0.4,0.3,0.7,0.6,0.7c0,0,0,0,0,0H20c0.4,0,0.7-0.3,0.7-0.7c0,0,0,0,0,0v-6
		c0-0.2,0-0.5-0.1-0.7c0-0.2-0.1-0.3-0.1-0.5h1C21.8,16.1,22,15.9,21.8,15.5z M6.8,10.5c0.1-0.2,0.2-1,5.2-1s5.1,0.8,5.2,1
		s0.7,2.2,1.2,4.3c-2-0.5-4.1-0.7-6.1-0.6h-0.5c-2.1-0.1-4.1,0.1-6.1,0.6C6.1,12.7,6.7,10.8,6.8,10.5L6.8,10.5z M8,18.7
		c-0.1,0.3-0.4,0.6-0.7,0.5l-2.4-0.4c-0.3,0-0.6-0.4-0.5-0.7c0,0,0,0,0,0l0.1-0.6c0.1-0.3,0.4-0.6,0.7-0.5l2.4,0.4
		c0.3,0,0.6,0.4,0.5,0.7c0,0,0,0,0,0L8,18.7z M15.1,19.7c0,0.4-0.3,0.6-0.7,0.6H9.6c-0.3,0-0.6-0.3-0.6-0.6v-0.6h6.2V19.7z
		 M15.1,17.3H8.9v-0.7c0-0.3,0.3-0.6,0.6-0.6c0,0,0,0,0,0h5c0.3,0,0.6,0.2,0.6,0.6L15.1,17.3z M19.1,18.9l-2.4,0.4
		c-0.3,0-0.7-0.2-0.7-0.5c0,0,0,0,0,0l-0.1-0.6c0-0.3,0.2-0.7,0.5-0.7c0,0,0,0,0,0l2.4-0.4c0.3,0,0.7,0.2,0.7,0.5l0.1,0.6
		C19.7,18.5,19.5,18.8,19.1,18.9L19.1,18.9z"/>
	<path class="st0" d="M20.3,3.7l-2-1.7h-1l-1,1h-1V2l-1,1h-1l0.1-1l-1.1,1h-1V2h-2V0.6C9.3,0.3,9,0,8.6,0H5.9C5.6,0,5.3,0.3,5.3,0.6
		v5.7C5.3,6.7,5.6,7,5.9,7c0,0,0,0,0,0h2.7C9,7,9.3,6.7,9.3,6.4c0,0,0,0,0,0V5h9L20.3,3.7z M7.3,5.7C7.3,5.8,7.2,6,7,6l0,0H6.5
		C6.4,6,6.3,5.8,6.3,5.7l0,0V1.3C6.3,1.1,6.4,1,6.5,1l0,0H7c0.1,0,0.3,0.1,0.3,0.3v0L7.3,5.7z"/>
</g>
</svg>
