<?xml version="1.0" encoding="utf-8"?>
<!-- Generator: Adobe Illustrator 25.1.0, SVG Export Plug-In . SVG Version: 6.00 Build 0)  -->
<svg version="1.1" id="Layer_1" xmlns="http://www.w3.org/2000/svg" xmlns:xlink="http://www.w3.org/1999/xlink" x="0px" y="0px"
	 viewBox="0 0 24 24" style="enable-background:new 0 0 24 24;" xml:space="preserve">
<style type="text/css">
	.st0{fill:#FFFFFF;}
</style>
<g>
	<path class="st0" d="M13.1,1.8v17h10.6c0,0-2.9-0.4-3.2-1.1C19.1,14.3,18.3,4.4,13.1,1.8z"/>
	<polygon class="st0" points="10.9,18.7 10.9,2.8 4.6,18.7 	"/>
	<path class="st0" d="M0.3,19.8L4.6,24h2.1c0-0.6,0.5-1.1,1.1-1.1h1.1c0.6,0,1.1,0.5,1.1,1.1H12c0-0.6,0.5-1.1,1.1-1.1h1.1
		c0.6,0,1.1,0.5,1.1,1.1h2.1c0-0.6,0.5-1.1,1.1-1.1h1.1c0.6,0,1.1,0.5,1.1,1.1h1.1l2.1-2.1L0.3,19.8z"/>
	<path class="st0" d="M13.1,0.7v1.1c-2.3-1.3-5.1-1.3-7.4,0C8.8-1.4,13.1,0.7,13.1,0.7z"/>
</g>
</svg>
