<?xml version="1.0" encoding="utf-8"?>
<!-- Generator: Adobe Illustrator 25.1.0, SVG Export Plug-In . SVG Version: 6.00 Build 0)  -->
<svg version="1.1" id="Layer_1" xmlns="http://www.w3.org/2000/svg" xmlns:xlink="http://www.w3.org/1999/xlink" x="0px" y="0px"
	 viewBox="0 0 29 29" style="enable-background:new 0 0 29 29;" xml:space="preserve">
<style type="text/css">
	.st0{fill:#FFFFFF;}
</style>
<g>
	<path class="st0" d="M22.2,9.7c0-0.4-0.4-0.6-0.8-0.6h-2c-0.7,0-1.2,0.3-1.2,0.6c0,0.3,0.5,0.6,1.2,0.6h2
		C21.8,10.3,22.2,10.1,22.2,9.7"/>
	<path class="st0" d="M12.7,21.3V27c-0.1,1,0.6,1.9,1.6,2c1,0.1,1.9-0.6,2-1.6c0-0.1,0-0.3,0-0.4v-5.6c0.1-1-0.6-1.9-1.6-2
		c-1-0.1-1.9,0.6-2,1.6C12.7,21.1,12.7,21.2,12.7,21.3"/>
	<path class="st0" d="M18.6,25.1c0.8-0.6,1.3-1.5,1.3-2.5v-8.1c0-1.1-0.6-2.1-1.5-2.7c-0.6-0.4-1.4,0-1.9,0.4
		c-0.6,0.4-1.3,0.6-2,0.7c-0.7,0-1.5-0.2-2.1-0.7c-0.5-0.4-1.4-0.8-1.9-0.4C9.6,12.4,9,13.4,9,14.5v8.1c0,1,0.5,2,1.3,2.6
		c0.5,0.4,1,0,1-0.7v-3.1c0.1-1.7,1.6-2.9,3.3-2.8c1.5,0.1,2.7,1.3,2.8,2.8v3.1c0,0.7,0.5,1,1,0.7"/>
	<path class="st0" d="M16.5,0h-4c-1.8,0-3.3,1.4-3.4,3.2v3.5c0,0.7,0.3,1.2,0.6,1.2s0.6-0.5,0.6-1.2V3.2c-0.1-1.3,0.9-2.5,2.2-2.6
		c0,0,0,0,0,0h4c1.3,0.1,2.3,1.2,2.2,2.6c0,0,0,0,0,0v3.5c0,0.7,0.3,1.2,0.6,1.2s0.6-0.5,0.6-1.2V3.2C19.8,1.4,18.3,0,16.5,0"/>
	<path class="st0" d="M12.9,9.7c0-0.9,0.7-1.6,1.6-1.6c0.9,0,1.6,0.7,1.6,1.6c0,0.9-0.7,1.6-1.6,1.6c0,0,0,0,0,0
		C13.6,11.3,12.9,10.5,12.9,9.7z M17.3,9.7c0-1.6-1.3-2.8-2.8-2.8c-1.6,0-2.8,1.3-2.8,2.8c0,1.6,1.3,2.8,2.8,2.8l0,0
		C16.1,12.5,17.3,11.2,17.3,9.7"/>
	<path class="st0" d="M10.9,9.7c0-0.3-0.5-0.6-1.2-0.6h-2c-0.4,0-0.8,0.2-0.8,0.6c0,0.4,0.4,0.6,0.8,0.6h2
		C10.3,10.3,10.9,10,10.9,9.7"/>
</g>
</svg>
