<?xml version="1.0" encoding="utf-8"?>
<!-- Generator: Adobe Illustrator 25.1.0, SVG Export Plug-In . SVG Version: 6.00 Build 0)  -->
<svg version="1.1" id="Layer_1" xmlns="http://www.w3.org/2000/svg" xmlns:xlink="http://www.w3.org/1999/xlink" x="0px" y="0px"
	 viewBox="0 0 29 29" style="enable-background:new 0 0 29 29;" xml:space="preserve">
<style type="text/css">
	.st0{fill:#FFFFFF;}
</style>
<g>
	<path class="st0" d="M22,2h-6V1l1-1h-5l1,1v1H5v2h2v5l4-2h7l4,2V4h2V2H22z M13.5,5.5h-5v-2h5V5.5z M20.5,5.5h-5v-2h5V5.5z"/>
	<path class="st0" d="M17.3,9h-1.8v20l4.3-1.9C20.1,23.3,27,14,27,14L17.3,9z M17.9,14.6c-1.1-0.5-1.8-1.5-1.5-2.2s1.5-1,2.6-0.5
		s1.8,1.5,1.5,2.2S19,15.1,17.9,14.6z"/>
	<path class="st0" d="M11.6,9L2,14c0,0,7.2,9.2,7.6,13.1l3.9,1.9V9L11.6,9z M11.1,14.6c-1.1,0.5-2.3,0.3-2.6-0.5s0.3-1.8,1.4-2.2
		s2.3-0.3,2.6,0.5S12.2,14.1,11.1,14.6z"/>
</g>
</svg>
