<?xml version="1.0" encoding="UTF-8"?>
<!DOCTYPE svg PUBLIC "-//W3C//DTD SVG 1.1//EN" "http://www.w3.org/Graphics/SVG/1.1/DTD/svg11.dtd">
<svg xmlns="http://www.w3.org/2000/svg" version="1.1" width="512px" height="512px" style="shape-rendering:geometricPrecision; text-rendering:geometricPrecision; image-rendering:optimizeQuality; fill-rule:evenodd; clip-rule:evenodd" xmlns:xlink="http://www.w3.org/1999/xlink">
<g><path style="opacity:0.972" fill="#000000" d="M 309.5,143.5 C 310.873,143.343 312.207,143.51 313.5,144C 354.356,177.023 395.356,209.857 436.5,242.5C 406.839,243.333 377.172,243.833 347.5,244C 326.539,251.932 305.539,259.765 284.5,267.5C 220.216,263.429 155.883,259.762 91.5,256.5C 94.6149,249.61 98.2816,242.943 102.5,236.5C 88.6732,233.668 74.8399,231.002 61,228.5C 62.1654,218.502 63.6654,208.502 65.5,198.5C 109.096,205.766 152.762,212.599 196.5,219C 225.922,220.915 254.256,216.249 281.5,205C 293.779,199.527 305.779,193.527 317.5,187C 313.071,183.705 308.571,180.538 304,177.5C 292.624,180.888 281.124,183.388 269.5,185C 266.462,175.346 264.128,165.513 262.5,155.5C 278.392,151.944 294.059,147.944 309.5,143.5 Z"/></g>
<g><path style="opacity:0.985" fill="#000000" d="M 511.5,272.5 C 511.5,282.833 511.5,293.167 511.5,303.5C 503.14,303.169 494.807,303.502 486.5,304.5C 470.252,326.575 449.252,342.408 423.5,352C 407.833,357 392.167,362 376.5,367C 278.477,367.981 180.477,367.648 82.5,366C 70.215,363.794 58.5483,359.794 47.5,354C 31.2942,342.736 15.2942,331.236 -0.5,319.5C -0.5,308.833 -0.5,298.167 -0.5,287.5C 8.46698,285.342 17.467,283.342 26.5,281.5C 113.339,286.445 200.173,291.445 287,296.5C 309.029,289.268 330.862,281.434 352.5,273C 405.499,272.5 458.499,272.333 511.5,272.5 Z"/></g>
</svg>
