<?xml version="1.0" encoding="utf-8"?>
<!-- Generator: Adobe Illustrator 25.1.0, SVG Export Plug-In . SVG Version: 6.00 Build 0)  -->
<svg version="1.1" id="Layer_1" xmlns="http://www.w3.org/2000/svg" xmlns:xlink="http://www.w3.org/1999/xlink" x="0px" y="0px"
	 viewBox="0 0 24 24" style="enable-background:new 0 0 24 24;" xml:space="preserve">
<style type="text/css">
	.st0{fill:#FFFFFF;}
</style>
<g>
	<path class="st0" d="M23.9,12.5l-0.3-0.8c-0.2-0.5-0.6-0.8-1-0.8h-1c-0.7-2.1-1.6-4.7-1.9-5.2c-0.4-0.7-1.1-1.2-1.9-1.4V1H6.3v3.3
		C5.5,4.5,4.8,5,4.3,5.7c-0.2,0.4-1.1,3-1.9,5.2h-1c-0.5,0-0.9,0.4-1,0.8l-0.3,0.8c-0.1,0.3,0,0.6,0.2,0.7c0.1,0,0.2,0.1,0.3,0.1h1
		l-0.2,0.6c-0.1,0.3-0.1,0.6-0.1,0.9v7.3C1.2,22.6,1.6,23,2,23h3.1C5.6,23,6,22.6,6,22.1v-1.6h12v1.6c0,0.5,0.4,0.9,0.8,0.9h3.1
		c0.5,0,0.8-0.4,0.8-0.9v-7.3c0-0.3,0-0.6-0.1-0.9l-0.2-0.6h1c0.3,0,0.6-0.2,0.6-0.5C24,12.7,24,12.6,23.9,12.5z M7.2,2.1h1v1h1v-1
		h1v1h1v-1h1v1h1v-1h1v1h1v-1h1v1h-1v1h-1v-1h-1v1h-1v-1h-1v1h-1v-1h-1v1h-1v-1h-1V2.1z M5.6,6.7c0.1-0.3,0.2-1.2,6.3-1.2
		s6.3,1,6.3,1c0.6,1.6,1.1,3.1,1.6,4.8c-2.5,0.7-5.2,1-7.8,0.9c-2.6,0.1-5.3-0.2-7.8-0.9C4.5,9.7,5,8.1,5.6,6.7L5.6,6.7z M5.9,17
		H4.7c-1.1,0-2.3-0.2-2.3-0.9v-0.9c0-0.9,0.5-0.9,1-0.9c0.8,0.1,1.5,0.4,2.2,0.8c0.7,0.3,1.6,0.6,1.6,1.2C7.2,16.8,6.9,17,5.9,17
		L5.9,17z M14.5,17.7H9.3v-1h5.2V17.7z M14.5,15.6H9.3v-1h5.2V15.6z M19.2,17H18c-1,0-1.3-0.2-1.3-0.8c0-0.5,0.8-0.8,1.6-1.2
		c0.7-0.4,1.5-0.6,2.3-0.7c0.5,0,1,0,1,0.9v0.9l0,0C21.6,16.9,20.4,17,19.2,17L19.2,17z"/>
</g>
</svg>
