<?xml version="1.0" encoding="utf-8"?>
<!-- Generator: Adobe Illustrator 25.1.0, SVG Export Plug-In . SVG Version: 6.00 Build 0)  -->
<svg version="1.1" id="Layer_1" xmlns="http://www.w3.org/2000/svg" xmlns:xlink="http://www.w3.org/1999/xlink" x="0px" y="0px"
	 viewBox="0 0 24 24" style="enable-background:new 0 0 24 24;" xml:space="preserve">
<style type="text/css">
	.st0{fill:#FFFFFF;}
</style>
<g>
	<path class="st0" d="M23.3,6.8h-0.7V4.1C22.5,3.5,22,3,21.4,3h-2.1V0.4C19.3,0.2,19.2,0,19,0c-0.1,0-0.1,0-0.2,0.1l-0.9,1.4v3.2
		l-0.3-0.8c-0.3-1-1.3-1.7-2.3-1.7H8.7c-1,0-2,0.7-2.3,1.7L6.2,4.7V1.5L5.2,0.1C5.1,0,4.9,0,4.8,0.2c0,0.1-0.1,0.1-0.1,0.2V3H2.6
		C2,3,1.5,3.5,1.5,4.1v2.7H0.7C0.3,6.8,0,7.1,0,7.5c0,0,0,0,0,0v3c0,0.4,0.3,0.8,0.7,0.8h0.7v1.1c0,0.6,0.5,1,1.1,1.1h2.1v0.7H4.1
		c-0.9,0-1.6,0.7-1.6,1.6v3.6H1.7V21c0,0.4,0.3,0.7,0.7,0.7h0.7v1.5c0,0.4,0.3,0.7,0.7,0.8c0,0,0,0,0,0h2.2c0.4,0,0.7-0.3,0.7-0.8
		v-1.4h10.2v1.5c0,0.4,0.3,0.7,0.7,0.8h2.2c0.4,0,0.7-0.3,0.7-0.7c0,0,0,0,0,0v-1.5h0.7c0.4,0,0.7-0.3,0.7-0.7v-1.6h-0.7v-3.6
		c0-0.9-0.7-1.6-1.6-1.6h-0.6v-0.7h2.1c0.6,0,1.1-0.5,1.1-1.1v-1.1h0.7c0.4,0,0.7-0.4,0.7-0.8v-3C24,7.1,23.6,6.8,23.3,6.8z
		 M2.6,12.8c-0.2,0-0.4-0.2-0.4-0.4v-1.2c0.4,0,0.7-0.3,0.7-0.7c0,0,0,0,0,0v-3c0-0.4-0.3-0.7-0.7-0.7l0,0V4.1
		c0-0.2,0.2-0.3,0.4-0.3h2.1v9H2.6z M6.9,18c0,0.4-0.3,0.7-0.7,0.7H5.4c-0.4,0-0.7-0.3-0.7-0.7c0,0,0,0,0,0v-2.2
		C4.7,15.4,5,15,5.4,15c0,0,0,0,0,0h0.7c0.4,0,0.7,0.3,0.7,0.7c0,0,0,0,0,0L6.9,18z M15.7,18.8c0,0.4-0.3,0.7-0.7,0.7H9.1
		c-0.4,0-0.7-0.3-0.7-0.7V18h7.3V18.8z M15.7,17.3H8.3v-0.8h7.3V17.3z M15.7,15.8H8.3V15h7.3V15.8z M15.7,14.3H8.3v-0.8
		c0-0.4,0.3-0.7,0.7-0.7c0,0,0,0,0,0H15c0.4,0,0.7,0.3,0.7,0.7c0,0,0,0,0,0L15.7,14.3z M16.4,10.5H7.6c-0.4,0-0.7-0.3-0.7-0.8
		c0,0,0,0,0,0V7.5c0-0.4,0.3-0.7,0.7-0.7h8.8c0.4,0,0.7,0.3,0.7,0.7v2.2C17.1,10.1,16.8,10.5,16.4,10.5
		C16.4,10.5,16.4,10.5,16.4,10.5L16.4,10.5z M19.3,18c0,0.4-0.3,0.7-0.7,0.7c0,0,0,0,0,0h-0.7c-0.4,0-0.7-0.3-0.7-0.7v-2.2
		c0-0.4,0.3-0.7,0.7-0.7c0,0,0,0,0,0h0.7c0.4,0,0.7,0.3,0.7,0.7c0,0,0,0,0,0V18z M21.8,6.8L21.8,6.8c-0.4,0-0.7,0.3-0.7,0.7
		c0,0,0,0,0,0v3c0,0.4,0.3,0.7,0.7,0.8c0,0,0,0,0,0l0,0v1.1c0,0.2-0.2,0.4-0.4,0.4h-2.1v-9h2.1c0.2,0,0.4,0.2,0.4,0.4V6.8z"/>
</g>
</svg>
