<?xml version="1.0" encoding="utf-8"?>
<!-- Generator: Adobe Illustrator 25.1.0, SVG Export Plug-In . SVG Version: 6.00 Build 0)  -->
<svg version="1.1" id="Layer_1" xmlns="http://www.w3.org/2000/svg" xmlns:xlink="http://www.w3.org/1999/xlink" x="0px" y="0px"
	 viewBox="0 0 24 24" style="enable-background:new 0 0 24 24;" xml:space="preserve">
<style type="text/css">
	.st0{fill:#FFFFFF;}
</style>
<g>
	<path class="st0" d="M17.2,19.2c-1.1,0-2.1-0.4-2.9-1.1c-1.7,1.5-4.2,1.5-5.9,0c-0.8,0.7-1.9,1.1-2.9,1.1c-1.1,0-2.1-0.4-2.9-1.1
		c-0.7,0.6-1.6,1-2.5,1.1V22c0.9-0.1,1.8-0.5,2.5-1.1c1.7,1.5,4.2,1.5,5.9,0c1.7,1.5,4.2,1.5,5.9,0c1.7,1.5,4.2,1.5,5.9,0
		c0.7,0.6,1.6,1,2.5,1.1v-2.9c-0.9-0.1-1.8-0.5-2.5-1.1C19.3,18.8,18.2,19.2,17.2,19.2"/>
	<path class="st0" d="M21.9,4.9h1.4V4.5l-4.2-2.4H0v2.8h2.8v5.7H0v5.7c0.9-0.1,1.8-0.5,2.5-1.1c1.7,1.5,4.2,1.5,5.9,0
		c1.7,1.5,4.2,1.5,5.9,0c1.7,1.5,4.2,1.5,5.9,0c0.7,0.6,1.6,1,2.5,1.1l1.4-4.2h-4.2L21.9,4.9z M10.6,10.6H4.2V4.9h6.4V10.6z
		 M12,10.6V4.9h7.8l-1.7,5.7H12z"/>
</g>
</svg>
