<?xml version="1.0" encoding="utf-8"?>
<!-- Generator: Adobe Illustrator 25.1.0, SVG Export Plug-In . SVG Version: 6.00 Build 0)  -->
<svg version="1.1" id="Layer_1" xmlns="http://www.w3.org/2000/svg" xmlns:xlink="http://www.w3.org/1999/xlink" x="0px" y="0px"
	 viewBox="0 0 24 24" style="enable-background:new 0 0 24 24;" xml:space="preserve">
<style type="text/css">
	.st0{fill:#FFFFFF;}
</style>
<g>
	<path class="st0" d="M5.8,16.5c1.1,0,2.2-0.4,3.1-1.2c1.8,1.6,4.4,1.6,6.2,0C16,16,17,16.4,18,16.5l5.9-6c0-2.8-2.5-7.3-8.9-7.5
		l-1.6-1.5H9V3H0.1v1.5h1.5C4,4.5,6,6.5,6,8.9v1.6H1.6c-0.8,0-1.5,0.6-1.5,1.4c0,0.1,0,0.1,0,0.1v4.4C1,16.4,2,16,2.7,15.3
		C3.6,16.1,4.7,16.5,5.8,16.5 M9,5.3h5.7c5.9,0,6.9,4.2,6.9,5.2H9L9,5.3z"/>
	<path class="st0" d="M18.2,19.5c-1.1,0-2.2-0.4-3.1-1.2c-1.8,1.6-4.4,1.6-6.2,0c-0.9,0.7-2,1.2-3.1,1.2c-1.1,0-2.2-0.4-3.1-1.2
		C1.9,19,1,19.4,0,19.5v3c1-0.1,2-0.5,2.7-1.1c0.9,0.7,2,1.2,3.1,1.2c1.1,0,2.2-0.4,3.1-1.2c0.9,0.7,2,1.2,3.1,1.2
		c1.1,0,2.2-0.4,3.1-1.2c1.8,1.6,4.4,1.6,6.2,0c0.7,0.6,1.7,1,2.6,1.1v-3c-1-0.1-1.9-0.5-2.6-1.1C20.5,19.1,19.4,19.5,18.2,19.5"/>
</g>
</svg>
