<?xml version="1.0" encoding="utf-8"?>
<!-- Generator: Adobe Illustrator 25.1.0, SVG Export Plug-In . SVG Version: 6.00 Build 0)  -->
<svg version="1.1" id="Layer_1" xmlns="http://www.w3.org/2000/svg" xmlns:xlink="http://www.w3.org/1999/xlink" x="0px" y="0px"
	 viewBox="0 0 24 24" style="enable-background:new 0 0 24 24;" xml:space="preserve">
<style type="text/css">
	.st0{fill:#FFFFFF;}
</style>
<g>
	<path class="st0" d="M19.8,11.3v1.4h-2.8V5.6h2.8V4.2L15.5,0H4.2L0,4.2v1.4h2.9v7.1H0v5.6c0.9-0.1,1.8-0.5,2.5-1
		c1.7,1.4,4.2,1.4,5.9,0c1.7,1.5,4.2,1.5,5.9,0c0.8,0.7,1.9,1.1,3,1c0.5,0,1-0.1,1.4-0.3l5.4-5.4v-1.4H19.8z M15.5,12.7H4.2V5.6
		h11.3L15.5,12.7z"/>
	<path class="st0" d="M17.2,21.2c-1.1,0-2.1-0.4-2.9-1.1c-1.7,1.5-4.2,1.5-5.9,0c-1.7,1.5-4.2,1.5-5.9,0c-0.7,0.6-1.6,1-2.5,1v2.8
		c0.9-0.1,1.8-0.5,2.5-1c1.7,1.5,4.2,1.5,5.9,0c1.7,1.5,4.2,1.5,5.9,0c1.7,1.5,4.2,1.5,5.9,0c0.7,0.6,1.6,1,2.5,1v-2.8
		c-0.9-0.1-1.8-0.5-2.5-1C19.3,20.8,18.2,21.2,17.2,21.2"/>
</g>
</svg>
