<?xml version="1.0" encoding="utf-8"?>
<!-- Generator: Adobe Illustrator 25.1.0, SVG Export Plug-In . SVG Version: 6.00 Build 0)  -->
<svg version="1.1" id="Layer_1" xmlns="http://www.w3.org/2000/svg" xmlns:xlink="http://www.w3.org/1999/xlink" x="0px" y="0px"
	 viewBox="0 0 24 24" style="enable-background:new 0 0 24 24;" xml:space="preserve">
<style type="text/css">
	.st0{fill:#FFFFFF;}
</style>
<g>
	<path class="st0" d="M0,12.8v3.9c0.3,0.1,0.6,0.1,0.9,0.1c1,0,2-0.4,2.8-1c0.8,0.7,1.7,1,2.8,1c1,0,2-0.4,2.8-1
		c1.6,1.4,4,1.4,5.5,0c1.6,1.4,4,1.4,5.5,0c0.5,0.4,1,0.7,1.6,0.9l2.1-3.8h-2.1c-0.1-0.6-0.9-3.6-6.2-6.5l0,0l-1.6-3.6l0.6-0.2V1.9
		c-1.8,0.2-3.5,0.6-5.3,1C7.6,3.4,5.7,4,4,4.8H0v2.7h1.3v5.4H0z M17.9,12.8h-7.2V7.4C14.6,8,18,10.9,17.9,12.8 M11.7,3.9
		c0.4-0.2,0.8-0.4,1.2-0.6l1,2.3c-1.1-0.4-2.3-0.7-3.5-0.8C10.9,4.4,11.3,4.1,11.7,3.9 M2.7,7.4h6.7v5.4H2.7V7.4z"/>
	<path class="st0" d="M23.1,19.5c-1,0-2-0.4-2.8-1c-1.6,1.4-4,1.4-5.5,0c-1.6,1.4-4,1.4-5.5,0c-1.6,1.4-4,1.4-5.6,0
		c-0.8,0.7-1.7,1-2.8,1c-0.3,0-0.6,0-0.9-0.1V22c0.3,0.1,0.6,0.1,0.9,0.1c1,0,2-0.4,2.8-1c0.8,0.7,1.8,1,2.8,1c1,0,2-0.4,2.8-1
		c1.6,1.4,4,1.4,5.5,0c1.6,1.4,4,1.4,5.5,0c0.8,0.7,1.8,1,2.8,1c0.3,0,0.6,0,0.9-0.1v-2.6C23.7,19.5,23.4,19.5,23.1,19.5"/>
</g>
</svg>
